<svg width="18" height="16" viewBox="0 0 18 16" fill="none" xmlns="http://www.w3.org/2000/svg">
<path d="M12.7474 0.5C11.2974 0.5 9.90573 1.175 8.9974 2.24167C8.08906 1.175 6.6974 0.5 5.2474 0.5C2.68073 0.5 0.664062 2.51667 0.664062 5.08333C0.664062 8.23333 3.4974 10.8 7.78906 14.7L8.9974 15.7917L10.2057 14.6917C14.4974 10.8 17.3307 8.23333 17.3307 5.08333C17.3307 2.51667 15.3141 0.5 12.7474 0.5ZM9.08073 13.4583L8.9974 13.5417L8.91406 13.4583C4.9474 9.86667 2.33073 7.49167 2.33073 5.08333C2.33073 3.41667 3.58073 2.16667 5.2474 2.16667C6.53073 2.16667 7.78073 2.99167 8.2224 4.13333H9.78073C10.2141 2.99167 11.4641 2.16667 12.7474 2.16667C14.4141 2.16667 15.6641 3.41667 15.6641 5.08333C15.6641 7.49167 13.0474 9.86667 9.08073 13.4583Z" fill="#999999"/>
</svg>
