<svg width="9" height="16" viewBox="0 0 9 16" fill="none" xmlns="http://www.w3.org/2000/svg">
<path d="M4.625 0.5C6.905 0.5 8.75 2.345 8.75 4.625L8.75 12.5C8.75 14.1575 7.4075 15.5 5.75 15.5C4.0925 15.5 2.75 14.1575 2.75 12.5L2.75 6.125C2.75 5.09 3.59 4.25 4.625 4.25C5.66 4.25 6.5 5.09 6.5 6.125L6.5 11.75L5 11.75L5 6.0575C5 5.645 4.25 5.645 4.25 6.0575L4.25 12.5C4.25 13.325 4.925 14 5.75 14C6.575 14 7.25 13.325 7.25 12.5L7.25 4.625C7.25 3.1775 6.0725 2 4.625 2C3.1775 2 2 3.1775 2 4.625L2 11.75L0.5 11.75L0.5 4.625C0.5 2.345 2.345 0.5 4.625 0.5Z" fill="#FF4736"/>
</svg>
