<svg width="775" height="489" viewBox="0 0 775 489" fill="none" xmlns="http://www.w3.org/2000/svg">
<path d="M35.4156 481.806L281.168 480.529L346.672 480.51H368.373L434.016 480.483L733.859 480.401C733.859 480.401 802.443 392.496 729.185 309.006C653.227 222.44 616.295 292.94 592.949 171.089C534.169 -135.623 -46.8771 42.8921 105.525 303.892C160.402 397.868 -2.49266 347.919 35.4156 481.806Z" fill="#EBF3FA"/>
<path d="M261.5 417.794L260.17 417.065C259.488 416.692 258.983 416.063 258.764 415.317C258.546 414.571 258.633 413.769 259.006 413.087L265.11 401.945C265.484 401.263 266.114 400.758 266.861 400.54C267.608 400.321 268.411 400.409 269.093 400.782L270.996 401.823C271.066 401.856 271.129 401.903 271.18 401.962C271.232 402.02 271.271 402.088 271.295 402.162C271.319 402.236 271.328 402.314 271.321 402.391C271.314 402.469 271.291 402.544 271.255 402.612C271.218 402.681 271.167 402.741 271.106 402.789C271.046 402.838 270.975 402.873 270.9 402.893C270.825 402.914 270.747 402.919 270.67 402.908C270.593 402.897 270.519 402.871 270.453 402.831L268.549 401.787C268.134 401.561 267.646 401.508 267.191 401.641C266.737 401.774 266.354 402.082 266.127 402.496L260.012 413.63C259.786 414.046 259.733 414.534 259.866 414.988C259.999 415.442 260.307 415.824 260.722 416.052L262.051 416.78C262.467 417.007 262.955 417.059 263.409 416.926C263.864 416.793 264.247 416.486 264.474 416.071L268.525 408.674C268.558 408.603 268.606 408.541 268.664 408.489C268.722 408.438 268.791 408.399 268.865 408.375C268.938 408.351 269.017 408.342 269.094 408.349C269.171 408.356 269.247 408.378 269.315 408.415C269.383 408.452 269.444 408.503 269.492 408.563C269.54 408.624 269.576 408.694 269.596 408.769C269.617 408.844 269.622 408.923 269.611 409C269.6 409.077 269.574 409.151 269.534 409.217L265.48 416.62C265.296 416.958 265.047 417.257 264.747 417.499C264.447 417.741 264.103 417.922 263.733 418.031C263.363 418.14 262.976 418.175 262.593 418.135C262.209 418.094 261.838 417.978 261.5 417.794Z" fill="#AFCDFB"/>
<path d="M255.834 429.496L253.452 428.194C251.242 426.982 250.497 424.071 251.794 421.702L260.973 404.948C261.006 404.878 261.053 404.815 261.112 404.764C261.17 404.712 261.238 404.673 261.312 404.649C261.386 404.625 261.464 404.616 261.542 404.623C261.619 404.63 261.694 404.653 261.763 404.69C261.831 404.726 261.891 404.777 261.94 404.838C261.988 404.899 262.023 404.969 262.044 405.044C262.064 405.118 262.069 405.197 262.059 405.274C262.048 405.351 262.021 405.425 261.981 405.491L252.803 422.245C251.807 424.058 252.348 426.273 254.004 427.178L256.386 428.482C258.042 429.39 260.192 428.65 261.193 426.851L271.647 407.766C272.642 405.953 272.101 403.738 270.445 402.833C270.319 402.757 270.227 402.636 270.188 402.494C270.15 402.352 270.167 402.2 270.237 402.071C270.307 401.941 270.424 401.844 270.564 401.798C270.704 401.752 270.856 401.762 270.989 401.825C273.199 403.037 273.944 405.948 272.647 408.317L262.188 427.398C260.902 429.765 258.047 430.708 255.834 429.496Z" fill="#AFCDFB"/>
<path opacity="0.6" d="M485.316 84.482H192.909C185.721 84.482 179.895 90.3064 179.895 97.4911V342.802C179.895 349.987 185.721 355.811 192.909 355.811H485.316C492.504 355.811 498.331 349.987 498.331 342.802V97.4911C498.331 90.3064 492.504 84.482 485.316 84.482Z" fill="white"/>
<path d="M189.612 84.482H488.614C489.89 84.482 491.154 84.7332 492.333 85.2213C493.512 85.7094 494.583 86.4249 495.485 87.3268C496.387 88.2287 497.103 89.2994 497.592 90.4778C498.08 91.6562 498.331 92.9192 498.331 94.1946V114.577H179.895V94.1946C179.895 91.6187 180.918 89.1482 182.741 87.3268C184.563 85.5053 187.034 84.482 189.612 84.482Z" fill="#699DEE"/>
<path d="M192.771 99.3553C192.771 98.6431 192.982 97.9466 193.377 97.3541C193.773 96.7616 194.335 96.2997 194.993 96.0267C195.652 95.7538 196.376 95.6821 197.075 95.8207C197.774 95.9593 198.416 96.302 198.92 96.8055C199.424 97.309 199.768 97.9506 199.907 98.6491C200.046 99.3477 199.975 100.072 199.702 100.73C199.43 101.388 198.968 101.951 198.376 102.346C197.783 102.742 197.086 102.953 196.374 102.953C195.419 102.953 194.503 102.574 193.828 101.9C193.152 101.225 192.772 100.31 192.771 99.3553Z" fill="#DDE7FE"/>
<path d="M207.889 99.3553C207.888 98.6429 208.099 97.9464 208.495 97.3538C208.89 96.7613 209.453 96.2993 210.111 96.0264C210.77 95.7536 211.494 95.682 212.193 95.8209C212.892 95.9597 213.534 96.3027 214.038 96.8065C214.542 97.3102 214.885 97.9521 215.024 98.6508C215.163 99.3496 215.092 100.074 214.819 100.732C214.546 101.39 214.084 101.952 213.491 102.348C212.898 102.743 212.201 102.954 211.488 102.953C210.534 102.953 209.619 102.573 208.944 101.899C208.269 101.224 207.889 100.309 207.889 99.3553Z" fill="#DDE7FE"/>
<path d="M223.002 99.3553C223.001 98.6429 223.212 97.9464 223.608 97.3538C224.004 96.7613 224.566 96.2993 225.225 96.0264C225.883 95.7536 226.607 95.682 227.307 95.8209C228.006 95.9597 228.648 96.3027 229.152 96.8065C229.656 97.3102 229.999 97.9521 230.138 98.6508C230.277 99.3496 230.205 100.074 229.932 100.732C229.659 101.39 229.197 101.952 228.604 102.348C228.011 102.743 227.314 102.954 226.602 102.953C225.647 102.953 224.732 102.573 224.057 101.899C223.382 101.224 223.003 100.309 223.002 99.3553Z" fill="#DDE7FE"/>
<path opacity="0.5" d="M295.398 138.48H205.131V228.707H295.398V138.48Z" fill="#CDE0FB"/>
<path opacity="0.5" d="M391.742 145.204H319.941C319.493 145.204 319.05 145.116 318.636 144.945C318.222 144.774 317.846 144.523 317.529 144.207C317.212 143.89 316.961 143.514 316.789 143.101C316.618 142.687 316.529 142.244 316.529 141.796C316.529 140.891 316.889 140.024 317.529 139.384C318.169 138.745 319.036 138.385 319.941 138.385H391.742C392.19 138.385 392.634 138.474 393.048 138.645C393.461 138.816 393.837 139.068 394.154 139.384C394.471 139.701 394.722 140.077 394.893 140.491C395.064 140.905 395.152 141.348 395.152 141.796C395.152 142.244 395.064 142.687 394.893 143.1C394.722 143.514 394.47 143.89 394.154 144.206C393.837 144.523 393.461 144.774 393.047 144.945C392.633 145.116 392.19 145.204 391.742 145.204Z" fill="#7C9AF2"/>
<path opacity="0.5" d="M477.599 140.63H405.801C405.353 140.63 404.909 140.542 404.495 140.371C404.081 140.2 403.705 139.949 403.388 139.633C403.071 139.316 402.82 138.941 402.648 138.527C402.477 138.113 402.389 137.67 402.389 137.222C402.389 136.318 402.748 135.45 403.388 134.811C404.028 134.171 404.896 133.812 405.801 133.812H477.599C478.504 133.812 479.372 134.171 480.012 134.811C480.651 135.45 481.011 136.318 481.011 137.222C481.011 137.67 480.923 138.113 480.751 138.527C480.58 138.941 480.328 139.316 480.011 139.633C479.695 139.949 479.318 140.2 478.904 140.371C478.49 140.542 478.047 140.63 477.599 140.63Z" fill="#7C9AF2"/>
<g opacity="0.3">
<path opacity="0.3" d="M405.954 171.453H318.74C318.45 171.453 318.162 171.396 317.894 171.285C317.625 171.175 317.381 171.012 317.176 170.807C316.97 170.601 316.807 170.358 316.696 170.09C316.585 169.821 316.527 169.534 316.527 169.243C316.527 168.953 316.585 168.666 316.696 168.397C316.807 168.129 316.97 167.885 317.176 167.68C317.381 167.475 317.625 167.312 317.894 167.201C318.162 167.091 318.45 167.034 318.74 167.034H405.951C406.242 167.034 406.529 167.091 406.797 167.202C407.065 167.313 407.309 167.476 407.514 167.681C407.72 167.886 407.882 168.13 407.993 168.398C408.105 168.666 408.162 168.953 408.162 169.243C408.162 169.829 407.929 170.391 407.515 170.805C407.101 171.219 406.54 171.452 405.954 171.453Z" fill="#BDD1F9"/>
<path opacity="0.3" d="M439.11 171.453H416.087C415.501 171.453 414.939 171.22 414.524 170.806C414.11 170.391 413.877 169.829 413.877 169.243C413.877 168.657 414.11 168.096 414.524 167.681C414.939 167.267 415.501 167.034 416.087 167.034H439.11C439.696 167.034 440.259 167.267 440.673 167.681C441.088 168.096 441.321 168.657 441.321 169.243C441.321 169.829 441.088 170.391 440.673 170.806C440.259 171.22 439.696 171.453 439.11 171.453Z" fill="#BDD1F9"/>
<path opacity="0.3" d="M351.638 185.16H318.74C318.45 185.161 318.162 185.104 317.894 184.993C317.625 184.882 317.381 184.719 317.176 184.514C316.97 184.309 316.807 184.065 316.696 183.797C316.585 183.529 316.527 183.241 316.527 182.951C316.526 182.66 316.583 182.371 316.694 182.102C316.804 181.833 316.967 181.588 317.173 181.382C317.378 181.176 317.623 181.013 317.892 180.902C318.161 180.79 318.449 180.733 318.74 180.733H351.638C351.928 180.733 352.216 180.791 352.484 180.902C352.752 181.013 352.996 181.175 353.201 181.381C353.406 181.586 353.569 181.829 353.68 182.097C353.791 182.365 353.848 182.653 353.848 182.943C353.849 183.234 353.793 183.522 353.682 183.791C353.572 184.06 353.409 184.304 353.204 184.51C352.998 184.716 352.754 184.88 352.486 184.991C352.217 185.103 351.929 185.16 351.638 185.16Z" fill="#BDD1F9"/>
<path opacity="0.3" d="M404.948 185.16H359.857C359.271 185.16 358.708 184.928 358.294 184.513C357.879 184.099 357.646 183.537 357.646 182.951C357.646 182.365 357.879 181.803 358.294 181.389C358.708 180.974 359.271 180.742 359.857 180.742H404.948C405.534 180.742 406.097 180.974 406.511 181.389C406.926 181.803 407.159 182.365 407.159 182.951C407.159 183.537 406.926 184.099 406.511 184.513C406.097 184.928 405.534 185.16 404.948 185.16Z" fill="#BDD1F9"/>
<path opacity="0.3" d="M439.11 185.16H416.087C415.501 185.16 414.939 184.928 414.524 184.513C414.11 184.099 413.877 183.537 413.877 182.951C413.877 182.365 414.11 181.803 414.524 181.389C414.939 180.974 415.501 180.742 416.087 180.742H439.11C439.696 180.742 440.259 180.974 440.673 181.389C441.088 181.803 441.321 182.365 441.321 182.951C441.321 183.537 441.088 184.099 440.673 184.513C440.259 184.928 439.696 185.16 439.11 185.16Z" fill="#BDD1F9"/>
<path opacity="0.3" d="M363.391 197.012H318.74C318.45 197.012 318.162 196.955 317.894 196.844C317.625 196.733 317.381 196.571 317.176 196.366C316.97 196.16 316.807 195.917 316.696 195.648C316.585 195.38 316.527 195.093 316.527 194.802C316.527 194.512 316.585 194.224 316.696 193.956C316.807 193.688 316.97 193.444 317.176 193.239C317.381 193.034 317.625 192.871 317.894 192.76C318.162 192.649 318.45 192.593 318.74 192.593H363.389C363.679 192.593 363.967 192.649 364.235 192.76C364.504 192.871 364.748 193.034 364.953 193.239C365.159 193.444 365.322 193.688 365.433 193.956C365.544 194.224 365.602 194.512 365.602 194.802C365.602 195.388 365.369 195.95 364.954 196.365C364.54 196.779 363.977 197.012 363.391 197.012Z" fill="#BDD1F9"/>
<path opacity="0.3" d="M448.655 197.012H375.628C375.042 197.012 374.48 196.779 374.065 196.365C373.651 195.95 373.418 195.388 373.418 194.802C373.418 194.216 373.651 193.654 374.065 193.24C374.48 192.826 375.042 192.593 375.628 192.593H448.655C448.945 192.593 449.233 192.65 449.501 192.761C449.769 192.872 450.013 193.035 450.218 193.24C450.423 193.445 450.586 193.689 450.697 193.957C450.808 194.225 450.866 194.512 450.866 194.802C450.866 195.388 450.633 195.95 450.218 196.365C449.804 196.779 449.241 197.012 448.655 197.012Z" fill="#BDD1F9"/>
</g>
<g opacity="0.3">
<path opacity="0.3" d="M405.954 214.999H318.74C318.153 214.999 317.591 214.766 317.176 214.352C316.761 213.937 316.527 213.374 316.527 212.787C316.527 212.497 316.585 212.209 316.696 211.941C316.807 211.673 316.97 211.429 317.176 211.224C317.381 211.019 317.625 210.856 317.894 210.745C318.162 210.634 318.45 210.578 318.74 210.578H405.951C406.242 210.578 406.529 210.635 406.797 210.746C407.065 210.857 407.309 211.02 407.514 211.225C407.72 211.43 407.882 211.674 407.993 211.942C408.105 212.21 408.162 212.497 408.162 212.787C408.162 213.373 407.929 213.935 407.515 214.35C407.102 214.764 406.54 214.998 405.954 214.999Z" fill="#BDD1F9"/>
<path opacity="0.3" d="M439.11 214.999H416.087C415.501 214.999 414.939 214.765 414.524 214.351C414.11 213.936 413.877 213.374 413.877 212.787C413.877 212.201 414.11 211.639 414.524 211.225C414.939 210.811 415.501 210.578 416.087 210.578H439.11C439.696 210.578 440.259 210.811 440.673 211.225C441.088 211.639 441.321 212.201 441.321 212.787C441.321 213.374 441.088 213.936 440.673 214.351C440.259 214.765 439.697 214.999 439.11 214.999Z" fill="#BDD1F9"/>
<path opacity="0.3" d="M351.638 228.704H318.74C318.45 228.705 318.162 228.648 317.894 228.537C317.625 228.426 317.381 228.263 317.176 228.058C316.97 227.853 316.807 227.609 316.696 227.341C316.585 227.073 316.527 226.785 316.527 226.495C316.527 226.204 316.585 225.917 316.696 225.649C316.807 225.38 316.97 225.137 317.176 224.932C317.381 224.726 317.625 224.564 317.894 224.453C318.162 224.342 318.45 224.285 318.74 224.285H351.638C351.928 224.285 352.216 224.343 352.484 224.454C352.752 224.565 352.996 224.727 353.201 224.933C353.406 225.138 353.569 225.381 353.68 225.649C353.791 225.917 353.848 226.205 353.848 226.495C353.848 226.785 353.791 227.072 353.68 227.34C353.569 227.608 353.406 227.852 353.201 228.057C352.996 228.262 352.752 228.425 352.484 228.536C352.216 228.647 351.928 228.704 351.638 228.704Z" fill="#BDD1F9"/>
<path opacity="0.3" d="M404.948 228.704H359.857C359.271 228.704 358.708 228.471 358.294 228.057C357.879 227.643 357.646 227.081 357.646 226.495C357.646 225.909 357.879 225.347 358.294 224.933C358.708 224.518 359.271 224.285 359.857 224.285H404.948C405.534 224.285 406.097 224.518 406.511 224.933C406.926 225.347 407.159 225.909 407.159 226.495C407.159 227.081 406.926 227.643 406.511 228.057C406.097 228.471 405.534 228.704 404.948 228.704Z" fill="#BDD1F9"/>
</g>
<path d="M245.603 151.927H254.926L280.11 209.54H269.479L263.675 195.726H236.606L230.72 209.54H220.416L245.603 151.927ZM259.994 186.826L250.1 163.941L240.288 186.826H259.994Z" fill="#BDD1F9"/>
<path d="M255.554 246.879H205.131V256.608H255.554V246.879Z" fill="#F99746"/>
<path d="M255.554 256.611H205.131V266.34H255.554V256.611Z" fill="#ED7D2B"/>
<path d="M255.554 266.34H205.131V276.069H255.554V266.34Z" fill="#474FEA"/>
<path d="M292.707 252.388H264.975C264.418 252.388 263.883 252.167 263.488 251.773C263.094 251.379 262.872 250.845 262.871 250.287C262.872 249.73 263.094 249.196 263.488 248.802C263.883 248.408 264.418 248.187 264.975 248.187H292.707C293.265 248.187 293.799 248.408 294.193 248.802C294.587 249.196 294.809 249.73 294.809 250.287C294.809 250.844 294.587 251.379 294.193 251.773C293.799 252.167 293.265 252.388 292.707 252.388Z" fill="#BDD1F9"/>
<path d="M283.359 259.793H264.964C264.406 259.793 263.871 259.572 263.477 259.178C263.082 258.784 262.86 258.25 262.859 257.693C262.86 257.135 263.082 256.601 263.477 256.207C263.871 255.813 264.406 255.592 264.964 255.592H283.359C283.917 255.592 284.451 255.813 284.845 256.207C285.239 256.601 285.461 257.136 285.461 257.693C285.461 258.25 285.239 258.784 284.845 259.178C284.451 259.572 283.917 259.793 283.359 259.793Z" fill="#BDD1F9"/>
<path d="M255.554 297.187H205.131V317.069H255.554V297.187Z" fill="#F99746"/>
<path d="M255.554 312.161H205.131V326.38H255.554V312.161Z" fill="#B5453C"/>
<path d="M205.131 297.187L223.219 312.376L205.131 326.38V297.187Z" fill="#474FEA"/>
<path d="M292.707 302.696H264.975C264.418 302.696 263.883 302.475 263.488 302.081C263.094 301.687 262.872 301.153 262.871 300.595C262.872 300.038 263.094 299.503 263.488 299.11C263.883 298.716 264.418 298.494 264.975 298.494H292.707C293.265 298.494 293.799 298.716 294.193 299.11C294.587 299.504 294.809 300.038 294.809 300.595C294.809 301.152 294.587 301.687 294.193 302.081C293.799 302.475 293.265 302.696 292.707 302.696Z" fill="#BDD1F9"/>
<path d="M283.359 310.104H264.964C264.406 310.104 263.871 309.883 263.477 309.489C263.082 309.095 262.86 308.561 262.859 308.003C262.86 307.446 263.082 306.911 263.477 306.517C263.871 306.122 264.406 305.901 264.964 305.9H283.359C283.917 305.901 284.451 306.123 284.845 306.517C285.239 306.911 285.461 307.446 285.461 308.003C285.461 308.56 285.239 309.095 284.845 309.489C284.451 309.883 283.917 310.104 283.359 310.104Z" fill="#BDD1F9"/>
<path d="M501.546 109.054C501.546 109.054 502.859 124.697 499.294 124.46C495.73 124.224 488.691 117.338 474.48 118.457C460.269 119.577 442.887 122.683 432.385 104.098C421.882 85.512 445.824 80.161 445.824 80.161L501.559 109.054H501.546Z" fill="#233862"/>
<path d="M471.345 107.908L542.936 113.791L544.424 110.609L475.787 59.9667L406.455 51.8683L405.123 54.719L471.345 107.908Z" fill="#2B478B"/>
<path d="M520.067 161.8C519.916 161.273 519.611 160.802 519.192 160.447C518.773 160.093 518.258 159.87 517.713 159.808C517.167 159.746 516.616 159.847 516.128 160.098C515.64 160.35 515.237 160.74 514.971 161.22C514.705 161.7 514.587 162.248 514.633 162.795C514.678 163.342 514.885 163.863 515.227 164.292C515.568 164.722 516.03 165.04 516.553 165.208C517.075 165.375 517.636 165.384 518.164 165.232C518.871 165.029 519.469 164.553 519.826 163.91C520.183 163.266 520.269 162.507 520.067 161.8Z" fill="#F99746"/>
<path d="M517.679 162.569C520.55 162.346 521.214 188.462 521.214 188.462C521.214 188.462 519.341 189.343 518.422 189.136C517.503 188.93 517.03 185.402 517.03 185.402L516.943 189.101C516.943 189.101 513.791 189.21 512.701 188.443C512.701 188.443 513.128 162.925 517.671 162.569H517.679Z" fill="#F99746"/>
<path d="M518.615 163.159L518.096 106.1L517.726 105.826L480.331 78.1745L478.988 79.9898L516.01 107.364L516.848 163.061L518.615 163.159Z" fill="#F99746"/>
<path d="M409.586 372.619H567.388C573.512 372.619 579.386 375.051 583.717 379.38C588.048 383.709 590.481 389.58 590.481 395.702V408.747C590.481 411.847 589.87 414.917 588.683 417.781C587.496 420.645 585.757 423.248 583.564 425.44C581.37 427.632 578.767 429.371 575.901 430.558C573.036 431.744 569.965 432.355 566.863 432.355H409.586V372.619Z" fill="#FCECDB"/>
<path d="M725.398 397.194V406.179C725.413 410.775 724.272 415.302 722.081 419.343C717.842 427.12 709.96 432.346 700.937 432.346H404.74C402.779 432.346 401.205 430.648 401.205 428.555V427.197C401.205 425.101 402.793 423.392 404.74 423.392H585.298C586.273 422.119 587.122 420.754 587.832 419.316C589.584 415.766 590.49 411.86 590.48 407.902V396.488C590.482 394.439 590.237 392.398 589.748 390.409C588.964 387.201 587.54 384.184 585.561 381.538H404.74C402.779 381.538 401.205 379.84 401.205 377.734V376.391C401.205 374.296 402.793 372.587 404.74 372.587H702.429C712.918 372.587 721.765 380.109 724.511 390.39C725.106 392.609 725.404 394.897 725.398 397.194Z" fill="#699DEE"/>
<path d="M724.511 390.422H589.749C588.964 387.214 587.54 384.197 585.562 381.552H404.74C402.779 381.552 401.205 379.854 401.205 377.747V376.405C401.205 374.31 402.793 372.6 404.74 372.6H702.429C712.918 372.619 721.765 380.142 724.511 390.422Z" fill="#548EE2"/>
<path d="M409.586 402.483L431.516 403.488L409.586 404.092V402.483Z" fill="#F4D2B8"/>
<path d="M409.586 411.856L461.762 412.859L409.586 413.465V411.856Z" fill="#F4D2B8"/>
<path d="M540.996 478.681H386.604C380.691 478.681 375.02 476.333 370.839 472.154C366.658 467.975 364.309 462.307 364.309 456.397V453.169C364.309 447.619 366.515 442.296 370.441 438.372C374.367 434.448 379.692 432.243 385.244 432.243H540.996V478.714V478.681Z" fill="#F99746"/>
<path d="M709.527 478.681H533.564C527.788 478.681 522.249 476.388 518.165 472.306C514.081 468.223 511.786 462.687 511.786 456.913V453.522C511.786 447.876 514.03 442.462 518.024 438.47C522.018 434.478 527.435 432.235 533.083 432.235H709.527V478.706V478.681Z" fill="#FCECDB"/>
<path d="M500.154 478.681H715.458C717.245 478.681 718.693 477.233 718.693 475.447V474.966C718.693 473.18 717.245 471.732 715.458 471.732H500.154C498.367 471.732 496.918 473.18 496.918 474.966V475.447C496.918 477.233 498.367 478.681 500.154 478.681Z" fill="#F99746"/>
<path d="M500.154 439.17H715.458C717.245 439.17 718.693 437.722 718.693 435.936V435.455C718.693 433.669 717.245 432.221 715.458 432.221H500.154C498.367 432.221 496.918 433.669 496.918 435.455V435.936C496.918 437.722 498.367 439.17 500.154 439.17Z" fill="#F99746"/>
<path d="M709.519 455.454L685.545 456.234L709.519 456.704V455.454Z" fill="#F4D2B8"/>
<path d="M709.519 444.76L652.484 445.543L709.519 446.013V444.76Z" fill="#F4D2B8"/>
<path d="M653.072 445.385C654.653 446.788 655.787 448.623 656.335 450.663C656.484 451.265 656.569 451.88 656.588 452.5C656.724 456.848 656.588 466.727 656.588 466.727L663.803 461.791L671 466.727V453.353C671 450.823 670.383 448.364 669.236 446.755C668.692 445.972 668.007 445.396 667.243 445.396L653.072 445.385Z" fill="#699DEE"/>
<path d="M653.072 445.385C654.653 446.788 655.787 448.623 656.335 450.663L670.796 450.859C670.796 450.859 670.228 446.16 667.243 445.385H653.072Z" fill="#568CDB"/>
<path d="M369.898 304.487H522.423C528.899 304.487 535.11 307.058 539.689 311.635C544.268 316.212 546.841 322.42 546.841 328.893V347.789C546.841 354.408 544.21 360.756 539.527 365.437C534.845 370.118 528.493 372.747 521.871 372.747H369.898V304.487Z" fill="#FCECDB"/>
<path d="M546.914 330.97V345.661C546.876 351.936 543.967 357.379 539.693 360.29C537.599 361.739 535.116 362.521 532.57 362.534H365.23C363.27 362.534 361.68 364.437 361.68 366.774V368.519C361.68 370.858 363.27 372.755 365.23 372.755H654.293C662.588 372.755 669.918 367.834 674.344 360.301C677.286 355.203 678.816 349.415 678.776 343.53V331.94C678.789 327.852 678.014 323.799 676.492 320.004C672.776 310.827 664.902 304.498 655.789 304.498H365.23C363.27 304.498 361.68 306.4 361.68 308.734V310.465C361.68 312.808 363.27 314.705 365.23 314.705H533.07C537.083 314.705 540.713 316.743 543.249 320.004C545.64 323.159 546.928 327.012 546.914 330.97Z" fill="#AFCDFB"/>
<path d="M361.697 366.774V368.519C361.697 370.858 363.288 372.755 365.248 372.755H654.311C662.606 372.755 669.936 367.834 674.362 360.301H539.7C537.606 361.75 535.123 362.532 532.577 362.545H365.232C363.282 362.54 361.697 364.442 361.697 366.774Z" fill="#A4C4F4"/>
<path d="M369.898 338.614L391.35 339.761L369.898 340.454V338.614Z" fill="#F4D2B8"/>
<path d="M369.898 322.907L420.93 324.053L369.898 324.744V322.907Z" fill="#F4D2B8"/>
<path d="M420.408 323.825C420.408 323.825 417.039 325.999 415.924 329.548C415.718 330.193 415.6 330.862 415.574 331.538C415.389 336.266 415.574 346.963 415.574 346.963L405.631 341.614L395.713 346.963V332.464C395.713 329.722 396.564 327.054 398.144 325.309C398.91 324.461 399.84 323.825 400.892 323.825H420.408Z" fill="#F99746"/>
<path d="M420.406 323.825C420.406 323.825 417.037 325.999 415.922 329.548L395.996 329.76C395.996 329.76 396.776 324.665 400.89 323.825H420.406Z" fill="#ED7D2B"/>
<path d="M166.4 366.706C166.4 366.706 197.549 380.272 203.201 380.022C208.854 379.772 243.712 369.423 243.712 369.423L242.823 375.402C242.823 375.402 215.936 390.86 206.537 391.738C197.294 392.599 165.636 383.435 162.583 381.5C159.529 379.565 157.515 368.665 166.4 366.706Z" fill="#ED985F"/>
<path d="M161.72 316.806C161.72 316.806 150.228 314.631 144.505 318.8C134.132 326.369 133.589 352.458 129.695 356.344C125.802 360.23 116.444 358.572 115.612 378.682C114.78 398.792 119.339 400.472 113.905 409.448C108.47 418.424 116.205 427.409 116.205 427.409C116.205 427.409 113.037 422.454 114.394 418.878C114.394 418.878 115.713 426.759 120.731 428.621C125.75 430.482 126.49 431.827 127.292 434.542C127.292 434.542 170.091 412.619 170.137 397.069C170.184 381.519 178.566 366.119 174.447 359.382C174.447 359.382 176.279 362.263 176.505 365.469C176.505 365.469 178.971 360.743 174.694 356.344C170.418 351.944 179.713 342.837 178.337 332.293C177.391 325.053 172.31 317.121 161.72 316.806Z" fill="#233862"/>
<path d="M170.184 381.522C167.449 383.424 164.018 384.982 159.714 385.976C143.572 389.705 137.384 376.068 135.062 366.706C136.749 365.774 138.611 365.202 140.53 365.026C141.696 364.891 142.925 364.798 143.942 364.755C145.753 363.366 148.455 357.689 149.051 348.868L149.812 349.071L162.533 352.553C162.533 352.553 161.949 356.594 161.663 360.415C161.443 363.404 161.408 366.263 161.976 366.961C162.968 367.176 163.564 367.317 163.564 367.317C166.219 371.83 168.436 376.587 170.184 381.522Z" fill="#FFB27D"/>
<path d="M162.533 352.55C162.533 352.55 161.948 356.588 161.665 360.412C154.458 359.692 151.111 352.833 149.809 349.069L162.533 352.55Z" fill="#ED985F"/>
<path d="M164.684 356.344C164.684 356.344 147.578 355.401 148.331 344.761C149.084 334.122 147.379 326.825 158.333 326.986C169.287 327.146 171.112 331.334 171.734 334.962C172.357 338.59 169.154 356.314 164.684 356.344Z" fill="#FFB27D"/>
<path d="M171.652 329.01C169.24 325.619 167.196 326.178 166.007 327.062C157.035 321.26 150.475 328.421 150.475 328.421C148.784 335.973 142.963 339.951 142.963 339.951C142.963 339.951 145.937 342.095 153.251 340.767C155.483 340.359 157.555 338.94 159.355 337.171C157.238 340.126 154.727 342.777 151.891 345.052C160.752 341.704 165.053 330.029 165.485 328.793C166.461 329.804 168.373 331.986 168.857 334.024C169.515 336.793 172.35 341.125 173.99 341.052C173.987 341.049 175.268 334.092 171.652 329.01Z" fill="#233862"/>
<path d="M130.19 416.288C128.643 408.407 123.608 376.856 128.643 366.706C130.454 363.062 137.553 362.733 145.339 363.051C147.764 364.616 156.997 370.524 160.793 369.788L161.005 369.739C162.791 369.29 163.452 368.037 161.976 366.956C164.869 366.767 167.774 366.95 170.621 367.499C173.327 368.008 180.627 371.782 180.627 371.782C180.627 371.782 176.951 378.419 171.532 380.71C172.454 388.949 171.084 392.583 162.53 411.614C155.306 427.686 163.495 442.165 163.495 442.165C163.495 442.165 120.957 476.352 120.721 458.946C120.555 445.845 132.164 426.376 130.19 416.288Z" fill="#F9DDBF"/>
<path d="M165.616 479.342C166.759 479.213 167.86 478.837 168.843 478.239C169.825 477.641 170.665 476.836 171.304 475.879C171.51 475.572 171.728 475.241 171.962 474.89C176.804 467.553 178.688 445.124 189.58 421.221C192.233 415.402 201.754 414.356 204.351 407.777C204.351 407.777 210.74 386.455 192.116 385.824C173.492 385.194 142.243 445.154 141.745 451.443C141.272 457.533 129.437 483.421 165.616 479.342Z" fill="#DD6D22"/>
<path d="M239.621 478.852H213.126C213.126 478.852 212.136 474.627 213.876 471.751C215.415 469.208 214.825 467.759 213.683 465.653C215.09 466.262 216.616 466.549 218.148 466.493C219.469 466.417 220.866 465.819 222.09 465.107C223.232 466.409 228.117 471.942 229.643 473.037C231.375 474.279 239.099 473.836 239.621 478.852Z" fill="#233862"/>
<path d="M204.957 391.99C206.553 403.948 212.784 441.7 223.779 460.117C227.313 466.055 214.848 469.384 214.782 469.357C213.108 468.92 210.321 466.254 209.035 465.096C200.109 457.063 181.983 434.284 181.983 416.041C181.983 407.141 181.825 390.14 188.301 385.821C192.295 383.161 204.323 387.237 204.957 391.99Z" fill="#ED7D2B"/>
<path d="M149.809 478.852C149.809 478.852 150.791 477.494 152.504 474.893C154.543 471.806 156.799 465.732 159.534 457.946C162.408 449.774 165.82 439.719 170.083 429.256C171.399 426.025 172.802 422.756 174.281 419.495C176.935 413.674 184.232 414.478 186.829 407.899C186.829 407.899 196.959 385.093 178.338 384.465C159.717 383.838 124.326 445.472 122.292 451.443C120.066 457.976 109.204 485.103 149.809 478.852Z" fill="#F99746"/>
<path d="M220.178 478.852H193.675C193.675 478.852 192.685 474.627 194.425 471.751C195.967 469.208 195.374 467.759 194.235 465.653C195.642 466.262 197.167 466.549 198.699 466.493C200.02 466.417 201.418 465.819 202.641 465.107C203.781 466.409 208.666 471.942 210.191 473.037C211.918 474.279 219.642 473.836 220.178 478.852Z" fill="#2B478B"/>
<path d="M159.534 457.943C162.408 449.774 165.82 439.719 170.083 429.257C168.971 421.329 166.57 414.394 162.53 411.592C162.53 411.6 152.737 441.931 159.534 457.943Z" fill="#ED7D2B"/>
<path d="M189.485 391.142C191.081 403.1 193.329 441.689 204.324 460.117C207.858 466.055 195.393 469.384 195.325 469.357C193.653 468.92 190.863 466.254 189.58 465.096C180.654 457.055 162.533 434.287 162.533 416.033C162.533 407.133 172.984 390.846 179.458 386.525C183.446 383.873 188.851 386.389 189.485 391.142Z" fill="#F99746"/>
<path d="M167.887 350.224C167.887 350.224 166.269 349.585 161.721 349.952C161.721 349.952 161.963 351.727 165.318 351.9C167.218 352.004 167.887 350.224 167.887 350.224Z" fill="white"/>
<path d="M247.02 356.885L241.525 346.973L229.639 380.133L236.65 387.658L247.02 356.885Z" fill="#163560"/>
<path d="M218.327 362.689L207.275 394.246L236.649 387.658L247.019 356.884L218.327 362.689Z" fill="#1C468A"/>
<path d="M207.862 392.653L207.348 391.754L217.804 361.89L218.329 362.689L207.862 392.653Z" fill="#EFDECE"/>
<path d="M217.805 361.89L245.653 356.474L247.021 356.884L218.329 362.689L217.805 361.89Z" fill="#FCECDB"/>
<path d="M247.02 356.885L241.079 347.457L237.289 358.102L245.652 356.474L247.02 356.885Z" fill="#EFDECE"/>
<path d="M226.809 367.26C225.855 367.075 223.818 366.304 221.73 365.733C222.35 365.252 223.038 364.662 223.231 364.056C223.601 362.888 223.848 362.51 222.614 362.88C221.379 363.249 217.062 365.23 217.062 365.23C214.615 365.945 212.35 369.413 212.35 369.413C212.35 369.413 181.984 380.087 178.338 380.272C172.683 380.544 135.063 366.706 135.063 366.706C126.183 368.665 128.176 379.571 131.232 381.506C134.288 383.441 161.356 393.284 177.4 393.463C185.527 393.558 215.085 374.568 215.085 374.568C215.085 374.568 218.541 372.989 221.257 373.481C223.973 373.973 230.264 373.481 231.621 371.261C232.978 369.04 228.413 367.567 226.809 367.26Z" fill="#FFB27D"/>
<path d="M154.445 373.535C154.445 373.535 151.082 384.183 139.525 386.607C139.525 386.607 120.441 380.729 129.943 367.736C129.943 367.736 139.337 360.757 154.445 373.535Z" fill="#F9DDBF"/>
<path d="M246.529 368.062C246.537 367.771 246.504 367.479 246.428 367.198C246.428 367.198 243.709 362.893 242.812 362.716C240.093 362.173 240.093 365.755 240.675 368.062C241.083 369.553 241.855 370.92 242.921 372.04L242.812 375.408C247.399 372.888 246.529 368.062 246.529 368.062Z" fill="#FFB27D"/>
<path d="M541.44 360.768C546.432 369.595 552.764 373.035 552.764 373.035L579.21 373.22C579.21 373.22 537.631 354.034 541.44 360.768Z" fill="#233862"/>
<path d="M561.272 428.936C561.954 429.729 562.036 430.613 561.688 431.553C561.044 433.289 558.947 435.222 556.522 437.146C556.212 437.393 555.935 437.619 555.707 437.828L555.519 437.991L555.375 438.119C553.105 440.184 553.95 440.665 549.867 444.858C545.207 449.633 542.023 449.698 541.12 449.252C540.359 448.875 541.936 446.334 543.679 443.48C543.763 443.342 543.844 443.209 543.931 443.065C544.165 442.684 544.394 442.298 544.625 441.918C546.672 438.483 546.164 436.86 545.712 431.721C545.353 427.547 539.383 408.369 539.383 408.369L548.254 406.904C548.254 406.904 550.815 422.161 553.738 424.531C555.301 425.792 557.063 425.819 558.567 426.756C558.673 426.822 558.776 426.89 558.879 426.957C559.761 427.508 560.566 428.173 561.272 428.936Z" fill="#FFB27D"/>
<path d="M561.273 428.936C561.956 429.729 562.037 430.613 561.689 431.553C560.904 433.287 558.859 435.208 556.505 437.129C556.197 437.379 555.926 437.61 555.689 437.828L555.501 437.991L555.357 438.119C553.087 440.184 553.933 440.665 549.849 444.858C545.189 449.633 542.005 449.698 541.103 449.252C540.342 448.875 541.918 446.334 543.661 443.48C546.904 442.241 549.762 440.167 551.945 437.469C554.754 433.936 556.643 429.387 558.557 426.756C558.663 426.822 558.767 426.89 558.87 426.957C559.756 427.507 560.564 428.172 561.273 428.936Z" fill="#233862"/>
<path d="M489.862 422.9C489.296 425.631 485.4 425.148 481.053 424.052C476.706 422.957 477.731 424.229 471.537 423.509C465.344 422.789 463.481 420.454 463.299 419.533C463.136 418.718 466.2 418.446 469.487 418.093C469.903 418.049 470.303 418 470.732 417.951C474.446 417.514 477.179 415.139 480.561 413.198C483.766 411.361 488.584 403.812 488.584 403.812L497.08 404.543C497.08 404.543 492.57 411.285 490.827 414.217C489.799 415.943 489.837 418.234 489.952 420.003C490.052 420.968 490.021 421.943 489.862 422.9Z" fill="#FFB27D"/>
<path d="M481.051 424.052C476.701 422.965 477.729 424.229 471.535 423.509C465.342 422.789 463.479 420.454 463.297 419.533C463.134 418.718 466.198 418.446 469.485 418.093L469.518 418.155C472.161 419.878 475.222 420.852 478.376 420.976C482.579 421.109 487.043 419.935 489.947 420.003C490.048 420.971 490.019 421.948 489.86 422.908C489.297 425.631 485.401 425.148 481.051 424.052Z" fill="#233862"/>
<path d="M522.828 368.79L530.623 390.221L540.802 418.212C542.654 418.363 544.518 418.206 546.319 417.748C548.806 417.049 551.667 415.193 551.667 415.193C551.667 415.193 548.997 385.204 543.744 367.964C542.385 363.537 540.881 359.955 539.19 357.934C530.927 348.031 522.828 368.79 522.828 368.79Z" fill="#233862"/>
<path d="M531.149 334.905C536.366 333.274 551.2 335.522 566.096 338.546L569.258 333.421L601.495 331.133C601.495 331.133 611.959 354.776 606.035 369.75C605.162 371.951 603.045 372.867 600.141 372.894C600.141 372.894 580.911 373.228 574.682 373.185C558.66 373.07 540.849 361.937 538.538 361.455C534.756 360.673 533.188 368.233 529.343 376.158C525.499 384.082 493.493 411.114 493.493 411.114C493.493 411.114 488.599 411.13 486.587 410.358C484.412 409.527 483.635 408.456 483.635 408.456C483.635 408.456 519.387 338.609 531.149 334.905Z" fill="#2B478B"/>
<path d="M569.759 289.07C581.178 295.464 604.372 308.718 604.494 308.637C604.494 308.637 613.026 311.919 617.903 308.732C626.03 303.419 630.47 288.997 615.764 276.455C608.423 270.204 603.197 268.653 602.471 258.742C602.077 253.366 594.859 235.58 582.624 237.134C581.605 237.279 580.576 237.34 579.546 237.316C577.372 237.233 575.218 237.772 573.339 238.871C566.423 242.933 552.576 286.505 569.759 289.07Z" fill="#233862"/>
<path d="M579.413 283.762C579.364 283.795 585.047 285.779 588.867 284.119C592.461 282.561 595.215 276.689 595.163 276.686C593.532 276.599 591.754 275.161 590.444 265.816L589.748 266.06L578.057 270.175C578.057 270.175 578.872 273.925 579.397 277.49C579.827 280.469 580.055 283.344 579.413 283.762Z" fill="#FFB27D"/>
<path d="M578.049 270.164C578.049 270.164 578.546 272.792 579.24 276.547C585.95 275.387 588.777 269.666 589.748 266.049L578.049 270.164Z" fill="#ED975D"/>
<path d="M576.282 273.868C576.282 273.868 592.263 271.838 590.844 261.91C589.424 251.983 590.534 245.034 580.273 245.909C570.012 246.784 568.582 250.855 568.237 254.285C567.891 257.714 572.087 274.14 576.282 273.868Z" fill="#FFB27D"/>
<path d="M568.869 248.852C568.869 248.852 579.027 257.728 585.973 258.486C592.92 259.244 595.568 257.032 595.568 257.032C592.811 254.531 590.599 251.491 589.067 248.1C588.718 247.302 588.163 246.611 587.458 246.099C586.753 245.588 585.924 245.273 585.057 245.189C580.087 244.727 570.68 244.463 568.869 248.852Z" fill="#233862"/>
<path d="M575.256 248.108C575.256 248.108 571.811 251.391 570.718 253.836C569.663 256.193 569.31 261.848 570.123 264.101C570.123 264.101 564.867 253.709 567.92 248.7C571.156 243.385 575.256 248.108 575.256 248.108Z" fill="#233862"/>
<path d="M565.804 307.175C566.056 339.481 565.755 332.72 569.267 335.821C570.116 336.565 572.505 337.022 575.657 337.25C585.561 337.978 602.994 336.47 603.66 334.644C605.993 328.325 604.392 326.347 606.379 316.662C606.583 315.632 606.838 314.517 607.135 313.305C608.766 306.655 610.338 304.4 604.769 293.66C599.723 283.931 594.465 276.028 593.984 276.308C580.431 284.222 579.389 277.482 579.389 277.482C579.389 277.482 565.676 291.418 565.804 307.175Z" fill="#F9DDBF"/>
<path d="M530.623 390.227L540.802 418.218C542.654 418.368 544.518 418.211 546.319 417.753C548.806 417.054 551.667 415.198 551.667 415.198C551.667 415.198 548.997 385.21 543.744 367.97L530.623 390.227Z" fill="#2B478B"/>
<path d="M579.387 277.479C579.387 277.479 565.483 279.735 563.808 285.7C562.133 291.665 552.291 326.736 552.291 326.736C552.291 326.736 559.341 328.054 562.622 324.817C565.904 321.58 574.186 294.652 574.186 294.652L579.387 277.479Z" fill="#F9DDBF"/>
<path d="M575.666 337.25C585.571 337.978 603.003 336.47 603.67 334.644C606.002 328.325 604.401 326.347 606.388 316.662L601.704 303.174C601.704 303.174 602.386 318.162 597.938 322.072C593.49 325.983 579.788 329.551 577.618 332.828C576.558 334.399 575.864 335.981 575.666 337.25Z" fill="#F2CCAA"/>
<path d="M587.059 331.029C587.059 331.029 577.296 328.785 575.713 329.641C574.131 330.497 570.251 333.627 569.762 334.725C569.273 335.823 573.28 333.91 574.58 333.576C575.425 333.356 577.633 334.141 578.729 334.513C583.331 336.084 586.164 335.312 586.164 335.312L587.059 331.029Z" fill="#FFB27D"/>
<path d="M593.991 276.3C593.991 276.3 607.112 277.202 611.612 283.57C617.946 292.538 630.371 330.63 623.061 335.647C614.831 341.299 585.772 336.878 585.772 336.878C585.772 336.878 584.837 332.35 586.199 330.171C587.561 327.991 609.472 324.613 610.489 323.61C611.506 322.608 598.001 303.835 598.023 300.807C598.045 297.78 593.991 276.3 593.991 276.3Z" fill="#F9DDBF"/>
<path d="M575.221 332.358C575.221 332.358 573.152 334.984 572.48 335.296C572.14 335.477 571.755 335.556 571.371 335.524L572.771 333.051L575.221 332.358Z" fill="#FFB27D"/>
<path d="M575.712 329.641L569.73 332.492C569.73 332.492 569.981 332.907 570.715 332.877C571.449 332.848 573.303 332.187 573.303 332.187L575.712 329.641Z" fill="#FFB27D"/>
<path d="M573.751 339.557L526.64 339.226L512.717 303.9L559.755 304.231L573.751 339.557Z" fill="#F99746"/>
<path d="M526.096 337.851L588.31 338.288L588.299 339.66L526.639 339.226L526.096 337.851Z" fill="#ED7D2B"/>
<path d="M538.657 321.697C538.309 320.455 539.035 319.458 540.272 319.466C541.51 319.474 542.798 320.488 543.144 321.727C543.489 322.966 542.766 323.969 541.529 323.958C540.291 323.947 539.003 322.936 538.657 321.697Z" fill="white"/>
<path d="M287.425 450.711L287.42 479.156L430.565 479.181L430.57 450.736L287.425 450.711Z" fill="#C65447"/>
<path d="M287.429 479.165L266.391 470.17L254.156 464.936L266.679 459.587L287.437 450.72C287.437 450.72 290.208 457.644 290.248 464.158C290.314 474.379 287.429 479.165 287.429 479.165Z" fill="#FCECDB"/>
<path d="M447.219 460.185V469.178C447.218 471.834 446.162 474.381 444.283 476.259C442.403 478.137 439.855 479.192 437.197 479.192H430.574V450.747H437.776C439.017 450.746 440.245 450.99 441.391 451.464C442.537 451.938 443.578 452.633 444.455 453.51C445.332 454.386 446.027 455.427 446.501 456.573C446.976 457.718 447.219 458.946 447.219 460.185Z" fill="#FCECDB"/>
<path d="M266.679 459.587C267.201 462.46 267.652 466.862 266.391 470.17L254.156 464.936L266.679 459.587Z" fill="#2B478B"/>
<path d="M318.195 302.623C318.195 302.623 320.759 313.743 328.233 313.743C334.641 313.743 343.428 299.266 343.428 299.266L318.195 302.623Z" fill="#F99746"/>
<path d="M404.014 466.871L399.215 470.173C399.215 470.173 376.121 445.567 370.545 421.982C369.553 417.772 369.15 413.62 369.574 409.679C369.574 409.679 369.237 408.611 368.647 406.722C368.623 406.638 368.596 406.554 368.569 406.47C368.297 405.641 368.003 404.665 367.658 403.562C366.538 399.999 364.999 395.121 363.248 389.569C359.21 376.796 349.98 347.99 346.035 335.989L374.387 325.736C374.387 325.736 377.609 333.073 382.236 353.026C382.948 355.629 383.661 358.51 384.329 361.646C385.085 365.2 385.789 369.087 386.377 373.285C387.478 381.201 388.045 389.181 388.076 397.173C388.092 400.741 388.005 404.445 387.804 408.263C387.649 411.062 388.076 414.785 388.848 419.041C392.418 438.45 404.014 466.871 404.014 466.871Z" fill="#2B478B"/>
<path d="M419.12 478.727H396.198C396.198 478.727 395.342 475.075 396.845 472.588C398.177 470.387 397.661 469.134 396.682 467.314C397.899 467.84 399.218 468.088 400.543 468.039C401.684 467.974 402.892 467.458 403.952 466.841C404.936 467.966 409.161 472.751 410.477 473.7C411.994 474.776 418.658 474.393 419.12 478.727Z" fill="#233862"/>
<path d="M386.375 373.285L368.567 406.47C368.295 405.641 368.001 404.665 367.656 403.562C366.536 399.999 364.997 395.121 363.246 389.569C359.208 376.796 349.978 347.99 346.033 335.989L374.385 325.736C374.385 325.736 377.607 333.073 382.234 353.026C382.946 355.629 383.659 358.51 384.327 361.646C385.078 365.2 385.787 369.086 386.375 373.285Z" fill="#233862"/>
<path d="M345.571 471.556C345.571 471.556 343.986 475.447 345.478 478.727H357.947C357.947 478.727 358.218 475.771 353.681 472.338C350.255 469.74 345.571 471.556 345.571 471.556Z" fill="#233862"/>
<path d="M359.14 218.236C359.14 217.614 359.466 210.926 369.635 210.331C369.635 210.331 364.646 211.048 363.833 213.268C363.833 213.268 367.174 210.469 369.969 211.276C372.764 212.083 374.512 216.902 374.569 218.5C374.627 220.098 373.21 225.294 371.456 225.769C370.756 225.929 370.03 225.947 369.322 225.824C369.844 226.596 370.32 227.399 370.747 228.229C375.01 236.463 371.334 246.165 367.873 245.349C365.654 244.825 364.306 248.67 364.306 248.67L342.969 230.329C342.969 230.329 350.445 213.861 359.14 218.236Z" fill="#2C3A64"/>
<path d="M345.729 273.96C348.094 275.591 351.06 276.949 354.782 277.814C368.74 281.037 374.086 269.245 376.1 261.149C374.642 260.343 373.032 259.849 371.372 259.698C370.364 259.579 369.3 259.5 368.422 259.456C366.856 258.258 364.518 253.345 364.004 245.719L363.346 245.896L352.346 248.907C352.346 248.907 352.849 252.402 353.096 255.701C353.287 258.285 353.317 260.755 352.825 261.361C351.965 261.546 351.452 261.668 351.452 261.668C349.154 265.573 347.238 269.689 345.729 273.96Z" fill="#FFB27D"/>
<path d="M352.348 248.907C352.348 248.907 352.853 252.399 353.098 255.701C359.33 255.078 362.222 249.146 363.348 245.893L352.348 248.907Z" fill="#ED985F"/>
<path d="M352.218 254.154C352.218 254.154 366.565 250.467 364.132 241.572C361.698 232.677 361.911 226.207 352.648 228.182C343.385 230.158 342.539 234.039 342.629 237.208C342.719 240.376 348.423 254.883 352.218 254.154Z" fill="#FFB27D"/>
<path d="M341.693 232.145C343.167 228.865 344.997 228.992 346.152 229.541C352.781 223.106 359.556 228.068 359.556 228.068C362.275 234.188 367.873 236.58 367.873 236.58C367.873 236.58 365.698 238.903 359.284 239.007C357.321 239.039 355.328 238.191 353.501 236.987C355.792 239.139 358.366 240.967 361.152 242.423C353.071 241.064 347.454 231.9 346.878 230.924C346.223 231.946 344.975 234.12 344.904 235.93C344.814 238.376 345.774 243.14 344.36 243.355C344.379 243.349 339.486 237.066 341.693 232.145Z" fill="#2C3A64"/>
<path d="M348.103 260.932C348.103 260.932 372.203 255.084 382.681 263.723L377.434 336.723L330.301 325.339C330.301 325.339 331.628 320.719 340.665 308.438C349.702 296.157 345.771 278.14 348.103 260.932Z" fill="#FFB27D"/>
<path d="M362.138 328.6C362.138 328.6 362.111 328.847 362.062 329.32C362.04 329.521 362.013 329.768 361.983 330.054C361.779 331.956 361.396 335.576 360.896 340.296C359.601 352.678 357.573 372.562 356.189 388.259C355.102 400.532 354.419 410.244 354.792 411.804C355.907 416.497 354.792 472.599 354.792 472.599C350.784 474.521 344.711 472.599 344.711 472.599C344.711 472.599 334.042 422.052 335.535 415.016C337.027 407.981 334.537 401.991 334.537 401.991C326.255 363.426 327.166 342.049 328.797 331.831C329.114 329.715 329.588 327.626 330.214 325.581C330.372 325.058 330.561 324.545 330.782 324.045C349.069 319.118 362.138 328.6 362.138 328.6Z" fill="#2B478B"/>
<path d="M385.918 284.545C384.754 293.328 380.1 304.076 378.439 309.859C378.439 309.859 381.217 329.945 378.564 335.459C378.262 336.087 377.89 336.527 377.433 336.726C367.604 341.006 329.332 336.851 327.717 324.496C327.129 320.012 342.295 304.239 343.179 302.326C343.546 301.533 343.934 298.967 342.156 293.649C339.636 301.416 325.727 299.182 325.727 299.182C327.358 296.391 331.436 277.072 335.968 268.351C339.383 261.796 348.499 260.848 348.499 260.848C348.499 260.848 352.306 266.862 361.471 266.011C370.636 265.161 372.327 259.543 372.327 259.543C372.327 259.543 380.464 260.63 382.974 262.647C383.409 263.008 387.443 273.039 385.918 284.545Z" fill="#F99746"/>
<path d="M378.438 309.859C378.438 309.859 381.217 329.945 378.563 335.459C371.405 331.866 365.761 322.143 367.063 311.322C368.025 303.321 369.458 301.495 373.74 296.918C376.889 293.554 384.164 293.364 383.593 294.964C381.897 299.728 379.316 306.805 378.438 309.859Z" fill="#ED7D2B"/>
<path d="M348.55 286.11L364.96 312.425H337.038L321.402 286.678L348.55 286.11Z" fill="#1C468A"/>
<path d="M364.106 311.104L364.389 310.186L348.861 285.282L348.549 286.11L364.106 311.104Z" fill="#EFDECE"/>
<path d="M348.862 285.282L322.558 286.029L321.402 286.678L348.55 286.11L348.862 285.282Z" fill="#FCECDB"/>
<path d="M321.4 286.678L306.643 278.694L323.844 305.696L337.036 312.425L321.4 286.678Z" fill="#163560"/>
<path d="M399.486 305.12C397.907 305.843 393.85 310.618 392.401 311.099C385.876 313.273 358.18 307.482 358.18 307.482L359.039 302.631C359.039 302.631 386.227 303.351 389.218 302.552C389.78 302.4 392.719 297.807 393.839 297.147L399.486 305.12Z" fill="#FFB27D"/>
<path d="M359.042 302.633C359.042 302.633 355.763 299.967 353.547 300.571C351.332 301.174 348.069 303.976 346.859 304.647C345.649 305.318 342.36 307.683 344.026 309.118C345.693 310.552 350.883 309.319 352.941 308.221C354.999 307.123 358.186 307.495 358.186 307.495L359.042 302.633Z" fill="#FFB27D"/>
<path d="M354.177 300.484C354.177 300.484 350.191 300.008 349.101 300.03C348.011 300.052 348.31 300.302 348.911 301.133C349.512 301.965 351.586 302.302 351.681 302.598C351.776 302.894 354.177 300.484 354.177 300.484Z" fill="#FFB27D"/>
<path d="M372.327 259.543C372.327 259.543 384.148 260.946 387.403 266.011C391.516 272.419 401.228 297.932 400.915 304.362C400.915 304.362 393.813 316.441 369.467 314.506C369.467 314.506 366.933 305.563 372.055 302.612C372.055 302.612 384.561 300.389 386 299.12L375.804 280.599L372.327 259.543Z" fill="#F99746"/>
<path d="M325.182 296.299C324.815 294.809 321.569 295.739 320.473 296.598C320.15 296.881 319.87 297.209 319.641 297.573C319.606 297.326 319.579 297.087 319.56 296.902C319.5 296.201 318.684 294.948 318.472 295.886C318.26 296.823 317.928 300.777 317.928 300.777C317.888 303.951 319.929 305.261 321.24 304.229C322.55 303.196 325.536 297.788 325.182 296.299Z" fill="#FFB27D"/>
<path d="M759.06 478.719H14.5379C14.0078 478.719 13.5781 479.149 13.5781 479.679V480.306C13.5781 480.836 14.0078 481.266 14.5379 481.266H759.06C759.59 481.266 760.019 480.836 760.019 480.306V479.679C760.019 479.149 759.59 478.719 759.06 478.719Z" fill="#2E3552"/>
</svg>
