<svg width="550" height="494" viewBox="0 0 550 494" fill="none" xmlns="http://www.w3.org/2000/svg">
<path fill-rule="evenodd" clip-rule="evenodd" d="M258.791 0.292362C316.6 -2.8261 370.393 19.2798 417.237 53.3428C475.186 95.4803 547.434 140.33 549.934 211.998C552.459 284.378 481.832 332.99 428.706 382.137C378.645 428.45 326.773 476.458 258.791 481.339C186.468 486.532 112.607 461.02 62.6263 408.421C13.6438 356.872 -8.32203 282.266 2.85863 211.998C12.7868 149.602 67.8965 109.804 116.544 69.5633C158.801 34.6082 204.058 3.24485 258.791 0.292362Z" fill="#FFDE32"/>
<path d="M135.548 308.436H129.355V457.976H135.548V308.436Z" fill="#807066"/>
<path d="M170.802 452.753C166.64 456.601 162.947 460.929 159.802 465.646C154.599 473.448 140.783 473.863 140.193 484.518C139.602 495.174 158.974 495.502 169.147 492.034C179.32 488.565 180.854 478.155 187.005 475.556C193.156 472.957 196.35 470.848 195.876 465.766C195.402 460.684 192 452.458 192 452.458C192 452.458 188.178 453.676 185.932 453.926C183.686 454.175 176.126 454.242 170.802 452.753Z" fill="#FAB46C"/>
<path d="M240.516 164.069C240.516 164.069 236.619 187.25 233.479 202.563C232.203 208.773 231.055 213.688 230.339 215.235C229.441 217.182 222.126 225.038 213.167 234.262C197.455 250.436 176.698 270.806 176.698 270.806L168.58 255.418C168.58 255.418 187.021 233.792 199.518 219.378C205.307 212.724 209.819 207.571 210.647 206.83C213.259 204.489 216.295 181.461 220.558 162.472C224.821 143.482 233.367 133.002 233.367 133.002L240.516 164.069Z" fill="#5F8CC9"/>
<path d="M213.167 234.262C197.455 250.436 176.698 270.806 176.698 270.806L168.58 255.418C168.58 255.418 187.021 233.792 199.518 219.378C203.352 221.233 210.389 225.72 213.167 234.262Z" fill="#EEA886"/>
<path d="M379.696 308.436H373.504V457.976H379.696V308.436Z" fill="#807066"/>
<path d="M406.601 300.322H106.164V311.052H406.601V300.322Z" fill="#2F4563"/>
<path d="M313.937 446.406C313.937 446.406 319.277 452.308 322.429 455.884C325.581 459.461 337.671 465.866 337.738 476.479C337.809 487.999 328.821 486.989 320.824 486.569C312.826 486.149 306.33 480.626 302.965 474.092C299.601 467.558 290.643 465.857 290.011 460.596C289.378 455.335 294.169 445.866 294.169 445.866L313.937 446.406Z" fill="#FAB46C"/>
<path d="M295.194 436.067L294.162 445.874C294.162 445.874 310.852 453.148 313.938 446.406L313.222 437.673L295.194 436.067Z" fill="#5F8CC9"/>
<path d="M171.707 445.654L170.801 452.753C170.801 452.753 180.886 456.317 192.011 452.437L192.236 446.124L171.707 445.654Z" fill="#5F8CC9"/>
<path d="M314.881 267.671C315.464 269.75 208.057 267.671 208.057 267.671C208.057 267.671 237.768 246.044 239.693 240.268C241.619 234.491 232.128 199.831 230.893 188.552C229.899 179.527 227.42 139.149 233.388 132.981C239.627 126.535 261.997 119.777 261.997 119.777L294.64 120.987C294.64 120.987 300.047 122.114 303.881 123.898C307.716 125.682 329.758 133.53 333.334 144.535C336.911 155.539 311.351 190.923 311.351 190.923C311.351 190.923 311.301 192.516 311.226 195.119C311.126 198.596 310.98 203.853 310.847 209.604C310.677 217.02 310.527 225.188 310.527 231.156C310.519 245.184 314.303 265.608 314.881 267.671Z" fill="#5F8CC9"/>
<path d="M314.881 267.671C314.881 267.671 329.492 289.13 329.695 303.778C329.899 318.425 324.289 359.045 323.873 367.088C323.457 375.132 315.896 442.189 315.896 442.189C315.896 442.189 310.049 447.625 292.511 440.817C292.511 440.817 288.639 377.224 288.227 370.415C287.816 363.607 287.811 332.25 283.894 327.708C279.976 323.167 256.25 308.935 253.155 306.252C250.061 303.57 196.146 316.437 190.502 317.897C175.871 321.69 182.538 347.142 185.778 358.55C191.184 377.644 195.921 446.585 195.921 446.585C195.921 446.585 185.503 451.023 168.057 447.271C168.057 447.271 133.788 322.788 132.706 310.411C131.625 298.034 131.063 277.619 215.514 262.102L314.881 267.671Z" fill="#EDDAD3"/>
<path d="M270.934 48.8514C270.934 48.8514 242.595 42.4592 249.066 78.1215C255.537 113.784 262.375 116.587 279.451 109.205C296.527 101.823 295.018 78.9741 295.879 67.7742C296.739 56.5744 279.971 49.2381 270.934 48.8514Z" fill="#EEA886"/>
<path d="M263.436 128.931C263.436 128.931 275.983 142.239 295.821 130.145C295.821 130.145 291.383 101.312 293.72 87.267C296.058 73.2225 267.84 109.026 267.84 109.026C268.21 109.222 268.455 110.561 268.514 112.47C268.555 114.379 268.457 116.289 268.218 118.184C267.632 122.85 266.18 127.783 263.436 128.931Z" fill="#EEA886"/>
<path d="M294.501 86.0691C294.501 86.0691 293.769 74.8402 289.664 74.4825C285.559 74.1249 284.931 78.6414 284.931 78.6414L280.772 79.4233C280.772 79.4233 282.082 69.5751 277.986 67.8574C273.889 66.1398 251.435 73.264 248.142 70.386C244.848 67.5081 246.403 47.5122 252.35 44.7882C258.298 42.0641 274.729 35.9256 286.769 44.0728C286.769 44.0728 296.152 43.004 297.541 50.5773C298.93 58.1506 297.05 80.4422 294.501 86.0691Z" fill="#3A3F47"/>
<path d="M268.219 118.184C288.68 111.875 290.219 99.5523 290.261 99.361C283.486 110.939 268.514 112.47 268.514 112.47C268.556 114.379 268.457 116.289 268.219 118.184Z" fill="#A77860"/>
<path d="M304.199 124.056C304.199 124.056 289.227 153.888 265.005 151.962C240.784 150.037 260.88 120.051 261.978 119.777C263.188 119.473 286.814 113.588 304.199 124.056Z" fill="#EEA886"/>
<path d="M195.771 266.148C195.771 266.148 269.945 275.298 314.882 267.658L229.005 256.945C229.005 256.945 228.51 259.132 195.771 266.148Z" fill="#5F8CC9"/>
<path d="M251.246 253.564L245.723 256.363C245.723 256.363 246.97 265.142 250.006 267.8L256.203 266.219C256.203 266.219 254.914 256.583 251.246 253.564Z" fill="#EEA886"/>
<path d="M337.079 235.593C335.977 236.874 321.391 242.738 304.922 249.08C282.419 257.747 257.033 265.949 257.033 265.949L251.252 253.559C251.252 253.559 277.84 239.116 295.802 228.985C304.286 224.202 310.849 220.38 311.776 219.494C314.662 216.745 315.411 212.333 313.286 204.639C311.161 196.945 306.274 161.586 305.721 157.46C305.168 153.335 307.097 142.33 317.411 141.781C327.725 141.232 332.978 144.139 332.978 144.139C332.978 144.139 335.569 145.217 337.494 170.253C339.42 195.289 339.695 232.565 337.079 235.593Z" fill="#5F8CC9"/>
<path d="M311.21 195.119C311.11 198.596 310.965 203.853 310.832 209.604C300.763 184.921 306.581 165.229 306.673 164.896C305.587 171.592 311.131 194.79 311.21 195.119Z" fill="#5075A8"/>
<path d="M233.478 202.563C232.202 208.772 231.054 213.688 230.338 215.235C226.899 198.6 229.993 177.286 229.993 177.286C230.463 187.462 233.478 202.563 233.478 202.563Z" fill="#5075A8"/>
<path d="M304.922 249.097C282.419 257.764 256.209 266.231 256.209 266.231L251.252 253.576C251.252 253.576 277.84 239.132 295.802 229.001C295.798 228.989 302.331 232.174 304.922 249.097Z" fill="#EEA886"/>
<path d="M249.65 266.951L144.223 265.4L197.452 292.428L249.65 266.951Z" fill="#5E5853"/>
<path d="M197.452 292.428L249.65 272.212V266.951L193.326 287.271L197.452 292.428Z" fill="#91887F"/>
<path d="M246.912 256.558C246.912 256.558 240.329 255.531 235.779 254.479C232.256 253.647 223.498 254.791 221.269 257.049C219.04 259.307 211.944 275.061 210.601 276.022C209.258 276.982 211.287 279.207 213.645 278.101C213.645 278.101 215.808 284.992 221.131 282.41C226.455 279.827 230.094 274.2 232.893 273.206C235.692 272.212 251.969 267.209 251.969 267.209C251.969 267.209 251.109 254.878 246.912 256.558Z" fill="#EEA886"/>
<path d="M222.875 256.009C222.875 256.009 218.645 258.051 217.543 258.962C216.441 259.873 211.958 263.225 210.889 264.015C209.82 264.805 212.523 267.043 220.525 263.599C228.527 260.156 222.875 256.009 222.875 256.009Z" fill="#EEA886"/>
<path d="M197.452 292.428L166.094 206.81L65 208.461L94.8857 287.363L197.452 292.428Z" fill="#6E6760"/>
<path d="M133.767 244.689C136.853 250.852 135.922 257.581 131.688 259.69C127.454 261.798 121.524 258.521 118.438 252.358C115.352 246.194 116.283 239.465 120.517 237.357C124.751 235.248 130.661 238.521 133.767 244.689Z" fill="#807066"/>
</svg>
