<svg width="60" height="60" viewBox="0 0 60 60" fill="none" xmlns="http://www.w3.org/2000/svg">
<circle cx="30" cy="30" r="30" fill="#FFDE32"/>
<g clip-path="url(#clip0_525_4227)">
<path d="M37.915 31.0275C37.527 30.5375 37.638 30.3195 37.915 29.8815C37.92 29.8765 41.123 25.4505 41.453 23.9495L41.455 23.9485C41.619 23.4015 41.455 22.9995 40.662 22.9995H38.038C37.37 22.9995 37.062 23.3445 36.897 23.7305C36.897 23.7305 35.561 26.9285 33.671 29.0015C33.061 29.6005 32.779 29.7925 32.446 29.7925C32.282 29.7925 32.027 29.6005 32.027 29.0535V23.9485C32.027 23.2925 31.84 22.9995 31.287 22.9995H27.161C26.742 22.9995 26.493 23.3055 26.493 23.5905C26.493 24.2125 27.438 24.3555 27.536 26.1055V29.9025C27.536 30.7345 27.385 30.8875 27.05 30.8875C26.158 30.8875 23.993 27.6765 22.71 24.0015C22.451 23.2885 22.198 23.0005 21.525 23.0005H18.9C18.151 23.0005 18 23.3455 18 23.7315C18 24.4135 18.892 27.8045 22.148 32.2845C24.318 35.3425 27.374 36.9995 30.154 36.9995C31.825 36.9995 32.029 36.6315 32.029 35.9985C32.029 33.0765 31.878 32.8005 32.715 32.8005C33.103 32.8005 33.771 32.9925 35.331 34.4675C37.114 36.2165 37.407 36.9995 38.405 36.9995H41.029C41.777 36.9995 42.156 36.6315 41.938 35.9055C41.439 34.3785 38.067 31.2375 37.915 31.0275Z" fill="#333333"/>
</g>
<defs>
<clipPath id="clip0_525_4227">
<rect width="24" height="24" fill="white" transform="translate(18 18)"/>
</clipPath>
</defs>
</svg>
