<svg width="60" height="60" viewBox="0 0 60 60" fill="none" xmlns="http://www.w3.org/2000/svg">
<circle cx="30" cy="30" r="30" fill="#FFDE32"/>
<g clip-path="url(#clip0_525_4214)">
<path d="M29.4142 18.0363C23.0445 18.3373 18.018 23.6063 18.0372 29.9399C18.043 31.869 18.5119 33.6898 19.3392 35.299L18.0692 41.4217C18.0006 41.753 18.3013 42.043 18.6326 41.965L24.673 40.5437C26.2249 41.3116 27.968 41.755 29.8128 41.7829C36.3232 41.8818 41.7516 36.7474 41.9548 30.2833C42.1721 23.3543 36.4146 17.7051 29.4142 18.0363ZM36.6218 36.4814C34.8529 38.2383 32.5008 39.206 29.999 39.206C28.5341 39.206 27.1315 38.8795 25.8303 38.2358L24.9893 37.8195L21.2857 38.6909L22.0652 34.9323L21.6509 34.1261C20.9753 32.8121 20.6328 31.3914 20.6328 29.9031C20.6328 27.4181 21.607 25.0821 23.3759 23.325C25.1291 21.5835 27.5195 20.6004 29.9991 20.6004C32.5007 20.6004 34.8528 21.5681 36.6217 23.325C38.3906 25.0819 39.3649 27.4182 39.3649 29.9029C39.3651 32.3658 38.375 34.74 36.6218 36.4814Z" fill="#333333"/>
<path d="M35.8047 32.4795L33.4876 31.8188C33.1832 31.7321 32.855 31.818 32.6331 32.0426L32.0664 32.6158C31.8275 32.8577 31.4651 32.9353 31.1488 32.8083C30.0528 32.3677 27.747 30.3314 27.1586 29.3132C26.9884 29.0194 27.0166 28.6522 27.2252 28.3838L27.7198 27.7483C27.9136 27.4993 27.9544 27.1647 27.8263 26.8769L26.8515 24.687C26.6181 24.1626 25.9433 24.0099 25.5024 24.3802C24.8558 24.9236 24.0885 25.7489 23.9954 26.6635C23.8309 28.2759 24.5272 30.3084 27.1596 32.749C30.201 35.5689 32.6367 35.9411 34.2227 35.5596C35.1222 35.3434 35.8411 34.476 36.2945 33.7656C36.6039 33.281 36.3594 32.6378 35.8047 32.4795Z" fill="#333333"/>
</g>
<defs>
<clipPath id="clip0_525_4214">
<rect width="24" height="24" fill="white" transform="translate(18 18)"/>
</clipPath>
</defs>
</svg>
