<svg width="504" height="601" viewBox="0 0 504 601" fill="none" xmlns="http://www.w3.org/2000/svg">
<path fill-rule="evenodd" clip-rule="evenodd" d="M284.861 77.4465C350.127 82.4628 413.53 107.047 456.455 156.517C496.829 203.046 508.534 266.954 502.518 328.289C497.085 383.682 460.69 426.032 425.773 469.347C384.227 520.886 350.053 587.027 284.861 598.297C212.59 610.79 138.377 578.711 85.1232 528.233C30.4915 476.45 0.0751809 403.604 0.000149335 328.289C-0.0749552 252.901 28.179 177.739 84.7244 127.946C138.425 80.6584 213.55 71.9656 284.861 77.4465Z" fill="#FFDE32"/>
<path d="M248.185 147.182C248.185 147.182 253.755 136.628 252.192 125.696C250.629 114.763 241.025 98.419 221.559 102.865C221.559 102.865 206.914 125.014 205.711 125.855C205.711 125.855 202.986 150.191 203.611 163.439C204.436 180.82 213.132 190.614 217.938 205.755C222.744 220.895 230.717 206.246 230.717 206.246L244.374 205.588L237.294 149.725L248.185 147.182Z" fill="#E8734D"/>
<path d="M322.912 80.6408C322.912 80.6408 321.304 71.8879 321.099 70.5445C320.895 69.2011 322.515 65.7688 324.717 61.9922C326.92 58.2155 331.593 54.0945 332.346 54.0453C333.099 53.9961 333.86 53.6064 335.487 54.6205C336.541 55.3172 337.397 56.2739 337.973 57.3981C337.973 57.3981 340.596 57.6933 341.462 59.9449C342.218 60.1041 342.91 60.4845 343.449 61.0377C343.988 61.591 344.35 62.292 344.49 63.0518C344.49 63.0518 346.874 63.4945 347.116 65.5077C347.116 65.5077 345.496 68.9476 345.265 70.3931C345.035 71.8387 341.179 78.7676 336.456 84.8451C336.448 84.8526 331.498 91.7626 322.912 80.6408Z" fill="#EEA886"/>
<path d="M330.469 70.5103C330.469 70.5103 332.932 74.2415 333.095 75.6379C333.258 77.0343 342.934 74.2264 342.934 74.2264C342.934 74.2264 335.082 67.6419 330.469 70.5103Z" fill="#CF8C6C"/>
<path d="M321.232 70.2189C321.232 70.2189 327.541 65.9654 332.006 65.1556C333.016 64.9702 334.031 64.974 334.579 65.8443C335.128 66.7147 334.579 68.6144 331.93 70.5973C329.281 72.5802 326.791 76.3455 326.791 76.3455C326.791 76.3455 323.473 77.5943 321.232 70.2189Z" fill="#EEA886"/>
<path d="M312.142 -3.17139e-05L288.057 51.0446L367.144 88.3616L391.229 37.317L312.142 -3.17139e-05Z" fill="#FF4736"/>
<path d="M324.505 69.6854C324.505 69.6854 320.343 87.3918 315.181 94.1088C310.019 100.826 326.768 100.258 326.768 100.258L332.066 75.884L324.505 69.6854Z" fill="#EEA987"/>
<path d="M246.198 192.869C246.198 192.869 244.203 182.841 248.884 175.746C253.565 168.65 262.818 163.439 265.682 161.184C268.547 158.929 293.848 133.086 294.261 131.849C294.673 130.611 302.09 115.024 308.206 104.459C314.321 93.8931 321.45 77.3977 321.45 77.3977L351.028 100.269C351.028 100.269 319.872 129.147 312.126 138.547C303.865 148.583 262.61 195.17 262.61 195.17C262.61 195.17 254.345 206.765 246.198 192.869Z" fill="#2B478B"/>
<path d="M305.843 548.51C305.843 548.51 316.817 563.268 315.303 565.603C313.789 567.938 302.274 568.275 295.247 565.603C288.219 562.931 288.057 545.638 284.893 538.209C283.565 535.099 286.407 525.918 290.403 525.252C294.399 524.586 298.751 526.542 298.751 526.542C298.751 526.542 294.611 537.006 305.843 548.51Z" fill="#1D3B54"/>
<path d="M298.828 526.421C298.828 526.421 301.137 532.703 301.977 538.705C302.677 543.681 309.784 554.243 309.451 555.579C309.118 556.915 300.096 558.126 296.422 554.682C292.747 551.238 290.367 541.218 289.576 535.227C288.819 529.646 287.869 526.902 287.869 526.902C287.869 526.902 295.32 522.747 298.828 526.421Z" fill="#EEA886"/>
<path d="M284.604 536.911V552.358H286.609V540.419L284.604 536.911Z" fill="#1D3B54"/>
<path d="M210.45 548.756C210.45 548.756 221.016 563.264 219.51 565.603C218.003 567.942 206.48 568.275 199.453 565.603C192.426 562.931 192.263 545.637 189.1 538.209C187.768 535.098 190.613 525.918 194.609 525.252C198.606 524.586 203.313 526.682 203.313 526.682C203.313 526.682 199.215 537.263 210.45 548.756Z" fill="#1D3B54"/>
<path d="M203.309 526.667C203.309 526.667 204.142 533.517 205.478 538.361C206.814 543.204 213.996 554.228 213.663 555.564C213.33 556.899 204.312 558.11 200.634 554.667C196.956 551.223 194.121 541.248 193.788 535.212C193.455 529.176 194.621 525.237 194.621 525.237C194.621 525.237 199.801 523.008 203.309 526.667Z" fill="#EEA886"/>
<path d="M188.812 536.911V552.358H190.818V540.419L188.812 536.911Z" fill="#1D3B54"/>
<path d="M256.112 286.479C256.112 286.479 265.52 330.229 267.677 341.245C269.834 352.26 275.885 405.61 276.532 414.681C277.179 423.752 286.348 457.931 285.913 461.174C285.478 464.417 300.009 528.703 300.009 528.703C300.009 528.703 285.05 532.771 282.53 530.028C280.392 527.701 258.897 468.913 258.897 452.716C258.897 430.325 242.008 401.815 239.87 396.804C220.022 350.259 224.264 335.315 221.672 332.291C219.08 329.268 218.853 334.161 217.343 340.855C215.833 347.549 212.594 405.436 210.649 412.781C208.704 420.127 210.213 444.947 209.135 457.492C208.056 470.037 206.811 526.145 206.811 526.145C206.811 526.145 195.973 528.635 190.827 526.236C189.34 525.543 185.593 463.709 185.378 448.807C185.162 433.905 184.931 413.349 184.515 406.905C180.511 345.146 175.887 335.47 191.379 291.758C220.37 209.929 256.112 286.479 256.112 286.479Z" fill="#4F5E8F"/>
<path d="M231.752 169.911C231.752 169.911 241.568 174.546 244.978 175.208C248.388 175.871 261.629 193.07 263.929 199.34C266.23 205.611 263.929 215.018 259.158 226.061C254.386 237.103 258.885 240.785 256.702 251.827C254.518 262.87 252.611 286.264 253.023 292.387C253.436 298.51 197.88 299.683 185.199 288.5C185.199 288.5 197.94 269.416 199.579 266.692C201.217 263.967 199.851 249.103 198.349 245.285C196.847 241.466 186.86 209.024 186.86 209.024C186.86 209.024 178.694 184.09 186.069 178.372C192.476 173.396 209.94 171.621 213.077 170.531C216.214 169.441 225.345 168.957 231.752 169.911Z" fill="#EDDAD3"/>
<path d="M211.317 170.951C211.317 170.951 225.095 191.859 225.754 201.062C226.412 210.265 220.634 279.104 216.006 301.234C211.378 323.364 182.996 302.199 182.996 302.199C182.996 302.199 200.403 262.37 191.787 233.251C183.17 204.131 180.025 192.487 180.025 192.487C180.025 192.487 182.996 176.272 193.509 173.99C202.731 171.999 211.317 170.951 211.317 170.951Z" fill="#97A6CC"/>
<path d="M264.836 202.152C264.836 202.152 267.322 210.947 257.646 230.382C257.646 230.382 257.801 255.256 258.073 263.029C258.346 270.801 263.84 298.74 263.84 298.74L250.596 305.787C250.162 306.041 249.666 306.169 249.163 306.156C248.661 306.144 248.171 305.992 247.751 305.716C247.33 305.441 246.994 305.054 246.781 304.598C246.569 304.143 246.487 303.637 246.547 303.138C249.26 280.777 258.081 195.946 239.027 173.146L246.671 175.417C246.671 175.417 260.276 186.508 264.836 202.152Z" fill="#97A6CC"/>
<path d="M238.178 170.573C238.178 170.573 256.72 167.435 261.201 164.31L248.857 188.279L238.178 170.573Z" fill="#2B478B"/>
<path d="M254.008 180.593C254.008 180.593 264.002 190.432 265.122 206.704C266.243 222.977 264.596 266.313 267.086 278.835C269.576 291.357 303.793 487.891 303.793 487.891C303.793 487.891 246.092 510.119 171.588 487.891C171.588 487.891 177.737 287.304 185.779 265.628C193.82 243.952 182.782 180.245 182.782 180.245C182.782 180.245 185.264 172.257 209.124 171.254L254.008 180.593Z" fill="#2B478B"/>
<path d="M234.891 191.791L240.855 184.809L235.678 166.41C235.678 166.41 233.937 176.658 234.891 191.791Z" fill="#D6C5BE"/>
<path d="M236.435 158.584C236.435 158.584 234.478 176.59 234.887 182.455C234.887 182.455 224.669 192.673 213.086 170.524C213.086 170.524 217.968 161.392 214.293 148.953C210.619 136.515 236.435 158.584 236.435 158.584Z" fill="#EEA886"/>
<path d="M240.854 184.809L248.858 188.279L235.674 166.418L240.854 184.809Z" fill="#FAE6DE"/>
<path d="M236.057 163.617L235.622 167.246C235.622 167.246 227.611 168.76 217.004 155.807C216.985 155.814 224.504 164.976 236.057 163.617Z" fill="#A77860"/>
<path d="M234.891 182.455V191.795L223.152 183.019L234.891 182.455Z" fill="#EEA886"/>
<path d="M234.892 191.795L230.018 185.759L213.598 169.396L210.768 173.138L234.892 191.795Z" fill="#D6C5BE"/>
<path d="M230.016 185.759L223.151 194.758L209.127 171.254L213.596 169.396L230.016 185.759Z" fill="#FAE6DE"/>
<path d="M233.266 107.191C233.266 107.191 253.992 118.165 249.126 143.054C244.259 167.943 231.647 164.321 229.304 163.602C226.962 162.883 213.982 158.554 212.003 140.17C210.024 121.787 214.345 101.06 233.266 107.191Z" fill="#EEA886"/>
<path d="M243.302 124.371C243.302 124.371 238.735 138.789 219.151 141.673C199.568 144.556 211.583 114.158 211.583 114.158C211.583 114.158 217.85 103.225 227.477 104.905C241.55 107.369 249.145 122.089 249.906 128.939C250.666 135.788 251.147 137.748 251.147 137.748C251.147 137.748 247.628 126.895 243.302 124.371Z" fill="#E8734D"/>
<path d="M215.904 105.386C215.904 105.386 206.167 108.546 207.136 121.249C207.136 121.249 208.809 110.313 215.904 105.386Z" fill="#717BC7"/>
<path d="M191.002 113.318H190.102V135.675H191.002V113.318Z" fill="#292929"/>
<path d="M190.566 134.967H190.54C188.421 135.065 188.648 145.971 188.648 145.971H192.432C192.432 145.971 192.685 135.065 190.566 134.967Z" fill="#292929"/>
<path d="M250.288 114.002L272.474 105.026L231.51 86.9755L179.137 114.002L204.116 123.3L250.288 114.002Z" fill="#2B478B"/>
<path d="M250.133 118.351C250.133 118.351 229.623 116.031 205.582 127.054L202.611 119.425C202.611 119.425 229.71 109.242 250.671 111.766L250.133 118.351Z" fill="#1D3162"/>
<path d="M161.166 332.359C161.166 332.359 160.368 330.645 160.383 329.71C160.383 329.71 160.542 328.038 160.583 326.842C160.599 326.533 160.599 326.224 160.583 325.915C160.493 325.022 160.035 323.084 160.424 320.878C160.814 318.672 164.965 309.597 164.965 309.597L170.506 310.437L175.803 310.483C175.803 310.483 180.723 323.288 180.594 325.385C180.584 325.584 180.561 325.783 180.526 325.979C180.246 327.742 179.296 328.938 179.047 329.85C178.952 330.183 177.79 333.434 176.818 333.786C175.474 334.278 174.339 334.07 173.552 333.483C173.552 333.483 170.876 334.327 169.121 333.623C169.121 333.623 166.676 334.478 164.742 332.984C164.719 332.995 162.142 333.585 161.166 332.359Z" fill="#EEA886"/>
<path d="M206.766 171.905C206.766 171.905 190.797 170.921 182.785 180.23C174.774 189.539 175.217 200.616 173.174 205.422C171.13 210.227 166.476 230.908 165.458 234.257C164.44 237.606 159.225 250.995 155.762 271.411C153.223 286.411 149 317.15 149 317.15L178.456 311.811C178.456 311.811 176.719 285.276 177.109 269.643C177.499 254.011 190.214 226.394 195.02 214.307C199.826 202.22 218.959 179.488 206.766 171.905Z" fill="#2B478B"/>
</svg>
