<svg width="60" height="60" viewBox="0 0 60 60" fill="none" xmlns="http://www.w3.org/2000/svg">
<g clip-path="url(#clip0_196_3545)">
<path d="M56.5219 37.3771L51.7287 32.0506L56.129 28.529V28.0645C56.129 25.3461 54.1829 23.0487 51.5023 22.6026L51.2497 22.56L51.4171 21.7219L50.7561 21.391C49.6161 20.821 48.3832 20.5074 47.1358 20.4194C46.0335 17.1145 44.2394 14.1561 41.9419 11.6845L44.9168 8.70968L39.6774 3.47032L36.091 7.05677C34.1884 5.97484 32.1465 5.12903 30 4.59V1.93548H31.9355V0H16.4516V1.93548H18.3871V4.58032C16.2174 5.11742 14.1629 5.94871 12.2671 7.02774L8.70968 3.47032L3.47032 8.70968L6.42581 11.6652C2.44064 15.9803 0 21.7413 0 28.0645C0 39.2265 7.74677 48.9726 18.5206 51.5671C18.4374 51.7819 18.3871 52.0142 18.3871 52.2581V54.1935C18.3871 54.5477 18.4897 54.8758 18.6561 55.1613C18.4897 55.4468 18.3871 55.7748 18.3871 56.129V58.0645C18.3871 59.1319 19.2552 60 20.3226 60H30H37.7419C38.7726 60 39.6097 59.1881 39.6668 58.1719C41.7184 59.3661 44.0284 60 46.4516 60C53.9226 60 60 53.9226 60 46.44C60 43.0868 58.7652 39.8681 56.5219 37.3771ZM51.1839 24.5119C52.7797 24.7771 53.9748 26.0516 54.1665 27.6213L49.9829 30.9677H49.5677L50.8694 24.4597L51.1839 24.5119ZM47.5935 30.9677H45.3097L43.6819 22.829C45.4587 22.1468 47.4455 22.1468 49.2223 22.829L47.5935 30.9677ZM29.0323 48.3871H30L30.001 50.3226H30H20.3226V48.3871H29.0323ZM37.7419 50.3226H31.9355V48.3871H37.7419V50.3226ZM20.3226 52.2581H30L30.001 54.1935H30H20.3226V52.2581ZM31.9355 52.2581H37.7419V54.1935H31.9355V52.2581ZM37.7419 46.4516H30H29.0323V44.5161H37.7419L37.7429 46.4516H37.7419ZM29.0323 42.5806C27.9648 42.5806 27.0968 43.4487 27.0968 44.5161V46.4516H25.1613V42.5806H23.2258V46.4023C18.8865 46.1748 14.9487 44.4445 11.9148 41.7116L14.6129 39.0126L13.2445 37.6442L10.5465 40.3432C7.81355 37.3094 6.08323 33.3716 5.85581 29.0323H9.67742V27.0968H5.85581C6.08323 22.7574 7.81452 18.8197 10.5465 15.7858L13.2445 18.4848L14.6129 17.1165L11.9148 14.4174C14.9487 11.6845 18.8865 9.95419 23.2258 9.72677V13.5484H25.1613V9.71613C29.4706 9.93871 33.4365 11.6323 36.4984 14.3903L33.7732 17.1155L35.1416 18.4839L37.8648 15.7606C39.4587 17.5355 40.7187 19.6394 41.5403 21.9958L41.6535 22.561L41.401 22.6035C38.7203 23.0487 36.7742 25.3461 36.7742 28.0645V28.529L41.1755 32.0497L36.3823 37.3761C35.039 38.8684 34.0665 40.6597 33.4935 42.5797H29.0323V42.5806ZM42.9203 30.9677L38.7368 27.6213C38.9284 26.0516 40.1235 24.7781 41.7203 24.5119L42.0348 24.4597L43.3355 30.9677H42.9203ZM39.6774 6.2071L42.18 8.70968L40.5687 10.321C39.6919 9.51581 38.759 8.77839 37.7758 8.10871L39.6774 6.2071ZM20.3226 1.93548H28.0645V4.18935C26.7968 3.98129 25.5039 3.87097 24.1935 3.87097C22.8755 3.87097 21.5835 3.98032 20.3226 4.18452V1.93548ZM8.70968 6.2071L10.5794 8.07677C9.59613 8.74839 8.66613 9.49161 7.79419 10.2968L6.2071 8.70968L8.70968 6.2071ZM1.93548 28.0645C1.93548 15.7906 11.9206 5.80645 24.1935 5.80645C33.5265 5.80645 41.9506 11.789 45.1094 20.4852C44.4677 20.5752 43.8319 20.7203 43.2165 20.939C40.2552 13.0074 32.7474 7.74194 24.1935 7.74194C12.9871 7.74194 3.87097 16.859 3.87097 28.0645C3.87097 37.3181 10.0935 45.1306 18.57 47.5781C18.4558 47.8248 18.3871 48.0977 18.3871 48.3871V49.5387C8.78226 46.9452 1.93548 38.131 1.93548 28.0645ZM20.3226 58.0645V56.129H30L30.001 58.0645H30H20.3226ZM37.7419 58.0645H31.9355V56.129H37.7419V58.0645ZM46.4516 58.0645C43.9761 58.0645 41.6361 57.2961 39.6494 55.8532C39.6135 55.6035 39.5303 55.3703 39.4084 55.1613C39.5748 54.8758 39.6774 54.5477 39.6774 54.1935V52.2581C39.6774 51.9039 39.5748 51.5758 39.4084 51.2903C39.5748 51.0048 39.6774 50.6768 39.6774 50.3226V48.3871C39.6774 48.0329 39.5748 47.7048 39.4084 47.4194C39.5748 47.1339 39.6774 46.8058 39.6774 46.4516V44.5161C39.6774 43.4487 38.8094 42.5806 37.7419 42.5806H35.5113C36.0194 41.1445 36.7984 39.8081 37.8194 38.6719L43.0113 32.9032H49.891L55.0829 38.6719C57.0058 40.8077 58.0645 43.5668 58.0645 46.4516C58.0645 52.8552 52.8552 58.0645 46.4516 58.0645Z" fill="url(#paint0_linear_196_3545)"/>
<path d="M27.4908 24.5439L26.2743 17.2461C26.104 16.2252 25.2292 15.4839 24.1937 15.4839C23.1582 15.4839 22.2834 16.2252 22.1121 17.2471L20.8956 24.5439C19.953 25.4274 19.355 26.6739 19.355 28.0645C19.355 30.7326 21.5256 32.9032 24.1937 32.9032C26.8618 32.9032 29.0324 30.7326 29.0324 28.0645C29.0324 26.6739 28.4343 25.4274 27.4908 24.5439ZM24.0214 17.5655C24.0495 17.3952 24.3379 17.3961 24.3659 17.5645L25.3347 23.3758C24.9669 23.2868 24.5885 23.2258 24.1937 23.2258C23.7989 23.2258 23.4205 23.2868 23.0527 23.3758L24.0214 17.5655ZM24.1937 30.9678C22.593 30.9678 21.2905 29.6652 21.2905 28.0645C21.2905 26.4639 22.593 25.1613 24.1937 25.1613C25.7943 25.1613 27.0969 26.4639 27.0969 28.0645C27.0969 29.6652 25.7943 30.9678 24.1937 30.9678Z" fill="url(#paint1_linear_196_3545)"/>
<path d="M24.1938 29.0323C24.7283 29.0323 25.1616 28.599 25.1616 28.0645C25.1616 27.5301 24.7283 27.0968 24.1938 27.0968C23.6593 27.0968 23.2261 27.5301 23.2261 28.0645C23.2261 28.599 23.6593 29.0323 24.1938 29.0323Z" fill="url(#paint2_linear_196_3545)"/>
<path d="M48.8594 48.0229H43.3149V46.5654H48.8228C49.3159 46.5654 49.7139 46.4897 50.0166 46.3384C50.3193 46.1821 50.5415 45.9648 50.6831 45.6865C50.8247 45.4082 50.8955 45.0835 50.8955 44.7124C50.8955 44.3804 50.8247 44.0703 50.6831 43.7822C50.5415 43.4941 50.3218 43.2598 50.0239 43.0791C49.7261 42.8936 49.3379 42.8008 48.8594 42.8008H46.6475V52H44.8091V41.3359H48.8594C49.6797 41.3359 50.3779 41.48 50.9541 41.7681C51.5303 42.0562 51.9722 42.4541 52.2798 42.9619C52.5874 43.4648 52.7412 44.0435 52.7412 44.6978C52.7412 45.396 52.585 45.9941 52.2725 46.4922C51.9648 46.9854 51.5205 47.3638 50.9395 47.6274C50.3633 47.8911 49.6699 48.0229 48.8594 48.0229ZM49.0352 48.8066V50.2642H43.3149V48.8066H49.0352Z" fill="url(#paint3_linear_196_3545)"/>
</g>
<defs>
<linearGradient id="paint0_linear_196_3545" x1="0" y1="0" x2="69.8033" y2="15.3134" gradientUnits="userSpaceOnUse">
<stop stop-color="#FBFF32"/>
<stop offset="1" stop-color="#FF961C"/>
</linearGradient>
<linearGradient id="paint1_linear_196_3545" x1="19.355" y1="15.4839" x2="30.9827" y2="16.901" gradientUnits="userSpaceOnUse">
<stop stop-color="#FBFF32"/>
<stop offset="1" stop-color="#FF961C"/>
</linearGradient>
<linearGradient id="paint2_linear_196_3545" x1="23.2261" y1="27.0968" x2="25.4778" y2="27.5908" gradientUnits="userSpaceOnUse">
<stop stop-color="#FBFF32"/>
<stop offset="1" stop-color="#FF961C"/>
</linearGradient>
<linearGradient id="paint3_linear_196_3545" x1="43" y1="38" x2="56.1763" y2="39.7665" gradientUnits="userSpaceOnUse">
<stop stop-color="#FBFF32"/>
<stop offset="1" stop-color="#FF961C"/>
</linearGradient>
<clipPath id="clip0_196_3545">
<rect width="60" height="60" fill="white"/>
</clipPath>
</defs>
</svg>
