<svg width="60" height="60" viewBox="0 0 60 60" fill="none" xmlns="http://www.w3.org/2000/svg">
<g clip-path="url(#clip0_202_4699)">
<path d="M6.73077 0C5.96572 9.79261e-08 5.23201 0.303914 4.69104 0.844884C4.15007 1.38585 3.84615 2.11957 3.84615 2.88462V3.84615H2.88462C2.11957 3.84615 1.38585 4.15007 0.844885 4.69104C0.303914 5.23201 9.79261e-08 5.96572 0 6.73077V54.8077C9.79261e-08 55.5728 0.303914 56.3065 0.844885 56.8474C1.38585 57.3884 2.11957 57.6923 2.88462 57.6923H50.9615C51.7266 57.6923 52.4603 57.3884 53.0013 56.8474C53.5422 56.3065 53.8462 55.5727 53.8462 54.8077V53.8462H54.8077C55.5727 53.8462 56.3065 53.5423 56.8474 53.0013C57.3884 52.4603 57.6923 51.7266 57.6923 50.9615V2.88462C57.6923 2.11957 57.3884 1.38585 56.8474 0.844884C56.3065 0.303914 55.5727 9.79261e-08 54.8077 0H6.73077ZM6.73077 1.92307H54.8077C54.934 1.92307 55.059 1.94795 55.1757 1.99627C55.2923 2.04459 55.3983 2.11542 55.4876 2.2047C55.5769 2.29399 55.6477 2.39999 55.696 2.51665C55.7444 2.63331 55.7692 2.75834 55.7692 2.88462V50.9615C55.7692 51.2166 55.6679 51.4611 55.4876 51.6415C55.3073 51.8218 55.0627 51.9231 54.8077 51.9231H53.8462V6.73077C53.8462 5.96572 53.5422 5.23201 53.0013 4.69104C52.4603 4.15007 51.7266 3.84615 50.9615 3.84615H5.76923V2.88462C5.76923 2.75834 5.7941 2.63331 5.84242 2.51665C5.89075 2.39999 5.96157 2.29399 6.05086 2.2047C6.14015 2.11542 6.24614 2.04459 6.3628 1.99627C6.47946 1.94794 6.6045 1.92307 6.73077 1.92307ZM2.88462 5.76923H50.9615C51.2166 5.76923 51.4611 5.87054 51.6414 6.05086C51.8218 6.23118 51.9231 6.47575 51.9231 6.73077V11.5385H1.92308V6.73077C1.92308 6.47575 2.02438 6.23118 2.20471 6.05086C2.38503 5.87054 2.6296 5.76923 2.88462 5.76923ZM3.84615 7.69231V9.61538H5.76923V7.69231H3.84615ZM7.69231 7.69231V9.61538H9.61539V7.69231H7.69231ZM11.5385 7.69231V9.61538H13.4615V7.69231H11.5385ZM1.92308 13.4615H51.9231V54.8077C51.9231 54.934 51.8982 55.059 51.8499 55.1757C51.8016 55.2923 51.7307 55.3983 51.6415 55.4876C51.5522 55.5769 51.4462 55.6477 51.3295 55.696C51.2129 55.7444 51.0878 55.7692 50.9615 55.7692H2.88462C2.75834 55.7692 2.63331 55.7444 2.51665 55.696C2.39999 55.6477 2.29399 55.5769 2.2047 55.4876C2.11542 55.3983 2.04459 55.2923 1.99627 55.1757C1.94795 55.059 1.92308 54.934 1.92308 54.8077V13.4615ZM6.73077 17.3077C6.6045 17.3077 6.47946 17.3326 6.3628 17.3809C6.24614 17.4292 6.14015 17.5 6.05086 17.5893C5.96157 17.6786 5.89075 17.7846 5.84242 17.9013C5.7941 18.0179 5.76923 18.143 5.76923 18.2692V39.4231C5.76923 39.5494 5.7941 39.6744 5.84242 39.791C5.89075 39.9077 5.96157 40.0137 6.05086 40.103C6.14015 40.1923 6.24614 40.2631 6.3628 40.3114C6.47946 40.3598 6.6045 40.3846 6.73077 40.3846H33.6539C33.7801 40.3846 33.9052 40.3598 34.0218 40.3114C34.1385 40.2631 34.2445 40.1923 34.3338 40.103C34.423 40.0137 34.4939 39.9077 34.5422 39.791C34.5905 39.6744 34.6154 39.5494 34.6154 39.4231V18.2692C34.6154 18.143 34.5905 18.0179 34.5422 17.9013C34.4939 17.7846 34.423 17.6786 34.3338 17.5893C34.2445 17.5 34.1385 17.4292 34.0218 17.3809C33.9052 17.3326 33.7801 17.3077 33.6539 17.3077H6.73077ZM7.69231 19.2308H32.6923V38.4615H7.69231V19.2308ZM36.5385 19.2308V21.1538H48.0769V19.2308H36.5385ZM14.4231 21.1538C13.1485 21.1554 11.9265 21.6624 11.0252 22.5637C10.1239 23.465 9.61691 24.6869 9.61539 25.9615V36.5385H11.5385V29.8077H17.3077V36.5385H19.2308V25.9615C19.2292 24.6869 18.7222 23.465 17.8209 22.5637C16.9197 21.6624 15.6977 21.1554 14.4231 21.1538ZM22.1154 21.1538C21.8604 21.1538 21.6158 21.2552 21.4355 21.4355C21.2552 21.6158 21.1538 21.8604 21.1538 22.1154V35.5769C21.1538 35.8319 21.2552 36.0765 21.4355 36.2568C21.6158 36.4372 21.8604 36.5385 22.1154 36.5385H24.0385C25.823 36.5364 27.5338 35.8266 28.7956 34.5648C30.0574 33.303 30.7672 31.5922 30.7692 29.8077V27.8846C30.7672 26.1001 30.0574 24.3893 28.7956 23.1275C27.5338 21.8657 25.823 21.1559 24.0385 21.1538H22.1154ZM23.0769 23.0769H24.0385C25.3131 23.0784 26.535 23.5855 27.4363 24.4867C28.3376 25.388 28.8446 26.61 28.8462 27.8846V29.8077C28.8446 31.0823 28.3376 32.3043 27.4363 33.2056C26.535 34.1068 25.3131 34.6139 24.0385 34.6154H23.0769V23.0769ZM14.5074 23.0781C15.2575 23.1001 15.9696 23.4135 16.4924 23.9518C17.0152 24.4902 17.3077 25.2111 17.3077 25.9615V27.8846H11.5385V25.9615C11.5385 25.5756 11.6159 25.1936 11.7662 24.8382C11.9164 24.4827 12.1365 24.1611 12.4133 23.8922C12.6902 23.6233 13.0182 23.4127 13.3778 23.2729C13.7375 23.1331 14.1216 23.0668 14.5074 23.0781V23.0781ZM36.5385 25V26.9231H48.0769V25H36.5385ZM36.5385 30.7692V32.6923H48.0769V30.7692H36.5385ZM36.5385 36.5385V38.4615H48.0769V36.5385H36.5385ZM5.76923 44.2308V46.1539H48.0769V44.2308H5.76923ZM5.76923 50V51.9231H48.0769V50H5.76923Z" fill="url(#paint0_linear_202_4699)"/>
</g>
<defs>
<linearGradient id="paint0_linear_202_4699" x1="0" y1="0" x2="67.1186" y2="14.7244" gradientUnits="userSpaceOnUse">
<stop stop-color="#FBFF32"/>
<stop offset="1" stop-color="#FF961C"/>
</linearGradient>
<clipPath id="clip0_202_4699">
<rect width="60" height="60" fill="white"/>
</clipPath>
</defs>
</svg>
