<svg width="58" height="64" viewBox="0 0 58 64" fill="none" xmlns="http://www.w3.org/2000/svg">
<g clip-path="url(#clip0_202_4704)">
<path d="M6.75139 43.4305L13.1449 47.8389C13.1608 47.8499 13.1771 47.8603 13.1938 47.8702C13.6108 48.1191 13.9185 48.5165 14.0551 48.9827L15.1249 53.733C15.1469 53.8297 15.1848 53.9221 15.2369 54.0065L14.0944 54.8813C13.9838 54.966 13.8943 55.075 13.8326 55.1999C13.7709 55.3248 13.7389 55.4622 13.7389 55.6015V63.0932C13.7389 63.257 13.7832 63.4178 13.8672 63.5584C13.9511 63.6991 14.0716 63.8143 14.2158 63.8919C14.36 63.9696 14.5225 64.0066 14.686 63.9992C14.8496 63.9918 15.0081 63.9402 15.1447 63.8499L26.9825 56.0226C27.1075 55.9399 27.2101 55.8276 27.2811 55.6955C27.352 55.5635 27.3892 55.4159 27.3892 55.266V46.5361C27.3891 46.3669 27.3418 46.2012 27.2526 46.0575C27.1634 45.9138 27.0358 45.798 26.8842 45.7231C26.7327 45.6482 26.5632 45.6172 26.395 45.6336C26.2267 45.6501 26.0665 45.7132 25.9322 45.816L24.8222 46.666C24.8018 46.5356 24.7873 46.4038 24.7796 46.2709L24.6815 44.5789C24.6799 44.5539 24.6775 44.5293 24.6741 44.5047C24.4377 42.7989 23.7341 41.1919 22.6413 39.8616C21.5485 38.5313 20.1091 37.5296 18.4826 36.9674L17.9327 36.7757C17.2023 36.5201 16.5387 36.1036 15.9908 35.5567L13.3579 32.9217L12.4599 29.8811C12.2355 29.0506 11.7715 28.3048 11.1259 27.7367C10.4804 27.1686 9.68186 26.8034 8.83013 26.6868L8.72087 26.3219C8.71867 26.3147 8.71647 26.3074 8.71401 26.3002C8.27501 24.9576 6.85897 24.0744 5.38144 24.0996C5.08873 23.1231 4.43142 22.2969 3.54601 21.7927C2.66061 21.2885 1.61515 21.145 0.626754 21.3919C0.402592 21.4476 0.208147 21.5868 0.083147 21.7812C-0.041853 21.9756 -0.0879735 22.2104 -0.0457915 22.4376L2.88092 38.2037C2.88877 38.2459 2.89959 38.2875 2.91328 38.3282C3.61594 40.3952 4.96083 42.1831 6.75139 43.4305ZM25.5767 54.7782L15.5513 61.407V56.0495L25.5767 48.372V54.7782ZM10.7112 30.3602C10.7133 30.368 10.7155 30.3759 10.7178 30.3839L10.8847 30.9489C10.608 30.8341 10.3209 30.7463 10.0274 30.6866L9.45219 28.7661C9.7597 28.9317 10.0301 29.1586 10.2466 29.4327C10.4631 29.7069 10.6212 30.0225 10.7112 30.3602ZM6.98791 26.8553L8.13584 30.6884C7.88977 30.7391 7.64819 30.8096 7.41345 30.8991L5.94291 25.9795C6.4311 26.1126 6.84538 26.4331 6.98791 26.8553ZM1.92278 23.1146C2.32358 23.1785 2.69814 23.3546 3.00324 23.6225C3.30833 23.8903 3.53153 24.239 3.64706 24.6284L5.69383 31.4755L5.82834 31.9101C5.81021 31.9276 5.79157 31.9441 5.77371 31.962C5.68712 32.0486 5.61898 32.1519 5.57341 32.2657C5.52783 32.3794 5.50576 32.5012 5.50854 32.6237C5.51131 32.7462 5.53886 32.8669 5.58953 32.9785C5.6402 33.09 5.71294 33.1902 5.80335 33.2728L9.00646 36.2007C9.92922 37.0448 10.7732 37.9712 11.528 38.9685C11.5996 39.0639 11.6894 39.1442 11.7921 39.2048C11.8949 39.2653 12.0085 39.305 12.1266 39.3216C12.2447 39.3381 12.3649 39.3312 12.4803 39.3011C12.5957 39.2711 12.704 39.2186 12.7991 39.1466C12.8942 39.0745 12.9741 38.9845 13.0344 38.8815C13.0946 38.7785 13.1339 38.6646 13.1501 38.5464C13.1662 38.4282 13.1589 38.3079 13.1286 38.1925C13.0982 38.0771 13.0454 37.9689 12.9731 37.8739C12.1519 36.7882 11.2333 35.7797 10.229 34.861L7.84688 32.6833C8.38299 32.4276 8.98505 32.3442 9.57042 32.4446C10.1558 32.5449 10.6958 32.8241 11.1163 33.2438L14.7083 36.8392C15.4497 37.5792 16.3478 38.1429 17.3363 38.4887L17.886 38.6803C19.1919 39.1315 20.3484 39.9341 21.2283 41C22.1083 42.0659 22.6778 43.3538 22.8742 44.7223L22.9702 46.3762C22.9998 46.8833 23.0953 47.3844 23.2543 47.8667L16.7786 52.826L15.8174 48.558C15.8139 48.5422 15.8099 48.5264 15.8055 48.5106C15.5498 47.6003 14.9585 46.821 14.1509 46.33L7.7815 41.9381C6.32891 40.9256 5.2331 39.4798 4.65051 37.807L1.92278 23.1146Z" fill="url(#paint0_linear_202_4704)"/>
<path d="M57.3754 21.3919C56.387 21.1451 55.3416 21.2887 54.4562 21.7929C53.5709 22.2971 52.9135 23.1232 52.6207 24.0996C51.1432 24.0744 49.7271 24.9579 49.2881 26.3003C49.2857 26.3076 49.2835 26.3148 49.2813 26.3221L49.172 26.6869C48.3203 26.8035 47.5218 27.1687 46.8762 27.7368C46.2306 28.3049 45.7666 29.0507 45.5422 29.8812L44.6442 32.922L42.0115 35.5567C41.4634 36.1037 40.7995 36.5203 40.0687 36.7758L39.5193 36.9673C37.8927 37.5295 36.4532 38.5311 35.3603 39.8615C34.2675 41.1918 33.5638 42.7988 33.3273 44.5047C33.324 44.5293 33.3215 44.5539 33.32 44.5789L33.2218 46.2708C33.2142 46.4037 33.1997 46.5354 33.1792 46.666L32.0693 45.816C31.935 45.7132 31.7747 45.65 31.6065 45.6336C31.4383 45.6172 31.2688 45.6482 31.1172 45.7231C30.9657 45.798 30.8381 45.9138 30.7489 46.0575C30.6596 46.2012 30.6123 46.3669 30.6123 46.5361V55.266C30.6123 55.4159 30.6495 55.5635 30.7204 55.6955C30.7914 55.8276 30.8939 55.9399 31.0189 56.0226L42.8568 63.8499C42.9934 63.9402 43.1519 63.9918 43.3154 63.9992C43.479 64.0066 43.6415 63.9696 43.7857 63.8919C43.9298 63.8143 44.0503 63.6991 44.1343 63.5584C44.2183 63.4178 44.2626 63.257 44.2626 63.0932V55.6015C44.2626 55.4622 44.2305 55.3248 44.1689 55.1999C44.1072 55.075 44.0177 54.966 43.9071 54.8813L42.7646 54.0065C42.8167 53.9221 42.8546 53.8297 42.8766 53.733L43.9463 48.9827C44.0831 48.5165 44.3909 48.1193 44.8079 47.8705C44.8246 47.8605 44.8409 47.8502 44.8568 47.8391L51.2522 43.4292C53.0417 42.1819 54.3858 40.3946 55.0881 38.3284C55.1018 38.2877 55.1126 38.2461 55.1204 38.2039L58.0479 22.4376C58.0901 22.2104 58.044 21.9756 57.919 21.7812C57.794 21.5868 57.5995 21.4476 57.3754 21.3919ZM51.0136 26.8553C51.156 26.4332 51.5702 26.1126 52.0586 25.9795L50.588 30.8988C50.3533 30.8093 50.1117 30.7388 49.8656 30.6882L51.0136 26.8553ZM47.2903 30.3602C47.3803 30.0226 47.5385 29.7071 47.755 29.433C47.9715 29.1589 48.2418 28.9321 48.5493 28.7666L47.9741 30.6871C47.6806 30.7468 47.3935 30.8347 47.1168 30.9494L47.2837 30.3844C47.286 30.3761 47.2882 30.368 47.2903 30.3602ZM42.4502 61.407L32.4247 54.7782V48.372L42.4502 56.0495V61.407ZM53.3507 37.8072C52.7686 39.4793 51.6735 40.9246 50.2218 41.9369L43.8505 46.33C43.043 46.821 42.4517 47.6003 42.196 48.5106C42.1916 48.5264 42.1876 48.5422 42.1841 48.558L41.2229 52.826L34.7471 47.8666C34.9062 47.3842 35.0017 46.8831 35.0313 46.376L35.1272 44.7222C35.3237 43.3537 35.8931 42.0659 36.7729 41C37.6528 39.9341 38.8091 39.1315 40.115 38.6802L40.6644 38.4888C41.6529 38.143 42.551 37.5792 43.2924 36.8392L46.8855 33.2438C47.3059 32.824 47.8459 32.5448 48.4313 32.4444C49.0167 32.3441 49.6187 32.4275 50.1549 32.6832L47.7725 34.861C46.768 35.7795 45.8494 36.7878 45.028 37.8733C44.9557 37.9682 44.9029 38.0765 44.8725 38.1919C44.8422 38.3073 44.8349 38.4275 44.851 38.5457C44.8672 38.664 44.9065 38.7778 44.9667 38.8808C45.027 38.9838 45.1069 39.0739 45.202 39.1459C45.2971 39.2179 45.4054 39.2705 45.5208 39.3005C45.6362 39.3305 45.7564 39.3375 45.8745 39.3209C45.9926 39.3044 46.1062 39.2647 46.209 39.2041C46.3117 39.1435 46.4015 39.0633 46.4731 38.9679C47.2279 37.9706 48.0719 37.0441 48.9946 36.2001L52.1977 33.2722C52.2882 33.1895 52.3609 33.0894 52.4116 32.9778C52.4622 32.8663 52.4898 32.7456 52.4926 32.6231C52.4953 32.5006 52.4733 32.3788 52.4277 32.265C52.3821 32.1513 52.314 32.048 52.2274 31.9613C52.2095 31.9434 52.1909 31.927 52.1728 31.9095L52.3097 31.4665L54.354 24.6276C54.4697 24.2384 54.6929 23.8898 54.998 23.6221C55.3031 23.3544 55.6776 23.1784 56.0783 23.1145L53.3507 37.8072Z" fill="url(#paint1_linear_202_4704)"/>
<path d="M11.7417 17.2716C11.7417 26.7953 19.4842 34.5434 29.0008 34.5434C38.5174 34.5434 46.2599 26.7953 46.2599 17.2716C46.2599 7.74789 38.5174 0 29.0008 0C19.4842 0 11.7417 7.74802 11.7417 17.2716ZM29.0008 1.81377C32.0559 1.81377 35.0424 2.72036 37.5826 4.41891C40.1227 6.11745 42.1026 8.53166 43.2717 11.3562C44.4408 14.1808 44.7467 17.2889 44.1507 20.2875C43.5547 23.286 42.0835 26.0403 39.9232 28.2022C37.763 30.364 35.0106 31.8362 32.0142 32.4327C29.0179 33.0291 25.9121 32.7229 23.0895 31.553C20.267 30.383 17.8546 28.4017 16.1573 25.8596C14.46 23.3175 13.5541 20.3289 13.5541 17.2716C13.5588 13.1733 15.1877 9.24423 18.0835 6.34632C20.9793 3.44842 24.9055 1.81836 29.0008 1.81377Z" fill="url(#paint2_linear_202_4704)"/>
<path d="M30.5781 19.4238H23.3027V17.8906H30.5781C31.2878 17.8906 31.8704 17.7767 32.3262 17.5488C32.7819 17.321 33.1172 16.9987 33.332 16.582C33.5534 16.1654 33.6641 15.6738 33.6641 15.1074C33.6641 14.6452 33.5599 14.2025 33.3516 13.7793C33.1497 13.3561 32.821 13.0078 32.3652 12.7344C31.916 12.4609 31.3203 12.3242 30.5781 12.3242H27.1992V25H25.3242V10.7812H30.5781C31.6523 10.7812 32.5573 10.9668 33.293 11.3379C34.0286 11.7025 34.5853 12.2103 34.9629 12.8613C35.347 13.5059 35.5391 14.248 35.5391 15.0879C35.5391 15.9993 35.347 16.7806 34.9629 17.4316C34.5853 18.0762 34.0286 18.571 33.293 18.916C32.5573 19.2546 31.6523 19.4238 30.5781 19.4238ZM30.4609 20.7617V22.3047H23.3027V20.7617H30.4609Z" fill="url(#paint3_linear_202_4704)"/>
</g>
<defs>
<linearGradient id="paint0_linear_202_4704" x1="-0.0610352" y1="21.2738" x2="32.7592" y2="25.8996" gradientUnits="userSpaceOnUse">
<stop stop-color="#FBFF32"/>
<stop offset="1" stop-color="#FF961C"/>
</linearGradient>
<linearGradient id="paint1_linear_202_4704" x1="30.6123" y1="21.2739" x2="63.4333" y2="25.9" gradientUnits="userSpaceOnUse">
<stop stop-color="#FBFF32"/>
<stop offset="1" stop-color="#FF961C"/>
</linearGradient>
<linearGradient id="paint2_linear_202_4704" x1="11.7417" y1="0" x2="51.9025" y2="8.80403" gradientUnits="userSpaceOnUse">
<stop stop-color="#FBFF32"/>
<stop offset="1" stop-color="#FF961C"/>
</linearGradient>
<linearGradient id="paint3_linear_202_4704" x1="23" y1="7" x2="39.7722" y2="9.23968" gradientUnits="userSpaceOnUse">
<stop stop-color="#FBFF32"/>
<stop offset="1" stop-color="#FF961C"/>
</linearGradient>
<clipPath id="clip0_202_4704">
<rect width="58" height="64" fill="white"/>
</clipPath>
</defs>
</svg>
