<svg width="54" height="62" viewBox="0 0 54 62" fill="none" xmlns="http://www.w3.org/2000/svg">
<g clip-path="url(#clip0_202_4709)">
<path d="M13.8538 35.4475C14.9989 35.4475 15.9307 34.5202 15.9307 33.3801C15.9307 32.2414 14.9989 31.3127 13.8538 31.3127C12.7087 31.3127 11.7769 32.24 11.7769 33.3801C11.7762 34.5202 12.7087 35.4475 13.8538 35.4475Z" fill="url(#paint0_linear_202_4709)"/>
<path d="M2.68441 32.705C1.22571 32.9489 0.486328 33.8196 0.486328 35.2911V43.2698C0.486328 44.7426 1.22571 45.6113 2.68441 45.8559L5.18156 46.2747C6.21448 48.6046 7.82064 50.7525 9.85948 52.5305L11.4809 59.872C11.7973 61.3035 12.6668 62 14.1407 62H18.2994C19.7519 62 20.638 61.3208 21.0077 59.9223L21.5983 57.6958C23.7991 57.9879 26.0269 57.979 28.2043 57.6772L28.6896 59.8727C29.0059 61.3049 29.8755 62.0014 31.3501 62.0014H35.5081C36.9626 62.0014 37.8481 61.3215 38.2164 59.9244L40.2996 52.069C43.8753 48.7258 45.8422 44.3982 45.8422 39.8529C45.8422 39.4106 45.8179 38.9746 45.7806 38.5399C47.1313 38.2016 48.2466 37.8048 49.1403 37.3715C50.0597 37.7876 51.1972 38.0439 52.5645 38.0611C52.5693 38.0611 52.5735 38.0611 52.5776 38.0611C53.0913 38.0611 53.5116 37.6492 53.5164 37.1373C53.524 36.6213 53.1073 36.1977 52.588 36.1908C52.075 36.1839 51.6063 36.1377 51.1847 36.0592C52.9335 34.5381 52.9889 32.9661 52.9196 32.3185C52.7376 30.6287 51.3474 29.3542 49.6866 29.3542C47.6719 29.3542 46.1426 30.9476 46.1288 33.0598C46.1219 34.1131 46.5158 35.2084 47.3473 36.1047C46.8066 36.312 46.1925 36.5042 45.5112 36.6833C43.7611 28.232 35.1536 21.7944 24.8251 21.7944C22.0593 21.7944 19.3766 22.249 16.8407 23.1453C13.6568 20.3133 9.53756 19.8772 7.30348 19.8772L7.06602 19.8793C5.99225 19.8944 5.63156 20.502 5.52633 20.7617C5.41833 21.0283 5.25425 21.7331 6.05594 22.5232C7.08817 23.5393 8.8051 25.5282 9.16787 27.8118C7.79502 29.129 6.66379 30.5963 5.79564 32.1842L2.68441 32.705ZM49.6845 31.2232C50.3713 31.2232 50.9708 31.7895 51.049 32.5149C51.1342 33.3071 50.6136 34.3108 49.1535 35.2236C48.3698 34.6353 48.0036 33.8472 48.0084 33.0687C48.0133 32.1794 48.5401 31.2232 49.6845 31.2232ZM7.24741 33.4518C8.10794 31.766 9.3001 30.2202 10.7906 28.8582L11.1285 28.5496L11.0925 28.0956C10.8806 25.4352 9.20317 23.1432 7.92587 21.7599C10.0651 21.8447 13.4588 22.4116 15.9559 24.8868L16.3879 25.3146L16.957 25.0969C19.4396 24.1469 22.087 23.6654 24.8244 23.6654C35.3773 23.6654 43.9605 30.927 43.9605 39.8529C43.9605 43.9532 42.1363 47.8695 38.8256 50.8779L38.6214 51.0639L36.397 59.4497C36.2447 60.0305 36.1118 60.1317 35.5074 60.1317H31.3494C30.7589 60.1317 30.6509 60.0456 30.5263 59.4732L29.656 55.5382L28.7671 55.696C26.2478 56.1417 23.6191 56.1548 21.0624 55.7256L20.2157 55.5809L19.1911 59.447C19.0374 60.0277 18.9038 60.1297 18.3008 60.1297H14.1421C13.5523 60.1297 13.4449 60.0436 13.3183 59.4711L11.5612 51.5165L11.3189 51.3112C9.25233 49.5697 7.66141 47.4176 6.71917 45.0885L6.52256 44.6035L2.99664 44.011C2.43171 43.9167 2.36664 43.8416 2.36664 43.2698V35.2911C2.36664 34.7207 2.43171 34.6449 2.99733 34.5498L7.03417 33.872L7.24741 33.4518Z" fill="url(#paint1_linear_202_4709)"/>
<path d="M19.6054 28.8348C20.5449 28.4407 22.2771 27.9144 24.8234 27.9144C27.3662 27.9144 29.1004 28.4421 30.0427 28.8362C30.5211 29.0366 31.1137 28.9085 31.4003 28.4779C31.6869 28.0474 31.5664 27.4687 31.0964 27.2497C30.0157 26.7475 27.9457 26.0427 24.8248 26.0427C21.6997 26.0427 19.6311 26.7475 18.5518 27.2503C18.0817 27.4694 17.9605 28.0488 18.2485 28.4786C18.5344 28.9092 19.1271 29.0359 19.6054 28.8348Z" fill="url(#paint2_linear_202_4709)"/>
<path d="M24.8226 19.0478C30.1008 19.0478 34.3952 14.776 34.3952 9.52389C34.3965 4.27249 30.1008 0 24.8226 0C19.5452 0 15.2515 4.27249 15.2515 9.52389C15.2522 14.776 19.5452 19.0478 24.8226 19.0478ZM24.8226 1.87102C29.0644 1.87102 32.5142 5.30445 32.5142 9.52389C32.5142 13.744 29.0651 17.1761 24.8226 17.1761C20.5822 17.1761 17.1311 13.744 17.1311 9.52389C17.1318 5.30445 20.5822 1.87102 24.8226 1.87102Z" fill="url(#paint3_linear_202_4709)"/>
</g>
<path d="M25.3989 11.2124H21.2847V9.95557H25.3613C25.6943 9.95557 25.9593 9.90365 26.1562 9.7998C26.3568 9.69596 26.5018 9.55273 26.5913 9.37012C26.6808 9.18392 26.7256 8.97266 26.7256 8.73633C26.7256 8.50358 26.6772 8.29053 26.5806 8.09717C26.4875 7.90023 26.3424 7.74268 26.1455 7.62451C25.9521 7.50277 25.7051 7.44189 25.4043 7.44189H23.981V14H22.3696V6.17969H25.3989C26.0148 6.17969 26.5412 6.2889 26.978 6.50732C27.4185 6.72575 27.7568 7.02653 27.9932 7.40967C28.2295 7.79281 28.3477 8.23145 28.3477 8.72559C28.3477 9.24479 28.2259 9.69059 27.9824 10.063C27.7425 10.4354 27.4023 10.7201 26.9619 10.917C26.5251 11.1139 26.0041 11.2124 25.3989 11.2124ZM25.6943 11.6528V12.9097H21.2847V11.6528H25.6943Z" fill="url(#paint4_linear_202_4709)"/>
<defs>
<linearGradient id="paint0_linear_202_4709" x1="11.7769" y1="31.3127" x2="16.6073" y2="32.3774" gradientUnits="userSpaceOnUse">
<stop stop-color="#FBFF32"/>
<stop offset="1" stop-color="#FF961C"/>
</linearGradient>
<linearGradient id="paint1_linear_202_4709" x1="0.486328" y1="19.8772" x2="60.5676" y2="36.4703" gradientUnits="userSpaceOnUse">
<stop stop-color="#FBFF32"/>
<stop offset="1" stop-color="#FF961C"/>
</linearGradient>
<linearGradient id="paint2_linear_202_4709" x1="18.0938" y1="26.0427" x2="26.1121" y2="34.2473" gradientUnits="userSpaceOnUse">
<stop stop-color="#FBFF32"/>
<stop offset="1" stop-color="#FF961C"/>
</linearGradient>
<linearGradient id="paint3_linear_202_4709" x1="15.2515" y1="0" x2="37.5127" y2="4.90825" gradientUnits="userSpaceOnUse">
<stop stop-color="#FBFF32"/>
<stop offset="1" stop-color="#FF961C"/>
</linearGradient>
<linearGradient id="paint4_linear_202_4709" x1="21" y1="4" x2="30.5804" y2="5.29338" gradientUnits="userSpaceOnUse">
<stop stop-color="#FBFF32"/>
<stop offset="1" stop-color="#FF961C"/>
</linearGradient>
<clipPath id="clip0_202_4709">
<rect width="54" height="62" fill="white"/>
</clipPath>
</defs>
</svg>
