<?xml version="1.0" encoding="iso-8859-1"?>
<!-- Uploaded to: SVG Repo, www.svgrepo.com, Generator: SVG Repo Mixer Tools -->
<svg fill="#000000" height="800px" width="800px" version="1.1" id="Layer_1" xmlns="http://www.w3.org/2000/svg" xmlns:xlink="http://www.w3.org/1999/xlink" 
	 viewBox="0 0 512 512" xml:space="preserve">
<g>
	<g>
		<path d="M256,115.088c-77.699,0-140.912,63.213-140.912,140.912S178.301,396.912,256,396.912S396.912,333.699,396.912,256
			S333.698,115.088,256,115.088z M256,364.951c-60.076,0-108.952-48.875-108.952-108.952S195.924,147.047,256,147.047
			s108.952,48.875,108.952,108.952S316.075,364.951,256,364.951z"/>
	</g>
</g>
<g>
	<g>
		<path d="M512,256l-68.323-50.303l34.063-77.755l-84.371-9.31l-9.309-84.371l-77.756,34.063L256,0l-50.303,68.323l-77.755-34.062
			l-9.31,84.371l-84.371,9.309l34.063,77.756L0,256l68.323,50.303l-34.062,77.755l84.371,9.31l9.309,84.371l77.756-34.063L256,512
			l50.303-68.323l77.755,34.063l9.31-84.371l84.371-9.309l-34.063-77.756L512,256z M364.409,364.409l-7.35,66.61l-61.341-26.873
			L256,458.094l-39.719-53.948L154.94,431.02l-7.35-66.61l-66.61-7.35l26.873-61.341L53.906,256l53.948-39.719L80.98,154.94
			l66.61-7.35l7.35-66.61l61.341,26.873L256,53.906l39.719,53.948L357.06,80.98l7.35,66.61l66.61,7.35l-26.873,61.341L458.094,256
			l-53.948,39.719l26.873,61.341L364.409,364.409z"/>
	</g>
</g>
</svg>