<svg width="20" height="20" viewBox="0 0 20 20" fill="none" xmlns="http://www.w3.org/2000/svg">
<g clip-path="url(#clip0_30_93)">
<path d="M16.5958 10.8565C16.2725 10.4482 16.365 10.2665 16.5958 9.9015C16.6 9.89734 19.2692 6.209 19.5442 4.95817L19.5458 4.95734C19.6825 4.5015 19.5458 4.1665 18.885 4.1665H16.6983C16.1417 4.1665 15.885 4.454 15.7475 4.77567C15.7475 4.77567 14.6342 7.44067 13.0592 9.16817C12.5508 9.66734 12.3158 9.82734 12.0383 9.82734C11.9017 9.82734 11.6892 9.66734 11.6892 9.2115V4.95734C11.6892 4.41067 11.5333 4.1665 11.0725 4.1665H7.63417C7.285 4.1665 7.0775 4.4215 7.0775 4.659C7.0775 5.17734 7.865 5.2965 7.94667 6.75484V9.919C7.94667 10.6123 7.82083 10.7398 7.54167 10.7398C6.79833 10.7398 4.99417 8.064 3.925 5.0015C3.70917 4.40734 3.49833 4.16734 2.9375 4.16734H0.75C0.125833 4.16734 0 4.45484 0 4.7765C0 5.34484 0.743333 8.17067 3.45667 11.904C5.265 14.4523 7.81167 15.8332 10.1283 15.8332C11.5208 15.8332 11.6908 15.5265 11.6908 14.999C11.6908 12.564 11.565 12.334 12.2625 12.334C12.5858 12.334 13.1425 12.494 14.4425 13.7232C15.9283 15.1807 16.1725 15.8332 17.0042 15.8332H19.1908C19.8142 15.8332 20.13 15.5265 19.9483 14.9215C19.5325 13.649 16.7225 11.0315 16.5958 10.8565Z" fill="#999999"/>
</g>
<defs>
<clipPath id="clip0_30_93">
<rect width="20" height="20" fill="white"/>
</clipPath>
</defs>
</svg>
