<svg width="20" height="20" viewBox="0 0 20 20" fill="none" xmlns="http://www.w3.org/2000/svg">
<g clip-path="url(#clip0_30_80)">
<path d="M9.51273 0.0301042C4.20463 0.280915 0.0158585 4.67173 0.0318449 9.94976C0.0367429 11.5573 0.427491 13.0747 1.11688 14.4156L0.0585795 19.5179C0.0013686 19.794 0.251981 20.0357 0.528035 19.9707L5.56171 18.7862C6.85497 19.4262 8.30756 19.7956 9.84484 19.819C15.2702 19.9013 19.7939 15.6227 19.9632 10.2359C20.1443 4.46173 15.3463 -0.245909 9.51273 0.0301042ZM15.5191 15.401C14.045 16.8651 12.0848 17.6715 10 17.6715C8.77933 17.6715 7.61048 17.3994 6.52613 16.863L5.82531 16.5161L2.73892 17.2423L3.38851 14.1101L3.04327 13.4383C2.48028 12.3433 2.19484 11.1594 2.19484 9.91909C2.19484 7.84828 3.00674 5.90159 4.48082 4.43734C5.94178 2.98612 7.93382 2.1668 10.0001 2.1668C12.0848 2.1668 14.0449 2.97322 15.519 4.43734C16.9931 5.90146 17.805 7.84834 17.805 9.91888C17.8051 11.9713 16.9801 13.9498 15.5191 15.401Z" fill="#999999"/>
<path d="M14.8378 12.0663L12.9069 11.5157C12.6532 11.4435 12.3798 11.515 12.1948 11.7022L11.7226 12.1799C11.5235 12.3815 11.2215 12.4462 10.9579 12.3403C10.0445 11.9732 8.1231 10.2763 7.6327 9.42775C7.49093 9.18288 7.5144 8.87694 7.68827 8.65329L8.10038 8.12363C8.26188 7.91619 8.29589 7.63734 8.18916 7.39748L7.37685 5.57262C7.18229 5.13559 6.61997 5.0083 6.25256 5.31694C5.71372 5.76971 5.07433 6.45748 4.99671 7.21964C4.85963 8.56336 5.43991 10.2571 7.63358 12.2909C10.1681 14.6408 12.1978 14.951 13.5195 14.6331C14.2691 14.4529 14.8681 13.73 15.246 13.1381C15.5039 12.7342 15.3 12.1983 14.8378 12.0663Z" fill="#999999"/>
</g>
<defs>
<clipPath id="clip0_30_80">
<rect width="20" height="20" fill="white"/>
</clipPath>
</defs>
</svg>
