<svg width="130" height="130" viewBox="0 0 130 130" fill="none" xmlns="http://www.w3.org/2000/svg">
<circle cx="65" cy="65" r="65" fill="#FFDE32"/>
<mask id="mask0_264_63" style="mask-type:alpha" maskUnits="userSpaceOnUse" x="0" y="0" width="130" height="130">
<circle cx="65" cy="65" r="65" fill="#FFDE32"/>
</mask>
<g mask="url(#mask0_264_63)">
<path d="M23.8904 107.832H23.5912C22.1915 107.832 21.0568 108.958 21.0568 110.346V124.427C21.0568 125.815 22.1915 126.94 23.5912 126.94H23.8904C25.2901 126.94 26.4247 125.815 26.4247 124.427V110.346C26.4247 108.958 25.2901 107.832 23.8904 107.832Z" fill="#263238"/>
<path d="M42.5848 130.913C42.5848 130.913 35.5872 130.913 32.5002 130.913C29.4132 130.913 26.0903 131.262 24.7563 129.454C23.7003 128.057 23.8904 126.176 23.9713 124.486C24.206 119.732 24.4325 114.978 24.6507 110.224C24.7105 108.935 24.7809 107.619 25.323 106.415C25.8651 105.211 28.3114 88.5499 29.7828 88.2637H42.2504L42.5848 130.913Z" fill="#263238"/>
<path d="M39.9625 123.293C39.9625 123.341 36.622 123.383 32.5002 123.383C28.3783 123.383 25.0379 123.341 25.0379 123.293C25.0379 123.244 28.3783 123.198 32.5002 123.198C36.622 123.198 39.9625 123.24 39.9625 123.293Z" fill="#455A64"/>
<path d="M34.0173 103.992C34.0701 103.992 34.1088 108.307 34.1088 113.63C34.1088 118.953 34.0701 123.271 34.0173 123.271C33.9645 123.271 33.9258 118.957 33.9258 113.63C33.9258 108.303 33.968 103.992 34.0173 103.992Z" fill="#455A64"/>
<path d="M24.7 125.816C24.6838 125.758 24.6767 125.698 24.6788 125.638C24.6788 125.502 24.6788 125.335 24.6542 125.132C24.6331 124.689 24.6155 124.05 24.5979 123.261C24.5627 121.683 24.5416 119.502 24.5627 117.093C24.5838 114.685 24.6401 112.499 24.7035 110.922C24.7316 110.133 24.7633 109.494 24.788 109.054L24.8232 108.544C24.8232 108.485 24.8314 108.427 24.8478 108.37C24.8563 108.429 24.8563 108.489 24.8478 108.548V109.054C24.8478 109.525 24.8478 110.157 24.8161 110.925C24.795 112.527 24.7668 114.695 24.7316 117.093C24.6964 119.491 24.7316 121.655 24.714 123.261C24.714 124.029 24.714 124.657 24.714 125.132C24.714 125.335 24.714 125.502 24.714 125.638C24.7171 125.698 24.7123 125.758 24.7 125.816Z" fill="#455A64"/>
<path d="M93.6522 64.157C93.6522 64.157 99.1257 65.2042 101.913 73.9553C105.099 83.9771 110.474 104.523 110.432 106.893C110.39 109.264 104.293 113.068 104.293 113.068L95.56 110.182L90.9841 93.0773L93.6522 64.157Z" fill="#FF725E"/>
<path d="M93.6522 64.1569L80.1849 59.2036L79.2591 58.0308L61.8917 58.5648L60.6034 59.3886C60.6034 59.3886 47.5479 62.2266 46.1963 62.4011C43.0283 62.8025 39.709 67.124 39.709 67.124C39.357 67.5254 22.9681 91.1853 22.9681 91.1853L26.7873 106.087C26.7873 106.087 28.593 106.719 33.7849 103.343C37.8962 100.666 41.0923 96.4282 42.2328 94.7806L42.2152 130.927H93.0996L90.3294 108L93.6522 64.1569Z" fill="#FF725E"/>
<path d="M91.0686 87.9705C91.0661 87.9104 91.0733 87.8503 91.0897 87.7924C91.1179 87.6563 91.1495 87.4888 91.1883 87.2863L91.5649 85.4293C91.8782 83.8619 92.2689 81.6872 92.649 79.2787C93.0292 76.8701 93.2721 74.671 93.4375 73.0827C93.5185 72.3078 93.5818 71.669 93.6311 71.1977C93.6522 70.9918 93.6698 70.8242 93.6874 70.6846C93.6895 70.6241 93.7002 70.5642 93.7191 70.5066C93.7274 70.5668 93.7274 70.6279 93.7191 70.6881C93.7191 70.8277 93.7191 70.9953 93.698 71.2047C93.6769 71.6515 93.6311 72.2973 93.5642 73.0932C93.4305 74.6884 93.1911 76.8876 92.825 79.3031C92.459 81.7187 92.033 83.8899 91.6881 85.4537C91.5156 86.2356 91.3678 86.8674 91.2551 87.3003C91.2023 87.4992 91.1601 87.6668 91.1214 87.7994C91.1109 87.8584 91.0932 87.9158 91.0686 87.9705Z" fill="#263238"/>
<path d="M40.6278 78.2942C40.6506 78.3657 40.6659 78.4394 40.6735 78.5141C40.6982 78.6747 40.7298 78.8841 40.7721 79.1389C40.853 79.687 40.9586 80.4759 41.0818 81.4567C41.3247 83.415 41.6098 86.1273 41.8316 89.1362C42.0533 92.1452 42.1836 94.8644 42.2117 96.8332C42.2329 97.821 42.2434 98.6204 42.2434 99.1719C42.2434 99.4303 42.2434 99.6397 42.2434 99.8072C42.2494 99.8804 42.2494 99.954 42.2434 100.027C42.2271 99.955 42.2189 99.8812 42.2188 99.8072C42.2188 99.6432 42.2012 99.4303 42.1906 99.1719C42.166 98.5995 42.1378 97.8071 42.0991 96.8402C42.0181 94.8679 41.8844 92.1487 41.6661 89.1607C41.4479 86.1727 41.1804 83.4534 40.9622 81.4812C40.8566 80.5178 40.7721 79.7358 40.7122 79.1599C40.6841 78.9016 40.663 78.6921 40.6489 78.5281C40.6317 78.4513 40.6246 78.3727 40.6278 78.2942Z" fill="#263238"/>
<path d="M80.1779 60.9945C80.1261 61.0601 80.067 61.1198 80.0019 61.1725C79.8787 61.2807 79.6956 61.4413 79.4598 61.6402C78.9811 62.0452 78.2841 62.6141 77.3901 63.2809C76.3509 64.0804 75.2384 64.7816 74.0672 65.3753C72.5882 66.0272 70.9992 66.399 69.3822 66.4713C67.7666 66.59 66.1439 66.37 64.6197 65.8256C63.3901 65.342 62.3013 64.5622 61.4518 63.5566C60.8746 62.8814 60.4454 62.0944 60.1916 61.2458C60.1242 61.0172 60.0748 60.7838 60.0438 60.5477C60.0255 60.4663 60.0172 60.3831 60.0191 60.2998C60.0478 60.3777 60.0679 60.4585 60.079 60.5407C60.1268 60.7763 60.1867 61.0093 60.2585 61.2388C60.5361 62.065 60.9751 62.8288 61.5503 63.4868C62.4018 64.4635 63.4825 65.2176 64.6972 65.6824C66.1975 66.203 67.7901 66.4109 69.3752 66.2933C70.9683 66.2207 72.5346 65.8599 73.9968 65.2287C75.1604 64.6458 76.27 63.9625 77.3126 63.1866C78.2137 62.5338 78.9248 61.9788 79.4246 61.5949L79.9878 61.1515C80.0478 61.0953 80.1113 61.0429 80.1779 60.9945Z" fill="#263238"/>
<g opacity="0.3">
<path opacity="0.3" d="M54.1971 77.7251C52.1696 79.1214 51.9232 81.9384 51.8106 84.3818C51.3354 94.414 44.8798 113.567 42.2258 123.258C50.5821 110.454 55.7072 92.9061 54.1971 77.7251Z" fill="black"/>
</g>
<path d="M54.7498 60.6454C54.7498 60.6454 54.0739 82.2352 52.2084 95.2031C50.3428 108.171 41.2965 125.401 41.2965 125.401L39.8358 122.563C39.8358 122.563 44.8341 108.181 47.0974 96.1142C48.699 87.5934 47.0974 61.9055 47.0974 61.9055C49.3844 60.5107 52.1309 60.0585 54.7498 60.6454Z" fill="#263238"/>
<path d="M49.945 82.0224C49.8957 82.0224 50.0119 77.5264 50.209 71.9832C50.4061 66.4399 50.6068 61.9474 50.656 61.9509C50.7053 61.9544 50.5892 66.4469 50.3921 71.9901C50.1949 77.5333 49.9943 82.0259 49.945 82.0224Z" fill="#455A64"/>
<path d="M21.7432 83.2615L20.0079 87.7086C20.0079 87.7086 17.7058 92.3617 17.8959 95.5242C18.086 98.6868 22.0917 110.241 30.2157 106.495C38.3398 102.75 34.2707 96.6622 34.2707 96.6622L30.4551 86.3018L24.4712 82.3958C24.2419 82.2455 23.9815 82.1481 23.7093 82.1109C23.437 82.0736 23.1598 82.0974 22.898 82.1804C22.6363 82.2635 22.3966 82.4038 22.1968 82.5908C21.9969 82.7779 21.8419 83.0071 21.7432 83.2615Z" fill="#FF725E"/>
<path d="M31.3316 70.9044C31.8631 71.6025 34.9289 70.7996 35.6259 72.2203C35.8335 72.6034 35.9422 73.0316 35.9422 73.4665C35.9422 73.9014 35.8335 74.3296 35.6259 74.7127C35.9763 75.1516 36.1918 75.6812 36.2467 76.2383C36.3017 76.7954 36.1937 77.3564 35.9356 77.8543C36.2297 78.5114 36.3426 79.2341 36.263 79.9487C36.1462 80.6644 35.7815 81.3174 35.2317 81.7953C35.2982 82.1595 35.2579 82.5349 35.1157 82.8771C34.9734 83.2193 34.7351 83.5138 34.4291 83.7256C33.3731 84.4238 30.5783 84.9613 30.5783 84.9613L29.4308 87.0557C29.4308 87.0557 27.8398 88.8011 25.8686 88.0192C23.8974 87.2372 22.5669 83.3382 22.5669 83.3382C22.6549 82.839 24.8689 79.2052 24.8689 79.2052C24.8689 79.2052 25.3089 73.7981 26.2769 72.4821C27.2449 71.1662 27.6849 70.9009 27.6849 70.9009C27.6849 70.9009 28.5297 69.0962 28.5297 68.3213C28.5297 67.5463 27.8046 65.0679 28.241 64.5653C28.6775 64.0626 30.4621 64.4117 31.2436 66.4607C32.025 68.5098 31.3316 70.9044 31.3316 70.9044Z" fill="#FFBF9D"/>
<path d="M35.5238 74.5487C35.5238 74.6046 34.4679 74.4231 33.1725 74.4161C31.8772 74.4091 30.8247 74.5767 30.8141 74.5208C31.0307 74.4316 31.2599 74.3763 31.4935 74.3568C32.6057 74.1868 33.7381 74.1939 34.848 74.3777C35.0808 74.4001 35.3087 74.4578 35.5238 74.5487Z" fill="#FF9A6C"/>
<path d="M35.7667 78.1195C35.7667 78.1754 34.774 77.9764 33.5491 77.9764C32.3241 77.9764 31.3386 78.1579 31.328 78.1021C32.7788 77.6867 34.3193 77.6927 35.7667 78.1195Z" fill="#FF9A6C"/>
<path d="M35.5203 81.7256C34.9095 81.9789 34.2568 82.1186 33.5949 82.1375C32.9368 82.2137 32.2701 82.1711 31.6273 82.0118C31.6273 81.9594 32.5072 82.0362 33.5808 81.956C34.6544 81.8757 35.5062 81.6732 35.5203 81.7256Z" fill="#FF9A6C"/>
<path d="M32.831 84.3191C32.5814 84.4794 32.3066 84.5973 32.0179 84.6682C30.6333 85.0969 29.1423 85.0414 27.794 84.5111C27.5125 84.4156 27.2486 84.2753 27.0126 84.0957C27.9347 84.4718 28.9115 84.6992 29.906 84.7694C30.899 84.7756 31.8866 84.6236 32.831 84.3191Z" fill="#FF9A6C"/>
<path d="M32.8627 71.3513C32.8627 71.4107 31.7258 71.1698 30.3178 71.2222C28.9098 71.2745 27.8045 71.5713 27.7905 71.5119C28.0119 71.3991 28.2492 71.3203 28.4945 71.278C29.0878 71.1374 29.694 71.0567 30.3037 71.0372C30.9119 71.0175 31.5205 71.0596 32.12 71.1628C32.3757 71.1885 32.626 71.252 32.8627 71.3513Z" fill="#FF9A6C"/>
<path d="M33.4752 101.856C33.4576 101.856 33.5667 101.636 33.7216 101.238C33.9431 100.676 34.099 100.091 34.1862 99.493C34.3193 98.6116 34.3086 97.7147 34.1545 96.8366C33.968 95.7634 33.5593 94.7401 32.9542 93.8312C32.3136 92.8608 31.5991 91.9741 31.1943 91.0177C30.8454 90.1827 30.5973 89.3098 30.4551 88.4171C30.3284 87.6597 30.2685 87.0418 30.2298 86.6124C30.2298 86.417 30.2017 86.2634 30.1911 86.1203C30.1818 86.0636 30.1818 86.0059 30.1911 85.9492C30.2113 86.0032 30.2243 86.0595 30.2298 86.1168C30.2298 86.2494 30.2721 86.41 30.3002 86.6055C30.36 87.0313 30.441 87.6527 30.5853 88.3927C30.7386 89.2722 30.995 90.1309 31.3492 90.9514C31.7434 91.8799 32.4474 92.7491 33.1091 93.7439C33.7304 94.6714 34.1444 95.72 34.3235 96.8192C34.474 97.7148 34.474 98.6289 34.3235 99.5245C34.2207 100.126 34.0433 100.712 33.7955 101.27C33.7308 101.423 33.6567 101.572 33.5738 101.717C33.5457 101.766 33.5126 101.813 33.4752 101.856Z" fill="#263238"/>
<g opacity="0.3">
<path opacity="0.3" d="M30.3108 85.8411C30.3566 86.0296 30.4129 86.2111 30.4727 86.3926V85.8411H30.3108Z" fill="black"/>
</g>
<g opacity="0.3">
<path opacity="0.3" d="M33.8025 92.0858C32.5952 90.2427 31.1555 88.48 30.4727 86.4065C30.4727 88.1693 30.5571 89.9635 31.2998 91.5552C31.7891 92.6024 32.5353 93.4995 33.1584 94.4699C33.7814 95.4404 34.2918 96.5469 34.2144 97.6953C34.1407 98.0974 34.13 98.5083 34.1827 98.9136C34.2848 99.3115 34.6966 99.6745 35.0838 99.5384C35.2207 99.4652 35.3383 99.3609 35.427 99.2342C35.5157 99.1074 35.573 98.9617 35.5942 98.8088C36.1996 96.498 35.1119 94.0895 33.8025 92.0858Z" fill="black"/>
</g>
<path d="M88.7031 40.4413C87.8971 40.8916 86.8165 40.3121 86.4504 39.4708C86.0843 38.6296 86.2568 37.6592 86.5349 36.783C86.813 35.9069 87.1966 35.0377 87.2389 34.1406C87.274 33.3045 87.0365 32.4795 86.5616 31.7879C86.0867 31.0962 85.3997 30.5748 84.6024 30.3008C86.1688 29.0686 86.299 26.4262 84.8559 25.0648C84.1835 24.419 83.286 24.07 82.5045 23.5638C82.0595 23.2693 81.6435 22.9339 81.262 22.562C81.9617 22.7326 82.6899 22.754 83.3986 22.6248C83.9684 22.5015 84.4974 22.237 84.9362 21.8561C85.3751 21.4752 85.7095 20.9903 85.9083 20.4466C86.0932 19.8987 86.1203 19.3105 85.9866 18.7481C85.8529 18.1858 85.5637 17.6715 85.1515 17.2631C84.7251 16.8683 84.1876 16.6114 83.6104 16.5266C83.0333 16.4418 82.4438 16.5331 81.9202 16.7884C80.91 17.319 80.3538 18.4116 79.861 19.4343L79.4035 20.3873C77.9779 18.5163 76.6368 16.579 74.4403 15.9227C72.4445 15.3258 70.3009 15.9925 68.2241 15.8424C66.7105 15.7342 65.2603 15.1897 63.7538 15.0291C62.2472 14.8685 60.5295 15.1827 59.639 16.4009C59.1145 17.1165 58.935 18.0416 58.4211 18.7537C57.3299 20.2197 54.975 20.4187 54.0775 22.0105C53.3488 23.302 53.9085 24.9356 53.5952 26.3843C53.2432 27.9621 51.9479 29.114 50.8743 30.3218C49.8007 31.5295 48.8679 33.1981 49.4663 34.6956C49.9943 36.0116 51.5431 36.7202 52.05 38.0466C52.402 39.0136 52.1485 40.0887 52.1309 41.1219C52.1133 42.1552 52.5287 43.3839 53.5389 43.6178L65.1019 46.6477C69.083 48.2534 73.1978 49.887 77.4921 49.8801C81.7865 49.8731 86.38 47.8275 88.0766 43.911C87.4478 43.8838 86.8534 43.619 86.4152 43.171C86.9792 42.9162 87.478 42.5384 87.8741 42.0657C88.2703 41.5931 88.5537 41.0378 88.7031 40.4413Z" fill="#263238"/>
<path d="M79.2275 44.04C80.1814 41.1323 81.1212 38.2001 81.5577 35.1737C81.9941 32.1473 81.9097 28.9882 80.822 26.1224C80.6601 25.686 79.2732 22.7713 78.8051 22.8167C78.4742 22.8481 79.3296 25.5708 79.1571 25.8571C77.552 28.5903 77.1155 31.875 77.3725 35.0271C77.6505 38.0902 78.2715 41.1131 79.224 44.04" fill="#263238"/>
<path d="M67.756 18.1218L67.052 18.1602C63.5821 18.3449 60.3094 19.8182 57.8851 22.2871C55.4607 24.7559 54.0624 28.0394 53.9684 31.4842C53.7889 38.1164 53.5389 44.5079 53.7748 48.0544C54.2641 55.3848 61.8707 56.1668 61.8707 56.1668V59.9576C62.198 63.8253 67.2491 64.52 69.164 64.3524C75.778 64.3524 79.2275 58.9837 79.2275 58.9837L79.5373 32.3603C79.7837 24.7052 75.4928 18.1707 67.756 18.1218Z" fill="#FFBF9D"/>
<path d="M61.8636 56.1702C61.8636 56.1702 66.5486 56.1946 71.3674 52.8296C71.3674 52.8296 69.3047 58.2995 61.8636 58.0307V56.1702Z" fill="#FF9A6C"/>
<path d="M57.3686 37.5195C57.3796 37.7935 57.4986 38.0524 57.7 38.2404C57.9014 38.4284 58.1692 38.5305 58.4457 38.5248C58.5822 38.5299 58.7184 38.5078 58.8461 38.4596C58.9737 38.4114 59.0904 38.3383 59.1889 38.2444C59.2875 38.1506 59.3659 38.0381 59.4197 37.9135C59.4734 37.789 59.5013 37.6549 59.5017 37.5195C59.4907 37.2454 59.3717 36.9865 59.1703 36.7986C58.9688 36.6106 58.7011 36.5085 58.4246 36.5142C58.2881 36.509 58.1519 36.5312 58.0242 36.5793C57.8965 36.6275 57.7799 36.7007 57.6814 36.7945C57.5828 36.8883 57.5043 37.0009 57.4506 37.1254C57.3969 37.25 57.369 37.384 57.3686 37.5195Z" fill="#263238"/>
<path d="M55.7072 34.4583C55.8444 34.591 56.6153 33.9591 57.7523 33.8998C58.8892 33.8405 59.7586 34.3641 59.8642 34.2174C59.9205 34.1546 59.7727 33.9138 59.3961 33.6694C58.8845 33.3576 58.2882 33.2101 57.6889 33.247C57.0972 33.2764 56.5301 33.4916 56.0697 33.8614C55.7424 34.1476 55.6368 34.4025 55.7072 34.4583Z" fill="#263238"/>
<path d="M67.675 37.544C67.6861 37.8181 67.805 38.077 68.0065 38.2649C68.2079 38.4529 68.4756 38.5551 68.7521 38.5493C68.8888 38.555 69.0252 38.5332 69.1531 38.4852C69.281 38.4372 69.3978 38.364 69.4964 38.2701C69.5951 38.1762 69.6736 38.0635 69.7271 37.9387C69.7807 37.8139 69.8082 37.6797 69.8081 37.544C69.7971 37.27 69.6781 37.0111 69.4767 36.8231C69.2753 36.6351 69.0076 36.533 68.731 36.5387C68.5944 36.5331 68.458 36.5549 68.3301 36.6029C68.2022 36.6509 68.0854 36.724 67.9867 36.8179C67.8881 36.9119 67.8096 37.0246 67.7561 37.1494C67.7025 37.2742 67.6749 37.4084 67.675 37.544Z" fill="#263238"/>
<path d="M66.8865 34.3221C67.0273 34.4548 67.7982 33.823 68.9351 33.7636C70.0721 33.7043 70.938 34.2279 71.0471 34.0813C71.1069 34.0184 70.9591 33.7776 70.5789 33.5332C70.0687 33.2212 69.4736 33.0737 68.8753 33.1109C68.2826 33.141 67.7147 33.356 67.2526 33.7252C66.9393 34.0114 66.8197 34.2663 66.8865 34.3221Z" fill="#263238"/>
<path d="M63.2716 43.2197C63.2716 43.1534 62.5676 43.0696 61.4025 42.9859C61.1103 42.9859 60.8322 42.93 60.7724 42.7345C60.7311 42.4378 60.7827 42.1356 60.9202 41.8688C61.1549 41.1567 61.4025 40.4097 61.6629 39.6278C62.6872 36.4374 63.4229 33.8193 63.2821 33.7809C63.1413 33.7425 62.2261 36.2942 61.1913 39.4847C60.9566 40.2713 60.7219 41.0229 60.4873 41.7397C60.3243 42.0969 60.2919 42.4993 60.3958 42.8777C60.444 42.9773 60.5143 43.0649 60.6015 43.1338C60.6886 43.2027 60.7904 43.2512 60.8991 43.2756C61.0624 43.3085 61.2289 43.3225 61.3954 43.3175C62.5535 43.3175 63.268 43.2826 63.2716 43.2197Z" fill="#263238"/>
<path d="M66.6648 43.8237C66.4782 43.8237 66.5416 45.0489 65.5314 45.974C64.5211 46.899 63.1976 46.8362 63.1976 47.0212C63.1976 47.098 63.5039 47.2446 64.06 47.2306C64.7854 47.2019 65.4773 46.9201 66.0136 46.4347C66.5278 45.9702 66.8396 45.3255 66.883 44.637C66.9041 44.1065 66.7493 43.8098 66.6648 43.8237Z" fill="#263238"/>
<path d="M66.7035 29.7354C66.8303 30.0391 67.9602 29.8331 69.3048 29.9204C70.6494 30.0077 71.7511 30.3114 71.9131 30.0286C71.9834 29.8925 71.7828 29.6132 71.3287 29.3305C70.7267 28.9987 70.0566 28.8066 69.3689 28.7685C68.6813 28.7304 67.9938 28.8474 67.3582 29.1106C66.8795 29.3375 66.6472 29.5923 66.7035 29.7354Z" fill="#263238"/>
<path d="M55.9747 30.6882C56.1895 30.9326 56.9568 30.6254 57.9001 30.5626C58.8435 30.4997 59.6601 30.6429 59.822 30.3636C59.8959 30.2275 59.7552 29.9796 59.3926 29.7562C58.9133 29.478 58.3581 29.3559 57.8051 29.4072C57.2507 29.4471 56.7222 29.6555 56.2915 30.0041C55.9747 30.2903 55.8797 30.5591 55.9747 30.6882Z" fill="#263238"/>
<path d="M79.2205 37.8475C79.3437 37.7847 84.2329 36.0812 84.342 41.1148C84.4511 46.1484 79.3331 45.2198 79.3225 45.0767C79.312 44.9336 79.2205 37.8475 79.2205 37.8475Z" fill="#FFBF9D"/>
<path d="M80.8291 43.1361C80.8502 43.1361 80.9206 43.1955 81.0719 43.2583C81.2829 43.3435 81.5192 43.3435 81.7302 43.2583C82.2652 43.0524 82.6982 42.2111 82.7017 41.2896C82.7057 40.8579 82.6118 40.4308 82.4271 40.0399C82.3761 39.8837 82.2876 39.742 82.1693 39.6271C82.051 39.5122 81.9064 39.4275 81.7478 39.3801C81.6455 39.3555 81.5378 39.3672 81.4432 39.4131C81.3487 39.459 81.2734 39.5363 81.2303 39.6315C81.167 39.7746 81.1987 39.8758 81.174 39.8828C81.1494 39.8898 81.0614 39.8025 81.1001 39.5931C81.1239 39.4684 81.1912 39.3559 81.2902 39.2754C81.4271 39.1669 81.6018 39.1167 81.7759 39.1358C81.9859 39.1715 82.183 39.2603 82.3482 39.3936C82.5135 39.5269 82.6413 39.7002 82.7193 39.8968C82.9475 40.3276 83.0682 40.8064 83.0713 41.293C83.0713 42.3053 82.5574 43.2688 81.8287 43.4922C81.6932 43.5348 81.5497 43.5465 81.4089 43.5266C81.2682 43.5066 81.1337 43.4555 81.0156 43.377C80.8431 43.2548 80.8115 43.1431 80.8291 43.1361Z" fill="#FF9A6C"/>
<path d="M57.1328 23.1135C56.3056 22.6737 58.7379 20.0033 60.7442 19.0678C63.7784 17.6715 68.4283 16.7535 71.2513 17.5075C74.6516 18.4186 77.4851 20.0522 79.2275 23.0926C80.9699 26.1329 81.6527 29.683 81.5964 33.1736C81.5964 34.2208 81.4838 35.3518 80.9241 36.2594C80.2201 37.3799 78.8755 38.099 78.9565 39.6314C78.9957 40.1872 78.8137 40.7361 78.4496 41.1603C77.5344 42.1517 76.3834 41.2441 75.8483 40.3295C74.7079 38.3713 74.553 36.0186 74.4404 33.7601C74.3488 32.1544 74.2644 30.5172 74.7008 28.9674C74.9367 28.1261 75.3274 27.3302 75.5175 26.475C75.7075 25.6198 75.6688 24.6529 75.1232 23.9652C74.9974 23.8171 74.8584 23.6804 74.7079 23.5568C73.9902 22.9511 73.1226 22.5461 72.1946 22.3835C71.2665 22.2209 70.3115 22.3066 69.428 22.6318C66.5803 23.679 61.7193 25.2324 60.431 24.2864C58.5795 22.925 58.1289 22.0279 58.1289 22.0279L57.1328 23.1135Z" fill="#263238"/>
<path d="M70.9767 16.8267C68.1608 15.94 64.9928 16.0273 62.4057 17.4026C61.0294 18.1322 59.7939 19.2911 59.3891 20.7851C58.9843 22.2791 59.6531 24.1082 61.1068 24.6737L61.2054 24.7331C63.3807 25.4312 64.7851 25.124 66.9358 24.3561C68.7416 23.7068 70.3467 22.5758 72.1559 21.937C74.0979 21.2583 76.2001 21.1708 78.1926 21.6857C76.2215 19.518 73.7786 17.7168 70.9767 16.8267Z" fill="#263238"/>
<path d="M80.6284 21.8044C80.5862 21.8428 80.1778 21.3611 79.3542 20.7956C78.8752 20.4629 78.3576 20.1887 77.8125 19.9788C77.16 19.7106 76.455 19.5913 75.7498 19.6297C74.4585 19.7742 73.2346 20.2775 72.2193 21.0818C71.4343 21.6997 71.0718 22.2163 71.0225 22.1814C70.9732 22.1465 71.0788 22.0278 71.2442 21.7939C71.484 21.4663 71.7603 21.1665 72.0679 20.9003C73.0926 19.9987 74.3766 19.4383 75.7392 19.2981C76.4956 19.2553 77.2515 19.3892 77.9462 19.689C78.5083 19.921 79.0354 20.2287 79.5126 20.6036C80.3151 21.2389 80.6671 21.7869 80.6284 21.8044Z" fill="#455A64"/>
<path d="M81.1353 23.5883C81.174 23.5883 81.086 24.1643 80.7516 25.0265C79.8385 27.2828 78.1622 29.1537 76.0102 30.3184C75.5836 30.5829 75.1127 30.7696 74.6199 30.8699C74.56 30.7721 76.7494 29.9483 78.5939 27.8574C80.4383 25.7665 81.0191 23.543 81.1353 23.5883Z" fill="#455A64"/>
<path d="M83.2015 24.405C83.2403 24.5934 83.2474 24.7868 83.2226 24.9775C83.194 25.4983 83.1198 26.0157 83.0009 26.5239C82.6131 28.2183 81.8075 29.7908 80.6563 31.1006C79.5051 32.4104 78.0442 33.4165 76.4045 34.0288C75.9131 34.2142 75.4068 34.3579 74.8909 34.4582C74.7093 34.5107 74.5203 34.5342 74.3312 34.528C74.3312 34.4687 75.1303 34.329 76.3306 33.8299C77.8983 33.1759 79.2947 32.1756 80.4135 30.9052C81.5322 29.6349 82.3437 28.128 82.7862 26.4994C83.1311 25.2149 83.1311 24.405 83.2015 24.405Z" fill="#455A64"/>
<path d="M65.1794 16.3765C65.1794 16.4323 64.6549 16.5545 63.8347 16.8791C61.6926 17.7213 59.8714 19.2098 58.6287 21.1343C58.15 21.8673 57.9247 22.37 57.8719 22.3455C57.9742 21.8724 58.1601 21.4209 58.4211 21.0121C59.0029 19.9922 59.7689 19.087 60.6809 18.3417C61.591 17.5958 62.633 17.0241 63.7538 16.6557C64.2075 16.476 64.6908 16.3813 65.1794 16.3765Z" fill="#455A64"/>
<path d="M84.7925 17.0014C84.877 17.0014 84.6552 18.4605 83.5077 19.7939C82.3602 21.1274 80.9593 21.6196 80.9487 21.5393C80.9382 21.459 82.1772 20.8656 83.2473 19.581C84.3173 18.2964 84.694 16.9665 84.7925 17.0014Z" fill="#455A64"/>
<path d="M68.7345 40.6052C68.7345 40.6425 68.7234 40.679 68.7025 40.71C68.6816 40.741 68.6519 40.7651 68.6172 40.7794C68.5825 40.7937 68.5442 40.7974 68.5074 40.7901C68.4705 40.7828 68.4366 40.7649 68.41 40.7385C68.3835 40.7122 68.3654 40.6786 68.358 40.642C68.3507 40.6055 68.3545 40.5676 68.3688 40.5331C68.3832 40.4987 68.4076 40.4692 68.4388 40.4485C68.4701 40.4278 68.5069 40.4167 68.5444 40.4167C68.5949 40.4167 68.6432 40.4366 68.6788 40.472C68.7145 40.5073 68.7345 40.5553 68.7345 40.6052Z" fill="#FF9A6C"/>
<path d="M69.9418 40.7903C70.0468 40.7903 70.1319 40.7059 70.1319 40.6018C70.1319 40.4977 70.0468 40.4133 69.9418 40.4133C69.8369 40.4133 69.7518 40.4977 69.7518 40.6018C69.7518 40.7059 69.8369 40.7903 69.9418 40.7903Z" fill="#FF9A6C"/>
<path d="M92.1609 75.8898L70.3124 69.4183C69.9399 69.308 69.5477 69.518 69.4364 69.8874L60.4275 99.7989C60.3162 100.168 60.528 100.557 60.9005 100.668L82.749 107.139C83.1215 107.249 83.5137 107.039 83.625 106.67L92.6339 76.7585C92.7452 76.3891 92.5334 76.0002 92.1609 75.8898Z" fill="#455A64"/>
<path d="M61.5679 96.2433C61.1209 96.1584 60.7194 95.9173 60.4365 95.5637C60.1535 95.2101 60.0079 94.7675 60.0262 94.3165C60.056 93.8228 60.2792 93.3603 60.6482 93.0275C61.0171 92.6948 61.5026 92.5183 62.001 92.5356C62.4994 92.5529 62.9712 92.7627 63.3158 93.1202C63.6604 93.4777 63.8504 93.9546 63.8453 94.4491H63.4933C63.5039 94.1539 63.429 93.8618 63.2774 93.6075C63.1258 93.3532 62.9039 93.1472 62.638 93.014C62.3721 92.8808 62.0733 92.8259 61.7769 92.8559C61.4806 92.8858 61.199 92.9993 60.9657 93.183C60.7323 93.3666 60.5569 93.6127 60.4601 93.8921C60.3634 94.1716 60.3494 94.4726 60.4198 94.7597C60.4902 95.0467 60.642 95.3078 60.8573 95.512C61.0727 95.7161 61.3425 95.8549 61.6348 95.9117L61.5679 96.2433Z" fill="#263238"/>
<path d="M62.3634 93.674C62.0051 93.6045 61.6744 93.4346 61.4104 93.1844C61.1463 92.9343 60.9601 92.6144 60.8737 92.2626C60.7872 91.9108 60.8042 91.5418 60.9226 91.1993C61.041 90.8568 61.2559 90.555 61.5418 90.3298C61.8276 90.1046 62.1726 89.9652 62.5358 89.9283C62.8991 89.8914 63.2654 89.9585 63.5914 90.1215C63.9174 90.2846 64.1895 90.5368 64.3755 90.8484C64.5615 91.16 64.6535 91.5179 64.6408 91.8798H64.2889C64.3028 91.6732 64.2748 91.4659 64.2065 91.2702C64.1381 91.0745 64.0309 90.8945 63.891 90.7407C63.7511 90.5869 63.5816 90.4625 63.3923 90.3749C63.2031 90.2874 62.998 90.2384 62.7894 90.2309C62.5807 90.2234 62.3726 90.2576 62.1775 90.3314C61.9824 90.4052 61.8042 90.5171 61.6535 90.6604C61.5028 90.8038 61.3827 90.9757 61.3002 91.166C61.2178 91.3563 61.1748 91.561 61.1737 91.7681C61.1579 92.136 61.2762 92.4972 61.507 92.7856C61.7377 93.0741 62.0655 93.2705 62.4303 93.3389L62.3634 93.674Z" fill="#263238"/>
<path d="M63.1449 91.1015C62.7864 91.0319 62.4556 90.8619 62.1915 90.6116C61.9275 90.3612 61.7413 90.0412 61.655 89.6892C61.5687 89.3372 61.5859 88.9681 61.7046 88.6255C61.8233 88.2829 62.0385 87.9812 62.3247 87.7562C62.611 87.5311 62.9562 87.3921 63.3196 87.3556C63.683 87.3191 64.0494 87.3866 64.3753 87.5502C64.7012 87.7138 64.973 87.9665 65.1586 88.2785C65.3441 88.5906 65.4357 88.9488 65.4223 89.3108H65.0703C65.0826 89.0049 65.0028 88.7022 64.8411 88.4414C64.6794 88.1806 64.4432 87.9733 64.1624 87.8461C63.8816 87.7188 63.5689 87.6773 63.2643 87.7268C62.9596 87.7763 62.6766 87.9145 62.4514 88.1239C62.2408 88.3176 62.0883 88.5654 62.0109 88.8397C61.9335 89.1141 61.9342 89.4043 62.0129 89.6783C62.0916 89.9523 62.2453 90.1993 62.4569 90.3919C62.6685 90.5846 62.9298 90.7154 63.2118 90.7699L63.1449 91.1015Z" fill="#263238"/>
<path d="M63.9333 88.5324C63.5749 88.4628 63.244 88.2927 62.98 88.0424C62.7159 87.7921 62.5297 87.4721 62.4434 87.1201C62.3572 86.7681 62.3744 86.399 62.4931 86.0564C62.6118 85.7138 62.827 85.4121 63.1132 85.1871C63.3994 84.962 63.7447 84.823 64.1081 84.7865C64.4715 84.75 64.8378 84.8175 65.1637 84.9811C65.4897 85.1447 65.7615 85.3974 65.947 85.7095C66.1326 86.0215 66.2241 86.3797 66.2107 86.7417H65.8587C65.8693 86.4464 65.7944 86.1544 65.6428 85.9C65.4912 85.6457 65.2693 85.4398 65.0034 85.3065C64.7375 85.1733 64.4387 85.1185 64.1423 85.1484C63.8459 85.1784 63.5644 85.2919 63.3311 85.4755C63.0977 85.6592 62.9223 85.9053 62.8255 86.1847C62.7288 86.4641 62.7148 86.7651 62.7852 87.0522C62.8556 87.3393 63.0074 87.6003 63.2227 87.8045C63.4381 88.0087 63.7079 88.1474 64.0002 88.2043L63.9333 88.5324Z" fill="#263238"/>
<path d="M64.7218 85.9632C64.376 85.8961 64.0558 85.7355 63.7963 85.4993C63.5368 85.263 63.3482 84.9602 63.2514 84.6243C63.1545 84.2884 63.1531 83.9325 63.2474 83.5959C63.3416 83.2593 63.5278 82.9551 63.7854 82.7169C64.0621 82.4609 64.4091 82.2922 64.7826 82.2321C65.156 82.1719 65.539 82.223 65.8832 82.3788C66.2273 82.5347 66.5171 82.7884 66.7157 83.1077C66.9144 83.427 67.013 83.7975 66.9992 84.1725H66.6472C66.6614 83.7629 66.5111 83.3644 66.2293 83.0646C65.9475 82.7649 65.5572 82.5883 65.1441 82.5737C64.9398 82.5663 64.736 82.5988 64.5443 82.6695C64.3527 82.7402 64.177 82.8477 64.0272 82.9858C63.8775 83.124 63.7567 83.29 63.6717 83.4744C63.5868 83.6589 63.5393 83.8581 63.532 84.0608C63.5161 84.4291 63.6343 84.7907 63.865 85.0798C64.0957 85.3688 64.4235 85.5659 64.7886 85.6351L64.7218 85.9632Z" fill="#263238"/>
<path d="M65.5103 83.3976C65.1646 83.3305 64.8443 83.1699 64.5848 82.9337C64.3253 82.6974 64.1367 82.3946 64.0399 82.0587C63.943 81.7228 63.9416 81.367 64.0359 81.0304C64.1301 80.6938 64.3163 80.3895 64.574 80.1513C64.9467 79.8101 65.4398 79.6283 65.9467 79.6451C66.1975 79.6532 66.4441 79.7104 66.6725 79.8133C66.9009 79.9162 67.1065 80.0629 67.2776 80.2448C67.4487 80.4268 67.5818 80.6405 67.6693 80.8736C67.7569 81.1068 67.7971 81.3548 67.7877 81.6034H67.4357C67.4499 81.1938 67.2996 80.7953 67.0178 80.4956C66.736 80.1958 66.3457 80.0192 65.9327 80.0047C65.5426 79.9942 65.1627 80.1292 64.8681 80.383C64.5735 80.6367 64.3855 80.9908 64.3413 81.3753C64.2971 81.7598 64.3999 82.1467 64.6293 82.4597C64.8588 82.7728 65.1982 82.9891 65.5807 83.066L65.5103 83.3976Z" fill="#263238"/>
<path d="M66.2987 80.8251C65.8334 80.7353 65.4183 80.4773 65.134 80.101C64.8498 79.7248 64.7167 79.2572 64.7605 78.7891C64.8044 78.321 65.0221 77.8857 65.3714 77.5679C65.7207 77.25 66.1767 77.0723 66.6507 77.0691H66.7211C67.2272 77.0882 67.7051 77.3053 68.0501 77.673C68.3951 78.0407 68.5792 78.5289 68.5621 79.0309H68.2101C68.2241 78.8242 68.196 78.6169 68.1277 78.4213C68.0594 78.2256 67.9521 78.0455 67.8122 77.8917C67.6724 77.7379 67.5028 77.6135 67.3136 77.526C67.1243 77.4384 66.9193 77.3895 66.7106 77.382C66.5019 77.3745 66.2938 77.4086 66.0987 77.4824C65.9036 77.5562 65.7254 77.6681 65.5747 77.8115C65.424 77.9548 65.3039 78.1268 65.2215 78.317C65.1391 78.5073 65.096 78.7121 65.0949 78.9192C65.0792 79.287 65.1975 79.6482 65.4282 79.9367C65.659 80.2251 65.9867 80.4215 66.3516 80.49L66.2987 80.8251Z" fill="#263238"/>
<path d="M67.0872 78.2558C66.7289 78.1862 66.3981 78.0163 66.1341 77.7662C65.8701 77.5161 65.6839 77.1962 65.5974 76.8444C65.511 76.4926 65.528 76.1236 65.6464 75.7811C65.7648 75.4385 65.9796 75.1368 66.2655 74.9116C66.5514 74.6863 66.8964 74.547 67.2596 74.5101C67.6228 74.4732 67.9891 74.5402 68.3151 74.7033C68.6412 74.8664 68.9133 75.1186 69.0992 75.4302C69.2852 75.7418 69.3773 76.0997 69.3646 76.4616H69.0126C69.0239 76.1662 68.9495 75.8739 68.7984 75.6191C68.6472 75.3644 68.4256 75.1579 68.1598 75.0242C67.894 74.8905 67.5951 74.8351 67.2986 74.8647C67.002 74.8942 66.7202 75.0074 66.4865 75.1908C66.2528 75.3743 66.077 75.6203 65.98 75.8998C65.883 76.1793 65.8687 76.4805 65.939 76.7677C66.0092 77.055 66.161 77.3162 66.3764 77.5206C66.5917 77.7249 66.8616 77.8638 67.1541 77.9207L67.0872 78.2558Z" fill="#263238"/>
<path d="M67.8756 75.6832C67.5299 75.616 67.2096 75.4555 66.9502 75.2192C66.6907 74.9829 66.5021 74.6801 66.4052 74.3443C66.3084 74.0084 66.307 73.6525 66.4012 73.3159C66.4955 72.9793 66.6817 72.6751 66.9393 72.4368C67.216 72.1809 67.563 72.0122 67.9364 71.952C68.3099 71.8919 68.6929 71.9429 69.0371 72.0988C69.3812 72.2547 69.6709 72.5083 69.8696 72.8276C70.0683 73.1469 70.1669 73.5175 70.153 73.8924H69.801C69.8116 73.5972 69.7367 73.3051 69.5851 73.0508C69.4335 72.7965 69.2116 72.5905 68.9457 72.4573C68.6798 72.3241 68.381 72.2692 68.0846 72.2992C67.7883 72.3291 67.5067 72.4426 67.2734 72.6263C67.04 72.8099 66.8646 73.056 66.7678 73.3354C66.6711 73.6149 66.6571 73.9159 66.7275 74.203C66.7979 74.49 66.9497 74.7511 67.1651 74.9553C67.3804 75.1594 67.6502 75.2982 67.9425 75.355L67.8756 75.6832Z" fill="#263238"/>
<path d="M68.6641 73.1141C68.3184 73.047 67.9982 72.8864 67.7387 72.6501C67.4792 72.4138 67.2906 72.1111 67.1937 71.7752C67.0969 71.4393 67.0955 71.0834 67.1897 70.7468C67.284 70.4102 67.4702 70.106 67.7278 69.8677C68.0045 69.6118 68.3515 69.4431 68.725 69.3829C69.0984 69.3228 69.4814 69.3738 69.8256 69.5297C70.1697 69.6856 70.4594 69.9392 70.6581 70.2585C70.8568 70.5778 70.9554 70.9484 70.9415 71.3234H70.5895C70.6001 71.0281 70.5252 70.736 70.3736 70.4817C70.222 70.2274 70.0002 70.0214 69.7342 69.8882C69.4683 69.755 69.1695 69.7001 68.8731 69.7301C68.5768 69.76 68.2952 69.8735 68.0619 70.0572C67.8285 70.2408 67.6531 70.4869 67.5564 70.7663C67.4596 71.0458 67.4456 71.3468 67.516 71.6339C67.5864 71.921 67.7382 72.182 67.9536 72.3862C68.1689 72.5904 68.4387 72.7291 68.731 72.7859L68.6641 73.1141Z" fill="#263238"/>
<path d="M60.7794 98.8124C60.4223 98.741 60.0932 98.5699 59.8308 98.3193C59.5685 98.0686 59.3838 97.7489 59.2986 97.3976C59.2134 97.0464 59.2312 96.6783 59.3499 96.3367C59.4686 95.9952 59.6832 95.6944 59.9686 95.4697C60.2539 95.2451 60.598 95.106 60.9604 95.0689C61.3227 95.0317 61.6883 95.0981 62.0139 95.26C62.3395 95.422 62.6117 95.6729 62.7983 95.9831C62.985 96.2934 63.0783 96.6501 63.0674 97.0112H62.7154C62.726 96.7059 62.6452 96.4044 62.4832 96.1447C62.3212 95.8849 62.0852 95.6786 61.8051 95.5516C61.525 95.4247 61.2133 95.3828 60.9092 95.4314C60.6051 95.4799 60.3224 95.6167 60.0966 95.8244C59.8861 96.0185 59.7339 96.2665 59.6567 96.541C59.5794 96.8155 59.5801 97.1058 59.6588 97.3799C59.7375 97.654 59.891 97.9012 60.1024 98.0943C60.3138 98.2873 60.5749 98.4186 60.8569 98.4738L60.7794 98.8124Z" fill="#263238"/>
<path d="M63.437 96.8156C63.8277 95.8278 68.0411 81.1285 69.9665 75.0931C70.198 74.4355 70.6761 73.8915 71.3014 73.5743C71.9268 73.2571 72.6513 73.1909 73.3245 73.3896L94.9687 79.7706C95.5984 79.9739 96.1238 80.412 96.4339 80.9924C96.7439 81.5728 96.8143 82.2499 96.6301 82.8808L87.0629 115.746C86.8773 116.384 86.4466 116.924 85.8634 117.251C85.2801 117.577 84.591 117.663 83.9442 117.491L61.8882 111.581C61.5616 111.493 61.2558 111.342 60.9887 111.136C60.7215 110.93 60.4983 110.673 60.3319 110.381C60.1656 110.089 60.0594 109.767 60.0196 109.433C59.9798 109.1 60.0072 108.762 60.1001 108.44L63.3877 96.9483L63.437 96.8156Z" fill="white"/>
<path d="M71.1633 72.6671C70.7434 72.556 70.2964 72.6107 69.9163 72.8197C69.5362 73.0286 69.2527 73.3756 69.1252 73.7876C67.5166 79.0237 62.3176 95.8871 61.9304 96.9378L58.0972 109.396C58.0305 109.61 58.0083 109.836 58.032 110.059C58.0557 110.282 58.1247 110.498 58.235 110.693C58.3452 110.889 58.4943 111.061 58.6733 111.198C58.8523 111.335 59.0575 111.434 59.2764 111.49L83.0396 117.606C83.4627 117.715 83.912 117.656 84.2919 117.442C84.6719 117.227 84.9525 116.874 85.0741 116.458L95.4263 80.8528C95.4882 80.6405 95.5067 80.4182 95.4809 80.1987C95.4551 79.9793 95.3855 79.7671 95.276 79.5747C95.1665 79.3823 95.0194 79.2135 94.8434 79.0781C94.6673 78.9427 94.4658 78.8435 94.2506 78.7863L71.1633 72.6671Z" fill="#E0E0E0"/>
<path d="M71.1633 72.6672L71.5153 72.7474L72.4974 72.9988L76.2602 73.9727L90.1288 77.6274L92.3745 78.2208L93.5361 78.528L94.1239 78.6851C94.3321 78.7285 94.5318 78.8051 94.7153 78.912C95.0917 79.1378 95.3692 79.4952 95.4932 79.9138C95.5564 80.1241 95.578 80.3446 95.5565 80.5631C95.5252 80.7777 95.4746 80.9892 95.4052 81.1949L94.6801 83.6977C93.6945 87.0906 92.6455 90.7174 91.5368 94.5188C90.428 98.3202 89.2664 102.341 88.059 106.495C87.4583 108.571 86.8447 110.683 86.2181 112.831C85.9083 113.904 85.5951 114.983 85.2783 116.07L85.1586 116.479C85.1151 116.622 85.0536 116.759 84.9756 116.887C84.8197 117.146 84.599 117.36 84.3349 117.508C83.9335 117.732 83.4608 117.793 83.015 117.679L82.5961 117.571L69.5336 114.203L63.3244 112.601L60.3148 111.822L59.5721 111.63C59.315 111.579 59.0663 111.494 58.8329 111.375C58.602 111.245 58.4039 111.065 58.2533 110.848C58.1027 110.631 58.0036 110.383 57.9635 110.122C57.9246 109.864 57.9426 109.601 58.0163 109.351C58.0902 109.117 58.1641 108.879 58.2345 108.653L58.6675 107.256C58.9526 106.331 59.2342 105.417 59.5123 104.52L61.1279 99.2836L64.053 89.8937C65.8482 84.1585 67.2984 79.5194 68.3051 76.3079C68.5585 75.5051 68.7803 74.793 68.9774 74.1751C69.0486 73.8833 69.1599 73.6026 69.3083 73.3409C69.4464 73.1295 69.6319 72.9527 69.8503 72.8242C70.1445 72.6481 70.4859 72.5652 70.8289 72.5869C70.9484 72.5929 71.0667 72.614 71.1809 72.6497C71.1809 72.6497 71.0682 72.6218 70.8289 72.6078C70.492 72.5942 70.1587 72.6805 69.8715 72.8556C69.6613 72.9845 69.4833 73.1587 69.3505 73.3653C69.2064 73.6254 69.0986 73.9037 69.0302 74.1926L68.3755 76.3289C67.3829 79.5438 65.9502 84.1899 64.1797 89.9425C63.2927 92.8119 62.3177 95.9605 61.2758 99.3359C60.7572 101.025 60.2221 102.771 59.6707 104.572C59.3938 105.473 59.1133 106.386 58.8294 107.312C58.6851 107.773 58.5443 108.241 58.4 108.708C58.326 108.942 58.2556 109.18 58.1817 109.407C58.1144 109.633 58.0976 109.871 58.1324 110.105C58.1688 110.34 58.2587 110.564 58.3953 110.76C58.5319 110.956 58.7116 111.119 58.9209 111.236C59.1435 111.346 59.3804 111.426 59.6249 111.473L60.3676 111.665L63.3807 112.44L69.5899 114.039L82.6524 117.404C82.9188 117.492 83.1958 117.544 83.4761 117.561C83.7491 117.561 84.0175 117.491 84.255 117.358C84.4925 117.224 84.6911 117.032 84.8312 116.8C84.9581 116.554 85.0527 116.294 85.1128 116.025C85.4296 114.939 85.7429 113.857 86.0562 112.786C86.6804 110.642 87.294 108.532 87.8971 106.453C89.108 102.303 90.2731 98.2957 91.3854 94.4804C92.4977 90.6651 93.5537 87.0418 94.5534 83.6593L95.282 81.1565C95.3486 80.9598 95.3981 80.7577 95.4298 80.5526C95.4482 80.3519 95.4291 80.1495 95.3735 79.9557C95.2617 79.5728 95.0109 79.2445 94.6695 79.0342C94.4966 78.9346 94.3089 78.8627 94.1134 78.8212L93.5255 78.6641L92.3639 78.357L90.1182 77.7566L76.2672 74.046L72.5009 73.0302L71.5258 72.7579C71.2795 72.7055 71.1633 72.6672 71.1633 72.6672Z" fill="#263238"/>
<g opacity="0.3">
<path opacity="0.3" d="M72.8634 107.232L58.7836 106.157C58.9631 107.204 59.7798 108.024 60.7196 108.499C61.6844 108.929 62.7102 109.209 63.7608 109.33L68.5444 110.119C69.1534 110.22 69.7975 110.335 70.2516 110.75C70.7057 111.166 70.9098 111.892 71.29 112.433C71.9201 113.32 73.05 113.686 74.106 113.993C78.2503 115.242 82.4577 116.276 86.7109 117.09C87.8901 117.302 89.115 117.491 90.2836 117.208C91.4523 116.925 92.5575 116.063 92.7476 114.887L72.8634 107.232Z" fill="black"/>
</g>
<path d="M72.1524 73.2747C72.1981 73.2747 69.5335 81.8618 66.1966 92.4246C62.8597 102.987 60.1177 111.536 60.0684 111.522C60.0191 111.508 62.6873 102.932 66.0242 92.3687C69.3611 81.8059 72.1031 73.2538 72.1524 73.2747Z" fill="#263238"/>
<path d="M88.6059 85.2919L74.8992 81.2319L72.8502 88.035L86.5569 92.0949L88.6059 85.2919Z" fill="white"/>
<path d="M74.8697 97.2032C74.8697 97.2032 71.392 92.6094 70.1354 91.5657C68.8788 90.522 63.6693 91.3563 63.6693 91.3563L61.4095 93.716C61.4095 93.716 61.853 95.5102 63.9649 94.6235L64.5528 94.1837H66.9675L68.467 95.9291L63.7714 95.8313C63.7714 95.8313 61.4587 94.3408 60.9308 94.3408C60.4028 94.3408 59.1356 95.3496 60.0543 97.1333C60.0543 97.1333 58.2943 97.6953 58.9033 100.072C58.9033 100.072 57.4284 100.474 58.773 103.291L58.942 103.612C58.942 103.612 57.4002 104.338 58.414 105.947C59.4277 107.557 61.9867 108.042 62.7576 108C63.5285 107.958 77.4076 109.986 77.4076 109.986L81.1564 100.317L74.8697 97.2032Z" fill="#FFBF9D"/>
<path d="M64.3522 99.5525C64.1046 99.5871 63.8526 99.5753 63.6095 99.5175C62.4081 99.3142 61.3115 98.7139 60.4979 97.8141C60.3197 97.6396 60.1743 97.4352 60.0684 97.2102C61.1639 98.4788 62.6857 99.3109 64.3522 99.5525Z" fill="#FF9A6C"/>
<path d="M62.1276 102.645C61.9089 102.625 61.6962 102.564 61.5011 102.464C60.5198 102.062 59.6678 101.401 59.0371 100.554C58.896 100.389 58.7863 100.2 58.7133 99.9958C59.1833 100.554 59.6977 101.073 60.2515 101.549C60.8442 101.967 61.4718 102.334 62.1276 102.645Z" fill="#FF9A6C"/>
<path d="M62.1346 105.448C61.4832 105.377 60.8558 105.163 60.2972 104.823C59.7094 104.536 59.1918 104.125 58.7801 103.619C58.8188 103.577 59.4559 104.164 60.3852 104.666C61.3145 105.169 62.1487 105.389 62.1346 105.448Z" fill="#FF9A6C"/>
<path d="M109.83 103.34L94.747 101.012L77.017 97.6885L72.8705 111.512C72.8705 111.512 94.0606 117.673 99.865 118.43C106.067 119.24 108.471 118.43 110.425 114.388C111.685 111.812 110.907 106.642 109.83 103.34Z" fill="#FF725E"/>
<path d="M95.7748 117.638C95.7365 117.635 95.6987 117.628 95.6621 117.617L95.3313 117.536L94.0535 117.208L89.2805 115.959L72.8388 111.595L72.7508 111.574L72.7789 111.487C73.6061 108.726 74.5002 105.741 75.4224 102.656L76.9219 97.664L76.9466 97.5837L77.0275 97.6012L96.4471 101.413L102.185 102.561L103.73 102.876L104.128 102.963L104.261 102.998C104.216 103.002 104.17 103.002 104.124 102.998L103.723 102.928L102.171 102.642L96.4225 101.549L76.9923 97.7932L77.0944 97.7303C76.6157 99.3361 76.1123 101.015 75.5984 102.722C74.6727 105.811 73.7751 108.796 72.9479 111.553L72.8846 111.445L89.3086 115.861L94.0676 117.159L95.3383 117.509L95.6657 117.603L95.7748 117.638Z" fill="#263238"/>
</g>
</svg>
