<svg width="130" height="130" viewBox="0 0 130 130" fill="none" xmlns="http://www.w3.org/2000/svg">
<circle cx="65" cy="65" r="65" fill="#FFDE32"/>
<mask id="mask0_288_1730" style="mask-type:alpha" maskUnits="userSpaceOnUse" x="0" y="0" width="130" height="130">
<circle cx="65" cy="65" r="65" fill="#FFDE32"/>
</mask>
<g mask="url(#mask0_288_1730)">
<path d="M55.3814 20.409C54.9293 21.1421 53.8571 21.2865 53.075 20.927C52.2929 20.5675 51.7525 19.8316 51.3259 19.0844C50.8993 18.3371 50.5467 17.5361 49.975 16.8964C49.4856 16.3523 48.8556 15.9522 48.1536 15.7396C47.4516 15.527 46.7045 15.5101 45.9935 15.6906C45.2895 15.8937 44.6628 16.3021 44.1944 16.8631C43.726 17.4242 43.4373 18.1121 43.3656 18.8381C43.2433 20.5873 44.5345 22.2007 46.1215 22.9565C47.7084 23.7122 49.5342 23.7745 51.2946 23.7037" fill="#263238"/>
<path d="M76.7227 21.6264C78.4291 20.8141 80.6047 21.8076 81.5774 23.4266C82.55 25.0456 82.5528 27.0751 82.1746 28.9234C81.8191 30.6755 81.2389 32.7587 82.4931 34.0381C83.4743 35.0429 85.2717 35.0996 85.9656 36.3167C86.9667 38.0631 84.7228 40.1095 85.03 42.0965C85.2262 43.3533 86.3951 44.2251 87.5639 44.7346C88.7328 45.244 90.0211 45.5469 91.0222 46.3338C92.0233 47.1207 92.6291 48.6378 91.8754 49.6766L85.3343 51.7202L84.0033 49.4332C84.464 50.3984 84.2564 51.5787 83.7189 52.4958C83.1814 53.4128 82.3225 54.1148 81.4579 54.746C78.0736 57.2057 73.9697 58.9153 69.7976 58.6861" fill="#263238"/>
<path d="M48.2885 25.0145C48.2374 23.2737 49.8613 21.9349 51.4766 21.2924C53.092 20.6499 54.9065 20.4149 56.3541 19.4441C57.6367 18.5949 58.4984 17.2448 59.5848 16.1522C60.9244 14.8012 62.6011 13.8294 64.4428 13.3365C66.2845 12.8437 68.2248 12.8476 70.0645 13.3478C71.9042 13.848 73.5769 14.8266 74.911 16.183C76.245 17.5394 77.1923 19.2247 77.6555 21.0659C78.2812 23.5398 77.8546 26.4637 75.8951 28.1082C73.6199 30.016 70.2498 29.5914 67.3375 28.9998C64.4253 28.4082 61.1263 27.8195 58.6947 29.5235C57.2272 30.5509 56.3882 32.2209 55.4895 33.7692C54.5908 35.3175 53.4674 36.8827 51.7724 37.4743C50.0774 38.0659 47.7738 37.0526 47.7084 35.2665" fill="#263238"/>
<path d="M48.4052 25.9683C48.5958 27.4232 47.552 28.728 46.4855 29.7555C45.419 30.783 44.2416 31.8727 44.0539 33.3276C43.8378 35.0259 45.0863 36.7072 44.7223 38.3828C44.4947 39.4471 43.6615 40.2679 43.1581 41.2331C42.4859 42.6271 42.3749 44.2241 42.8481 45.6968C43.2804 47.163 43.9857 50.4351 44.9981 51.5758C47.8279 54.7261 52.3384 57.4434 56.4764 58.3916C60.6144 59.3398 64.9145 59.3426 69.1549 59.0851C72.6245 58.8699 76.6147 59.0313 79.507 54.2732C81.0058 51.8107 81.748 48.5386 82.5444 45.7817C83.2298 43.4013 83.8213 40.851 83.1132 38.4762C82.6979 37.0921 81.8618 35.8637 81.4523 34.4796C80.9403 32.7473 81.128 30.899 80.9204 29.1016C80.6967 27.1531 80.0089 25.2858 78.9142 23.6549C77.8195 22.0241 76.3496 20.6769 74.6265 19.7252C72.9034 18.7735 70.977 18.2448 69.0074 18.1831C67.0378 18.1214 65.0818 18.5284 63.302 19.3704" fill="#263238"/>
<path d="M79.2566 31.9377C78.9324 26.9787 75.6192 20.8988 70.6564 21.4394L55.1681 25.371C54.4413 25.4488 53.7702 25.7954 53.2878 26.3421C52.8054 26.8887 52.5467 27.5958 52.563 28.3232L53.5584 62.1929C53.6284 64.5501 54.6318 66.7842 56.3499 68.4082C58.0679 70.0322 60.3614 70.9145 62.7303 70.8627C65.0751 70.8117 67.3069 69.8498 68.9486 68.1826C70.5902 66.5154 71.5114 64.2752 71.5153 61.9409C71.5153 59.5265 71.5153 56.6847 71.5153 56.696C71.5153 56.7074 77.8773 55.6318 79.177 47.3554C79.8397 43.254 79.6178 37.443 79.2566 31.9377Z" fill="#FFBE9D"/>
<path d="M76.4952 38.329C76.4998 38.6086 76.3933 38.8788 76.199 39.0807C76.0046 39.2826 75.738 39.4 75.4571 39.4075C75.3218 39.4182 75.1856 39.402 75.0567 39.3596C74.9277 39.3172 74.8086 39.2496 74.7063 39.1607C74.604 39.0718 74.5206 38.9635 74.4611 38.842C74.4015 38.7206 74.3669 38.5885 74.3594 38.4536C74.3554 38.1776 74.46 37.911 74.6507 37.7106C74.8414 37.5102 75.1032 37.3919 75.3804 37.3808C75.5165 37.3681 75.6539 37.3826 75.7843 37.4237C75.9147 37.4648 76.0355 37.5316 76.1395 37.62C76.2435 37.7084 76.3286 37.8168 76.3897 37.9386C76.4508 38.0604 76.4867 38.1932 76.4952 38.329Z" fill="#263238"/>
<path d="M77.7977 35.445C77.664 35.5836 76.8563 34.9921 75.7102 34.9977C74.5641 35.0034 73.7194 35.5638 73.6028 35.4336C73.5403 35.3742 73.6768 35.1223 74.0408 34.8675C74.5362 34.5262 75.1248 34.3445 75.7273 34.3467C76.3233 34.3436 76.9049 34.5289 77.3882 34.876C77.7323 35.1336 77.8631 35.3827 77.7977 35.445Z" fill="#263238"/>
<path d="M65.5032 38.329C65.5064 38.6053 65.4012 38.8719 65.21 39.0722C65.0188 39.2725 64.7567 39.3908 64.4794 39.4018C64.3438 39.4126 64.2075 39.3963 64.0784 39.354C63.9493 39.3116 63.83 39.244 63.7275 39.1552C63.625 39.0663 63.5413 38.958 63.4814 38.8366C63.4216 38.7151 63.3866 38.583 63.3787 38.4479C63.3755 38.1717 63.4807 37.9051 63.6719 37.7047C63.8631 37.5044 64.1252 37.3862 64.4026 37.3752C64.5382 37.364 64.6746 37.38 64.8039 37.4222C64.9332 37.4644 65.0526 37.5319 65.1552 37.6208C65.2578 37.7098 65.3415 37.8182 65.4012 37.9399C65.461 38.0615 65.4957 38.1938 65.5032 38.329Z" fill="#263238"/>
<path d="M66.5355 35.6827C66.4019 35.8214 65.5942 35.2299 64.4481 35.2355C63.3019 35.2412 62.4573 35.8016 62.3407 35.6714C62.2781 35.612 62.4118 35.3601 62.7787 35.1053C63.2734 34.7629 63.8625 34.581 64.4651 34.5845C65.0611 34.5814 65.6427 34.7667 66.126 35.1138C66.4787 35.3714 66.5981 35.6205 66.5355 35.6827Z" fill="#263238"/>
<path d="M70.7105 44.1288C70.7105 44.0665 71.4187 43.942 72.5733 43.792C72.8577 43.7608 73.1421 43.7014 73.1905 43.5089C73.2388 43.3164 73.1364 42.9853 72.9942 42.6456C72.7155 41.9437 72.4254 41.2058 72.124 40.4322C70.9153 37.2762 70.0393 34.6834 70.1673 34.6353C70.2953 34.5872 71.3789 37.1063 72.5875 40.2623C72.8776 41.0379 73.1554 41.7804 73.4208 42.4899C73.5317 42.8211 73.7223 43.1947 73.5744 43.6221C73.5326 43.725 73.4675 43.8169 73.3841 43.8905C73.3008 43.9642 73.2014 44.0177 73.0938 44.0467C72.9328 44.0923 72.7663 44.1161 72.5989 44.1175C71.4357 44.1882 70.7162 44.1939 70.7105 44.1288Z" fill="#263238"/>
<path d="M60.5206 53.7555C60.5206 53.7555 63.228 59.4306 71.5296 58.6551V56.7105C67.6559 56.7586 63.8447 55.7356 60.5206 53.7555Z" fill="#EB996E"/>
<path d="M70.2327 46.88C70.0143 46.6074 69.7297 46.3948 69.4057 46.2621C69.0818 46.1293 68.7292 46.0809 68.3813 46.1214C68.1287 46.1445 67.8835 46.2181 67.6601 46.3378C67.4368 46.4574 67.24 46.6206 67.0816 46.8177C66.9285 47.0078 66.8379 47.2401 66.8221 47.4832C66.8063 47.7263 66.8662 47.9683 66.9934 48.1764C67.3034 48.6094 67.949 48.7085 68.495 48.5528C69.0367 48.3609 69.5346 48.0636 69.9597 47.6782C70.0879 47.5871 70.1979 47.4728 70.2839 47.3414C70.3264 47.2787 70.3492 47.2048 70.3492 47.1291C70.3492 47.0534 70.3264 46.9795 70.2839 46.9168" fill="#FF725E"/>
<path d="M67.3404 44.9269C67.5281 44.9269 67.5337 46.1525 68.6002 47.03C69.6667 47.9074 70.9892 47.7659 71.0006 47.9386C71.0176 48.0178 70.7162 48.1792 70.1474 48.1962C69.4228 48.2059 68.718 47.9614 68.1566 47.5055C67.6133 47.0676 67.2633 46.4359 67.1811 45.7449C67.1185 45.227 67.2579 44.9184 67.3404 44.9269Z" fill="#263238"/>
<path d="M66.8114 32.3311C66.6976 32.6425 65.5543 32.4981 64.212 32.6623C62.8696 32.8265 61.7804 33.1944 61.6012 32.9142C61.5216 32.7812 61.7093 32.4897 62.1473 32.1896C62.7329 31.8181 63.3961 31.5849 64.0863 31.5078C64.7764 31.4308 65.4751 31.512 66.1288 31.7452C66.6095 31.9519 66.8597 32.1953 66.8114 32.3311Z" fill="#263238"/>
<path d="M77.3683 32.1445C77.1664 32.4049 76.3786 32.1445 75.4287 32.1275C74.4788 32.1106 73.6768 32.3059 73.4891 32.0341C73.4095 31.9039 73.5346 31.6435 73.8844 31.3973C74.3538 31.0966 74.905 30.9473 75.4628 30.9699C76.0202 30.9776 76.5612 31.1587 77.0099 31.4879C77.3455 31.7652 77.4479 32.02 77.3683 32.1445Z" fill="#263238"/>
<path d="M49.3721 52.558C50.5192 52.7877 51.7046 52.7424 52.8306 52.426C53.9566 52.1096 54.9908 51.531 55.8477 50.7382C56.7046 49.9453 57.3597 48.9609 57.7588 47.8663C58.1579 46.7717 58.2896 45.5983 58.143 44.443C57.8842 42.4135 56.7835 40.3472 57.4917 38.4282C58.4274 35.8807 62.0022 35.108 62.9521 32.5719C63.5039 31.1 63.009 29.3763 63.6347 27.9327C64.2234 26.5769 65.6568 25.7929 67.0475 25.2919C68.4382 24.7909 69.9426 24.4427 71.1144 23.5341C72.2861 22.6255 73.0198 20.9159 72.252 19.645C66.0501 20.3848 59.9589 21.8576 54.1074 24.0323C52.7536 24.5333 51.3316 25.139 50.5296 26.3391C49.6764 27.6072 49.7219 29.2461 49.793 30.766C50.1438 38.1876 50.4917 45.6072 50.8368 53.025" fill="#263238"/>
<path d="M72.4994 16.5146C72.7127 18.5979 72.9231 20.7406 72.3515 22.7417C71.7798 24.7429 70.2412 26.6422 68.1651 26.9875C67.1839 27.1516 66.0805 26.9875 65.2728 27.5536C63.5664 28.7848 64.96 31.6663 63.9503 33.5146C63.0431 35.1704 60.6058 35.3204 59.4 36.7725C58.069 38.3745 58.7572 40.7861 59.6844 42.6458C60.6115 44.5054 61.7605 46.5575 61.1405 48.5417C60.4466 50.7579 57.7846 51.9383 57.1305 54.1659C56.7096 55.6038 57.1532 57.3728 56.1209 58.4626C55.3246 59.3117 54.0021 59.3117 52.8474 59.2126C48.0848 58.7855 43.4739 57.3256 39.3385 54.9358C40.0394 53.7861 40.4239 52.4731 40.4534 51.1287L38.1298 52.827L32.7718 46.181C33.3159 44.8262 34.1298 43.5949 35.1645 42.5612C36.1992 41.5276 37.4333 40.7129 38.7925 40.1662C40.4136 39.5237 42.4897 38.9803 42.8679 37.2848C43.0784 36.3479 41.9465 34.6411 42.5579 32.473C42.5579 32.473 43.5761 28.3263 45.9878 27.1573C48.3995 25.9883 48.0639 25.2863 48.59 23.6899" fill="#263238"/>
<path d="M34.1 45.4845C34.1 45.4279 34.848 45.4534 36.1846 45.4675C36.991 45.4801 37.7974 45.4432 38.5992 45.3571C39.6482 45.2548 40.6728 44.9793 41.6308 44.542C42.1756 44.2824 42.6858 43.9562 43.1495 43.5711C43.6454 43.1602 44.0626 42.6635 44.381 42.1049C44.7086 41.498 44.9198 40.8357 45.0038 40.1519C45.1176 39.4329 45.1574 38.6658 45.2882 37.862C45.39 37.0085 45.669 36.1853 46.1073 35.4447C46.3567 35.0506 46.6837 34.7107 47.0685 34.4456C47.4646 34.1891 47.9039 34.006 48.3654 33.905C49.2698 33.6955 50.1685 33.7181 51.0188 33.6219C51.8692 33.5257 52.6826 33.3021 53.2229 32.6963C53.7633 32.0558 54.1208 31.2826 54.2581 30.4574C54.4373 29.6281 54.4942 28.7591 54.6676 27.8788C54.8054 26.9868 55.1576 26.141 55.6943 25.4135C55.9726 25.0691 56.297 24.7644 56.6584 24.5077C57.013 24.263 57.3947 24.0598 57.796 23.902C59.3432 23.2736 60.9528 23.2736 62.3748 23.4293C63.7968 23.585 65.0823 23.8029 66.2569 23.851C66.8118 23.8828 67.3685 23.8667 67.9206 23.8029C68.406 23.7424 68.883 23.6275 69.3426 23.4604C70.0892 23.2008 70.7689 22.7804 71.3334 22.2292C71.6896 21.8777 71.9702 21.4579 72.1581 20.9951C72.289 20.6781 72.3316 20.4969 72.3629 20.5026C72.3843 20.6854 72.3619 20.8706 72.2975 21.0432C72.1611 21.5565 71.9037 22.03 71.5467 22.4245C70.9841 23.0497 70.2817 23.5345 69.4962 23.8397C69.0101 24.0393 68.5024 24.1818 67.9832 24.2643C67.4044 24.3503 66.8191 24.3854 66.2341 24.369C65.0112 24.352 63.703 24.1454 62.3151 24.035C61.6083 23.9741 60.8975 23.9741 60.1907 24.035C59.4544 24.0996 58.7318 24.2723 58.0463 24.5473C57.3445 24.8255 56.7265 25.2787 56.2517 25.8635C55.791 26.5062 55.4924 27.2499 55.3815 28.0317C55.2222 28.8497 55.1682 29.73 54.9776 30.6272C54.8155 31.5848 54.3958 32.4807 53.7633 33.22C53.4154 33.5967 52.984 33.8875 52.5034 34.0691C52.0514 34.2326 51.5802 34.3372 51.1013 34.3805C50.1855 34.4824 49.3124 34.4626 48.5417 34.6437C48.1651 34.7213 47.8057 34.8661 47.4809 35.0711C47.1741 35.2802 46.913 35.5488 46.713 35.8608C46.3188 36.5137 46.0633 37.24 45.9622 37.995C45.8371 38.7508 45.7887 39.5207 45.6579 40.2792C45.5492 41.0358 45.3014 41.766 44.927 42.4332C44.5607 43.0472 44.0857 43.59 43.5249 44.0353C43.0153 44.4389 42.4563 44.7766 41.8612 45.0401C40.8423 45.4728 39.7561 45.7275 38.6504 45.793C37.8295 45.8522 37.0055 45.8522 36.1846 45.793C34.8309 45.6515 34.0971 45.5298 34.1 45.4845Z" fill="#E0E0E0"/>
<path d="M52.29 20.1319C52.3782 20.1715 52.3355 20.4999 52.1307 20.981C51.8496 21.5975 51.4671 22.1629 50.9988 22.6539C50.5427 23.1528 50.0111 23.5778 49.4233 23.9134C48.9682 24.1597 48.6469 24.2389 48.5957 24.154C48.4876 23.9729 49.4489 23.237 50.4528 22.1529C51.4567 21.0688 52.0938 20.047 52.29 20.1319Z" fill="#FF725E"/>
<path d="M88.4143 114.257L89.9444 129.946L41.9437 129.929L51.2179 111.299L88.4143 114.257Z" fill="#FF725E"/>
<path d="M89.8704 95.9014L99.2101 109.604C99.2101 109.604 101.118 94.5682 101.295 94.905C101.471 95.2419 90.8288 80.5092 90.8288 80.5092L89.8704 95.9014Z" fill="#EB996E"/>
<path d="M51.3117 62.5808C50.942 62.5808 39.0399 67.3926 37.6777 69.6174C36.3154 71.8421 44.8246 113.566 44.8246 113.566L88.4143 114.458L88.8437 94.5144L92.0944 67.8313L74.0692 61.7854L71.6661 59.7021L66.783 68.1653L53.3679 59.6116L51.3117 62.5808Z" fill="#FF725E"/>
<g opacity="0.3">
<path opacity="0.3" d="M49.5029 128.568C52.3924 127.818 54.7757 125.704 56.4337 123.233C58.0917 120.762 59.1099 117.928 60.0882 115.12C61.0666 112.312 62.0307 109.459 63.5949 106.937C64.7495 105.072 66.2056 103.413 67.6532 101.766C68.3068 100.948 69.0727 100.226 69.9284 99.6206C71.0233 98.9186 72.323 98.6214 73.5914 98.3327L80.2691 96.824C81.1137 96.683 81.9281 96.4007 82.678 95.989C83.4003 95.5362 83.9862 94.7691 83.9805 93.9171C80.6502 94.2511 77.2886 94.1492 73.9612 94.503C70.6337 94.8568 67.2551 95.723 64.5959 97.7468C61.9368 99.7706 60.202 102.822 58.8568 105.899C55.589 113.38 54.059 121.642 49.7304 128.568" fill="black"/>
</g>
<path d="M37.6777 69.6173C37.6777 69.6173 34.063 71.9779 33.1273 79.4929C32.422 85.0775 31.0142 100.886 31.0142 100.886L48.2118 99.4564L37.6777 69.6173Z" fill="#FF725E"/>
<path d="M31 100.886C31.0285 100.877 31.0582 100.872 31.0882 100.872L31.3413 100.843L32.3253 100.747L35.9428 100.422L47.8876 99.4084L48.1947 99.3829L48.1265 99.465C47.5207 94.9192 46.9889 90.8179 46.5793 87.843L46.1271 84.3304C46.0788 83.9228 46.0418 83.6029 46.0134 83.3737C46.0134 83.2718 45.9935 83.1897 45.9878 83.1246C45.9846 83.0964 45.9846 83.0679 45.9878 83.0397C45.9974 83.0672 46.004 83.0957 46.0077 83.1246C46.0077 83.1869 46.0304 83.2689 46.0475 83.3708C46.0816 83.5973 46.13 83.9171 46.1897 84.3219C46.3092 85.171 46.4741 86.3542 46.6874 87.8289C47.0941 90.8037 47.6572 94.9051 48.28 99.4339V99.5103H48.2004L47.8932 99.5358L35.9485 100.507L32.3281 100.79L31.3413 100.858L31.0853 100.872L31 100.886Z" fill="#263238"/>
<path d="M66.6408 68.0549C66.5435 68.0397 66.4482 68.0141 66.3564 67.9784L65.5715 67.7294L62.7645 66.7953L62.8356 66.767L61.5217 68.9833L61.4875 69.0399L61.4278 69.0087C60.7396 68.6776 60.0058 68.3068 59.2522 67.9077C57.3595 66.899 55.5198 65.7946 53.7405 64.5988C53.058 64.1431 52.5176 63.7497 52.1451 63.4836L51.7213 63.1836C51.67 63.1489 51.6223 63.109 51.5791 63.0647C51.6356 63.0896 51.6891 63.121 51.7384 63.1581L52.1763 63.4553C52.5603 63.7101 53.1092 64.0837 53.8003 64.5281C55.1767 65.4225 57.1135 66.6141 59.3318 67.786C60.0798 68.1851 60.8135 68.5559 61.4989 68.8899L61.4079 68.9182L62.7389 66.7132L62.7645 66.6708L62.8128 66.6877L65.6028 67.6699L66.3792 67.953C66.4687 67.9806 66.5562 68.0147 66.6408 68.0549Z" fill="#263238"/>
<path d="M73.8559 61.8589C73.8628 61.9039 73.8628 61.9497 73.8559 61.9947C73.8559 62.0853 73.8389 62.2155 73.8133 62.3854C73.7445 62.8619 73.6496 63.3344 73.5289 63.8006C73.3534 64.4927 73.1272 65.171 72.852 65.8301C72.6956 66.2009 72.5193 66.5858 72.3145 66.9623C72.2121 67.1576 72.104 67.3529 71.9874 67.5482C71.9301 67.6492 71.8625 67.7441 71.7855 67.8312C71.741 67.8842 71.6846 67.9262 71.6209 67.9537C71.5572 67.9812 71.488 67.9935 71.4186 67.9898C71.2873 67.9684 71.1671 67.9035 71.0774 67.8058C70.9892 67.7209 70.921 67.6303 70.847 67.5482L70.4119 67.0415L69.59 66.0848C69.4741 65.937 69.3313 65.8122 69.1691 65.7169C69.0993 65.675 69.0184 65.6553 68.9371 65.6604C68.8558 65.6654 68.778 65.695 68.714 65.7452C68.5881 65.8537 68.4772 65.9784 68.3841 66.116L68.0997 66.4981L67.2209 67.6303L66.9764 67.936C66.9481 67.9726 66.9167 68.0067 66.8825 68.0379C66.8825 68.0379 66.9024 67.9926 66.9508 67.919L67.1726 67.5963L68.0258 66.4301L68.3102 66.0452C68.4068 65.8952 68.5236 65.759 68.6571 65.6404C68.7401 65.5765 68.8401 65.5382 68.9447 65.5301C69.0493 65.5221 69.154 65.5447 69.2459 65.5951C69.4245 65.6963 69.5819 65.8309 69.7094 65.9914C69.9739 66.2943 70.2526 66.6113 70.537 66.9425L70.975 67.4463C71.1229 67.6105 71.2594 67.8143 71.4499 67.8397C71.6405 67.8652 71.7713 67.6444 71.8794 67.4576C71.9874 67.2708 72.1012 67.0727 72.2036 66.8915C72.4083 66.5094 72.5875 66.1301 72.7439 65.7593C73.0217 65.1085 73.2555 64.44 73.4436 63.7582C73.6057 63.1751 73.7024 62.6939 73.7649 62.3599C73.7852 62.1912 73.8156 62.0239 73.8559 61.8589Z" fill="#263238"/>
<path d="M81.8248 107.622C81.8447 107.659 78.0707 109.762 73.3952 112.324C68.7197 114.885 64.9145 116.929 64.8945 116.895C64.8746 116.861 68.6486 114.755 73.3241 112.194C77.9996 109.632 81.8049 107.574 81.8248 107.622Z" fill="#263238"/>
<path d="M79.2197 115.879C79.2197 115.918 76.7909 116.083 73.7905 116.241C70.7901 116.4 68.3585 116.496 68.3557 116.456C68.3528 116.417 70.7844 116.252 73.7848 116.094C76.7852 115.935 79.2168 115.831 79.2197 115.879Z" fill="#263238"/>
<path d="M90.1832 97.9363L87.7402 95.437L90.1918 82.6573L92.6433 91.2337L90.1832 97.9363Z" fill="#FF725E"/>
<path d="M88.3602 113.527C88.3577 113.505 88.3577 113.483 88.3602 113.462V113.283C88.3602 113.095 88.3602 112.848 88.3602 112.545C88.3602 111.888 88.3915 110.965 88.4114 109.827C88.4569 107.535 88.5223 104.367 88.5593 100.869C88.5963 97.3703 88.5906 94.1973 88.5309 91.9074C88.5081 90.7611 88.4598 89.8355 88.4199 89.1958C88.3972 88.8844 88.3801 88.6297 88.3659 88.457C88.3659 88.3806 88.3659 88.3183 88.3659 88.2674C88.3622 88.2449 88.3622 88.222 88.3659 88.1995C88.3746 88.2201 88.3794 88.2422 88.3801 88.2646L88.4057 88.4542C88.4256 88.6354 88.4541 88.8816 88.4882 89.1901C88.5422 89.8298 88.6077 90.7554 88.6446 91.9046C88.7299 94.1973 88.7527 97.3674 88.7157 100.869C88.6788 104.37 88.5991 107.537 88.5252 109.83C88.4854 110.962 88.4512 111.891 88.4256 112.545C88.4114 112.856 88.4 113.111 88.3887 113.283C88.3887 113.36 88.3887 113.425 88.3887 113.476C88.3812 113.494 88.3717 113.511 88.3602 113.527Z" fill="#263238"/>
<path d="M80.1525 60.9533C79.8955 60.8645 79.6192 60.846 79.3526 60.8997C79.0859 60.9535 78.8387 61.0776 78.6367 61.259C77.9598 61.8902 78.0452 62.6063 78.2556 63.28C78.3449 63.6446 78.5721 63.961 78.8898 64.1631L81.6798 62.8582L80.1525 60.9533Z" fill="#EB996E"/>
<path d="M77.61 65.3605C77.61 65.3605 76.4411 66.1558 76.3984 66.3964C76.3671 66.5691 76.5804 66.787 76.9103 66.6795C77.2869 66.5076 77.6526 66.3129 78.0053 66.0964L77.61 65.3605Z" fill="#FF725E"/>
<g opacity="0.3">
<path opacity="0.3" d="M77.61 65.3605C77.61 65.3605 76.4411 66.1558 76.3984 66.3964C76.3671 66.5691 76.5804 66.787 76.9103 66.6795C77.2869 66.5076 77.6526 66.3129 78.0053 66.0964L77.61 65.3605Z" fill="black"/>
</g>
<path d="M80.3573 62.425L77.1379 65.448L77.8546 66.4386L81.3327 65.2017L99.0849 55.1733C99.239 55.0864 99.3738 54.9693 99.481 54.8289C99.5882 54.6886 99.6655 54.528 99.7084 54.3569C99.7512 54.1858 99.7586 54.0079 99.7301 53.8339C99.7017 53.6599 99.6379 53.4935 99.5428 53.3448C99.3648 53.0664 99.0868 52.866 98.7655 52.7844C98.4442 52.7029 98.1038 52.7464 97.8136 52.9061L80.3573 62.425Z" fill="#455A64"/>
<path d="M114.28 100.433C114.081 97.563 96.0248 72.7452 94.8958 71.1969L91.7674 64.7519L90.4421 59.323C90.4421 59.323 83.3634 55.2584 82.8032 55.2584C82.2429 55.2584 79.4871 58.7654 79.4387 59.323C79.4311 59.4995 79.4588 59.6758 79.5204 59.8415C79.5819 60.0072 79.676 60.1591 79.7971 60.2882L80.1526 63.8405C79.9204 64.3105 79.8846 64.8529 80.053 65.3491C80.3574 66.0737 81.5803 66.0737 81.5803 66.0737L81.1224 67.6079C81.1224 67.6079 81.2248 69.3203 81.5291 69.6232C81.6485 69.7421 82.2514 69.827 82.9226 69.7024C83.5113 69.5949 83.6763 68.7429 83.6478 68.3353C83.8355 68.6382 84.4754 68.3353 84.4754 68.3353C84.5352 69.0571 85.2917 69.5949 85.2917 69.5949C85.2917 69.5949 86.3724 73.9368 86.5259 74.4944C86.6795 75.0521 87.6465 76.4758 89.0855 76.9825C89.206 77.0243 89.3238 77.0735 89.4382 77.1296C90.4705 81.0159 97.6886 107.801 99.2101 109.604C100.851 111.543 105.296 112.757 109.298 112.553C113.299 112.349 114.485 103.394 114.28 100.433Z" fill="#FFBE9D"/>
<path d="M86.6112 58.6833C86.2777 58.7304 85.9412 58.7522 85.6044 58.7484C84.9816 58.7682 84.1227 58.7852 83.1728 58.788C82.6979 58.788 82.2457 58.788 81.8361 58.788C81.6285 58.788 81.4323 58.788 81.2474 58.7653C81.0878 58.7591 80.9295 58.7963 80.7896 58.8729C80.576 58.9853 80.3789 59.1263 80.2037 59.2918C80.0757 59.4079 80.0103 59.4786 80.0018 59.4701C79.9933 59.4616 80.0473 59.3824 80.1639 59.2522C80.3263 59.0647 80.5184 58.9051 80.7327 58.7795C80.8883 58.6876 81.0665 58.6405 81.2474 58.6436C81.4266 58.6436 81.6228 58.6436 81.8162 58.6436H85.5845C85.9272 58.6313 86.2704 58.6445 86.6112 58.6833Z" fill="#EB996E"/>
<path d="M84.4782 58.6834C84.4782 58.7003 84.3104 58.6551 84.0914 58.5079C83.8087 58.3132 83.5525 58.083 83.3292 57.8229L83.2496 57.7295L83.3719 57.6502C83.4101 57.7515 83.4101 57.8631 83.3719 57.9644C83.342 58.049 83.2988 58.1282 83.2439 58.1993C83.1621 58.3133 83.0666 58.4169 82.9595 58.5079C82.7747 58.6635 82.6438 58.7286 82.6325 58.7145C82.6211 58.7003 82.7292 58.6041 82.8913 58.4314C82.9843 58.3349 83.0689 58.2307 83.1444 58.1201C83.1918 58.0647 83.2251 57.9987 83.2414 57.9277C83.2578 57.8568 83.2567 57.7829 83.2382 57.7125L83.0335 57.2483L83.3634 57.6332L83.4402 57.7238C83.6587 57.9748 83.8975 58.2077 84.154 58.4201C84.3474 58.5871 84.4896 58.6551 84.4782 58.6834Z" fill="#EB996E"/>
<path d="M86.1021 61.8534C85.81 61.8796 85.5167 61.891 85.2233 61.8874C84.6801 61.9015 83.9322 61.9412 83.1074 62.0119C82.4127 62.0508 81.7341 62.2361 81.1166 62.5554C80.6417 62.8101 80.3886 63.0337 80.3715 63.0139C80.3544 62.9941 80.4227 62.9432 80.5364 62.8441C80.7007 62.703 80.8767 62.5762 81.0626 62.4648C81.688 62.1067 82.3897 61.9011 83.1103 61.8647C83.8166 61.8015 84.5256 61.7741 85.2347 61.7827C85.5256 61.7742 85.8165 61.798 86.1021 61.8534Z" fill="#EB996E"/>
<path d="M82.7576 61.9723C82.4289 61.9803 82.1076 61.8747 81.8483 61.6734C81.589 61.4721 81.4079 61.1877 81.3356 60.8684C81.5143 61.1179 81.7162 61.3501 81.9386 61.5619C82.1984 61.7233 82.4726 61.8607 82.7576 61.9723Z" fill="#EB996E"/>
<path d="M86.031 63.945C85.8551 64.081 85.6556 64.1837 85.4423 64.2478C84.9367 64.4139 84.4183 64.5388 83.8924 64.6215C83.3729 64.6999 82.863 64.8317 82.3708 65.0149C82.0011 65.1649 81.802 65.298 81.7793 65.298C81.9333 65.1371 82.1206 65.0116 82.3282 64.93C82.8184 64.7157 83.3347 64.5663 83.8639 64.4856C84.3844 64.4059 84.8999 64.2972 85.4082 64.1601C85.7921 64.0327 86.0197 63.9252 86.031 63.945Z" fill="#EB996E"/>
<path d="M83.1814 66.8208C83.1814 66.8208 83.3321 66.8576 83.517 67.0161C83.7651 67.2332 83.919 67.5376 83.9464 67.8652C83.9733 68.0478 83.9383 68.234 83.8469 68.3945C83.773 68.522 83.6767 68.6351 83.5625 68.7285C83.3634 68.8842 83.1956 68.887 83.1956 68.8701C83.1956 68.8531 83.3349 68.8078 83.48 68.6493C83.571 68.5548 83.6468 68.447 83.7047 68.3294C83.7738 68.1911 83.7996 68.0353 83.7786 67.8822C83.747 67.591 83.6212 67.3179 83.4203 67.1038C83.2894 66.9227 83.1671 66.8406 83.1814 66.8208Z" fill="#EB996E"/>
<path d="M85.3172 66.5973C85.3342 66.5973 85.3001 66.7218 85.2176 66.903C85.1132 67.1471 84.9453 67.3591 84.7313 67.5172C84.6073 67.6058 84.4622 67.6604 84.3104 67.6757C84.1859 67.689 84.0601 67.6684 83.9464 67.6163C83.7501 67.5229 83.699 67.387 83.716 67.3814C83.7331 67.3757 83.8099 67.4663 83.9834 67.5201C84.096 67.5515 84.2144 67.5566 84.3293 67.535C84.4443 67.5134 84.5526 67.4657 84.646 67.3955C84.8397 67.2512 85.003 67.0704 85.1266 66.8634C85.229 66.6907 85.2973 66.5803 85.3172 66.5973Z" fill="#EB996E"/>
<path d="M85.9543 68.7654C85.9543 68.7824 85.832 68.8277 85.6272 68.805C85.3546 68.7724 85.1031 68.6427 84.919 68.4399C84.739 68.2341 84.6382 67.9712 84.6346 67.6983C84.6346 67.4917 84.6915 67.3756 84.7086 67.3813C84.7257 67.387 84.7086 67.5058 84.7399 67.6927C84.7689 67.9318 84.8678 68.1571 85.0243 68.3408C85.1882 68.5193 85.4022 68.6445 85.6386 68.7003C85.8291 68.7484 85.9514 68.7428 85.9543 68.7654Z" fill="#EB996E"/>
<path d="M98.0781 56.1414C97.3596 55.4381 96.8128 54.5802 96.4798 53.6335C96.5139 53.6335 96.8154 54.1996 97.2591 54.8988C97.7027 55.5979 98.1066 56.1074 98.0781 56.1414Z" fill="#263238"/>
<path d="M98.3824 55.6829C96.8656 56.5641 95.3233 57.4019 93.7553 58.1963L93.7268 58.2133C93.7138 58.2367 93.706 58.2626 93.7042 58.2893C93.7024 58.3159 93.7065 58.3427 93.7163 58.3676C93.7261 58.3925 93.7413 58.4149 93.7608 58.4332C93.7803 58.4516 93.8037 58.4654 93.8292 58.4737C93.9363 58.5024 94.0502 58.4924 94.1506 58.4454C94.4117 58.3405 94.6637 58.2146 94.9042 58.069L97.99 56.3197C98.1153 56.2591 98.2275 56.1745 98.3199 56.0706C98.3663 56.0187 98.3969 55.9545 98.408 55.8858C98.4191 55.8171 98.4102 55.7467 98.3824 55.6829Z" fill="#263238"/>
<path d="M52.5346 101.514L47.5378 109.188L47.2534 99.5331L33.3008 100.694C33.278 101.07 34.3047 112.432 35.8604 122.234C36.5344 126.508 40.9141 129.751 45.2626 129.751C46.9444 129.753 48.5918 129.277 50.011 128.379C51.4303 127.481 52.5623 126.199 53.2741 124.682L61.806 103.377L52.5346 101.514Z" fill="#FFBE9D"/>
<path d="M62.8697 71.2815C62.8498 71.1513 63.2934 69.3596 63.2934 69.3596C63.2934 69.3596 84.9702 68.2812 85.0186 68.3095L86.324 69.0907L62.8697 71.2815Z" fill="white"/>
<path d="M62.8697 71.2817L62.9948 71.2619L63.3532 71.2251L64.7183 71.0864L69.7294 70.5967L86.3183 69.0173L86.287 69.156L85.5618 68.7201L85.1579 68.4795C85.0963 68.4347 85.0282 68.3994 84.956 68.3748C84.891 68.3838 84.8254 68.3885 84.7598 68.3889L83.8298 68.4314L82.0011 68.5163L78.4803 68.6833L72.1212 68.9833L63.3048 69.3881L63.3304 69.3654C63.1797 69.9768 63.0631 70.4523 62.9806 70.7807C62.8981 71.109 62.8782 71.2788 62.8782 71.2788C62.8822 71.1085 62.9071 70.9394 62.9522 70.775C63.0204 70.4467 63.1256 69.9683 63.2735 69.3598V69.34H63.2963L72.1126 68.8729L78.4689 68.5531L81.9926 68.3804L83.8213 68.2955L84.7513 68.2531C84.8394 68.2531 84.9333 68.2531 85.0214 68.2531C85.0965 68.2786 85.1673 68.3148 85.2319 68.3606L85.6329 68.604L86.3581 69.0371L86.5515 69.1531L86.3268 69.173L69.6839 70.6958L64.6813 71.1401L63.3304 71.2562L62.9834 71.2845L62.8697 71.2817Z" fill="#263238"/>
<path d="M62.9863 71.6329L62.8725 71.2791L62.5853 69.4817L42.265 65.3577L40.2885 66.838L43.2661 93.0852L63.9134 98.2027L62.9863 71.6329Z" fill="white"/>
<path d="M62.9834 71.6328C62.9834 71.6328 62.9834 71.6753 62.9834 71.7573C62.9834 71.8394 62.9834 71.964 63.0005 72.1225C63.0005 72.4508 63.0346 72.9292 63.0602 73.5519C63.1085 74.8086 63.1768 76.6428 63.2678 78.9694C63.4356 83.6341 63.6773 90.2914 63.9646 98.2168V98.3017L63.8792 98.2819L43.2462 93.1587H43.1978V93.1077L42.9731 91.1519C41.9721 82.2868 41.0307 73.9651 40.2287 66.8606V66.8238L40.2571 66.8011L42.2479 65.3236L42.2707 65.3066H42.2963L62.608 69.4703H62.6222V69.4845C62.7701 70.4553 62.8583 71.0412 62.9066 71.2846C63.0033 71.5932 63.0147 71.6385 63.0147 71.6385C63.0147 71.6385 62.9976 71.596 62.8952 71.2875C62.8554 71.0412 62.7559 70.461 62.5938 69.4901L62.6108 69.5071L42.2849 65.4227H42.3332L40.3567 66.9059L40.3823 66.8493C41.19 73.9538 42.137 82.2726 43.1466 91.1377C43.2234 91.8085 43.3002 92.4765 43.3685 93.0964L43.3144 93.0313L63.9589 98.1573L63.8764 98.2224C63.6119 90.2971 63.3901 83.6596 63.2337 78.9977C63.1597 76.6682 63.1028 74.8341 63.063 73.5773C63.046 72.9518 63.0317 72.4735 63.0232 72.1451C63.0232 71.9838 63.0232 71.8621 63.0232 71.7743C63.0232 71.6866 62.9834 71.6328 62.9834 71.6328Z" fill="#263238"/>
<path d="M39.5148 66.62L41.426 93.1389L63.9105 97.7781L86.5827 93.722L86.8472 68.9976L64.2546 70.2742C64.2546 70.2742 64.1181 71.2818 62.4601 71.245L61.3452 70.8657L40.6496 66.8408L39.5148 66.62Z" fill="#455A64"/>
<path d="M64.8434 98.9611C64.8008 98.9611 64.6387 92.5387 64.4737 84.619C64.3088 76.6993 64.2149 70.274 64.2547 70.274C64.2945 70.274 64.4595 76.6936 64.6216 84.6162C64.7837 92.5387 64.8832 98.9583 64.8434 98.9611Z" fill="#263238"/>
<path d="M61.9511 98.2025C61.9511 98.2025 61.9511 98.1798 61.9511 98.1346C61.9511 98.0893 61.9511 98.01 61.934 97.9279C61.934 97.7326 61.9056 97.4666 61.8857 97.1326C61.843 96.4419 61.7975 95.4343 61.7463 94.203C61.6468 91.732 61.5501 88.3127 61.4761 84.5397C61.4022 80.7667 61.3624 77.3446 61.3481 74.8707C61.3481 73.6423 61.3481 72.6431 61.3481 71.9384C61.3481 71.6044 61.3481 71.3383 61.3481 71.143V70.9364C61.3481 70.8882 61.3481 70.8656 61.3481 70.8656C61.3519 70.889 61.3519 70.9129 61.3481 70.9364V71.143C61.3481 71.3355 61.3624 71.6015 61.3709 71.9384C61.3709 72.6431 61.4022 73.6366 61.4278 74.8679C61.4704 77.3531 61.5302 80.7667 61.5984 84.5369C61.6667 88.3071 61.752 91.7263 61.8259 94.2002C61.8629 95.4286 61.8942 96.4249 61.9169 97.1297C61.9169 97.4665 61.934 97.7326 61.9397 97.9251C61.9397 98.01 61.9397 98.0779 61.9397 98.1317C61.948 98.1544 61.9518 98.1784 61.9511 98.2025Z" fill="#263238"/>
<path d="M59.1475 106.787L59.0587 106.824L59.1475 106.787Z" fill="#FFBE9D"/>
<path d="M69.3824 91.585C70.483 90.5038 71.5609 89.4027 71.8083 89.0036C72.3515 88.1261 71.467 87.5176 70.8584 87.2459C70.2498 86.9741 62.2355 93.8013 62.2355 93.8013C62.2355 93.8013 68.9558 87.8572 69.3653 87.4497C69.7748 87.0421 70.0422 86.5043 69.6355 85.423C69.2288 84.3418 67.9291 84.7465 67.4627 84.8145C66.9963 84.8824 59.3858 91.234 59.3858 91.234C59.3858 91.234 63.7968 86.9883 64.2035 86.6401C64.6102 86.292 64.7467 85.6919 64.613 84.8824C64.4794 84.0729 63.5949 84.1408 62.9834 84.1408C62.372 84.1408 52.8219 92.5842 52.8219 92.5842L53.2769 97.0422L51.6587 103.872L59.181 106.773C60.4722 106.233 62.9152 103.068 63.3901 102.448C63.8651 101.829 66.5811 97.246 66.5811 97.246C67.6675 96.6374 69.2288 94.206 69.8403 93.5296C70.4517 92.8531 70.247 92.5162 69.9057 91.9756C69.7237 91.6926 67.9519 93.1078 66.3507 94.4608L66.7176 94.1381C66.7176 94.1381 68.0628 92.8757 69.3824 91.585Z" fill="#FFBE9D"/>
<path d="M55.7341 94.3501C55.7341 94.3642 55.5976 94.4774 55.3132 94.5454C54.9368 94.6327 54.5415 94.5867 54.1955 94.4152C53.8517 94.2389 53.5795 93.95 53.4248 93.5972C53.35 93.4585 53.3173 93.3011 53.331 93.1443C53.3566 93.1443 53.3907 93.3113 53.5187 93.5519C53.6882 93.8629 53.9465 94.117 54.2609 94.2821C54.5809 94.4382 54.9407 94.4944 55.2933 94.4435C55.5663 94.4039 55.7256 94.3189 55.7341 94.3501Z" fill="#EB996E"/>
<path d="M58.834 96.8948C58.707 96.9465 58.5671 96.9584 58.433 96.9288C58.1026 96.8884 57.7942 96.7424 57.5542 96.5127C57.3142 96.2831 57.1556 95.9821 57.1021 95.6551C57.0663 95.5235 57.0723 95.3841 57.1191 95.256C57.1447 95.256 57.1447 95.406 57.2044 95.6324C57.2826 95.9266 57.4388 96.1945 57.6566 96.408C57.8792 96.6161 58.1545 96.7599 58.4529 96.8241C58.6776 96.8665 58.834 96.8665 58.834 96.8948Z" fill="#EB996E"/>
<path d="M62.2724 99.4563C62.1159 99.4838 61.9549 99.4692 61.806 99.4139C61.43 99.3105 61.0922 99.101 60.8333 98.8107C60.5743 98.5204 60.4055 98.1616 60.347 97.7778C60.308 97.6229 60.3129 97.4603 60.3612 97.308C60.384 97.308 60.384 97.4863 60.4494 97.758C60.5317 98.1122 60.7018 98.4403 60.9443 98.7122C61.1867 98.9841 61.4937 99.1913 61.8373 99.3148C61.9848 99.3542 62.13 99.4014 62.2724 99.4563Z" fill="#EB996E"/>
<path d="M48.6327 107.659C48.6668 107.682 47.0799 110.139 45.0891 113.145C43.0983 116.151 41.4601 118.574 41.426 118.551C41.3919 118.528 42.976 116.071 44.9668 113.065C46.9576 110.059 48.5985 107.637 48.6327 107.659Z" fill="#EB996E"/>
<path d="M73.2957 78.3892L73.1336 80.2913L72.8492 80.3224L71.9363 79.1081L71.8225 80.4384L71.4784 80.4781L71.6405 78.576L71.9249 78.542L72.8407 79.7591L72.9516 78.4288L73.2957 78.3892Z" fill="#263238"/>
<path d="M73.5914 79.4618C73.5704 79.3129 73.5803 79.1612 73.6206 79.0162C73.6609 78.8713 73.7306 78.7361 73.8255 78.619C73.9205 78.502 74.0385 78.4056 74.1724 78.3359C74.3063 78.2661 74.4532 78.2245 74.6039 78.2136C75.1727 78.1513 75.5339 78.4372 75.5879 78.9099C75.609 79.0591 75.5989 79.211 75.5582 79.3562C75.5176 79.5014 75.4473 79.6366 75.3517 79.7535C75.2562 79.8704 75.1374 79.9664 75.0028 80.0356C74.8683 80.1047 74.7209 80.1454 74.5698 80.1553C74.0123 80.2175 73.6455 79.9317 73.5914 79.4618ZM75.2466 78.9693C75.2408 78.8957 75.2187 78.8244 75.1821 78.7602C75.1455 78.696 75.0951 78.6407 75.0346 78.598C74.9742 78.5554 74.905 78.5264 74.832 78.5133C74.7591 78.5002 74.6841 78.5032 74.6124 78.5221C74.5087 78.5326 74.4083 78.5643 74.3174 78.615C74.2265 78.6657 74.147 78.7344 74.0838 78.8169C74.0207 78.8994 73.9752 78.9939 73.9502 79.0946C73.9251 79.1953 73.9211 79.3001 73.9384 79.4024C73.9443 79.4756 73.9663 79.5467 74.0028 79.6106C74.0392 79.6745 74.0893 79.7297 74.1495 79.7723C74.2096 79.8149 74.2784 79.8439 74.351 79.8573C74.4236 79.8706 74.4983 79.868 74.5698 79.8496C74.6737 79.8394 74.7744 79.808 74.8657 79.7575C74.9569 79.7069 75.0367 79.6382 75.1002 79.5557C75.1637 79.4731 75.2094 79.3785 75.2346 79.2776C75.2598 79.1768 75.2639 79.0718 75.2466 78.9693Z" fill="#263238"/>
<path d="M76.3757 78.3408L75.7585 78.4088L75.7841 78.1087L77.3683 77.9304L77.3398 78.2304L76.7198 78.3012L76.5862 79.9033L76.2392 79.9429L76.3757 78.3408Z" fill="#263238"/>
<path d="M77.9485 78.1598L77.9086 78.6552L78.813 78.5533L78.7903 78.8363L77.8831 78.9382L77.8375 79.4647L78.8955 79.3458L78.8699 79.6289L77.4678 79.7874L77.6299 77.8853L78.9951 77.7324L78.9695 78.0296L77.9485 78.1598Z" fill="#263238"/>
<path d="M79.123 79.425L79.2396 79.1419C79.4294 79.2548 79.6515 79.3016 79.8709 79.275C80.1553 79.2467 80.3089 79.1278 80.289 78.9636C80.2492 78.6183 79.3277 78.9042 79.2595 78.3069C79.2197 77.939 79.524 77.6672 80.0075 77.6135C80.2257 77.5831 80.4482 77.6135 80.6502 77.7012L80.545 77.9843C80.3825 77.906 80.2009 77.8755 80.0217 77.8965C79.7373 77.9305 79.5837 78.0635 79.6008 78.2249C79.6406 78.573 80.562 78.2956 80.6274 78.8645C80.6701 79.2353 80.363 79.5071 79.8709 79.5608C79.6134 79.5976 79.3509 79.5499 79.123 79.425Z" fill="#263238"/>
<path d="M82.1462 80.2204C82.1462 80.2601 79.4956 80.6818 76.2108 81.1602C72.926 81.6385 70.2612 81.9923 70.2555 81.9527C70.2498 81.9131 72.9061 81.4913 76.1909 81.013C79.4757 80.5346 82.1405 80.1808 82.1462 80.2204Z" fill="#263238"/>
<path d="M82.3537 81.3584C82.3537 81.398 79.9676 81.8084 77.0099 82.2726C74.0521 82.7368 71.6518 83.0793 71.6461 83.0397C71.6404 83 74.0322 82.5925 76.9871 82.1254C79.942 81.6584 82.3452 81.3187 82.3537 81.3584Z" fill="#263238"/>
</g>
</svg>
