<svg width="20" height="21" viewBox="0 0 20 21" fill="none" xmlns="http://www.w3.org/2000/svg">
<path d="M20 4.72011L15.4 0.860107L14.11 2.39011L18.71 6.25011L20 4.72011ZM5.88 2.39011L4.6 0.860107L0 4.71011L1.29 6.24011L5.88 2.39011ZM10.5 7.00011H9V13.0001L13.75 15.8501L14.5 14.6201L10.5 12.2501V7.00011ZM10 3.00011C5.03 3.00011 1 7.03011 1 12.0001C1 16.9701 5.02 21.0001 10 21.0001C14.97 21.0001 19 16.9701 19 12.0001C19 7.03011 14.97 3.00011 10 3.00011ZM10 19.0001C6.13 19.0001 3 15.8701 3 12.0001C3 8.13011 6.13 5.00011 10 5.00011C13.87 5.00011 17 8.13011 17 12.0001C17 15.8701 13.87 19.0001 10 19.0001Z" fill="url(#paint0_linear_12_379)"/>
<defs>
<linearGradient id="paint0_linear_12_379" x1="0" y1="0.860107" x2="23.2826" y2="5.93232" gradientUnits="userSpaceOnUse">
<stop stop-color="#FBFF32"/>
<stop offset="1" stop-color="#FF961C"/>
</linearGradient>
</defs>
</svg>
