<svg width="81" height="90" viewBox="0 0 81 90" fill="none" xmlns="http://www.w3.org/2000/svg">
<path d="M80.6426 10.5963C80.4292 10.2532 80.1311 9.97004 79.7768 9.77357C79.4224 9.5771 79.0234 9.47388 78.6176 9.47368C78.3889 9.47368 55.3373 9.35526 41.8198 0.397892C41.4288 0.139225 40.9696 0.0012207 40.5 0.0012207C40.0303 0.0012207 39.5711 0.139225 39.1802 0.397892C25.6627 9.35526 2.61104 9.47368 2.38233 9.47368C1.97608 9.47369 1.57657 9.57699 1.22178 9.77375C0.866995 9.97052 0.568718 10.2542 0.355293 10.5979C0.141868 10.9415 0.0203877 11.3337 0.0023982 11.7372C-0.0155913 12.1407 0.0705063 12.5421 0.25251 12.9032C0.300157 12.9884 4.76469 22.14 4.76469 45C4.76469 79.5458 39.4946 89.8105 39.8472 89.9053C40.2731 90.0316 40.7268 90.0316 41.1527 89.9053C41.5053 89.8105 76.2353 79.5458 76.2353 45C76.2353 22.3532 80.7093 12.9837 80.7475 12.9032C80.9294 12.5417 81.0153 12.14 80.997 11.7362C80.9786 11.3324 80.8566 10.94 80.6426 10.5963ZM71.4706 45C71.4706 73.8047 45.1599 83.6384 40.5 85.1542C35.8401 83.6384 9.52939 73.7858 9.52939 45C9.84506 34.5731 8.57933 24.1584 5.7748 14.1063C17.8771 13.758 29.7454 10.7063 40.5 5.17736C51.2545 10.7063 63.1228 13.758 75.2252 14.1063C72.4206 24.1584 71.1549 34.5731 71.4706 45ZM44.3117 28.8616C44.6309 28.9154 44.9356 29.0333 45.2074 29.2081C45.4792 29.3829 45.7123 29.611 45.8925 29.8783C46.0727 30.1457 46.1961 30.4467 46.2554 30.7631C46.3146 31.0795 46.3084 31.4045 46.2371 31.7185C46.1658 32.0324 46.0309 32.3285 45.8406 32.5889C45.6503 32.8492 45.4086 33.0683 45.1304 33.2327C44.8521 33.3971 44.543 33.5034 44.2221 33.5451C43.9011 33.5868 43.5749 33.563 43.2635 33.4753C41.5119 33.0486 39.6854 33.0249 37.9232 33.4059C36.161 33.7869 34.5094 34.5627 33.0943 35.674C31.6791 36.7854 30.5377 38.203 29.7568 39.8191C28.9759 41.4352 28.5763 43.2072 28.5882 45C28.5973 46.0342 28.7333 47.0633 28.9932 48.0647C29.6719 50.583 31.1675 52.8081 33.248 54.3951C35.3285 55.9822 37.8776 56.8423 40.5 56.8421C41.7373 56.8615 42.9677 56.656 44.1307 56.2358C46.1711 55.6001 48.0009 54.4283 49.4266 52.8441C50.8524 51.2599 51.8212 49.3222 52.2307 47.2358C52.3526 46.6189 52.7161 46.0755 53.241 45.7251C53.766 45.3746 54.4095 45.2459 55.0299 45.3671C55.6504 45.4883 56.197 45.8496 56.5495 46.3715C56.902 46.8934 57.0316 47.5332 56.9096 48.15C56.3436 51.0456 55.0066 53.7372 53.038 55.9442C51.0694 58.1512 48.5413 59.7928 45.7173 60.6979C44.0466 61.3046 42.2785 61.6032 40.5 61.5789C36.8234 61.5797 33.2496 60.3725 30.3345 58.1452C27.4194 55.9179 25.3264 52.7953 24.381 49.2632C24.0182 47.8706 23.8309 46.4385 23.8235 45C23.8238 42.5008 24.3924 40.034 25.4868 37.784C26.5812 35.5341 28.1732 33.5592 30.1436 32.0071C32.1139 30.4551 34.4118 29.366 36.8653 28.8213C39.3188 28.2765 41.8644 28.2903 44.3117 28.8616ZM38.9848 47.3353L53.4314 31.0689C53.8497 30.5978 54.4391 30.3112 55.0699 30.2721C55.7008 30.233 56.3214 30.4447 56.7953 30.8605C57.2691 31.2764 57.5575 31.8623 57.5968 32.4895C57.6361 33.1166 57.4232 33.7336 57.0049 34.2047L40.4285 52.8679C40.2048 53.1197 39.9298 53.3213 39.6218 53.4593C39.3137 53.5973 38.9796 53.6686 38.6417 53.6684H38.4369C38.0668 53.6361 37.7095 53.5181 37.3935 53.324C37.0774 53.1299 36.8115 52.865 36.6167 52.5505L32.157 45.3458C31.9753 45.081 31.8495 44.7823 31.7873 44.4678C31.7251 44.1533 31.7278 43.8295 31.7952 43.5161C31.8625 43.2026 31.9932 42.906 32.1792 42.6443C32.3653 42.3825 32.6029 42.161 32.8775 41.9931C33.1522 41.8253 33.4583 41.7147 33.7773 41.6679C34.0962 41.6211 34.4214 41.6392 34.7332 41.721C35.0449 41.8029 35.3367 41.9467 35.5908 42.144C35.845 42.3412 36.0562 42.5877 36.2117 42.8684L38.9848 47.3353Z" fill="url(#paint0_linear_11_187)"/>
<defs>
<linearGradient id="paint0_linear_11_187" x1="6.10352e-05" y1="0.0012207" x2="95.0631" y2="18.7707" gradientUnits="userSpaceOnUse">
<stop stop-color="#FBFF32"/>
<stop offset="1" stop-color="#FF961C"/>
</linearGradient>
</defs>
</svg>
