<svg width="428" height="389" viewBox="0 0 428 389" fill="none" xmlns="http://www.w3.org/2000/svg">
<g clip-path="url(#clip0_50_2125)">
<path d="M54.233 64.7983C54.2725 64.8799 54.3013 64.9663 54.3185 65.0554L54.5276 65.8169C54.6331 66.2367 54.7632 66.65 54.9173 67.0544C55.0884 67.5304 55.269 68.092 55.5446 68.6918L55.9628 69.6437L56.5046 70.6718C56.6905 71.0496 56.9 71.4152 57.1319 71.7665C57.3695 72.1283 57.5786 72.5281 57.8637 72.9088C60.5337 76.8196 64.2725 79.8768 68.6324 81.7143C69.9552 82.2689 71.3266 82.6991 72.7289 82.9994C74.2204 83.2958 75.7278 83.5056 77.2436 83.6277C80.3515 83.9323 83.7162 84.1036 86.9382 85.3983C90.1926 86.8433 93.0781 89.0075 95.3783 91.7287C97.8127 94.3143 99.7808 97.3032 101.195 100.563C101.834 102.136 102.226 103.8 102.355 105.494C102.465 107.112 102.363 108.738 102.05 110.33C101.415 113.247 100.557 116.111 99.4842 118.897C98.5694 121.314 97.8883 123.813 97.4503 126.36C97.095 128.461 97.1759 130.613 97.6879 132.681C98.0749 134.241 98.7768 135.706 99.7504 136.984C100.365 137.795 101.118 138.491 101.974 139.04C102.554 139.411 102.925 139.554 102.925 139.573C102.595 139.442 102.277 139.283 101.974 139.097C101.098 138.561 100.325 137.871 99.6933 137.06C98.6861 135.782 97.9576 134.306 97.5548 132.729C97.0172 130.636 96.9169 128.455 97.2602 126.322C97.6941 123.761 98.3687 121.246 99.2751 118.811C100.33 116.023 101.175 113.159 101.803 110.244C102.099 108.676 102.194 107.076 102.088 105.484C101.961 103.825 101.573 102.196 100.938 100.658C99.5341 97.4322 97.5857 94.4729 95.1787 91.9095C92.909 89.2258 90.0626 87.091 86.8527 85.6648C83.7067 84.3797 80.3706 84.2084 77.2531 83.8942C75.7282 83.7599 74.2116 83.5438 72.7099 83.2469C71.2799 82.9592 69.8798 82.5385 68.5279 81.9903C64.131 80.123 60.3748 77.0095 57.7212 73.0326C57.436 72.6518 57.2174 72.252 56.9893 71.8808C56.7638 71.5208 56.5575 71.149 56.3715 70.767L55.8393 69.7389L55.4306 68.787C55.196 68.2471 54.9929 67.694 54.8223 67.1306C54.6795 66.7226 54.562 66.3061 54.4706 65.8835C54.3946 65.5504 54.328 65.2933 54.29 65.1125C54.2631 65.0094 54.2441 64.9043 54.233 64.7983Z" fill="#455A64"/>
<path d="M73.5558 54.708L73.7649 54.8984L74.3542 55.4696C74.6108 55.7266 74.8959 56.0693 75.3046 56.4215C75.7133 56.7737 76.027 57.2973 76.4072 57.8684C77.3673 59.239 78.1557 60.7224 78.7548 62.2854C79.5681 64.3514 80.0524 66.5326 80.19 68.7491C80.2545 70.0359 80.2068 71.3259 80.0474 72.6044C79.8529 73.9895 79.5543 75.3578 79.154 76.6978C78.3651 79.4774 77.2531 82.3332 76.4167 85.4651C76.0057 87.0622 75.773 88.7001 75.7228 90.3486C75.6857 92.0676 75.8613 93.7846 76.2456 95.4605C77.0479 99.0144 78.6542 102.336 80.9408 105.17C83.2341 107.98 86.069 110.298 89.2763 111.986C92.2528 113.58 95.4597 114.697 98.7809 115.299C101.955 115.889 105.035 116.041 107.886 116.479C110.556 116.799 113.149 117.585 115.547 118.802C118.969 120.723 121.647 123.74 123.151 127.369C123.558 128.344 123.876 129.354 124.101 130.387C124.158 130.739 124.196 131.006 124.234 131.206C124.241 131.298 124.241 131.39 124.234 131.482C124.234 131.482 124.234 131.387 124.168 131.206C124.101 131.025 124.073 130.749 124.006 130.406C123.771 129.385 123.454 128.386 123.056 127.417C122.389 125.898 121.516 124.479 120.461 123.2C119.063 121.506 117.353 120.097 115.423 119.049C113.04 117.859 110.466 117.095 107.82 116.793C104.968 116.365 101.898 116.222 98.6954 115.642C95.3433 115.033 92.1053 113.909 89.0958 112.31C85.8491 110.603 82.9787 108.259 80.6557 105.418C78.3547 102.553 76.7301 99.2045 75.9034 95.6223C75.5273 93.9195 75.355 92.1779 75.3902 90.4342C75.4416 88.7633 75.6774 87.1031 76.0935 85.4842C76.9014 82.3237 78.0705 79.4679 78.8688 76.7073C79.2871 75.3846 79.6048 74.0322 79.8193 72.6616C79.9889 71.3999 80.043 70.1253 79.9809 68.8538C79.7625 64.9835 78.4976 61.2456 76.3216 58.0398C75.9509 57.4591 75.5612 57.0022 75.2476 56.5738C74.9339 56.1454 74.6203 55.8313 74.3732 55.6219L73.8124 55.0221C73.7175 54.9254 73.6316 54.8203 73.5558 54.708Z" fill="#455A64"/>
<path d="M120.784 122.924C120.56 123.173 120.311 123.399 120.043 123.6C119.548 124.028 118.817 124.618 117.895 125.323C115.503 127.173 113.016 128.895 110.443 130.482C107.868 132.069 105.213 133.521 102.488 134.833C101.442 135.337 100.587 135.727 99.9975 135.975C99.6945 136.129 99.3759 136.25 99.0471 136.337C99.3301 136.157 99.6255 135.998 99.931 135.861L102.383 134.633C104.446 133.586 107.259 132.062 110.262 130.206C113.266 128.35 115.889 126.513 117.752 125.142L119.948 123.505C120.211 123.289 120.49 123.095 120.784 122.924Z" fill="#455A64"/>
<path d="M115.68 118.926C115.445 119.1 115.194 119.25 114.929 119.373L112.857 120.496C111.108 121.448 108.713 122.8 106.118 124.39C103.524 125.98 101.243 127.522 99.6078 128.655L97.7069 130.006C97.4746 130.18 97.23 130.335 96.975 130.473C97.1752 130.262 97.3948 130.071 97.6308 129.902C98.0681 129.549 98.7144 129.064 99.5318 128.474C101.138 127.284 103.419 125.723 106.014 124.123C108.609 122.524 111.032 121.201 112.81 120.316C113.703 119.859 114.425 119.506 114.939 119.278C115.176 119.141 115.424 119.023 115.68 118.926Z" fill="#455A64"/>
<path d="M108.362 117.383C107.903 117.784 107.41 118.144 106.888 118.459C105.938 119.078 104.655 119.915 103.191 120.801C101.727 121.686 100.387 122.438 99.3892 122.971C98.8685 123.282 98.3214 123.546 97.7545 123.761C98.2344 123.403 98.743 123.084 99.2752 122.809L103.02 120.563L106.765 118.307C107.268 117.951 107.802 117.641 108.362 117.383Z" fill="#455A64"/>
<path d="M101.537 109.292C101.199 109.603 100.825 109.875 100.425 110.101L97.6784 111.948L94.9505 113.852C94.5918 114.138 94.203 114.383 93.791 114.585C94.0875 114.221 94.4329 113.901 94.8175 113.633C95.4828 113.1 96.4237 112.405 97.4978 111.672C98.5718 110.939 99.5698 110.32 100.349 109.901C100.717 109.648 101.117 109.443 101.537 109.292Z" fill="#455A64"/>
<path d="M100.995 102.076C100.995 102.124 100.188 102.562 98.8854 103.314C97.5833 104.066 95.8059 105.161 93.9335 106.474C92.0611 107.788 90.4264 109.102 89.2763 110.073C88.6702 110.626 88.0357 111.147 87.3754 111.634C87.505 111.455 87.6514 111.289 87.8126 111.139C88.1073 110.834 88.554 110.415 89.1147 109.901C92.0424 107.254 95.2822 104.975 98.7619 103.114C99.4272 102.762 99.9784 102.495 100.359 102.314C100.559 102.207 100.774 102.127 100.995 102.076Z" fill="#455A64"/>
<path d="M97.4312 96.4789C97.4788 96.555 94.1427 98.9634 89.9797 101.876C85.8167 104.789 82.376 107.074 82.376 107.007C82.376 106.941 85.6551 104.513 89.8181 101.61C93.9811 98.7064 97.3742 96.4027 97.4312 96.4789Z" fill="#455A64"/>
<path d="M94.5894 90.1677C94.3917 90.3492 94.175 90.5087 93.9431 90.6437C93.4679 90.9674 92.8691 91.3767 92.1468 91.8527C90.626 92.8712 88.535 94.2992 86.2634 95.9175C83.9918 97.5358 81.9769 99.0589 80.5607 100.163L78.8309 101.477C78.6284 101.648 78.4086 101.798 78.175 101.924C78.3463 101.718 78.5408 101.533 78.7548 101.372C79.135 101.039 79.7053 100.563 80.4181 99.9822C81.8438 98.8304 83.8398 97.2787 86.1209 95.6604C88.402 94.0421 90.512 92.6333 92.0612 91.6623C92.8406 91.1768 93.4774 90.796 93.9621 90.539C94.158 90.394 94.3682 90.2696 94.5894 90.1677Z" fill="#455A64"/>
<path d="M88.7251 86.674C88.7821 86.7407 85.9498 88.7969 82.4141 91.2624C78.8784 93.7279 75.9605 95.6508 75.9034 95.5842C75.8464 95.5176 78.6883 93.4519 82.224 90.9959C85.7597 88.5398 88.6776 86.5979 88.7251 86.674Z" fill="#455A64"/>
<path d="M82.5757 83.1519C81.5685 84.1731 80.4816 85.1122 79.3251 85.9601C78.2395 86.8975 77.0863 87.7534 75.8749 88.5208C76.8861 87.4893 77.9726 86.5347 79.1255 85.665C80.2127 84.744 81.3658 83.904 82.5757 83.1519Z" fill="#455A64"/>
<path d="M78.4316 74.3083C78.0084 74.7774 77.544 75.2075 77.044 75.5935C76.16 76.3455 74.9054 77.3641 73.4797 78.4493C72.0541 79.5345 70.7329 80.4293 69.7539 81.0671C69.2446 81.437 68.7003 81.7558 68.1287 82.0191C68.5991 81.5972 69.1012 81.2122 69.6304 80.8672C70.5808 80.1818 71.8735 79.2394 73.2896 78.1827C74.7058 77.1261 75.9794 76.1361 76.9014 75.4221C77.3809 75.0105 77.8926 74.638 78.4316 74.3083Z" fill="#455A64"/>
<path d="M80.2185 68.292C80.0243 68.4791 79.8109 68.6451 79.5817 68.787C79.173 69.0916 78.5552 69.5105 77.7948 70.015C76.2646 71.0336 74.1165 72.3948 71.6929 73.8227C69.2692 75.2507 67.0167 76.412 65.3724 77.2307C64.555 77.64 63.8801 77.9637 63.4144 78.1826C63.1796 78.3119 62.9309 78.4141 62.6731 78.4873C62.888 78.3299 63.1171 78.1928 63.3574 78.0779L65.2583 77.0403C66.8741 76.174 69.0601 74.9556 71.5218 73.5467C73.9835 72.1378 76.103 70.8241 77.6618 69.8532L79.5056 68.7108C79.7264 68.5443 79.9656 68.4038 80.2185 68.292Z" fill="#455A64"/>
<path d="M77.3671 61.8665C77.1509 62.0601 76.9188 62.2352 76.6733 62.39C76.2171 62.7137 75.5518 63.1706 74.7154 63.7323C73.0521 64.8365 70.733 66.3406 68.1382 67.9493C65.5435 69.5581 63.1768 70.967 61.485 71.957C60.6201 72.452 59.9168 72.8518 59.4225 73.1184C59.1732 73.2657 58.9126 73.393 58.6432 73.4991C58.8646 73.312 59.1033 73.1462 59.356 73.0041L61.371 71.7571L68.0242 67.6733L74.6774 63.5419L76.6923 62.2853C76.9035 62.1246 77.1295 61.9844 77.3671 61.8665Z" fill="#455A64"/>
<path d="M327.451 251.635C327.404 251.683 326.7 250.979 325.332 249.808C324.647 249.227 323.801 248.523 322.775 247.771C321.617 246.919 320.397 246.155 319.125 245.486C318.391 245.109 317.628 244.79 316.844 244.534C316.022 244.233 315.153 244.079 314.278 244.077C313.845 244.077 313.419 244.178 313.033 244.372C312.654 244.569 312.353 244.887 312.177 245.276C311.993 245.703 311.905 246.164 311.921 246.628C311.929 247.129 311.993 247.627 312.111 248.113C312.365 249.145 312.735 250.144 313.213 251.093C313.714 252.101 314.276 253.076 314.896 254.015C317.558 257.953 320.891 261.391 324.742 264.172C325.653 264.825 326.605 265.417 327.594 265.943C328.527 266.454 329.515 266.857 330.54 267.142C331.021 267.277 331.515 267.356 332.013 267.38C332.474 267.407 332.934 267.332 333.363 267.162C333.765 267.002 334.1 266.71 334.313 266.333C334.516 265.951 334.63 265.528 334.646 265.096C334.674 264.217 334.545 263.34 334.266 262.507C334.007 261.713 333.69 260.94 333.315 260.193C332.681 258.901 331.954 257.657 331.139 256.471C330.417 255.424 329.751 254.567 329.181 253.853C328.059 252.454 327.375 251.721 327.423 251.674C327.47 251.626 327.632 251.816 327.983 252.149C328.335 252.483 328.82 252.978 329.419 253.654C330.155 254.471 330.85 255.326 331.5 256.214C332.371 257.394 333.146 258.642 333.819 259.946C334.206 260.715 334.539 261.51 334.817 262.326C335.136 263.243 335.288 264.21 335.264 265.181C335.254 265.717 335.117 266.242 334.865 266.714C334.592 267.22 334.156 267.619 333.629 267.847C333.106 268.066 332.542 268.166 331.975 268.142C331.42 268.125 330.868 268.045 330.331 267.904C329.252 267.609 328.209 267.194 327.223 266.667C326.193 266.1 325.202 265.464 324.258 264.763C320.309 261.942 316.905 258.426 314.211 254.387C313.571 253.424 312.996 252.419 312.491 251.378C311.998 250.374 311.619 249.317 311.36 248.227C311.231 247.688 311.167 247.135 311.17 246.581C311.155 246.013 311.272 245.449 311.512 244.934C311.756 244.411 312.167 243.986 312.681 243.725C313.16 243.49 313.687 243.37 314.221 243.373C315.176 243.382 316.123 243.563 317.015 243.906C317.82 244.205 318.602 244.565 319.353 244.981C320.633 245.691 321.853 246.503 323.003 247.409C324.02 248.208 324.847 248.941 325.503 249.57C326.159 250.198 326.643 250.703 326.957 251.055C327.271 251.407 327.47 251.616 327.451 251.635Z" fill="#455A64"/>
<path d="M318.336 253.92C318.393 253.92 318.118 254.872 317.757 256.566C317.576 257.423 317.376 258.47 317.215 259.689C317.03 261.067 316.954 262.458 316.987 263.849C317.005 264.65 317.088 265.449 317.234 266.238C317.372 267.075 317.658 267.881 318.08 268.618C318.295 268.979 318.587 269.287 318.935 269.522C319.282 269.748 319.691 269.861 320.104 269.846C320.556 269.833 321.001 269.723 321.406 269.522C321.836 269.302 322.239 269.03 322.604 268.713C323.381 268.039 324.079 267.279 324.685 266.447C325.326 265.571 325.907 264.652 326.425 263.696C328.584 259.638 329.985 255.218 330.559 250.655C330.683 249.577 330.737 248.493 330.721 247.409C330.705 246.379 330.575 245.354 330.331 244.353C330.207 243.886 330.035 243.433 329.818 243.001C329.617 242.602 329.331 242.251 328.981 241.973C328.655 241.717 328.256 241.571 327.841 241.554C327.422 241.546 327.007 241.631 326.624 241.802C325.857 242.159 325.159 242.649 324.562 243.249C323.989 243.813 323.462 244.421 322.984 245.067C322.144 246.176 321.394 247.35 320.741 248.58C320.171 249.665 319.733 250.636 319.391 251.435C318.707 253.044 318.393 253.958 318.336 253.939C318.344 253.701 318.393 253.466 318.479 253.244C318.602 252.797 318.802 252.149 319.097 251.34C319.391 250.531 319.8 249.522 320.342 248.399C320.957 247.119 321.679 245.893 322.499 244.734C322.977 244.053 323.515 243.416 324.106 242.83C324.745 242.155 325.502 241.603 326.339 241.202C326.808 240.99 327.317 240.882 327.831 240.888C328.387 240.902 328.925 241.088 329.371 241.421C329.804 241.758 330.16 242.183 330.417 242.668C330.67 243.145 330.868 243.65 331.006 244.172C331.276 245.224 331.423 246.304 331.443 247.39C331.476 248.512 331.428 249.635 331.301 250.75C330.746 255.421 329.311 259.943 327.071 264.077C326.534 265.071 325.927 266.025 325.256 266.933C324.613 267.807 323.87 268.603 323.041 269.303C322.63 269.649 322.18 269.946 321.701 270.189C321.212 270.443 320.673 270.586 320.123 270.607C319.57 270.621 319.026 270.465 318.564 270.16C318.14 269.864 317.784 269.481 317.519 269.037C317.069 268.225 316.769 267.338 316.635 266.419C316.493 265.598 316.423 264.767 316.426 263.934C316.419 262.512 316.537 261.091 316.778 259.689C316.949 258.637 317.174 257.595 317.452 256.566C317.68 255.719 317.899 255.072 318.051 254.662C318.1 254.4 318.197 254.148 318.336 253.92Z" fill="#455A64"/>
<path d="M321.454 249.531C321.454 249.598 320.503 249.846 318.897 250.436C318.08 250.731 317.091 251.112 315.96 251.616C314.693 252.185 313.473 252.854 312.31 253.615C311.636 254.048 311 254.539 310.41 255.081C309.77 255.636 309.238 256.304 308.841 257.052C308.647 257.423 308.537 257.832 308.518 258.251C308.51 258.669 308.633 259.078 308.87 259.422C309.116 259.788 309.44 260.094 309.82 260.317C310.234 260.564 310.674 260.765 311.132 260.917C312.115 261.218 313.129 261.409 314.154 261.488C315.237 261.559 316.323 261.559 317.405 261.488C319.692 261.353 321.962 260.999 324.182 260.431C326.406 259.875 328.573 259.11 330.654 258.146C331.637 257.684 332.59 257.16 333.506 256.576C334.373 256.037 335.173 255.398 335.891 254.672C336.229 254.326 336.523 253.939 336.766 253.52C337.002 253.142 337.151 252.716 337.203 252.273C337.246 251.861 337.163 251.446 336.965 251.083C336.751 250.708 336.46 250.383 336.11 250.131C335.4 249.677 334.614 249.355 333.791 249.179C333.013 248.987 332.222 248.856 331.424 248.789C330.039 248.68 328.647 248.68 327.261 248.789C326.035 248.884 324.98 249.017 324.115 249.141C322.404 249.408 321.463 249.627 321.444 249.56C321.653 249.447 321.877 249.367 322.11 249.322C322.547 249.189 323.203 249.017 324.068 248.836C324.932 248.656 325.968 248.484 327.223 248.351C328.634 248.201 330.055 248.169 331.472 248.256C332.301 248.306 333.125 248.427 333.933 248.618C334.844 248.802 335.711 249.157 336.49 249.665C336.92 249.949 337.28 250.327 337.545 250.769C337.827 251.248 337.95 251.805 337.897 252.359C337.848 252.907 337.676 253.438 337.393 253.91C337.126 254.373 336.807 254.804 336.443 255.195C335.69 255.983 334.848 256.679 333.933 257.271C332.996 257.885 332.018 258.435 331.006 258.917C328.869 259.914 326.641 260.702 324.353 261.269C322.083 261.848 319.763 262.202 317.424 262.325C316.306 262.388 315.184 262.369 314.069 262.268C312.986 262.183 311.917 261.969 310.885 261.631C310.372 261.464 309.881 261.237 309.421 260.955C308.954 260.667 308.552 260.285 308.242 259.831C307.941 259.368 307.788 258.823 307.805 258.27C307.829 257.751 307.969 257.243 308.214 256.785C308.662 255.974 309.255 255.251 309.963 254.653C310.59 254.105 311.261 253.608 311.968 253.168C313.18 252.428 314.452 251.791 315.77 251.264C316.756 250.858 317.761 250.502 318.783 250.198C319.619 249.95 320.285 249.788 320.731 249.693C320.962 249.601 321.206 249.546 321.454 249.531Z" fill="#455A64"/>
<path d="M326.244 255.024C326.366 255.514 326.341 256.029 326.171 256.504C326.001 256.979 325.694 257.392 325.289 257.693C324.885 257.993 324.4 258.167 323.897 258.191C323.394 258.216 322.894 258.09 322.462 257.831C322.03 257.571 321.685 257.189 321.47 256.733C321.255 256.276 321.179 255.767 321.253 255.267C321.328 254.768 321.548 254.303 321.886 253.929C322.225 253.555 322.666 253.29 323.155 253.168C323.81 253.006 324.503 253.111 325.081 253.459C325.66 253.806 326.078 254.369 326.244 255.024Z" fill="#455A64"/>
<path d="M378.168 211.321L377.882 211.187L377.056 210.769L373.872 209.112L362.171 202.953H362.276L326.235 216.747L325.911 216.871L326.007 216.537L327.109 212.549C329.628 203.448 332.013 194.833 334.104 187.256V187.199L354.064 172.215L359.767 167.988L361.278 166.875L361.668 166.599C361.75 166.529 361.798 166.5 361.81 166.513L361.687 166.618L361.307 166.922L359.824 168.065L354.197 172.358L334.295 187.446L334.352 187.36C332.261 194.976 329.894 203.543 327.385 212.672C327.005 214.034 326.634 215.395 326.282 216.661L326.054 216.452L362.171 202.753H362.228L373.872 209.007L377.018 210.711L377.835 211.168L378.168 211.321Z" fill="#FF725E"/>
<path d="M330.854 216.299L328.706 216.947L328.012 219.088L326.729 217.232H324.486L325.854 215.443L325.161 213.301L327.28 214.053L329.096 212.729L329.038 214.976L330.854 216.299Z" fill="#FF725E"/>
<path d="M337.089 186.561L335.72 187.056L335.359 188.465L334.466 187.322L333.011 187.408L333.829 186.199L333.287 184.847L334.694 185.247L335.815 184.314L335.863 185.771L337.089 186.561Z" fill="#FF725E"/>
<path d="M364.377 165.59L363.379 167.075L364.044 168.74L362.324 168.255L360.945 169.397L360.879 167.608L359.368 166.656L361.05 166.037L361.487 164.304L362.59 165.704L364.377 165.59Z" fill="#FF725E"/>
<path d="M380.344 209.436L379.356 210.921L380.011 212.587L378.291 212.101L376.922 213.244L376.856 211.454L375.345 210.502L377.017 209.883L377.464 208.151L378.567 209.55L380.344 209.436Z" fill="#FF725E"/>
<path d="M363.588 202.087L362.951 203.039L363.379 204.105L362.276 203.791L361.402 204.514L361.354 203.382L360.394 202.772L361.468 202.373L361.744 201.268L362.447 202.163L363.588 202.087Z" fill="#FF725E"/>
<path d="M270.528 50.7935C272.152 40.8311 265.404 31.4369 255.457 29.8108C245.51 28.1848 236.131 34.9427 234.507 44.9051C232.884 54.8675 239.631 64.2618 249.578 65.8878C259.525 67.5139 268.904 60.7559 270.528 50.7935Z" fill="#FFDE32"/>
<g opacity="0.3">
<path opacity="0.3" d="M250.122 53.5655C250.122 54.1548 249.948 54.7309 249.621 55.2209C249.294 55.7109 248.829 56.0928 248.286 56.3183C247.742 56.5438 247.144 56.6028 246.567 56.4878C245.99 56.3728 245.46 56.0891 245.044 55.6724C244.628 55.2557 244.344 54.7248 244.229 54.1468C244.115 53.5688 244.174 52.9697 244.399 52.4253C244.624 51.8808 245.005 51.4155 245.494 51.0881C245.984 50.7607 246.559 50.5859 247.147 50.5859C247.936 50.5859 248.693 50.8999 249.251 51.4586C249.809 52.0174 250.122 52.7753 250.122 53.5655Z" fill="white"/>
</g>
<g opacity="0.3">
<path opacity="0.3" d="M245.94 44.9601C245.94 45.3027 245.839 45.6377 245.649 45.9226C245.458 46.2075 245.188 46.4296 244.872 46.5607C244.556 46.6919 244.208 46.7262 243.873 46.6593C243.537 46.5925 243.229 46.4275 242.987 46.1852C242.745 45.9429 242.58 45.6341 242.514 45.2981C242.447 44.962 242.481 44.6136 242.612 44.2971C242.743 43.9805 242.965 43.7099 243.249 43.5195C243.534 43.3291 243.868 43.2275 244.21 43.2275C244.669 43.2275 245.109 43.4101 245.433 43.735C245.758 44.0599 245.94 44.5006 245.94 44.9601Z" fill="white"/>
</g>
<path d="M234.829 52.309C234.915 52.6231 219.213 67.7114 223.262 70.9289C227.311 74.1465 244.334 65.8932 258.847 54.1558C273.361 42.4184 286.61 28.1583 282.979 24.3886C279.349 20.619 261.223 31.7852 261.223 31.7852L263.428 33.1655C263.428 33.1655 274.387 26.1212 277.856 28.8532C281.326 31.5853 271.441 42.2756 257.488 52.4803C243.535 62.6851 230.048 69.8437 227.957 67.045C225.866 64.2463 235.742 54.9268 235.742 54.9268L234.829 52.309Z" fill="#FFB932"/>
<g opacity="0.3">
<path opacity="0.3" d="M234.829 52.309C234.915 52.6231 219.213 67.7114 223.262 70.9289C227.311 74.1465 244.334 65.8932 258.847 54.1558C273.361 42.4184 286.61 28.1583 282.979 24.3886C279.349 20.619 261.223 31.7852 261.223 31.7852L263.428 33.1655C263.428 33.1655 274.387 26.1212 277.856 28.8532C281.326 31.5853 271.441 42.2756 257.488 52.4803C243.535 62.6851 230.048 69.8437 227.957 67.045C225.866 64.2463 235.742 54.9268 235.742 54.9268L234.829 52.309Z" fill="#FFB932"/>
</g>
<g opacity="0.3">
<path opacity="0.3" d="M242.518 34.9836C242.661 35.1645 241.425 36.2116 240.028 38.3249C238.171 41.0337 237.147 44.2277 237.081 47.5127C237.015 50.7978 237.911 54.0303 239.658 56.8116C240.979 58.9725 242.167 60.0767 242.015 60.2481C241.863 60.4194 240.456 59.5246 238.831 57.3923C237.89 56.1237 237.143 54.7216 236.616 53.2323C235.268 49.5292 235.349 45.4552 236.844 41.809C237.429 40.3428 238.23 38.9726 239.22 37.7443C240.893 35.65 242.395 34.8599 242.518 34.9836Z" fill="white"/>
</g>
<path d="M280.137 63.9703C280.187 61.8714 280.857 59.8344 282.062 58.1169C283.268 56.3993 284.955 55.0784 286.91 54.3212C288.865 53.5639 291 53.4044 293.046 53.8627C295.091 54.321 296.955 55.3766 298.402 56.896C299.848 58.4154 300.813 60.3303 301.172 62.3986C301.532 64.4668 301.272 66.5955 300.424 68.5154C299.575 70.4353 298.178 72.0602 296.408 73.1845C294.637 74.3088 292.574 74.8821 290.478 74.8319C287.669 74.7645 285.002 73.5824 283.062 71.5456C281.123 69.5087 280.071 66.7839 280.137 63.9703Z" fill="#FFDE32"/>
<g opacity="0.4">
<path opacity="0.4" d="M294.185 60.1626C294.193 59.8196 294.302 59.4867 294.499 59.2059C294.696 58.9252 294.971 58.7092 295.291 58.5854C295.61 58.4617 295.959 58.4357 296.293 58.5107C296.627 58.5857 296.932 58.7584 297.168 59.0069C297.404 59.2554 297.561 59.5685 297.619 59.9065C297.678 60.2446 297.634 60.5923 297.495 60.9057C297.356 61.2191 297.127 61.484 296.837 61.6669C296.547 61.8498 296.21 61.9425 295.868 61.9332C295.641 61.9282 295.417 61.8784 295.21 61.7866C295.002 61.6949 294.815 61.5629 294.659 61.3983C294.502 61.2338 294.38 61.0399 294.299 60.8278C294.218 60.6157 294.179 60.3896 294.185 60.1626Z" fill="black"/>
</g>
<g opacity="0.4">
<path opacity="0.4" d="M297.645 64.1986C297.651 63.998 297.716 63.8038 297.833 63.6407C297.95 63.4776 298.113 63.3531 298.301 63.2831C298.488 63.2131 298.693 63.2008 298.888 63.2477C299.082 63.2947 299.259 63.3987 299.394 63.5466C299.53 63.6945 299.618 63.8795 299.648 64.078C299.678 64.2764 299.648 64.4793 299.562 64.6607C299.477 64.8421 299.339 64.9937 299.167 65.0963C298.994 65.1988 298.795 65.2475 298.595 65.2363C298.334 65.2191 298.089 65.1017 297.912 64.9084C297.735 64.7151 297.639 64.4609 297.645 64.1986Z" fill="black"/>
</g>
<g opacity="0.4">
<path opacity="0.4" d="M296.286 67.2925C296.385 67.295 296.479 67.3362 296.548 67.4073C296.618 67.4785 296.656 67.5739 296.656 67.6733C296.655 67.722 296.644 67.7701 296.625 67.8146C296.605 67.8592 296.576 67.8994 296.541 67.933C296.506 67.9666 296.464 67.9929 296.419 68.0104C296.373 68.0279 296.325 68.0363 296.276 68.035C296.227 68.0351 296.179 68.0251 296.133 68.0058C296.088 67.9864 296.048 67.958 296.014 67.9224C295.98 67.8868 295.954 67.8446 295.937 67.7985C295.92 67.7524 295.912 67.7033 295.915 67.6542C295.917 67.5574 295.958 67.4654 296.027 67.3978C296.096 67.3303 296.189 67.2924 296.286 67.2925Z" fill="black"/>
</g>
<path d="M323.897 143.152C323.801 143.152 323.735 129.711 323.735 113.138C323.735 96.5644 323.801 83.123 323.897 83.123C323.992 83.123 324.058 96.5549 324.058 113.138C324.058 129.72 323.982 143.152 323.897 143.152Z" fill="#263238"/>
<path d="M325.683 83.6373C324.919 82.5286 324.239 81.364 323.649 80.1532H323.935V80.2294C323.444 81.5162 322.863 82.7664 322.195 83.9705C322.57 82.6446 323.053 81.352 323.64 80.1056V80.0295L323.773 79.7249L323.925 80.0104C324.607 81.1703 325.195 82.3832 325.683 83.6373Z" fill="#263238"/>
<path d="M323.564 76.0313C323.507 76.0979 323.013 75.7743 322.613 75.1746C322.214 74.5749 322.119 73.9942 322.205 73.9751C322.29 73.9561 322.518 74.4511 322.879 75.0032C323.241 75.5553 323.621 75.9647 323.564 76.0313Z" fill="#263238"/>
<path d="M322.623 77.7637C322.803 77.0257 323.058 76.3081 323.383 75.6218C323.6 74.8947 323.893 74.1927 324.258 73.5276C324.2 74.2928 324.003 75.0411 323.678 75.7361C323.454 76.4711 323.096 77.1585 322.623 77.7637Z" fill="#263238"/>
<path d="M319.6 91.0243C319.817 90.4191 320.001 89.8026 320.152 89.1776C320.184 88.5433 320.184 87.9079 320.152 87.2737C320.489 87.8754 320.587 88.5825 320.427 89.2537C320.381 89.9263 320.086 90.5575 319.6 91.0243Z" fill="#263238"/>
<path d="M320.19 88.5208C320.19 88.5208 320.114 88.7779 319.733 88.873C319.508 88.921 319.273 88.8801 319.078 88.7588C318.962 88.6755 318.866 88.5671 318.798 88.4417C318.73 88.3164 318.69 88.1772 318.683 88.0346C318.676 87.892 318.701 87.7496 318.756 87.6179C318.811 87.4862 318.895 87.3686 319.002 87.2738C319.189 87.1402 319.419 87.0793 319.648 87.1025C320.038 87.1025 320.171 87.3881 320.133 87.4071C320.095 87.4261 319.933 87.3119 319.638 87.3309C319.55 87.3294 319.462 87.3463 319.38 87.3807C319.299 87.4151 319.225 87.4662 319.164 87.5307C319.103 87.5952 319.057 87.6717 319.027 87.7553C318.997 87.839 318.985 87.9278 318.992 88.0163C318.996 88.1052 319.017 88.1924 319.055 88.2727C319.093 88.3529 319.148 88.4246 319.214 88.4834C319.281 88.5421 319.359 88.5867 319.443 88.6144C319.527 88.6421 319.616 88.6524 319.705 88.6446C320 88.6541 320.152 88.4828 320.19 88.5208Z" fill="#263238"/>
<path d="M370.554 138.888C370.554 138.973 359.073 139.049 344.892 139.049C330.711 139.049 319.23 138.973 319.23 138.888C319.23 138.802 330.702 138.726 344.892 138.726C359.082 138.726 370.554 138.802 370.554 138.888Z" fill="#263238"/>
<path d="M371.077 138.821C370.333 138.705 369.609 138.48 368.929 138.155C368.223 137.932 367.551 137.612 366.933 137.203C367.666 137.322 368.377 137.55 369.043 137.879C369.763 138.092 370.449 138.409 371.077 138.821Z" fill="#263238"/>
<path d="M371.638 139.011C370.555 139.628 369.37 140.044 368.14 140.239C368.664 139.897 369.238 139.64 369.842 139.478C370.409 139.219 371.017 139.061 371.638 139.011Z" fill="#263238"/>
<path d="M321.482 140.516C321.66 140.638 321.811 140.796 321.925 140.98C322.04 141.163 322.116 141.368 322.148 141.582C322.262 142.048 322.225 142.538 322.043 142.981C321.938 143.255 321.761 143.495 321.53 143.676C321.388 143.768 321.223 143.817 321.055 143.817C320.886 143.817 320.721 143.768 320.579 143.676C320.337 143.497 320.143 143.261 320.014 142.988C319.885 142.716 319.824 142.416 319.838 142.115C319.831 141.872 319.879 141.63 319.977 141.407C320.076 141.185 320.223 140.988 320.408 140.83C320.532 140.723 320.675 140.642 320.83 140.591C320.985 140.54 321.149 140.521 321.311 140.535C321.539 140.535 321.644 140.639 321.634 140.649C321.625 140.658 321.511 140.649 321.311 140.649C321.029 140.674 320.764 140.795 320.56 140.992C320.414 141.134 320.3 141.306 320.226 141.497C320.152 141.687 320.12 141.892 320.133 142.096C320.127 142.344 320.179 142.59 320.284 142.815C320.39 143.04 320.546 143.237 320.741 143.391C320.835 143.451 320.943 143.483 321.055 143.483C321.166 143.483 321.275 143.451 321.368 143.391C321.556 143.247 321.704 143.057 321.796 142.838C321.963 142.449 322.016 142.019 321.948 141.601C321.849 141.217 321.692 140.851 321.482 140.516Z" fill="#263238"/>
<path d="M363.227 141.192C363.227 141.192 363.407 141.087 363.654 141.296C363.727 141.36 363.785 141.439 363.823 141.528C363.861 141.617 363.878 141.714 363.873 141.81C363.849 142.057 363.741 142.289 363.569 142.467C363.207 142.867 362.542 143.019 362.238 143.505C362.168 143.632 362.131 143.774 362.131 143.919C362.131 144.064 362.168 144.206 362.238 144.333C362.317 144.466 362.433 144.573 362.571 144.642C362.709 144.712 362.864 144.74 363.017 144.723C363.172 144.71 363.32 144.651 363.44 144.552C363.561 144.453 363.649 144.321 363.692 144.171C363.738 144.032 363.747 143.884 363.719 143.74C363.691 143.597 363.626 143.463 363.531 143.352C363.339 143.13 363.107 142.946 362.846 142.81C362.705 142.757 362.577 142.673 362.471 142.564C362.366 142.456 362.286 142.325 362.238 142.182C362.21 142.058 362.21 141.93 362.238 141.806C362.266 141.683 362.321 141.567 362.4 141.468C362.512 141.325 362.66 141.214 362.827 141.144C363.103 141.049 363.265 141.068 363.274 141.087C363.284 141.106 363.122 141.087 362.884 141.258C362.746 141.333 362.629 141.441 362.542 141.572C362.488 141.652 362.452 141.743 362.437 141.839C362.422 141.934 362.429 142.032 362.457 142.124C362.552 142.534 363.312 142.591 363.759 143.172C363.887 143.321 363.976 143.501 364.016 143.694C364.056 143.887 364.046 144.087 363.987 144.276C363.922 144.483 363.797 144.666 363.627 144.801C363.458 144.937 363.252 145.019 363.036 145.037C362.823 145.06 362.607 145.021 362.415 144.925C362.223 144.829 362.063 144.68 361.953 144.495C361.855 144.32 361.803 144.124 361.803 143.924C361.803 143.723 361.855 143.527 361.953 143.352C362.147 143.08 362.409 142.863 362.713 142.724C362.947 142.61 363.167 142.47 363.369 142.305C363.52 142.172 363.62 141.99 363.654 141.791C363.662 141.718 363.655 141.644 363.634 141.574C363.612 141.504 363.577 141.439 363.531 141.382C363.417 141.192 363.227 141.22 363.227 141.192Z" fill="#263238"/>
<path d="M363.093 139.992C362.875 139.053 362.875 138.076 363.093 137.136C363.312 138.076 363.312 139.053 363.093 139.992Z" fill="#263238"/>
<path d="M376.808 138.945C376.528 139.045 376.231 139.091 375.934 139.078L374.984 139.135C374.913 139.159 374.836 139.159 374.765 139.135C374.719 139.105 374.683 139.062 374.663 139.011C374.642 138.959 374.638 138.903 374.651 138.85C374.684 138.73 374.754 138.623 374.85 138.545L375.269 138.107C375.554 137.885 375.741 137.561 375.791 137.203C375.8 137.074 375.765 136.946 375.693 136.839C375.621 136.732 375.515 136.653 375.392 136.613C375.199 136.589 375.003 136.626 374.831 136.717C374.689 136.774 374.613 136.813 374.594 136.794C374.575 136.774 374.641 136.708 374.765 136.613C374.949 136.454 375.187 136.372 375.43 136.384C375.62 136.422 375.789 136.526 375.91 136.678C376.03 136.83 376.092 137.019 376.086 137.212C376.051 137.645 375.846 138.045 375.516 138.326L375.079 138.755C375.003 138.821 374.946 138.888 374.946 138.916H375.003H375.953C376.238 138.878 376.527 138.887 376.808 138.945Z" fill="#263238"/>
<path d="M330.721 138.888C330.721 138.888 330.721 138.564 330.721 138.003C330.721 137.441 330.721 136.613 330.673 135.651C330.673 133.652 330.616 130.892 330.607 127.731L330.759 127.893H327.784L327.945 127.731V131.034C327.945 132.091 327.945 133.1 327.945 134.052C327.945 135.956 327.945 137.574 327.898 138.878L327.803 138.783L329.97 138.831C330.483 138.831 330.768 138.831 330.778 138.878C330.528 138.894 330.277 138.894 330.027 138.878L327.803 138.926H327.708V138.831C327.708 137.527 327.708 135.889 327.708 134.004C327.708 133.052 327.708 132.043 327.708 130.987V127.684L327.869 127.522H330.911V127.674C330.911 130.901 330.911 133.709 330.835 135.699C330.835 136.651 330.835 137.431 330.835 138.022C330.821 138.313 330.783 138.603 330.721 138.888Z" fill="#263238"/>
<path d="M359.092 138.888C359.081 138.774 359.081 138.659 359.092 138.545C359.092 138.297 359.092 137.993 359.092 137.593C359.092 136.736 359.092 135.575 359.044 134.138C359.044 131.225 358.987 127.188 358.978 122.61L359.139 122.762H356.155L356.317 122.61V125.123C356.317 125.951 356.317 126.76 356.317 127.55C356.317 129.14 356.317 130.634 356.317 132.034C356.317 134.794 356.269 137.136 356.26 138.85L356.174 138.764H358.351H358.94H359.158C358.909 138.781 358.658 138.781 358.408 138.764L356.174 138.812H356.089V138.726C356.089 137.012 356.089 134.671 356.031 131.91C356.031 130.511 356.031 129.054 356.031 127.426C356.031 126.636 356.031 125.827 356.031 124.999V122.486L356.193 122.324H359.33V122.486C359.33 127.131 359.33 131.225 359.263 134.128C359.263 135.546 359.263 136.698 359.216 137.545C359.216 137.907 359.216 138.212 359.216 138.497C359.216 138.783 359.092 138.897 359.092 138.888Z" fill="#263238"/>
<path d="M337.897 138.888C337.886 138.748 337.886 138.608 337.897 138.469C337.897 138.164 337.897 137.774 337.897 137.289C337.897 136.251 337.897 134.794 337.849 132.986C337.849 129.34 337.849 124.304 337.783 118.621L337.944 118.783H334.96C335.283 118.459 335.045 118.697 335.121 118.631V121.848C335.121 122.905 335.121 123.933 335.121 124.942C335.121 126.95 335.121 128.845 335.121 130.587C335.121 134.052 335.074 136.908 335.055 138.888L334.979 138.812H337.174H337.754H337.963H337.783H337.212H334.979H334.903V138.736C334.903 136.755 334.903 133.9 334.846 130.435C334.846 128.693 334.846 126.798 334.846 124.79C334.846 123.781 334.846 122.752 334.846 121.696V118.478C334.922 118.402 334.684 118.631 335.007 118.307H338.144V118.459C338.144 124.171 338.096 129.264 338.077 132.938C338.077 134.728 338.077 136.175 338.03 137.203C338.03 137.679 338.03 138.06 338.03 138.345C338.03 138.631 337.897 138.897 337.897 138.888Z" fill="#263238"/>
<path d="M344.911 138.821C344.907 138.767 344.907 138.713 344.911 138.659V138.155C344.911 137.717 344.911 137.108 344.911 136.337C344.911 134.747 344.911 132.472 344.864 129.673C344.864 124.018 344.816 116.203 344.788 107.426L344.949 107.588H341.936L342.088 107.436V117.498C342.088 120.677 342.088 123.666 342.088 126.389C342.088 131.796 342.031 136.127 342.012 138.764L341.955 138.707H344.151H344.93C344.93 138.707 344.873 138.707 344.75 138.707H344.217H341.984H341.917V138.64C341.917 135.956 341.917 131.624 341.851 126.265C341.851 123.543 341.851 120.553 341.851 117.374C341.851 115.775 341.851 114.137 341.851 112.452V107.312C341.917 107.236 341.689 107.464 342.012 107.141H345.149V107.302C345.149 116.117 345.149 123.98 345.082 129.663C345.082 132.462 345.082 134.728 345.035 136.327C345.035 137.089 345.035 137.688 345.035 138.117V138.574C344.921 138.783 344.921 138.831 344.911 138.821Z" fill="#263238"/>
<path d="M352.106 138.821C352.106 138.821 352.106 138.726 352.106 138.545C352.106 138.364 352.106 138.079 352.106 137.736C352.106 137.022 352.106 135.984 352.106 134.661C352.106 131.986 352.106 128.121 352.059 123.352C352.059 113.833 352.059 100.572 351.992 85.8173L352.154 85.9792H349.169C349.483 85.665 349.264 85.903 349.331 85.8364V94.9464C349.331 97.9165 349.331 100.81 349.331 103.6C349.331 109.187 349.331 114.366 349.331 119.002C349.331 128.236 349.264 135.251 349.245 138.821H351.479H352.23C352.23 138.821 352.173 138.821 352.049 138.821H351.507H349.245H349.198V138.764C349.198 135.194 349.15 128.179 349.122 118.945C349.122 114.309 349.122 109.13 349.122 103.542C349.122 100.753 349.122 97.8308 349.122 94.8893V85.7983C349.198 85.7221 348.96 85.9411 349.283 85.6174H352.42V85.7983C352.42 100.601 352.42 113.861 352.353 123.447C352.353 128.207 352.353 132.015 352.306 134.718C352.306 136.032 352.306 137.051 352.306 137.765C352.306 138.098 352.306 138.355 352.306 138.545C352.306 138.736 352.106 138.831 352.106 138.821Z" fill="#263238"/>
<path d="M33.0378 141.963L35.5756 186.542L110.044 182.287L33.0378 141.963ZM45.4793 159.259L77.5097 176.394L46.5533 178.136L45.4793 159.259Z" fill="#FFDE32"/>
<path d="M40.4323 145.856C40.195 146.838 39.7967 147.774 39.2538 148.626C38.853 149.56 38.2971 150.42 37.6095 151.168C37.8422 150.175 38.2406 149.229 38.7881 148.369C39.194 147.446 39.7496 146.597 40.4323 145.856Z" fill="#263238"/>
<path d="M51.8569 151.768C51.6191 152.738 51.2207 153.661 50.6783 154.5C50.2849 155.411 49.7348 156.245 49.053 156.965C49.283 155.994 49.6785 155.07 50.2221 154.233C50.6137 153.319 51.1676 152.484 51.8569 151.768Z" fill="#263238"/>
<path d="M63.2719 157.679C62.9405 158.615 62.4519 159.487 61.8272 160.259C61.3392 161.131 60.6947 161.905 59.9262 162.543C60.2563 161.604 60.745 160.728 61.3709 159.954C61.864 159.088 62.5078 158.318 63.2719 157.679Z" fill="#263238"/>
<path d="M74.5063 163.857C74.1857 164.801 73.6962 165.678 73.0616 166.446C72.5623 167.311 71.9194 168.083 71.1606 168.731C71.4812 167.787 71.9707 166.91 72.6053 166.142C73.1046 165.278 73.7475 164.505 74.5063 163.857Z" fill="#263238"/>
<path d="M86.2349 169.883C85.9568 170.868 85.5132 171.798 84.9232 172.634C84.4824 173.551 83.8913 174.388 83.1744 175.109C83.8802 173.201 84.9161 171.432 86.2349 169.883Z" fill="#263238"/>
<path d="M98.4103 176.232C98.1857 177.165 97.7927 178.049 97.2507 178.84C96.8551 179.714 96.3081 180.51 95.6349 181.192C95.8645 180.256 96.2605 179.369 96.804 178.574C97.1898 177.7 97.7345 176.906 98.4103 176.232Z" fill="#263238"/>
<path d="M43.9966 147.722C44.1202 147.798 43.9111 148.445 43.5214 149.188C43.1317 149.93 42.7135 150.454 42.5709 150.387C42.4284 150.321 42.6565 149.664 43.0462 148.931C43.4359 148.198 43.8731 147.674 43.9966 147.722Z" fill="#263238"/>
<path d="M47.7319 149.578C47.865 149.645 47.6464 150.302 47.2567 151.035C46.867 151.768 46.4583 152.31 46.3062 152.244C46.1542 152.177 46.4013 151.52 46.7815 150.778C47.1616 150.035 47.6084 149.521 47.7319 149.578Z" fill="#263238"/>
<path d="M56.0674 154.005C56.191 154.081 55.9819 154.728 55.5922 155.471C55.2025 156.213 54.7843 156.746 54.6417 156.67C54.4991 156.594 54.7273 155.947 55.1169 155.214C55.5066 154.481 55.9438 153.938 56.0674 154.005Z" fill="#263238"/>
<path d="M59.8122 155.88C59.9357 155.946 59.7266 156.603 59.337 157.336C58.9473 158.069 58.5291 158.612 58.3865 158.545C58.2439 158.479 58.472 157.822 58.8617 157.079C59.2514 156.337 59.6791 155.813 59.8122 155.88Z" fill="#263238"/>
<path d="M67.3493 160.106C67.4824 160.173 67.2638 160.83 66.8741 161.563C66.4844 162.296 66.0757 162.838 65.9237 162.772C65.7716 162.705 66.0092 162.048 66.3989 161.306C66.7886 160.563 67.2258 160.049 67.3493 160.106Z" fill="#263238"/>
<path d="M70.923 161.953C71.0561 162.02 70.8375 162.677 70.4478 163.41C70.0581 164.143 69.6494 164.685 69.4974 164.619C69.3453 164.552 69.5829 163.886 69.9726 163.153C70.3623 162.42 70.7995 161.953 70.923 161.953Z" fill="#263238"/>
<path d="M78.6312 165.989C78.7548 166.066 78.5457 166.713 78.156 167.455C77.7663 168.198 77.3576 168.722 77.2055 168.655C77.0535 168.588 77.2911 167.931 77.6808 167.198C78.0705 166.465 78.5077 165.923 78.6312 165.989Z" fill="#263238"/>
<path d="M82.7752 168.188C82.8988 168.265 82.6897 168.912 82.3 169.654C81.9103 170.397 81.4921 170.93 81.3495 170.854C81.207 170.778 81.4351 170.13 81.8248 169.397C82.2145 168.664 82.6517 168.122 82.7752 168.188Z" fill="#263238"/>
<path d="M90.2268 172.12C90.3504 172.187 90.1413 172.843 89.7516 173.576C89.3619 174.309 88.9437 174.852 88.8011 174.785C88.6586 174.719 88.8867 174.062 89.2764 173.319C89.6661 172.577 90.0938 172.053 90.2268 172.12Z" fill="#263238"/>
<path d="M94.5229 174.328C94.6464 174.404 94.4373 175.061 94.0476 175.794C93.658 176.527 93.2398 177.07 93.0972 176.994C92.9546 176.918 93.1827 176.27 93.5724 175.537C93.9621 174.804 94.3993 174.262 94.5229 174.328Z" fill="#263238"/>
<path d="M160.399 79.9344C160.399 79.9344 160.399 79.8773 160.399 79.7725C160.399 79.6678 160.399 79.4965 160.399 79.2966C160.399 78.8777 160.399 78.2685 160.399 77.4784C160.399 75.8791 160.399 73.5564 160.399 70.6054C160.399 64.7034 160.351 56.3263 160.323 46.1977L160.466 46.3309H126.781L126.933 46.1691C126.933 58.5443 126.933 70.1008 126.933 79.9058L126.8 79.763L151.17 79.8392H158.032H158.089H151.265L126.8 79.9058H126.563V79.763C126.563 69.9581 126.563 58.3825 126.563 46.0263V45.8645H126.724H160.409H160.542V46.0073C160.542 56.1359 160.494 64.5796 160.475 70.5102C160.475 73.4422 160.475 75.7554 160.475 77.3451C160.475 78.1257 160.475 78.7159 160.475 79.1347V79.744L160.399 79.9344Z" fill="#FF725E"/>
<path d="M160.399 79.9342C160.48 79.8681 160.566 79.8076 160.656 79.7533L161.425 79.2583L164.41 77.3544L175.378 70.5671L175.321 70.6718C175.321 61.8664 175.321 50.2052 175.321 37.4397L175.473 37.6015H175.388H142.179H142.236L130.897 43.9128L127.798 45.6454L126.99 46.0833L126.715 46.2261C126.797 46.1647 126.883 46.1075 126.971 46.0547L127.77 45.5787L130.83 43.7986L142.084 37.3254H175.293H175.54V37.4873C175.54 50.2528 175.54 61.914 175.54 70.7194V70.7861H175.483L164.457 77.5353L161.444 79.363L160.656 79.8295L160.399 79.9342Z" fill="#FF725E"/>
<path d="M175.435 37.4016C175.483 37.4778 172.156 39.5054 168.003 41.9329C163.849 44.3603 160.399 46.2737 160.399 46.1975C160.399 46.1214 163.678 44.0937 167.841 41.6568C172.004 39.2198 175.397 37.3255 175.435 37.4016Z" fill="#FF725E"/>
<path d="M128.312 78.5444C128.312 78.6205 128.026 78.8966 127.589 79.1441C127.152 79.3916 126.753 79.5439 126.715 79.4678C126.677 79.3916 126.99 79.1251 127.428 78.868C127.865 78.611 128.264 78.4682 128.312 78.5444Z" fill="#FF725E"/>
<path d="M131.505 76.707C131.553 76.7831 131.23 77.0592 130.783 77.3067C130.336 77.5542 129.946 77.7065 129.908 77.6304C129.87 77.5542 130.184 77.2877 130.631 77.0306C131.077 76.7736 131.458 76.6308 131.505 76.707Z" fill="#FF725E"/>
<path d="M134.699 74.8701C134.746 74.9462 134.423 75.2223 133.986 75.4698C133.549 75.7173 133.149 75.8696 133.102 75.7935C133.054 75.7173 133.377 75.4508 133.824 75.1937C134.271 74.9367 134.661 74.7939 134.699 74.8701Z" fill="#FF725E"/>
<path d="M137.902 73.0327C137.902 73.1088 137.617 73.3754 137.179 73.6324C136.742 73.8894 136.343 74.0322 136.295 73.9561C136.248 73.8799 136.581 73.6134 137.018 73.3563C137.455 73.0993 137.854 72.9565 137.902 73.0327Z" fill="#FF725E"/>
<path d="M141.095 71.1955C141.095 71.2717 140.82 71.5382 140.373 71.7952C139.926 72.0522 139.536 72.195 139.498 72.1189C139.46 72.0427 139.774 71.7762 140.211 71.5192C140.649 71.2621 141.048 71.1193 141.095 71.1955Z" fill="#FF725E"/>
<path d="M141.903 67.9682C141.989 67.9682 142.055 68.3775 142.055 68.9201C142.055 69.4627 141.979 69.872 141.884 69.872C141.789 69.872 141.732 69.4627 141.732 68.9201C141.732 68.3775 141.818 67.9587 141.903 67.9682Z" fill="#FF725E"/>
<path d="M141.932 64.2749C142.017 64.2749 142.093 64.6842 142.084 65.2268C142.074 65.7694 142.008 66.1788 141.922 66.1788C141.837 66.1788 141.76 65.7599 141.76 65.2268C141.76 64.6938 141.846 64.2749 141.932 64.2749Z" fill="#FF725E"/>
<path d="M141.96 60.5813C142.046 60.5813 142.122 61.0002 142.112 61.5332C142.103 62.0663 142.036 62.4852 141.951 62.4852C141.865 62.4852 141.789 62.0663 141.789 61.5332C141.789 61.0002 141.875 60.5813 141.96 60.5813Z" fill="#FF725E"/>
<path d="M141.989 56.8879C142.074 56.8879 142.15 57.3068 142.141 57.8399C142.131 58.373 142.065 58.7918 141.979 58.7918C141.894 58.7918 141.818 58.3825 141.827 57.8399C141.837 57.2973 141.903 56.8879 141.989 56.8879Z" fill="#FF725E"/>
<path d="M142.017 53.2039C142.103 53.2039 142.179 53.6132 142.169 54.1558C142.16 54.6984 142.093 55.1077 142.008 55.1077C141.922 55.1077 141.846 54.6984 141.856 54.1558C141.865 53.6132 141.932 53.2039 142.017 53.2039Z" fill="#FF725E"/>
<path d="M142.046 49.5103C142.141 49.5103 142.207 49.9196 142.198 50.4622C142.188 51.0048 142.122 51.4141 142.036 51.4141C141.951 51.4141 141.875 50.9953 141.884 50.4622C141.894 49.9291 141.96 49.5103 142.046 49.5103Z" fill="#FF725E"/>
<path d="M142.074 45.8167C142.169 45.8167 142.236 46.2355 142.226 46.7686C142.217 47.3017 142.15 47.7205 142.065 47.7205C141.979 47.7205 141.903 47.3017 141.913 46.7686C141.922 46.2355 141.989 45.8167 142.074 45.8167Z" fill="#FF725E"/>
<path d="M142.103 42.1233C142.198 42.1233 142.264 42.5421 142.255 43.0752C142.245 43.6083 142.179 44.0272 142.093 44.0272C142.008 44.0272 141.932 43.6178 141.941 43.0752C141.951 42.5326 142.017 42.1233 142.103 42.1233Z" fill="#FF725E"/>
<path d="M142.131 38.4392C142.226 38.4392 142.293 38.8485 142.283 39.3911C142.274 39.9338 142.207 40.3431 142.122 40.3431C142.036 40.3431 141.96 39.9338 141.97 39.3911C141.979 38.8485 142.046 38.4392 142.131 38.4392Z" fill="#FF725E"/>
<path d="M173.601 70.6433C173.601 70.5671 174.01 70.5005 174.551 70.5005C175.093 70.5005 175.502 70.5671 175.502 70.6433C175.502 70.7194 175.093 70.7956 174.551 70.7956C174.01 70.7956 173.601 70.729 173.601 70.6433Z" fill="#FF725E"/>
<path d="M169.913 70.6433C169.913 70.5671 170.322 70.5005 170.864 70.5005C171.405 70.5005 171.814 70.5671 171.814 70.6433C171.814 70.7194 171.396 70.7956 170.864 70.7956C170.331 70.7956 169.913 70.729 169.913 70.6433Z" fill="#FF725E"/>
<path d="M166.225 70.6433C166.225 70.5671 166.634 70.5005 167.176 70.5005C167.718 70.5005 168.126 70.5671 168.126 70.6433C168.126 70.7194 167.718 70.7956 167.176 70.7956C166.634 70.7956 166.225 70.729 166.225 70.6433Z" fill="#FF725E"/>
<path d="M162.538 70.6433C162.538 70.5671 162.956 70.5005 163.488 70.5005C164.02 70.5005 164.438 70.5671 164.438 70.6433C164.438 70.7194 164.03 70.7956 163.488 70.7956C162.946 70.7956 162.538 70.729 162.538 70.6433Z" fill="#FF725E"/>
<path d="M158.878 70.6433C158.878 70.5671 159.287 70.5005 159.829 70.5005C160.371 70.5005 160.779 70.5671 160.779 70.6433C160.779 70.7194 160.371 70.7956 159.829 70.7956C159.287 70.7956 158.878 70.729 158.878 70.6433Z" fill="#FF725E"/>
<path d="M155.172 70.6433C155.172 70.5671 155.58 70.5005 156.122 70.5005C156.664 70.5005 157.072 70.5671 157.072 70.6433C157.072 70.7194 156.654 70.7956 156.122 70.7956C155.59 70.7956 155.172 70.729 155.172 70.6433Z" fill="#FF725E"/>
<path d="M151.484 70.6433C151.484 70.5671 151.892 70.5005 152.434 70.5005C152.976 70.5005 153.385 70.5671 153.385 70.6433C153.385 70.7194 152.976 70.7956 152.434 70.7956C151.892 70.7956 151.484 70.729 151.484 70.6433Z" fill="#FF725E"/>
<path d="M147.796 70.6433C147.796 70.5671 148.214 70.5005 148.746 70.5005C149.279 70.5005 149.697 70.5671 149.697 70.6433C149.697 70.7194 149.288 70.7956 148.746 70.7956C148.205 70.7956 147.796 70.729 147.796 70.6433Z" fill="#FF725E"/>
<path d="M144.118 70.6433C144.118 70.5671 144.526 70.5005 145.068 70.5005C145.61 70.5005 146.019 70.5671 146.019 70.6433C146.019 70.7194 145.61 70.7956 145.068 70.7956C144.526 70.7956 144.118 70.729 144.118 70.6433Z" fill="#FF725E"/>
<path d="M141.884 70.6437C141.884 70.5673 141.97 70.5005 142.075 70.5005C142.179 70.5005 142.275 70.5673 142.275 70.6437C142.275 70.72 142.189 70.7964 142.075 70.7964C142.052 70.799 142.029 70.7971 142.007 70.7909C141.986 70.7846 141.965 70.7741 141.948 70.7599C141.93 70.7457 141.915 70.7281 141.904 70.7081C141.893 70.6882 141.886 70.6663 141.884 70.6437Z" fill="#FF725E"/>
<path d="M179.513 59.4008C179.794 59.4281 180.077 59.4281 180.359 59.4008C180.728 59.319 181.075 59.1584 181.377 58.9301C181.679 58.7018 181.928 58.411 182.107 58.0776C182.345 57.5731 182.46 57.0196 182.444 56.4622C182.427 55.9047 182.279 55.359 182.012 54.8695C181.951 54.735 181.858 54.6167 181.743 54.5242C181.627 54.4316 181.492 54.3673 181.347 54.3365C181.043 54.2984 180.736 54.3803 180.492 54.5649C179.985 55.0579 179.614 55.6747 179.418 56.3546C179.152 57.0929 178.992 57.8653 178.942 58.6487H178.629C178.629 56.2023 178.581 54.0699 178.581 52.5468C178.581 51.8329 178.581 51.2331 178.581 50.7572C178.555 50.5422 178.555 50.3249 178.581 50.1099C178.625 50.3229 178.647 50.5397 178.648 50.7572C178.648 51.2331 178.648 51.8329 178.724 52.5468C178.781 54.0699 178.838 56.2023 178.885 58.6487H178.572C178.623 57.836 178.789 57.0346 179.066 56.2689C179.197 55.9109 179.349 55.5612 179.522 55.2218C179.694 54.8766 179.941 54.5742 180.245 54.3365C180.4 54.218 180.578 54.1317 180.767 54.0827C180.956 54.0336 181.154 54.0228 181.347 54.0509C181.531 54.0954 181.703 54.1799 181.851 54.2983C181.999 54.4168 182.119 54.5663 182.202 54.7363C182.484 55.272 182.631 55.8682 182.631 56.4736C182.631 57.0789 182.484 57.6751 182.202 58.2108C182.006 58.561 181.733 58.862 181.404 59.0912C181.075 59.3204 180.698 59.4718 180.302 59.534C180.088 59.5692 179.869 59.5692 179.655 59.534C179.601 59.4979 179.553 59.4528 179.513 59.4008Z" fill="#FF725E"/>
<path d="M86.0923 217.385C86.0923 217.385 86.2254 217.385 86.482 217.499C86.7386 217.613 87.1188 217.699 87.6036 217.899C89.0232 218.46 90.3802 219.168 91.6525 220.012C93.6794 221.348 95.4769 223.003 96.9751 224.915C98.9858 227.441 100.35 230.421 100.948 233.596C101.627 237.466 101.113 241.45 99.4748 245.02C98.5729 247.007 97.3168 248.814 95.768 250.35C94.9573 251.154 94.069 251.874 93.1162 252.502C92.6125 252.787 92.1657 253.092 91.5955 253.359C91.0252 253.625 90.55 253.882 89.9892 254.082C85.5601 255.843 80.4846 255.919 75.3902 255.434C72.843 255.186 70.2767 254.815 67.663 254.406C65.0084 254.025 62.3913 253.417 59.8407 252.587C57.2616 251.767 54.8776 250.425 52.8359 248.646C51.8573 247.749 50.9951 246.732 50.2696 245.619C49.5817 244.506 49.0296 243.314 48.6253 242.069C47.8595 239.644 47.6039 237.086 47.8745 234.558C48.142 232.144 48.844 229.8 49.9465 227.637C52.1173 223.685 55.3947 220.456 59.375 218.346C62.8045 216.492 66.5506 215.297 70.4193 214.824C73.6005 214.446 76.8138 214.424 79.9999 214.757C82.3994 215.012 84.7825 215.403 87.1378 215.928C89.0387 216.366 90.5595 216.766 91.567 217.042L92.7075 217.375L93.0972 217.508L92.698 217.413L91.548 217.118C90.5405 216.861 89.0482 216.48 87.1093 216.071C84.7525 215.572 82.3694 215.206 79.9714 214.976C76.809 214.657 73.6207 214.696 70.4668 215.091C66.6397 215.581 62.9367 216.778 59.5461 218.622C55.6319 220.714 52.4114 223.903 50.2791 227.799C49.2024 229.93 48.5228 232.24 48.2737 234.615C48.0137 237.093 48.2661 239.597 49.015 241.973C49.404 243.189 49.9402 244.353 50.6118 245.438C51.3141 246.523 52.1508 247.515 53.102 248.389C55.1086 250.129 57.4462 251.444 59.9738 252.254C62.5094 253.075 65.1104 253.677 67.7485 254.053C70.3433 254.463 72.919 254.834 75.4472 255.082C80.4846 255.567 85.5316 255.5 89.8847 253.768C94.0357 252.162 97.3864 248.981 99.2086 244.915C100.832 241.402 101.355 237.479 100.71 233.663C100.123 230.535 98.789 227.596 96.823 225.095C95.3508 223.194 93.5863 221.539 91.5955 220.193C90.3341 219.343 88.9941 218.616 87.5941 218.023C87.1093 217.823 86.7386 217.699 86.482 217.594L86.0923 217.385Z" fill="#263238"/>
<path d="M60.7151 241.983C60.4636 242.047 60.2049 242.079 59.9453 242.078L57.8258 242.183H57.1224C56.8544 242.219 56.5826 242.219 56.3145 242.183C56.145 242.13 56.0022 242.014 55.9153 241.859C55.8435 241.717 55.8015 241.561 55.7918 241.402L55.7348 240.536C55.6682 239.336 55.5922 238.042 55.5161 236.728C55.4401 235.414 55.3546 234.072 55.3451 232.863C55.3291 232.27 55.4666 231.683 55.7443 231.159C56.0191 230.726 56.4255 230.392 56.9038 230.207C57.5898 229.968 58.3207 229.887 59.0423 229.969C59.3049 229.976 59.5647 230.024 59.8122 230.112C59.5529 230.135 59.2921 230.135 59.0328 230.112C58.3423 230.082 57.6531 230.196 57.0084 230.445C56.6014 230.635 56.2675 230.952 56.0579 231.35C55.8202 231.828 55.7058 232.358 55.7252 232.892C55.7252 234.053 55.8678 235.376 55.9248 236.699C55.9819 238.023 56.0579 239.355 56.1244 240.507C56.1815 241.069 56.0579 241.773 56.4476 241.868C56.684 241.903 56.9241 241.903 57.1604 241.868H60.0118C60.2502 241.876 60.4865 241.915 60.7151 241.983Z" fill="#263238"/>
<path d="M59.6506 235.747C59.0108 235.943 58.341 236.02 57.6737 235.976C57.0078 236.048 56.3344 235.997 55.6872 235.824C56.3259 235.623 56.9967 235.546 57.6642 235.595C58.33 235.522 59.0036 235.574 59.6506 235.747Z" fill="#263238"/>
<path d="M69.5354 233.977C68.5376 234.118 67.5293 234.169 66.5225 234.129C65.5229 234.208 64.5186 234.208 63.519 234.129C64.4865 233.823 65.499 233.685 66.513 233.72C67.5277 233.64 68.5487 233.727 69.5354 233.977Z" fill="#263238"/>
<path d="M70.1246 238.527C69.1467 238.751 68.1398 238.822 67.1402 238.737C66.1425 238.776 65.1448 238.658 64.1843 238.384C65.1705 238.289 66.1635 238.289 67.1497 238.384C68.1436 238.342 69.1393 238.39 70.1246 238.527Z" fill="#263238"/>
<path d="M86.1018 241.259C86.1018 241.259 86.1018 240.85 86.1018 240.098C86.0561 239.036 85.8642 237.985 85.5315 236.975C85.3793 236.267 84.9904 235.633 84.429 235.176C84.2685 235.086 84.0851 235.044 83.9011 235.055C83.7172 235.067 83.5407 235.132 83.393 235.243C83.0576 235.492 82.7871 235.819 82.6041 236.195C81.8437 238.068 81.5187 240.089 81.6537 242.106H81.283C81.3916 240.648 81.3725 239.183 81.226 237.727C81.1736 237.137 81.0911 236.549 80.9789 235.966C80.8848 235.429 80.6016 234.942 80.1805 234.596C79.9783 234.45 79.7356 234.372 79.4866 234.372C79.2376 234.372 78.9949 234.45 78.7928 234.596C78.366 234.876 78.0554 235.302 77.9184 235.795C77.7822 236.29 77.693 236.797 77.6523 237.309C77.5952 237.813 77.5477 238.308 77.5287 238.794C77.4764 239.697 77.4764 240.603 77.5287 241.507H77.2341C77.158 239.365 77.0915 237.613 77.044 236.328C77.044 235.757 77.044 235.29 77.044 234.919C77.0234 234.755 77.0234 234.589 77.044 234.424C77.0818 234.587 77.1041 234.752 77.1105 234.919L77.2245 236.328C77.3006 237.604 77.4146 239.355 77.5477 241.488H77.2531C77.2046 240.574 77.2046 239.659 77.2531 238.746C77.2531 238.261 77.3101 237.794 77.3671 237.242C77.4058 236.707 77.4982 236.178 77.6428 235.662C77.7989 235.086 78.1565 234.586 78.6502 234.253C78.9345 234.073 79.2647 233.981 79.6007 233.986C79.9427 233.988 80.2755 234.098 80.5511 234.3C81.0482 234.699 81.3856 235.263 81.5016 235.89C81.6228 236.488 81.7116 237.092 81.7677 237.699C81.8954 239.178 81.8954 240.665 81.7677 242.144H81.3971C81.2715 240.075 81.6295 238.006 82.4426 236.1C82.6588 235.661 82.9866 235.286 83.393 235.014C83.5877 234.874 83.8186 234.794 84.058 234.782C84.2974 234.77 84.5352 234.828 84.7427 234.948C85.3567 235.445 85.7772 236.142 85.9307 236.918C86.2447 237.955 86.4049 239.033 86.406 240.117C86.406 240.498 86.406 240.793 86.3584 240.983C86.2882 241.088 86.2016 241.181 86.1018 241.259Z" fill="#263238"/>
<path d="M94.4278 240.659C94.4278 240.659 94.2947 240.821 93.9716 240.983C93.5117 241.207 93.0095 241.33 92.4984 241.345C91.7262 241.369 90.9647 241.16 90.3123 240.745C89.5126 240.214 88.9427 239.4 88.7171 238.466C88.4915 237.532 88.6267 236.548 89.0958 235.709C89.4894 235.044 90.0716 234.51 90.7686 234.177C91.2287 233.955 91.7311 233.835 92.2418 233.825C92.4288 233.81 92.6168 233.836 92.793 233.901C92.1336 233.956 91.4895 234.13 90.8921 234.415C90.2712 234.756 89.7577 235.263 89.4094 235.881C89.011 236.649 88.9032 237.535 89.1058 238.377C89.3084 239.218 89.8078 239.958 90.5119 240.46C91.1052 240.851 91.7974 241.066 92.5079 241.078C93.1686 241.062 93.8201 240.92 94.4278 240.659Z" fill="#263238"/>
<path d="M96.6709 229.874C95.2384 229.961 93.8199 230.207 92.4414 230.607L91.8046 230.817L92.2798 230.331C93.1951 229.494 93.9885 228.533 94.6369 227.475C95.1436 226.591 95.3189 225.555 95.1312 224.553C95.0266 224.105 94.7605 223.753 94.3993 223.744C94.0235 223.75 93.6549 223.848 93.3253 224.029C92.8212 224.289 92.375 224.648 92.0137 225.086C91.757 225.4 91.6525 225.609 91.624 225.59C91.6629 225.373 91.7579 225.169 91.8996 225C92.2273 224.498 92.6749 224.086 93.2017 223.801C93.5676 223.572 93.9872 223.444 94.4183 223.429C94.5508 223.433 94.6809 223.465 94.8004 223.523C94.9199 223.58 95.0261 223.662 95.1121 223.763C95.2826 223.963 95.4031 224.201 95.4638 224.458C95.6987 225.548 95.5227 226.687 94.9696 227.656C94.3078 228.76 93.4771 229.752 92.5079 230.598L92.3463 230.312C93.3585 230.007 94.4071 229.841 95.4638 229.817C95.8664 229.764 96.2751 229.784 96.6709 229.874Z" fill="#263238"/>
<path d="M160.323 218.613L180.577 214.7L219.432 223.62L239.125 227.742L239.401 254.691L195.48 262.792L165.836 253.996L154.63 237.48L160.323 218.613Z" fill="#FFBE9D"/>
<path d="M145.933 221.297L165.047 216.785C165.047 216.785 178.562 258.67 211.914 256.833C239.097 255.357 239.125 227.742 239.125 227.742L258.999 231.254C258.999 231.254 267.335 281.793 258.201 317.243C250.597 346.753 243.849 387.191 243.849 387.191H111.821L145.933 221.297Z" fill="#FF4736"/>
<path d="M339.608 350.789C339.608 350.789 285.156 255.243 275.357 242.982C264.626 229.56 256.062 231.112 256.062 231.112L250.303 295.472L296.599 361.261L307.634 365.249L339.608 350.789Z" fill="#FF4736"/>
<path d="M148.214 220.764C148.214 220.764 117.267 223.239 106.166 274.073C101.148 297.043 94.7605 323.964 92.9737 342.051C91.643 355.178 99.7314 368.829 112.8 370.504L129.205 373.55C133.539 374.356 138.017 373.466 141.716 371.065C145.415 368.664 148.053 364.933 149.089 360.642L154.63 337.662L139.869 332.693L143.281 264.239L148.214 220.764Z" fill="#FF4736"/>
<path d="M261.528 266.781C261.6 267.01 261.648 267.246 261.67 267.485C261.756 267.999 261.851 268.685 261.984 269.532C262.05 269.979 262.117 270.484 262.202 271.017C262.288 271.55 262.317 272.15 262.374 272.787C262.507 274.054 262.659 275.501 262.725 277.109C262.955 280.872 262.98 284.644 262.801 288.409C262.579 293.017 262.122 297.612 261.433 302.174C260.72 307.029 259.826 311.617 258.923 315.767C258.02 319.918 257.118 323.64 256.348 326.762C255.578 329.885 254.903 332.388 254.447 334.121C254.219 334.949 254.038 335.615 253.895 336.11C253.838 336.344 253.765 336.572 253.677 336.796C253.696 336.558 253.738 336.322 253.8 336.091C253.914 335.577 254.076 334.911 254.266 334.073L256.015 326.639C256.747 323.507 257.621 319.785 258.486 315.634C259.351 311.484 260.245 306.905 260.957 302.06C261.67 297.214 262.155 292.54 262.355 288.342C262.554 284.144 262.573 280.289 262.355 277.09C262.355 275.491 262.183 274.044 262.079 272.768C262.031 272.14 261.984 271.55 261.946 270.998C261.908 270.446 261.822 269.97 261.775 269.513C261.68 268.666 261.613 267.98 261.556 267.466C261.531 267.239 261.522 267.01 261.528 266.781Z" fill="#263238"/>
<path d="M156.074 340.118C156.009 339.983 155.955 339.843 155.913 339.699C155.818 339.385 155.685 338.985 155.523 338.471L154.915 336.501C154.744 335.604 154.366 334.76 153.812 334.035C152.998 333.253 152.026 332.656 150.961 332.284C149.709 331.809 148.418 331.446 147.102 331.198C143.966 330.616 140.787 330.298 137.598 330.246H137.341V329.999L140.135 311.75C141.932 300.26 143.566 289.856 144.755 282.24C145.372 278.509 145.867 275.472 146.218 273.321C146.389 272.302 146.532 271.493 146.636 270.893C146.636 270.646 146.722 270.436 146.76 270.265C146.767 270.192 146.786 270.121 146.817 270.055C146.832 270.128 146.832 270.202 146.817 270.274C146.817 270.446 146.817 270.655 146.741 270.912C146.665 271.512 146.551 272.321 146.418 273.349C146.104 275.51 145.657 278.556 145.116 282.297C143.956 289.913 142.378 300.298 140.63 311.807C139.603 318.376 138.643 324.592 137.778 330.046L137.56 329.789C140.787 329.873 144.002 330.233 147.169 330.865C148.502 331.132 149.81 331.517 151.075 332.017C152.184 332.424 153.187 333.075 154.012 333.921C154.352 334.303 154.605 334.755 154.753 335.244L155.105 336.51C155.324 337.281 155.504 337.948 155.656 338.5C155.808 339.052 155.903 339.452 155.979 339.747C156.023 339.867 156.054 339.992 156.074 340.118Z" fill="#263238"/>
<path d="M113.446 347.886C113.477 347.452 113.56 347.024 113.694 346.61C113.992 345.463 114.393 344.345 114.891 343.269C116.512 339.674 119.039 336.562 122.223 334.241C125.408 331.919 129.14 330.467 133.054 330.027C134.227 329.884 135.411 329.846 136.59 329.913C137.026 329.918 137.459 329.973 137.883 330.075C136.294 330.084 134.708 330.183 133.13 330.37C129.305 330.898 125.67 332.366 122.547 334.641C119.425 336.916 116.912 339.929 115.233 343.412C114.558 344.87 113.962 346.364 113.446 347.886Z" fill="#263238"/>
<path d="M120.603 322.583C120.845 322.522 121.096 322.499 121.345 322.517C122.027 322.504 122.71 322.536 123.388 322.612C125.633 322.838 127.832 323.39 129.918 324.249C132.003 325.114 133.955 326.271 135.716 327.686C136.249 328.108 136.754 328.566 137.227 329.056C137.56 329.409 137.74 329.609 137.712 329.637C137.683 329.666 136.875 328.971 135.507 327.962C131.918 325.328 127.742 323.609 123.341 322.955C121.658 322.707 120.603 322.669 120.603 322.583Z" fill="#263238"/>
<path d="M152.634 256.833C152.572 256.382 152.549 255.927 152.567 255.472C152.567 254.596 152.51 253.339 152.396 251.788C152.111 247.739 151.417 243.73 150.324 239.822C149.216 235.92 147.723 232.138 145.867 228.532C145.144 227.152 144.536 226.047 144.089 225.305C143.839 224.925 143.623 224.524 143.443 224.105C143.746 224.444 144.017 224.81 144.251 225.2C144.755 225.924 145.41 226.999 146.152 228.37C150.107 235.56 152.352 243.568 152.71 251.769C152.776 253.33 152.767 254.625 152.71 255.472C152.73 255.927 152.704 256.383 152.634 256.833Z" fill="#263238"/>
<g opacity="0.3">
<path opacity="0.3" d="M260.121 309.418C268.01 296.024 268.181 278.623 261.29 264.677C263.506 279.535 263.03 294.672 259.883 309.361" fill="black"/>
</g>
<g opacity="0.3">
<path opacity="0.3" d="M189.882 324.563C183.894 326.324 175.625 326.753 169.761 324.563C174.333 331.065 183.143 333.416 190.785 331.303C198.427 329.19 205.479 321.527 206.068 313.597C202.371 318.604 195.88 322.831 189.882 324.563Z" fill="black"/>
</g>
<path d="M211.914 302.935C211.886 303.118 211.838 303.297 211.771 303.469C211.657 303.811 211.524 304.335 211.258 304.963C210.565 306.782 209.703 308.532 208.682 310.189C207.178 312.66 205.36 314.926 203.274 316.929C198.157 321.918 191.552 325.093 184.465 325.972C181.6 326.344 178.699 326.344 175.834 325.972C173.9 325.731 171.991 325.314 170.132 324.725C169.466 324.525 168.982 324.306 168.64 324.183C168.466 324.124 168.297 324.05 168.136 323.964C168.826 324.119 169.508 324.31 170.179 324.535C178.227 326.776 186.809 326.064 194.378 322.526C201.871 318.837 207.791 312.573 211.058 304.877C211.61 303.64 211.866 302.916 211.914 302.935Z" fill="#263238"/>
<path d="M145.154 369.581C145.154 369.581 145.087 369.685 144.916 369.838C144.677 370.076 144.419 370.296 144.146 370.494C143.152 371.237 142.049 371.822 140.877 372.227C139.133 372.807 137.314 373.128 135.478 373.179C133.258 373.249 131.035 373.17 128.825 372.941C124.073 372.532 119.853 371.837 116.802 371.294C115.271 371.018 114.036 370.78 113.19 370.599C112.739 370.538 112.297 370.43 111.869 370.275C112.322 370.282 112.773 370.327 113.218 370.409L116.859 370.942C119.919 371.408 124.158 372.037 128.872 372.446C131.082 372.675 133.304 372.767 135.526 372.722C137.325 372.684 139.11 372.396 140.829 371.865C142.377 371.325 143.835 370.555 145.154 369.581Z" fill="#263238"/>
<path d="M252.498 119.116L256.405 115.308C261.604 117.574 264.008 123.619 264.892 129.235C265.776 134.852 265.643 140.754 268.029 145.913C269.854 149.883 273.171 153.529 272.781 157.917C272.41 162.058 268.666 165.409 268.647 169.569C268.647 173.576 271.973 176.651 273.912 180.154C277.837 187.246 280.385 216.261 278.332 224.115C261.062 222.62 230.476 220.774 213.197 216.794C217.75 186.98 236.92 144.904 252.498 119.116Z" fill="#263238"/>
<path d="M260.225 145.694C261.423 125.427 246.729 106.884 226.247 104.437C204.51 101.848 185.282 117.44 183.476 138.65L178.382 224.267C178.289 225.922 178.75 227.56 179.693 228.922C184.712 236.271 193.798 242.021 201.924 243.153C209.785 244.248 217.759 242.201 224.45 238.47C225.56 237.841 226.486 236.932 227.135 235.833C227.784 234.734 228.133 233.483 228.148 232.206L228.499 213.044C228.498 213.027 228.5 213.01 228.506 212.995C228.511 212.979 228.52 212.965 228.532 212.953C228.544 212.941 228.558 212.932 228.574 212.926C228.589 212.921 228.606 212.918 228.623 212.92C230.413 213.055 232.213 213.004 233.993 212.768C239.049 211.53 251.947 206.561 256.281 187.598C257.726 181.316 259.17 163.467 260.225 145.694Z" fill="#FFBE9D"/>
<path d="M232.111 173.691C232.111 173.5 234.23 173.291 237.662 173.101C238.527 173.101 239.353 172.958 239.563 172.387C239.69 171.513 239.544 170.622 239.144 169.835L237.015 163.172C234.069 153.729 231.997 145.989 232.377 145.885C232.757 145.78 235.466 153.329 238.412 162.772C239.116 165.104 239.791 167.322 240.437 169.436C240.703 170.388 241.188 171.549 240.665 172.796C240.52 173.087 240.309 173.34 240.051 173.536C239.792 173.733 239.492 173.867 239.173 173.929C238.688 174.025 238.193 174.061 237.7 174.033C234.24 174.014 232.12 173.881 232.111 173.691Z" fill="#263238"/>
<path d="M254.637 152.862C254.266 153.272 252.023 151.387 248.81 151.292C245.598 151.196 243.203 152.881 242.861 152.443C242.69 152.244 243.079 151.491 244.125 150.711C245.506 149.717 247.177 149.208 248.877 149.264C250.575 149.323 252.205 149.949 253.506 151.044C254.504 151.901 254.874 152.681 254.637 152.862Z" fill="#263238"/>
<path d="M221.998 153.681C221.561 154.09 219.223 151.967 215.716 151.663C212.208 151.358 209.481 152.967 209.129 152.491C208.958 152.272 209.433 151.539 210.621 150.759C212.213 149.814 214.064 149.4 215.906 149.578C217.749 149.742 219.49 150.5 220.867 151.739C221.903 152.662 222.207 153.5 221.998 153.681Z" fill="#263238"/>
<path d="M228.499 212.911C228.499 212.911 215.402 213.053 199.738 202.277C199.738 202.277 203.787 219.584 228.395 219.041L228.499 212.911Z" fill="#EB996E"/>
<path d="M230.163 181.592C229.566 180.749 228.768 180.07 227.841 179.616C226.915 179.162 225.889 178.948 224.859 178.993C224.115 179.004 223.381 179.165 222.7 179.466C222.019 179.766 221.405 180.201 220.896 180.745C220.409 181.265 220.097 181.924 220.003 182.631C219.909 183.338 220.039 184.056 220.373 184.686C221.2 186.009 223.082 186.437 224.726 186.095C226.354 185.648 227.879 184.885 229.212 183.848C229.608 183.594 229.956 183.272 230.239 182.896C230.372 182.72 230.451 182.509 230.464 182.289C230.478 182.068 230.426 181.849 230.315 181.658" fill="#EB996E"/>
<path d="M222.036 175.281C222.587 175.281 222.369 178.898 225.334 181.678C228.3 184.457 232.225 184.324 232.225 184.828C232.225 185.066 231.275 185.476 229.659 185.4C227.517 185.28 225.482 184.423 223.899 182.972C222.392 181.592 221.484 179.675 221.371 177.632C221.323 176.118 221.789 175.281 222.036 175.281Z" fill="#263238"/>
<path d="M222.559 140.411C222.16 141.287 218.824 140.611 214.841 140.773C210.859 140.934 207.58 141.725 207.104 140.915C206.905 140.506 207.513 139.707 208.872 138.926C210.68 137.983 212.676 137.459 214.712 137.393C216.749 137.327 218.775 137.721 220.639 138.545C222.017 139.231 222.692 139.992 222.559 140.411Z" fill="#263238"/>
<path d="M255.331 141.125C254.646 141.887 251.937 141.125 248.677 141.125C245.417 141.125 242.68 141.668 242.024 140.877C241.739 140.497 242.167 139.735 243.364 138.974C245.022 138.103 246.873 137.668 248.745 137.708C250.616 137.748 252.447 138.262 254.066 139.202C255.245 139.973 255.635 140.754 255.331 141.125Z" fill="#263238"/>
<path d="M229.212 100.153C227.444 97.1453 224.165 95.7745 220.496 95.2224C205.517 92.9473 188.808 101.981 180.416 114.604C172.023 127.227 171.576 146.065 177.716 159.926L187.059 154.081C205.812 146.332 219.052 128.236 231.113 109.54C232.795 106.998 230.78 102.771 229.212 100.153Z" fill="#263238"/>
<path d="M252.289 108.407C246.026 101.267 241.473 94.1277 228.471 99.1159C226.57 102.762 230.372 107.493 233.641 110.254C238.393 114.309 242.471 117.041 245.569 119.944C251.823 125.799 258.933 145.494 259.551 156.242C259.551 156.918 260.739 147.017 261.452 146.913C262.326 146.779 265.852 142.458 265.367 136.556C263.695 116.384 258.553 115.537 252.289 108.407Z" fill="#263238"/>
<path d="M220.534 95.2225C221.511 95.0316 222.522 95.1173 223.452 95.47C225.753 96.1767 227.805 97.5276 229.364 99.3634C229.81 99.8795 230.204 100.437 230.543 101.029C230.838 101.601 231.068 102.205 231.227 102.828C231.566 103.834 231.824 104.866 231.997 105.913C232.254 107.75 231.816 108.864 231.721 108.835C231.626 108.807 231.769 107.712 231.37 106.027C231.106 105.03 230.789 104.048 230.419 103.085C230.25 102.523 230.028 101.978 229.754 101.458C229.433 100.912 229.064 100.396 228.651 99.9155C227.18 98.208 225.318 96.882 223.224 96.0507C221.608 95.47 220.515 95.3748 220.534 95.2225Z" fill="#455A64"/>
<path d="M251.671 159.098C251.673 159.828 251.394 160.531 250.894 161.062C250.394 161.593 249.71 161.912 248.982 161.953C248.62 161.987 248.256 161.949 247.909 161.839C247.563 161.73 247.242 161.553 246.965 161.318C246.688 161.083 246.46 160.795 246.296 160.471C246.131 160.147 246.033 159.793 246.007 159.431C245.988 158.689 246.259 157.969 246.761 157.424C247.263 156.878 247.957 156.55 248.697 156.508C249.064 156.473 249.434 156.513 249.785 156.626C250.136 156.738 250.461 156.921 250.739 157.163C251.017 157.406 251.243 157.702 251.404 158.034C251.564 158.367 251.655 158.729 251.671 159.098Z" fill="#263238"/>
<path d="M220.363 159.25C220.382 159.991 220.111 160.711 219.609 161.257C219.107 161.802 218.413 162.13 217.674 162.172C217.313 162.207 216.948 162.17 216.602 162.062C216.256 161.954 215.934 161.778 215.657 161.544C215.38 161.309 215.152 161.022 214.988 160.698C214.823 160.375 214.725 160.021 214.699 159.659C214.678 158.916 214.947 158.194 215.449 157.646C215.952 157.099 216.647 156.769 217.388 156.727C217.75 156.692 218.115 156.73 218.462 156.838C218.809 156.947 219.131 157.124 219.408 157.359C219.685 157.594 219.913 157.883 220.077 158.207C220.241 158.532 220.338 158.887 220.363 159.25Z" fill="#263238"/>
<path d="M134.214 183.077C135.982 180.164 138.016 177.422 141.247 176.213C144.479 175.004 148.148 174.309 150.685 171.949C154.668 168.284 154.487 162.191 154.126 156.879C153.765 151.568 153.67 145.456 157.738 141.886C161.14 138.907 166.548 138.64 169.495 135.223C171.462 132.948 171.852 129.806 172.536 126.903C174.437 119.126 178.686 105.541 201.573 97.7261L181.328 174.776C182.839 175.204 186.451 178.65 186.651 180.983C186.831 183.162 185.89 185.371 185.871 187.56C185.871 190.235 188.78 191.835 190.624 193.815C192.962 196.337 193.684 199.974 193.323 203.334C192.573 207.927 191.347 212.428 189.664 216.766C170.883 214.862 143.471 214.253 129.158 202.258C126.563 200.088 130.279 189.56 134.214 183.077Z" fill="#263238"/>
<path d="M187.097 154.081C186.746 153.89 172.917 148.369 172.033 162.981C171.149 177.594 185.947 175.423 185.995 175.014C186.042 174.605 187.097 154.081 187.097 154.081Z" fill="#FFBE9D"/>
<path d="M181.889 169.226C181.822 169.169 181.623 169.388 181.176 169.55C180.558 169.776 179.876 169.752 179.275 169.483C177.773 168.817 176.623 166.294 176.709 163.667C176.757 162.415 177.082 161.189 177.659 160.078C177.825 159.632 178.095 159.232 178.448 158.912C178.8 158.592 179.224 158.362 179.684 158.241C179.98 158.181 180.288 158.228 180.554 158.372C180.819 158.517 181.026 158.75 181.138 159.031C181.309 159.45 181.195 159.735 181.271 159.764C181.347 159.792 181.604 159.535 181.518 158.926C181.464 158.558 181.282 158.222 181.005 157.974C180.624 157.645 180.128 157.481 179.627 157.517C179.022 157.598 178.449 157.833 177.961 158.199C177.473 158.566 177.088 159.052 176.842 159.611C176.147 160.839 175.762 162.218 175.72 163.629C175.635 166.57 176.966 169.407 179.038 170.14C179.42 170.279 179.83 170.329 180.235 170.287C180.64 170.244 181.03 170.109 181.376 169.892C181.841 169.569 181.936 169.255 181.889 169.226Z" fill="#EB996E"/>
<path d="M238.85 157.898C238.927 156.8 239.083 155.709 239.315 154.633C239.755 152.833 240.565 151.144 241.693 149.675C242.821 148.206 244.242 146.988 245.867 146.101C247.491 145.213 249.282 144.674 251.126 144.519C252.97 144.364 254.826 144.595 256.576 145.199C257.781 145.606 258.915 146.197 259.94 146.951C261.035 147.708 261.998 148.641 262.792 149.711C264.495 151.945 265.438 154.666 265.482 157.476C265.527 160.286 264.67 163.037 263.039 165.323C262.285 166.416 261.361 167.38 260.301 168.179C259.303 168.967 258.187 169.594 256.994 170.035C254.789 170.886 252.396 171.129 250.065 170.74C248.032 170.404 246.108 169.591 244.448 168.369C242.018 166.599 240.253 164.06 239.439 161.163C239.177 160.092 238.986 159.004 238.869 157.907C238.865 157.98 238.865 158.053 238.869 158.126C238.869 158.307 238.869 158.517 238.869 158.774C238.877 159.122 238.912 159.469 238.973 159.811C239.025 160.284 239.114 160.752 239.239 161.211C240.002 164.191 241.764 166.819 244.229 168.655C246.055 170.023 248.197 170.907 250.455 171.223C252.714 171.539 255.015 171.278 257.146 170.464C259.675 169.506 261.862 167.816 263.429 165.609C265.123 163.24 266.013 160.388 265.967 157.475C265.921 154.561 264.941 151.739 263.172 149.426C262.348 148.322 261.354 147.358 260.225 146.57C259.172 145.812 258.008 145.221 256.775 144.818C254.62 144.073 252.312 143.885 250.066 144.273C247.819 144.66 245.706 145.611 243.925 147.036C241.514 148.952 239.835 151.642 239.173 154.652C239.064 155.116 238.988 155.586 238.945 156.061C238.898 156.408 238.876 156.758 238.878 157.108C238.878 157.365 238.878 157.574 238.878 157.746C238.867 157.796 238.857 157.847 238.85 157.898Z" fill="#455A64"/>
<path d="M202.124 158.488C202.2 157.391 202.353 156.3 202.58 155.223C203.295 152.303 204.969 149.708 207.333 147.855C208.954 146.581 210.852 145.707 212.874 145.304C215.192 144.845 217.59 145.013 219.822 145.789C221.025 146.2 222.159 146.791 223.186 147.541C224.279 148.301 225.242 149.234 226.038 150.302C227.738 152.534 228.681 155.253 228.727 158.06C228.773 160.868 227.921 163.617 226.294 165.904C225.536 166.996 224.609 167.961 223.547 168.76C222.549 169.548 221.433 170.175 220.24 170.616C218.034 171.467 215.642 171.71 213.311 171.32C211.281 170.985 209.359 170.172 207.703 168.95C205.271 167.179 203.504 164.641 202.685 161.744C202.423 160.673 202.235 159.585 202.124 158.488C202.114 158.561 202.114 158.635 202.124 158.707C202.124 158.879 202.124 159.098 202.124 159.355C202.124 159.703 202.155 160.05 202.219 160.392C202.27 160.866 202.362 161.334 202.495 161.791C203.25 164.776 205.013 167.406 207.485 169.236C209.166 170.5 211.119 171.354 213.187 171.73C215.591 172.145 218.062 171.908 220.344 171.044C222.877 170.094 225.067 168.403 226.627 166.189C228.322 163.821 229.211 160.969 229.165 158.056C229.119 155.142 228.139 152.32 226.37 150.006C224.735 147.849 222.495 146.228 219.936 145.352C217.627 144.561 215.148 144.407 212.76 144.904C210.215 145.428 207.876 146.676 206.021 148.497C204.167 150.319 202.877 152.638 202.305 155.176C202.187 155.637 202.11 156.109 202.077 156.584C202.02 156.93 201.998 157.281 202.01 157.632V158.269C202.032 158.35 202.071 158.424 202.124 158.488Z" fill="#455A64"/>
<path d="M228.357 157.489C228.433 157.536 228.813 156.917 229.697 156.204C230.83 155.262 232.249 154.735 233.721 154.71C235.193 154.684 236.629 155.16 237.795 156.061C238.745 156.737 239.106 157.346 239.173 157.289C238.937 156.687 238.534 156.166 238.013 155.785C236.823 154.741 235.287 154.179 233.705 154.209C232.123 154.239 230.609 154.859 229.459 155.947C228.955 156.347 228.572 156.881 228.357 157.489Z" fill="#455A64"/>
<path d="M183.752 153.148C184.627 153.426 185.528 153.611 186.442 153.7C188.124 153.966 190.452 154.214 193.019 154.442L199.605 155.033C200.508 155.172 201.42 155.242 202.333 155.242C201.458 154.962 200.557 154.774 199.643 154.68C197.971 154.423 195.642 154.176 193.066 153.947L186.489 153.357C185.584 153.212 184.668 153.142 183.752 153.148Z" fill="#455A64"/>
<path d="M260.064 166.132C261.25 164.76 262.212 163.208 262.915 161.534C263.467 159.802 263.746 157.994 263.742 156.175C263.954 156.687 264.051 157.24 264.027 157.793C264.061 159.127 263.842 160.454 263.381 161.706C262.921 162.957 262.224 164.108 261.328 165.095C260.634 165.837 260.102 166.18 260.064 166.132Z" fill="white"/>
<path d="M262.364 151.092C262.44 150.977 262.982 151.253 263.314 151.901C263.647 152.548 263.505 153.138 263.372 153.129C263.238 153.119 263.124 152.634 262.868 152.11C262.611 151.587 262.279 151.196 262.364 151.092Z" fill="white"/>
<path d="M226.513 163.248C226.437 163.248 226.703 162.487 226.921 161.259C227.482 158.038 226.864 154.722 225.182 151.92C224.545 150.854 224.032 150.264 224.089 150.207C224.649 150.616 225.121 151.134 225.477 151.73C226.431 153.114 227.087 154.682 227.403 156.334C227.719 157.986 227.688 159.686 227.311 161.325C227.177 162.014 226.906 162.668 226.513 163.248Z" fill="white"/>
<path d="M175.987 174.814C175.987 174.814 175.787 175.1 175.502 175.623C175.093 176.367 174.877 177.202 174.874 178.051C174.859 178.666 174.971 179.278 175.203 179.848C175.436 180.418 175.783 180.934 176.224 181.363C176.756 181.893 177.405 182.288 178.119 182.518C178.832 182.748 179.59 182.806 180.33 182.687C181.065 182.535 181.755 182.214 182.346 181.75C182.936 181.286 183.411 180.691 183.733 180.012C183.993 179.454 184.136 178.848 184.154 178.233C184.172 177.617 184.064 177.005 183.837 176.432C183.537 175.64 183.048 174.934 182.412 174.376C181.955 173.986 181.651 173.824 181.67 173.786C181.984 173.867 182.276 174.016 182.526 174.224C183.251 174.752 183.816 175.47 184.16 176.299C184.436 176.913 184.578 177.578 184.578 178.25C184.578 178.923 184.436 179.588 184.16 180.202C183.833 180.967 183.322 181.639 182.671 182.157C182.021 182.675 181.253 183.023 180.435 183.17C179.617 183.318 178.776 183.259 177.986 183C177.196 182.741 176.483 182.29 175.91 181.687C175.437 181.211 175.069 180.64 174.832 180.012C174.594 179.383 174.492 178.712 174.532 178.041C174.565 177.145 174.845 176.275 175.34 175.528C175.673 175.004 175.987 174.795 175.987 174.814Z" fill="#E0E0E0"/>
<path d="M256.272 186.047C257.076 186.369 257.963 186.423 258.8 186.199C259.695 185.948 260.502 185.45 261.128 184.762C261.9 183.927 262.421 182.891 262.63 181.773C262.848 180.654 262.708 179.495 262.231 178.46C261.839 177.611 261.257 176.865 260.53 176.28C259.827 175.766 259.06 175.346 258.248 175.033C258.49 175.011 258.734 175.044 258.961 175.128C259.604 175.307 260.21 175.6 260.748 175.994C261.555 176.588 262.207 177.369 262.649 178.269C263.192 179.382 263.359 180.642 263.124 181.858C262.892 183.074 262.31 184.195 261.452 185.085C260.754 185.814 259.858 186.32 258.876 186.542C258.217 186.698 257.528 186.661 256.889 186.437C256.443 186.256 256.253 186.066 256.272 186.047Z" fill="#E0E0E0"/>
<path d="M203.55 375.064L217.645 379.243C217.645 379.243 225.42 382.584 229.203 383.45C233.898 384.526 237.101 383.069 237.272 380.452C237.443 377.834 233.793 377.501 233.793 377.501C230.691 376.317 227.674 374.921 224.764 373.322C222.651 371.851 220.923 369.892 219.727 367.61L224.764 368.305C224.764 368.305 235.362 375.92 239.353 378.224C243.345 380.528 244.22 376.482 244.562 375.264C244.904 374.045 232.757 361.698 232.757 361.698C232.757 361.698 244.391 369.181 246.472 371.046C248.554 372.912 251.69 373.522 252.384 372.313C253.078 371.104 254.988 371.094 252.384 365.935C249.78 360.775 228.936 346.896 228.936 346.896L234.639 345.677L240.893 348.466C241.329 350.616 242.216 352.647 243.497 354.426C245.75 357.776 249.751 354.426 249.751 354.426L247.271 341.574L234.915 333.826C234.915 333.826 222.065 335.396 220.154 336.263C218.244 337.129 216.153 340.775 216.153 340.775L212.684 342.184C207.295 343.745 207.475 349.142 205.736 349.314C203.996 349.485 153.299 339.585 153.299 339.585L148.708 338.385C141.105 344.164 138.073 353.712 136.733 362.184C136.733 362.184 135.336 366.334 136.733 368.619L203.55 375.064Z" fill="#FFBE9D"/>
<path d="M194.245 366.03C194.185 365.758 194.169 365.478 194.197 365.202C194.194 364.882 194.222 364.563 194.283 364.25C194.327 363.818 194.41 363.391 194.53 362.974C195.244 360.571 196.451 358.343 198.075 356.434C199.652 354.516 201.409 352.753 203.322 351.17C204.08 350.478 204.904 349.862 205.783 349.333C205.08 350.062 204.334 350.749 203.55 351.389C201.722 353.03 200.019 354.805 198.455 356.701C196.877 358.569 195.662 360.716 194.872 363.031C194.311 364.849 194.349 366.039 194.245 366.03Z" fill="#EB996E"/>
<path d="M216.2 340.775C216.2 340.775 215.782 340.994 215.136 341.517C214.235 342.279 213.456 343.175 212.826 344.173C212.372 344.848 211.983 345.565 211.667 346.315C211.374 347.197 211.189 348.111 211.115 349.038C210.985 350.115 210.6 351.146 209.994 352.046C209.306 352.917 208.74 353.877 208.312 354.902C207.661 356.632 207.661 358.54 208.312 360.271L208.378 360.451L208.216 360.556C206.013 361.982 204.417 364.177 203.74 366.715C203.506 367.716 203.363 368.735 203.312 369.761C203.235 369.496 203.203 369.219 203.217 368.943C203.207 368.171 203.29 367.4 203.464 366.649C204.071 363.982 205.685 361.655 207.969 360.156L207.874 360.442C207.186 358.6 207.186 356.572 207.874 354.73C208.313 353.676 208.902 352.692 209.623 351.808C210.201 350.955 210.566 349.976 210.688 348.952C210.802 347.138 211.465 345.401 212.589 343.973C213.259 342.962 214.102 342.076 215.079 341.356C215.342 341.157 215.629 340.994 215.934 340.87C216.018 340.827 216.108 340.795 216.2 340.775Z" fill="#EB996E"/>
<path d="M228.404 346.467C227.188 346.625 225.952 346.494 224.796 346.083C223.64 345.673 222.597 344.996 221.751 344.107C221.846 343.992 223.12 344.973 224.954 345.611C226.788 346.248 228.404 346.325 228.404 346.467Z" fill="#EB996E"/>
<path d="M231.655 360.528C229.819 360.012 228.035 359.33 226.323 358.49C224.544 357.806 222.827 356.972 221.19 355.996C223.021 356.526 224.804 357.207 226.522 358.034C228.301 358.717 230.018 359.552 231.655 360.528Z" fill="#EB996E"/>
<path d="M220.221 367.477C218.376 366.851 216.572 366.106 214.822 365.249C215.814 365.293 216.786 365.546 217.674 365.992C218.621 366.294 219.49 366.801 220.221 367.477Z" fill="#EB996E"/>
<path d="M229.906 361.432C229.088 361.871 228.368 362.474 227.791 363.202C227.214 363.931 226.792 364.77 226.551 365.668C226.484 365.668 226.427 365.335 226.551 364.802C226.685 364.103 226.985 363.448 227.425 362.889C227.865 362.331 228.432 361.887 229.079 361.594C229.545 361.394 229.887 361.375 229.906 361.432Z" fill="#EB996E"/>
<path d="M235 353.712C235.057 353.845 234.126 354.321 233.499 355.387C233.179 356.064 232.912 356.764 232.7 357.482C232.565 357.089 232.529 356.668 232.596 356.258C232.662 355.848 232.829 355.46 233.08 355.13C233.803 353.912 234.981 353.578 235 353.712Z" fill="#EB996E"/>
<path d="M233.565 339.728C233.518 339.728 233.328 339.509 233.185 339.052C233.014 338.429 233.014 337.771 233.185 337.148C233.351 336.533 233.679 335.974 234.135 335.53C234.478 335.197 234.763 335.082 234.791 335.13C234.338 335.795 233.971 336.514 233.698 337.272C233.557 338.082 233.512 338.907 233.565 339.728Z" fill="#EB996E"/>
<path d="M336.319 344.107C336.319 344.107 335.682 331.617 322.756 329.028C309.83 326.439 287.19 337.443 287.19 337.443L223.756 381.718L225.657 387.191L290.041 378.205L295.934 380.471L341.157 350.713L383.832 319.813L379.08 316.091C379.08 316.091 367.123 324.344 359.215 327.895C351.308 331.446 339.874 337.672 336.319 344.107Z" fill="#F5F5F5"/>
<path d="M222.778 389L276.459 355.597L333.211 346.467C333.211 346.467 336.062 350.599 340.881 349.59L387.549 317.224L388.433 319.175L297.93 382.86C296.601 383.346 295.165 383.46 293.776 383.188C292.387 382.916 291.099 382.27 290.051 381.318L222.778 389Z" fill="#455A64"/>
<path d="M333.211 346.468C333.082 346.607 332.935 346.729 332.774 346.829L331.462 347.781C330.322 348.6 328.677 349.79 326.71 351.294C322.68 354.292 317.205 358.567 311.294 363.412C305.382 368.257 300.069 372.76 296.267 376.044L291.733 379.947L290.498 380.994C290.364 381.127 290.214 381.242 290.051 381.337C290.051 381.337 290.165 381.185 290.431 380.928L291.6 379.804C292.627 378.852 294.119 377.463 296.001 375.797C299.745 372.446 305.001 367.915 310.942 363.05C316.882 358.186 322.347 353.959 326.463 351.027C328.497 349.552 330.179 348.409 331.358 347.638L332.717 346.763C332.872 346.649 333.038 346.551 333.211 346.468Z" fill="#263238"/>
<path d="M332.631 339.518C327.489 333.987 319.391 332.017 311.864 332.607C304.336 333.197 297.198 336.006 290.174 338.795L224.507 383.812L225.097 385.506L291.115 340.765C291.115 340.765 305.866 336.006 312.396 335.187C323.307 333.826 332.631 339.518 332.631 339.518Z" fill="#E0E0E0"/>
<path d="M342.934 345.439L374.508 324.106C374.508 324.106 348.637 337.586 342.934 345.439Z" fill="#E0E0E0"/>
<path d="M224.507 383.812C224.588 383.73 224.677 383.656 224.773 383.593L225.591 383.012L228.737 380.794L240.37 372.722L278.864 346.249L290.041 338.633C296.401 335.759 303.113 333.739 310.001 332.626C315.565 331.839 321.238 332.641 326.368 334.94C328.286 335.833 330.053 337.021 331.605 338.462C332.765 339.545 333.752 340.8 334.532 342.184C335.022 343.051 335.405 343.975 335.673 344.935C335.739 345.249 335.796 345.497 335.844 345.687C335.865 345.772 335.881 345.857 335.891 345.944C335.55 344.66 335.045 343.425 334.39 342.27C333.591 340.922 332.598 339.7 331.443 338.643C329.887 337.247 328.132 336.092 326.235 335.216C321.154 333.004 315.56 332.252 310.077 333.045C303.244 334.167 296.586 336.173 290.269 339.014H290.317L279.14 346.629L240.618 373.008L228.889 380.956L225.695 383.089L224.85 383.641C224.742 383.71 224.627 383.767 224.507 383.812Z" fill="#263238"/>
<path d="M281.991 349.78C282.141 349.656 282.307 349.553 282.485 349.476C282.818 349.295 283.312 349.019 283.949 348.695C285.232 348.029 287.104 347.096 289.462 346.03C295.573 343.16 302.059 341.17 308.727 340.118C315.43 339.105 322.279 339.732 328.687 341.946C330.613 342.641 332.463 343.531 334.209 344.602C334.836 344.963 335.283 345.316 335.597 345.554C335.763 345.656 335.919 345.774 336.062 345.906C336.062 345.906 335.369 345.506 334.114 344.792C332.346 343.798 330.491 342.966 328.573 342.307C322.194 340.212 315.414 339.641 308.775 340.642C302.155 341.69 295.702 343.611 289.585 346.353C287.218 347.381 285.327 348.257 284.015 348.876L282.514 349.571C282.347 349.658 282.172 349.728 281.991 349.78Z" fill="#263238"/>
<path d="M382.141 318.471C382.141 318.471 382.008 318.595 381.732 318.785L380.506 319.604L375.953 322.536C372.094 325.011 366.781 328.428 360.955 332.274C355.129 336.12 349.92 339.652 346.118 342.222L341.623 345.249L340.387 346.058C340.249 346.159 340.099 346.242 339.94 346.306C340.058 346.181 340.189 346.069 340.33 345.972L341.518 345.087C342.545 344.326 344.046 343.25 345.919 341.927C349.663 339.29 354.872 335.701 360.708 331.855C366.544 328.009 371.895 324.639 375.792 322.241C377.74 321.041 379.327 320.089 380.43 319.442L381.713 318.699C381.848 318.61 381.991 318.534 382.141 318.471Z" fill="#263238"/>
<path d="M353.418 352.703C352.773 354.257 351.953 355.732 350.975 357.101C349.758 358.547 345.786 360.566 345.472 363.317C345.158 366.068 345.805 372.522 341.508 377.434C338.739 380.489 335.235 382.783 331.329 384.097L314.382 382.441L287.313 371.77C286.708 371.617 286.188 371.231 285.864 370.697C285.541 370.163 285.44 369.522 285.584 368.914C285.751 368.253 286.112 367.657 286.62 367.202C287.128 366.748 287.76 366.456 288.435 366.363L289.081 366.258C289.081 366.258 287.523 364.983 289.756 362.746C291.657 360.842 295.716 361.917 297.807 362.612C299.898 363.307 312.158 368.438 314.354 369.228C316.302 369.923 317.804 370.542 317.804 370.542C317.804 370.542 302.112 359.937 301.893 358.547C301.637 356.882 301.808 356.12 303.414 354.959C305.315 353.578 308.433 355.054 311.455 356.329C313.708 357.281 328.069 364.383 328.069 364.383C328.069 364.383 328.715 363.755 328.069 362.479C327.423 361.203 322.651 355.054 321.901 353.912C321.15 352.769 320.95 352.122 321.701 351.16C322.746 349.799 325.503 349.152 328.041 351.475C329.647 352.96 335.359 356.805 335.359 356.805L361.725 337.538C361.725 337.538 365.004 337.453 363.863 342.031C362.723 346.61 353.418 352.703 353.418 352.703Z" fill="#FFBE9D"/>
<path d="M333.762 368.762C332.708 368.527 331.725 368.041 330.898 367.345C330.07 366.649 329.423 365.764 329.01 364.764C329.134 364.688 329.903 365.868 331.215 366.963C332.527 368.057 333.829 368.619 333.762 368.762Z" fill="#EB996E"/>
<path d="M335.929 357.272C335.929 357.215 336.281 357.11 336.88 357.186C337.627 357.295 338.33 357.607 338.911 358.089C339.493 358.571 339.931 359.204 340.178 359.918C340.358 360.47 340.33 360.87 340.263 360.87C339.865 359.981 339.297 359.179 338.591 358.509C337.792 357.928 336.888 357.507 335.929 357.272Z" fill="#EB996E"/>
<path d="M337.174 362.574C337.032 362.574 336.965 361.156 336.405 359.538C335.844 357.919 335.055 356.729 335.169 356.682C336.004 357.395 336.598 358.349 336.87 359.414C337.295 360.411 337.401 361.515 337.174 362.574Z" fill="#EB996E"/>
<path d="M352.771 351.332C352.771 351.379 352.439 351.189 352.097 350.732C351.663 350.125 351.391 349.418 351.308 348.676C351.225 347.934 351.333 347.184 351.621 346.496C351.849 345.982 352.106 345.725 352.154 345.763C351.815 346.675 351.694 347.654 351.802 348.621C351.909 349.588 352.241 350.517 352.771 351.332Z" fill="#EB996E"/>
<path d="M328.943 375.406C328.334 375.546 327.7 375.546 327.09 375.406C325.613 375.145 324.196 374.616 322.908 373.845C321.626 373.091 320.42 372.214 319.306 371.227C318.81 370.863 318.371 370.427 318.004 369.933C318.551 370.208 319.062 370.55 319.524 370.951C320.683 371.847 321.896 372.671 323.155 373.417C324.402 374.157 325.75 374.712 327.157 375.064C328.24 375.292 328.943 375.33 328.943 375.406Z" fill="#EB996E"/>
<path d="M333.354 372.684C333.487 372.684 333.496 373.636 332.698 374.426C331.899 375.216 330.93 375.178 330.949 375.045C330.968 374.911 331.7 374.721 332.346 374.093C332.992 373.464 333.211 372.665 333.354 372.684Z" fill="#EB996E"/>
<path d="M339.826 367.924C339.883 367.924 339.883 368.181 339.703 368.524C339.453 368.946 339.077 369.279 338.629 369.476C338.183 369.693 337.682 369.766 337.193 369.685C336.813 369.609 336.623 369.457 336.652 369.4C336.68 369.343 337.526 369.476 338.42 369.028C339.313 368.581 339.693 367.877 339.826 367.924Z" fill="#EB996E"/>
<path d="M316.996 378.729C316.949 378.853 310.647 376.225 302.929 372.846C295.212 369.466 288.996 366.62 289.091 366.506C289.186 366.392 295.449 369.019 303.167 372.398C310.885 375.778 317.053 378.605 316.996 378.729Z" fill="#EB996E"/>
<path d="M428.01 387.22C428.01 387.353 332.185 387.467 214.014 387.467C95.844 387.467 0 387.353 0 387.22C0 387.087 95.806 386.972 214.014 386.972C332.223 386.972 428.01 387.077 428.01 387.22Z" fill="#263238"/>
<path d="M12.2419 285.81L32.8668 387.22H211.885C212.833 387.22 213.742 386.843 214.412 386.171C215.082 385.5 215.459 384.59 215.459 383.64C215.46 383.17 215.369 382.703 215.19 382.268C215.011 381.832 214.748 381.437 214.416 381.103C214.084 380.77 213.689 380.505 213.255 380.325C212.821 380.145 212.355 380.052 211.885 380.052H175.844L156.721 285.705C156.544 284.825 156.069 284.032 155.376 283.462C154.684 282.891 153.816 282.577 152.919 282.573L16.1198 281.107C15.536 281.101 14.9583 281.226 14.4289 281.472C13.8996 281.719 13.4319 282.081 13.0601 282.531C12.6884 282.982 12.422 283.511 12.2804 284.078C12.1388 284.645 12.1257 285.237 12.2419 285.81Z" fill="#E0E0E0"/>
<path d="M12.2419 285.81L12.1849 285.505C12.1462 285.189 12.1462 284.869 12.1849 284.553C12.2524 283.946 12.4591 283.363 12.7889 282.85C13.1186 282.336 13.5625 281.906 14.0858 281.593C14.4492 281.369 14.8476 281.208 15.2643 281.117C15.729 281.039 16.2004 281.011 16.671 281.031H19.8931L27.9529 281.098L79.6863 281.583L115.747 281.954L135.953 282.154L146.541 282.269L151.959 282.326C152.425 282.326 152.852 282.326 153.347 282.326C153.829 282.38 154.299 282.519 154.734 282.735C155.612 283.164 156.306 283.893 156.692 284.791C156.87 285.236 156.998 285.699 157.072 286.171L157.348 287.533C157.529 288.485 157.719 289.36 157.909 290.274C158.276 292.108 158.65 293.955 159.03 295.815C159.784 299.527 160.548 303.287 161.321 307.095C162.867 314.711 164.451 322.494 166.073 330.446C169.295 346.343 172.66 362.879 176.11 379.947L175.872 379.756H211.315C211.782 379.739 212.25 379.768 212.712 379.842C213.664 380.047 214.5 380.609 215.05 381.413C215.607 382.214 215.835 383.199 215.687 384.164C215.601 384.748 215.38 385.305 215.041 385.789C214.703 386.273 214.257 386.671 213.739 386.953C213.217 387.232 212.638 387.388 212.047 387.41H116.916H32.8668H32.7147V387.258C26.4037 356.082 21.3093 330.732 17.726 313.159C15.9582 304.382 14.5895 297.547 13.6581 292.902C13.2019 290.579 12.8534 288.818 12.6126 287.618C12.375 286.419 12.2704 285.81 12.2704 285.81C12.2704 285.81 12.413 286.419 12.6601 287.599C12.9072 288.78 13.2874 290.569 13.7626 292.873C14.7131 297.519 16.1293 304.344 17.9351 313.121C21.5279 330.684 26.7078 356.025 33.0854 387.182L32.8953 387.029L116.944 386.982H212.009C212.52 386.961 213.019 386.828 213.473 386.591C213.922 386.344 214.309 385.996 214.604 385.575C214.899 385.154 215.094 384.672 215.174 384.164C215.296 383.32 215.1 382.461 214.623 381.756C214.136 381.061 213.407 380.575 212.579 380.394C212.151 380.33 211.719 380.304 211.286 380.318H175.644V380.128C172.194 363.079 168.839 346.543 165.627 330.627C164.011 322.669 162.427 314.882 160.874 307.266L158.593 295.986C158.223 294.13 157.842 292.283 157.472 290.455C157.291 289.503 157.101 288.618 156.92 287.714L156.645 286.343C156.574 285.901 156.459 285.467 156.303 285.048C156.041 284.447 155.626 283.926 155.098 283.539C154.571 283.151 153.95 282.91 153.299 282.84C152.881 282.84 152.406 282.84 151.959 282.84L146.541 282.773L135.944 282.659L115.747 282.421L79.6768 281.992L27.9434 281.355L19.8931 281.25L16.671 281.202C16.2071 281.174 15.7414 281.199 15.2834 281.279C14.875 281.363 14.4832 281.514 14.1238 281.726C13.6111 282.026 13.1734 282.439 12.844 282.934C12.5146 283.429 12.3022 283.992 12.2229 284.582C12.1851 284.991 12.1915 285.402 12.2419 285.81Z" fill="#263238"/>
<path d="M88.8202 338.138C92.0852 338.138 94.732 335.487 94.732 332.217C94.732 328.947 92.0852 326.296 88.8202 326.296C85.5551 326.296 82.9083 328.947 82.9083 332.217C82.9083 335.487 85.5551 338.138 88.8202 338.138Z" fill="white"/>
<path d="M12.413 286.657C12.413 286.657 12.6221 286.657 13.0308 286.657H21.794L47.3898 286.781L131.838 287.371L144.051 287.476H147.055C147.567 287.456 148.079 287.488 148.585 287.571C149.358 287.728 150.073 288.097 150.65 288.637C151.227 289.176 151.644 289.865 151.854 290.627C152.083 291.579 152.244 292.53 152.444 293.482L156.806 315.51C159.572 329.551 162.072 342.164 164.163 352.817C166.254 363.469 167.965 372.017 169.086 377.967C169.657 380.927 170.094 383.231 170.398 384.811C170.54 385.582 170.655 386.182 170.731 386.601C170.807 387.02 170.826 387.21 170.826 387.21C170.826 387.21 170.769 387.01 170.683 386.61C170.597 386.211 170.464 385.601 170.303 384.83L168.896 378.043C167.699 372.093 165.969 363.516 163.821 352.921C161.673 342.326 159.163 329.666 156.36 315.634C154.962 308.618 153.508 301.25 151.969 293.616C151.769 292.664 151.598 291.712 151.389 290.76C151.138 289.856 150.563 289.076 149.773 288.57C149.382 288.319 148.946 288.145 148.49 288.056C148.012 287.978 147.528 287.95 147.045 287.971H144.051L131.838 287.875L47.3898 287.133L21.794 286.847L14.8367 286.657H13.0213H12.413Z" fill="#263238"/>
</g>
<defs>
<clipPath id="clip0_50_2125">
<rect width="428" height="389" fill="white"/>
</clipPath>
</defs>
</svg>
