<svg width="28" height="28" viewBox="0 0 28 28" fill="none" xmlns="http://www.w3.org/2000/svg">
<g clip-path="url(#clip0_42_734)">
<path d="M0.136719 11.4352C0.0546875 12.0914 0 12.7586 0 13.4367C0 19.3977 3.26484 24.5875 8.09922 27.3383L9.00156 25.4352V12.4359L8.00078 11.4352H0.136719ZM28 12.4359C28 11.4352 26.9992 10.4344 25.9984 10.4344H17.9977C18.4953 8.43281 18.9984 6.43672 18.9984 5.43594C18.9984 3.43438 17.9977 1.43828 17.5 0.935156C17.4891 0.924219 17.0023 0.4375 16.0016 0.4375C14.5031 0.4375 14.5031 1.93594 14.5031 1.93594C14.5031 1.96328 14.0055 4.43516 14.0055 5.43594C14.0055 6.43672 12.0039 10.4344 11.0031 11.4352L10.0023 11.9328V25.9328L11.0031 26.4305H22.0008C24.0023 26.4305 25.0031 25.4297 25.0031 24.4289C25.0031 23.4281 24.0023 22.4273 23.0016 22.4273C25.0031 22.4273 26.0039 21.4266 26.0039 20.4258C26.0039 19.425 25.0031 18.4242 24.0023 18.4242C26.0039 18.4242 27.0047 17.4234 27.0047 16.4227C27.0047 15.4219 26.0039 14.4211 25.0031 14.4211C26.9992 14.4375 28 13.4367 28 12.4359Z" fill="#333333"/>
</g>
<defs>
<clipPath id="clip0_42_734">
<rect width="28" height="28" fill="white"/>
</clipPath>
</defs>
</svg>
