<svg width="490" height="451" viewBox="0 0 490 451" fill="none" xmlns="http://www.w3.org/2000/svg">
<g clip-path="url(#clip0_50_2)">
<path d="M83.6483 264.282L12.8367 277.543L23.4112 334.085L94.2229 320.824L83.6483 264.282Z" fill="#F5F5F5"/>
<path d="M83.672 264.326L83.3285 264.409L82.2877 264.607L78.447 265.355L63.9483 268.13L12.8958 277.797L13.0936 277.506C16.216 294.333 19.8798 313.624 23.7204 334.038L23.3977 333.809L94.1739 320.63L93.997 320.9C90.8745 303.875 88.2516 289.77 86.4302 279.886C85.535 274.949 84.8273 271.072 84.3485 268.453C84.1091 267.133 83.9322 266.124 83.8073 265.418C83.6824 264.711 83.6303 264.378 83.6303 264.378C83.6303 264.378 83.7136 264.711 83.8385 265.418L84.4318 268.401C84.9418 271.051 85.6808 274.907 86.6279 279.834C88.5118 289.739 91.1971 303.885 94.4445 320.952L94.4966 321.17L94.2676 321.222L23.4498 334.422L23.1792 334.474L23.1271 334.194C19.3177 313.78 15.706 294.489 12.5627 277.651V277.412L12.8125 277.36L64.0628 267.902L78.5199 265.262L82.3397 264.576L83.3077 264.409L83.672 264.326Z" fill="#E0E0E0"/>
<path d="M81.7847 268.338L15.9403 280.643L25.2013 330.06L91.0457 317.755L81.7847 268.338Z" fill="#EBEBEB"/>
<path d="M25.1776 330.078L42.4241 295.061L60.2639 311.618L68.0076 299.541L91.0203 317.771L25.1776 330.078Z" fill="#E0E0E0"/>
<path d="M62.0124 287.515C62.2043 288.539 62.0879 289.597 61.6778 290.556C61.2676 291.514 60.5822 292.329 59.7082 292.898C58.8341 293.468 57.8107 293.765 56.7672 293.754C55.7238 293.742 54.7071 293.422 53.8459 292.834C52.9846 292.245 52.3174 291.415 51.9285 290.448C51.5397 289.481 51.4467 288.421 51.6612 287.401C51.8758 286.381 52.3883 285.448 53.134 284.719C53.8797 283.99 54.8251 283.498 55.8507 283.305C56.5321 283.178 57.232 283.185 57.9105 283.327C58.589 283.47 59.2328 283.744 59.805 284.135C60.3772 284.526 60.8667 285.026 61.2455 285.606C61.6242 286.186 61.8848 286.834 62.0124 287.515Z" fill="#E0E0E0"/>
<path d="M189.756 27.4265L153.5 227.449L301.802 254.256L338.058 54.2334L189.756 27.4265Z" fill="#FAFAFA"/>
<path d="M301.798 254.275C301.798 254.275 301.85 253.943 301.954 253.319L302.454 250.502C302.891 248.029 303.546 244.37 304.389 239.62C306.107 230.099 308.605 216.192 311.769 198.585L337.79 54.2144L337.998 54.5054L189.732 27.7204L190.055 27.4918C176.524 102.109 163.961 171.228 153.74 227.501L153.563 227.241L261.32 246.844L291.223 252.311L299.092 253.766C300.871 254.088 301.798 254.275 301.798 254.275L299.133 253.818L291.296 252.425L261.393 247.114L153.459 227.719H153.241V227.501C163.43 171.208 175.952 102.088 189.461 27.471V27.2007H189.742L338.102 54.0065L338.352 54.0585V54.2975C327.558 113.543 318.441 163.568 312.029 198.772L304.535 239.724C303.661 244.453 302.995 248.039 302.537 250.554C302.308 251.77 302.141 252.696 302.027 253.33L301.798 254.275Z" fill="#E0E0E0"/>
<path d="M265.25 59.9568L202.283 48.575L192.354 103.354L255.321 114.736L265.25 59.9568Z" fill="#E0E0E0"/>
<path d="M315.471 69.0348L275.16 61.7481L273.864 68.8972L314.176 76.1839L315.471 69.0348Z" fill="#E0E0E0"/>
<path d="M306.187 135.448L191.13 114.651L189.834 121.8L304.891 142.597L306.187 135.448Z" fill="#E0E0E0"/>
<path d="M303.905 148.042L188.849 127.244L187.553 134.393L302.609 155.191L303.905 148.042Z" fill="#E0E0E0"/>
<path d="M301.626 160.614L186.569 139.817L185.273 146.966L300.33 167.764L301.626 160.614Z" fill="#E0E0E0"/>
<path d="M299.334 173.206L184.277 152.409L182.981 159.558L298.038 180.355L299.334 173.206Z" fill="#E0E0E0"/>
<path d="M297.054 185.779L181.998 164.981L180.702 172.131L295.758 192.928L297.054 185.779Z" fill="#E0E0E0"/>
<path d="M289.236 228.912L174.179 208.115L172.883 215.264L287.94 236.061L289.236 228.912Z" fill="#E0E0E0"/>
<path d="M242.886 188.977L179.725 177.56L178.429 184.709L241.591 196.126L242.886 188.977Z" fill="#E0E0E0"/>
<path d="M313.379 80.5969L273.067 73.3102L271.771 80.4593L312.083 87.7461L313.379 80.5969Z" fill="#E0E0E0"/>
<path d="M309.754 92.3153L269.607 84.9515L268.297 92.0715L308.445 99.4353L309.754 92.3153Z" fill="#E0E0E0"/>
<path d="M293.728 100.939L268.871 96.4461L267.575 103.595L292.432 108.088L293.728 100.939Z" fill="#E0E0E0"/>
<path d="M368.858 26.5147L356.067 27.0344L354.682 30.6099C354.287 31.5414 354.075 32.54 354.058 33.5514C354.045 33.9986 354.157 34.4406 354.381 34.8279C354.605 35.2152 354.933 35.5325 355.328 35.7445C356.484 36.1127 357.695 36.278 358.908 36.233V37.2724L347.001 37.7089V36.6695C348.211 36.4603 349.313 35.8441 350.123 34.9234C351.355 33.2191 352.327 31.3416 353.007 29.3523L364.695 0.0207825H365.205L379.454 29.1236C380.842 31.8953 381.938 33.6276 382.743 34.3205C383.488 34.8932 384.405 35.1973 385.345 35.1832V36.1602L367.828 36.867V35.8796H368.556C369.582 35.9274 370.6 35.6822 371.492 35.1728C371.681 35.0284 371.83 34.8379 371.925 34.6196C372.02 34.4013 372.057 34.1623 372.033 33.9256C372.016 33.5918 371.95 33.2625 371.835 32.9485C371.835 32.7926 371.492 32.1274 370.95 30.9841L368.858 26.5147ZM367.87 24.5815L361.978 12.3375L356.92 25.018L367.87 24.5815Z" fill="#E0E0E0"/>
<path d="M393.081 102.038L334.578 121.551L350.202 168.26L408.704 148.747L393.081 102.038Z" fill="#F5F5F5"/>
<path d="M391.964 105.676L337.578 123.817L351.233 164.64L405.619 146.5L391.964 105.676Z" fill="#EBEBEB"/>
<path d="M351.227 164.649L361.739 132.948L378.809 144.89L383.961 133.748L405.62 146.512L351.227 164.649Z" fill="#E0E0E0"/>
<path d="M377.455 124.248C377.739 125.094 377.765 126.006 377.529 126.866C377.294 127.727 376.809 128.499 376.134 129.084C375.46 129.67 374.627 130.042 373.74 130.154C372.854 130.266 371.954 130.114 371.154 129.715C370.355 129.317 369.692 128.691 369.249 127.916C368.806 127.141 368.603 126.252 368.666 125.362C368.728 124.472 369.054 123.62 369.602 122.915C370.149 122.21 370.894 121.683 371.741 121.4C372.304 121.211 372.898 121.135 373.49 121.176C374.082 121.217 374.66 121.374 375.191 121.639C375.722 121.904 376.195 122.27 376.584 122.718C376.972 123.166 377.269 123.686 377.455 124.248Z" fill="#E0E0E0"/>
<path d="M394.704 47.7063L380.385 120.729L471.843 138.614L486.163 65.5918L394.704 47.7063Z" fill="#F5F5F5"/>
<path d="M486.18 65.606L485.733 65.5333L484.442 65.3046L479.467 64.3588L460.732 60.7625L394.671 47.9677L394.962 47.7702C390.705 69.5037 385.834 94.4178 380.672 120.787L380.453 120.454L471.9 138.405L471.629 138.581C475.99 116.609 479.602 98.3883 482.131 85.6558C483.412 79.2844 484.411 74.2849 485.098 70.8653C485.441 69.1607 485.701 67.8615 485.889 66.9572C486.076 66.053 486.18 65.606 486.18 65.606C486.18 65.606 486.107 66.053 485.941 66.9261C485.774 67.7991 485.535 69.1088 485.212 70.7926C484.556 74.2018 483.599 79.1908 482.381 85.5519C479.904 98.3363 476.355 116.619 472.087 138.675L472.035 138.904H471.817L380.307 121.016L380.037 120.964L380.089 120.693C385.293 94.3347 390.174 69.4206 394.442 47.687L394.494 47.4376L394.733 47.4895L460.94 60.5442L479.592 64.2652L484.515 65.3046L485.764 65.5645L486.18 65.606Z" fill="#E0E0E0"/>
<path d="M396.966 52.9326L384.451 116.755L469.484 133.384L482 69.5617L396.966 52.9326Z" fill="#EBEBEB"/>
<path d="M384.45 116.754L421.93 82.891L435.461 111.308L450.542 100.488L469.485 133.384L384.45 116.754Z" fill="#E0E0E0"/>
<path d="M449.096 83.1613C448.838 84.4854 448.192 85.7033 447.241 86.6611C446.29 87.6189 445.076 88.2734 443.752 88.5419C442.428 88.8104 441.055 88.6807 439.805 88.1694C438.555 87.658 437.485 86.7879 436.73 85.6692C435.976 84.5505 435.57 83.2333 435.565 81.8845C435.561 80.5356 435.956 79.2156 436.703 78.0915C437.45 76.9673 438.513 76.0896 439.759 75.5693C441.006 75.0489 442.378 74.9094 443.704 75.1684C444.584 75.3389 445.422 75.681 446.169 76.1752C446.916 76.6694 447.559 77.3059 448.06 78.0483C448.56 78.7907 448.91 79.6244 449.087 80.5018C449.265 81.3791 449.268 82.2829 449.096 83.1613Z" fill="#E0E0E0"/>
<path d="M42.8092 7.23413L47.545 62.3008L68.9339 68.0902L110.411 63.2674L104.572 1.27844L42.8092 7.23413Z" fill="#F5F5F5"/>
<path d="M54.0605 57.3533L47.5449 62.3008C50.0215 64.445 52.9172 66.0519 56.0485 67.0196C60.2345 68.1826 64.6047 68.5354 68.9235 68.059C68.9235 68.059 59.0461 66.3856 54.0605 57.3533Z" fill="#EBEBEB"/>
<path d="M99.5758 21.5673C99.5758 21.6712 89.0843 22.7625 76.126 24.0202C63.1677 25.2779 52.6346 26.2133 52.6242 26.099C52.6137 25.9846 63.1157 24.8725 76.0844 23.646C89.0531 22.4196 99.5654 21.4321 99.5758 21.5673Z" fill="#E0E0E0"/>
<path d="M100.19 30.0071C100.19 30.111 89.6983 31.2128 76.74 32.4704C63.7817 33.7281 53.2486 34.6531 53.2382 34.5492C53.2278 34.4453 63.7297 33.3435 76.6984 32.0858C89.6671 30.8282 100.179 29.8823 100.19 30.0071Z" fill="#E0E0E0"/>
<path d="M101.179 37.4803C101.179 37.5842 90.6872 38.6859 77.7289 39.9332C64.7706 41.1805 54.2478 42.1263 54.2374 42.012C54.227 41.8976 64.7185 40.8167 77.6872 39.559C90.6559 38.3014 101.168 37.3763 101.179 37.4803Z" fill="#E0E0E0"/>
<path d="M101.834 44.704C101.834 44.7975 91.3428 45.8993 78.3741 47.1569C65.4055 48.4146 54.8931 49.3501 54.8827 49.2357C54.8723 49.1214 65.3742 48.03 78.3429 46.7828C91.3116 45.5355 101.824 44.6001 101.834 44.704Z" fill="#E0E0E0"/>
<path d="M490 450.73C490 450.875 380.297 451 245.01 451C109.724 451 0 450.875 0 450.73C0 450.584 109.672 450.449 245.01 450.449C380.349 450.449 490 450.574 490 450.73Z" fill="#263238"/>
<path d="M29.4866 103.003L73.3678 353.932L258.406 324.912L266.982 304.228L216.918 72.1958L43.4753 82.5377L29.4866 103.003Z" fill="#E0E0E0"/>
<path opacity="0.3" d="M73.3678 353.932L86.5134 333.809L42.6322 82.8806L29.4866 103.003L73.3678 353.932Z" fill="black"/>
<path d="M42.6322 82.8806L86.5134 333.809L266.982 304.228L221.394 57.4157L42.6322 82.8806Z" fill="#FAFAFA"/>
<path d="M42.6322 82.891L221.352 57.2182H221.571V57.4261C234.363 126.348 250.204 211.775 267.253 304.176L267.305 304.457L267.024 304.509L264.047 304.997L86.555 334.1H86.3052V333.851C60.4928 185.645 43.0173 85.0945 42.6322 82.891C43.0173 85.1049 60.7009 185.614 86.7632 333.778L86.4718 333.581L263.953 304.478L266.93 303.989L266.701 304.311C249.652 211.9 233.894 126.472 221.165 57.4988L221.415 57.6755L42.6322 82.891Z" fill="#263238"/>
<path d="M186.701 201.484C188.909 184.691 177.067 169.29 160.251 167.084C143.434 164.879 128.012 176.705 125.804 193.498C123.595 210.291 135.438 225.693 152.254 227.898C169.07 230.103 184.493 218.277 186.701 201.484Z" fill="#FF4736"/>
<path d="M142.728 205.726L141.334 196.88L172.007 192.027L173.318 200.342C173.318 200.342 171.445 207.493 159.038 209.447C146.632 211.401 142.728 205.726 142.728 205.726Z" fill="white"/>
<path d="M136.494 196.932L158.382 200.809L177.367 190.145L155.447 186.695L136.494 196.932Z" fill="white"/>
<path d="M197.746 111.124L88.9866 128.287C87.6523 128.497 86.7416 129.748 86.9525 131.081L87.3196 133.401C87.5305 134.733 88.7831 135.643 90.1174 135.432L198.877 118.269C200.211 118.059 201.122 116.808 200.911 115.475L200.544 113.155C200.333 111.823 199.08 110.913 197.746 111.124Z" fill="#E0E0E0"/>
<path d="M180.54 129.2L111.566 140.085C110.232 140.295 109.321 141.546 109.532 142.879L109.899 145.199C110.11 146.531 111.363 147.441 112.697 147.23L181.67 136.346C183.005 136.135 183.915 134.884 183.705 133.552L183.337 131.232C183.126 129.899 181.874 128.99 180.54 129.2Z" fill="#E0E0E0"/>
<path d="M205.373 283.165L136.4 294.049C135.065 294.26 134.155 295.511 134.366 296.843L134.733 299.163C134.944 300.496 136.196 301.405 137.53 301.195L206.504 290.31C207.838 290.099 208.749 288.849 208.538 287.516L208.171 285.196C207.96 283.863 206.707 282.954 205.373 283.165Z" fill="#E0E0E0"/>
<path d="M257.688 311.203L256.813 311.369L254.232 311.816L244.251 313.479L207.187 319.549L81.9754 339.869L81.7048 339.921V339.651C79.9562 329.724 78.114 319.331 76.2405 308.739C66.1653 251.833 57.0893 200.342 50.5217 163.038C47.2639 144.392 44.6306 129.31 42.7987 118.875C41.9036 113.678 41.2063 109.614 40.7171 106.859C40.4881 105.487 40.3112 104.448 40.1863 103.741C40.0614 103.034 40.0302 102.702 40.0302 102.702C40.0302 102.702 40.1134 103.066 40.2487 103.741C40.384 104.417 40.5714 105.498 40.8212 106.859C41.3208 109.614 42.0494 113.657 42.9965 118.854C44.8596 129.248 47.5553 144.36 50.886 162.986C57.4952 200.279 66.6337 251.77 76.7193 308.666C78.5928 319.247 80.4246 329.652 82.1836 339.578L81.8609 339.349L207.114 319.206L244.199 313.302L254.19 311.733L256.782 311.338L257.688 311.203Z" fill="#263238"/>
<path d="M243.959 320.64L243.137 320.806L240.701 321.233L231.271 322.833L196.216 328.675L77.2501 348.34H76.9795V348.08L70.1412 311.005C59.9516 254.878 50.7298 204.104 44.0477 167.331C40.7379 148.954 38.0526 134.07 36.1999 123.78C35.2944 118.646 34.5762 114.655 34.1182 111.931C33.8893 110.591 33.7019 109.562 33.5874 108.813C33.4729 108.065 33.4209 107.774 33.4209 107.774C33.4209 107.774 33.5042 108.117 33.6395 108.813L34.2327 111.931C34.7323 114.644 35.4817 118.625 36.4393 123.749L44.4537 167.268C51.1774 204.042 60.4616 254.816 70.7137 310.912C73.0243 323.623 75.2933 336.065 77.4687 348.028L77.1564 347.81L196.133 328.332L231.209 322.646L240.649 321.139L243.095 320.765L243.959 320.64Z" fill="#263238"/>
<path d="M46.9933 189.137L42.9341 194.885L52.8011 254.005L58.6818 256.001L46.9933 189.137Z" fill="#263238"/>
<path d="M75.1775 184.223L47.0023 189.139L58.6993 255.998L86.8745 251.083L75.1775 184.223Z" fill="#263238"/>
<path d="M76.0754 181.62L74.2401 181.94C73.1925 182.123 72.4915 183.119 72.6743 184.165L84.5099 251.886C84.6928 252.932 85.6902 253.632 86.7379 253.45L88.5732 253.13C89.6208 252.947 90.3218 251.951 90.139 250.905L78.3034 183.184C78.1205 182.138 77.1231 181.438 76.0754 181.62Z" fill="#263238"/>
<path d="M69.1004 206.162L50.8131 216.556C49.5042 215.152 47.8726 214.086 46.0592 213.453C44.2458 212.819 42.3051 212.635 40.4048 212.918C38.3501 213.215 36.4094 214.045 34.7761 215.325C33.1428 216.605 31.874 218.29 31.0963 220.213C30.3186 222.135 30.0591 224.227 30.3437 226.281C30.6283 228.335 31.4471 230.278 32.7184 231.917C33.9897 233.556 35.6691 234.834 37.5891 235.623C39.5091 236.411 41.6026 236.684 43.6609 236.413C45.7192 236.141 47.6703 235.336 49.3197 234.077C50.9692 232.818 52.2592 231.149 53.0612 229.237L73.7008 232.521C73.9162 232.554 74.1362 232.535 74.3429 232.466C74.5496 232.398 74.7369 232.281 74.8894 232.125C75.0419 231.97 75.1552 231.781 75.22 231.573C75.2848 231.365 75.2992 231.145 75.2621 230.931L71.0988 207.139C71.0638 206.924 70.9778 206.721 70.8479 206.546C70.7181 206.372 70.5482 206.231 70.3525 206.135C70.1568 206.039 69.941 205.992 69.7231 205.996C69.5052 206.001 69.2917 206.058 69.1004 206.162V206.162Z" stroke="#455A64" stroke-width="2" stroke-miterlimit="10"/>
<path d="M84.3797 251.012C84.3106 250.795 84.2618 250.572 84.234 250.346C84.1403 249.848 84.0258 249.214 83.8697 248.434C83.5574 246.698 83.1203 244.276 82.5791 241.366C81.5382 235.348 80.0395 227.137 78.4158 218.063C76.7921 208.989 75.4078 200.757 74.3669 194.719C73.8778 191.787 73.4823 189.387 73.2012 187.64C73.0763 186.85 72.9827 186.206 72.9098 185.707C72.8611 185.485 72.8401 185.258 72.8473 185.031C72.9181 185.246 72.9738 185.464 73.0139 185.686C73.118 186.185 73.2533 186.819 73.4094 187.599C73.7425 189.335 74.2004 191.756 74.7521 194.656C75.8657 200.612 77.3541 208.854 78.9154 217.959C80.4766 227.064 81.9338 235.327 82.9121 241.304C83.4117 244.297 83.7864 246.719 84.0362 248.392C84.1507 249.234 84.2548 249.879 84.2964 250.336C84.3519 250.557 84.3799 250.784 84.3797 251.012Z" fill="#455A64"/>
<path d="M58.1197 256.24C58.058 256.018 58.0093 255.792 57.974 255.564C57.8803 255.076 57.7659 254.442 57.6201 253.652C57.2975 251.916 56.8603 249.494 56.3191 246.594C55.2783 240.566 53.7795 232.355 52.1558 223.281C50.5321 214.207 49.1582 205.975 48.107 199.947C47.6178 197.005 47.2223 194.604 46.9413 192.868C46.8164 192.068 46.7227 191.434 46.6498 190.935C46.601 190.71 46.58 190.48 46.5874 190.249C46.6663 190.465 46.7255 190.688 46.7643 190.914C46.858 191.413 46.9933 192.047 47.1494 192.827C47.4825 194.563 47.9405 196.984 48.4921 199.874C49.6058 205.84 51.0941 214.072 52.6554 223.187C54.2166 232.303 55.6738 240.545 56.6626 246.522C57.1518 249.515 57.5369 251.937 57.7763 253.621C57.8907 254.462 57.9948 255.107 58.0365 255.554C58.092 255.778 58.12 256.009 58.1197 256.24Z" fill="#455A64"/>
<path d="M177.346 190.156C176.893 190.502 176.413 190.811 175.91 191.081L171.892 193.44C168.478 195.415 163.743 198.107 158.497 201.059L158.403 201.111H158.31H158.091C152.106 200.071 146.642 199.032 142.791 198.315L138.159 197.411C137.586 197.323 137.022 197.183 136.473 196.995C137.053 197.021 137.63 197.087 138.201 197.192L142.853 197.93C146.788 198.575 152.221 199.51 158.195 200.57H158.403H158.216C163.472 197.629 168.239 194.989 171.747 193.097L175.858 190.894C176.33 190.602 176.828 190.355 177.346 190.156Z" fill="#263238"/>
<path d="M193.156 311.338H281.897V357.84H193.156C188.284 357.84 183.612 355.907 180.167 352.467C176.721 349.026 174.786 344.36 174.786 339.495V329.672C174.786 324.807 176.721 320.141 180.167 316.7C183.612 313.26 188.284 311.327 193.156 311.327V311.338Z" fill="#FF4736"/>
<path d="M258.697 311.338H445.859C446.667 311.338 447.443 311.659 448.015 312.23C448.587 312.801 448.908 313.575 448.908 314.383V315.973C448.908 316.781 448.587 317.556 448.015 318.127C447.443 318.698 446.667 319.019 445.859 319.019H258.697V311.296V311.338Z" fill="#FF4736"/>
<path d="M258.697 350.117H445.859C446.667 350.117 447.443 350.438 448.015 351.009C448.587 351.58 448.908 352.355 448.908 353.163V354.794C448.908 355.602 448.587 356.377 448.015 356.948C447.443 357.519 446.667 357.84 445.859 357.84H258.697V350.117Z" fill="#FF4736"/>
<path d="M443.236 350.128H279.92C277.877 350.128 275.854 349.726 273.967 348.945C272.079 348.164 270.365 347.019 268.921 345.576C267.476 344.133 266.331 342.42 265.55 340.534C264.77 338.649 264.368 336.629 264.37 334.589C264.37 330.47 266.008 326.521 268.924 323.609C271.84 320.696 275.796 319.06 279.92 319.06H443.236C441.072 323.954 439.954 329.245 439.954 334.594C439.954 339.943 441.072 345.234 443.236 350.128Z" fill="#F5F5F5"/>
<path opacity="0.3" d="M264.37 357.85H193.51C188.541 357.85 183.776 355.879 180.263 352.37C176.749 348.862 174.775 344.103 174.775 339.141V329.901C174.775 324.978 176.734 320.256 180.22 316.775C183.706 313.293 188.434 311.338 193.365 311.338H266.129C249.278 321.544 250.537 345.97 264.37 357.85Z" fill="black"/>
<path d="M423.398 336.033C423.398 336.189 389.873 336.314 348.531 336.314C307.189 336.314 273.664 336.189 273.664 336.033C273.664 335.878 307.179 335.753 348.531 335.753C389.883 335.753 423.398 335.878 423.398 336.033Z" fill="#263238"/>
<path d="M438.802 342.935C438.802 343.091 405.277 343.216 363.935 343.216C322.594 343.216 289.069 343.091 289.069 342.935C289.069 342.779 322.583 342.665 363.935 342.665C405.287 342.665 438.802 342.79 438.802 342.935Z" fill="#263238"/>
<path d="M434.264 326.243C434.264 326.398 400.739 326.523 359.397 326.523C318.056 326.523 284.52 326.398 284.52 326.243C284.52 326.087 318.035 325.962 359.397 325.962C400.76 325.962 434.264 326.107 434.264 326.243Z" fill="#263238"/>
<path d="M256.168 354.587C256.168 354.742 240.472 354.867 221.123 354.867C201.775 354.867 186.079 354.742 186.079 354.587C186.079 354.431 201.764 354.306 221.123 354.306C240.483 354.306 256.168 354.431 256.168 354.587Z" fill="#263238"/>
<path d="M256.168 315.204C256.168 315.36 240.472 315.485 221.123 315.485C201.775 315.485 186.079 315.36 186.079 315.204C186.079 315.048 201.764 314.924 221.123 314.924C240.483 314.924 256.168 315.048 256.168 315.204Z" fill="#263238"/>
<path d="M153.969 390.487H273.55V450.376H153.969C149.097 450.376 144.425 448.444 140.979 445.003C137.534 441.563 135.599 436.897 135.599 432.031V408.822C135.599 403.956 137.534 399.29 140.979 395.85C144.425 392.409 149.097 390.477 153.969 390.477V390.487Z" fill="#FF4736"/>
<path d="M243.668 390.487H485.597C486.406 390.487 487.182 390.808 487.754 391.379C488.326 391.95 488.647 392.725 488.647 393.532V397.388C488.647 398.196 488.326 398.971 487.754 399.542C487.182 400.113 486.406 400.434 485.597 400.434H243.668V390.487Z" fill="#FF4736"/>
<path d="M243.668 440.429H485.597C486.406 440.429 487.182 440.75 487.754 441.321C488.326 441.893 488.647 442.667 488.647 443.475V447.331C488.647 448.139 488.326 448.913 487.754 449.484C487.182 450.056 486.406 450.376 485.597 450.376H243.668V440.429Z" fill="#FF4736"/>
<path d="M481.33 440.44H271.021C265.709 440.437 260.615 438.328 256.86 434.576C253.105 430.824 250.995 425.736 250.995 420.432C250.995 417.805 251.513 415.205 252.519 412.779C253.526 410.353 255.001 408.148 256.86 406.291C258.72 404.434 260.928 402.961 263.357 401.956C265.787 400.951 268.391 400.434 271.021 400.434H481.33C478.54 406.735 477.099 413.548 477.099 420.437C477.099 427.326 478.54 434.139 481.33 440.44Z" fill="#F5F5F5"/>
<path opacity="0.3" d="M250.974 450.376H153.73C151.349 450.376 148.992 449.908 146.793 448.998C144.594 448.088 142.596 446.754 140.913 445.073C139.23 443.391 137.896 441.395 136.986 439.198C136.075 437.002 135.608 434.648 135.609 432.27V409.258C135.609 404.296 137.583 399.538 141.096 396.029C144.61 392.52 149.375 390.549 154.344 390.549H253.222C231.542 403.625 233.166 435.087 250.974 450.376Z" fill="black"/>
<path d="M455.778 422.292C455.778 422.448 412.604 422.573 359.366 422.573C306.128 422.573 262.944 422.448 262.944 422.292C262.944 422.136 306.107 422.011 359.366 422.011C412.625 422.011 455.778 422.136 455.778 422.292Z" fill="#263238"/>
<path d="M475.626 431.179C475.626 431.335 432.453 431.46 379.204 431.46C325.955 431.46 282.782 431.335 282.782 431.179C282.782 431.023 325.945 430.909 379.204 430.909C432.463 430.909 475.626 431.085 475.626 431.179Z" fill="#263238"/>
<path d="M469.818 414.039C469.818 414.195 426.655 414.32 373.407 414.32C320.158 414.32 276.985 414.195 276.985 414.039C276.985 413.884 320.148 413.759 373.407 413.759C426.666 413.759 469.818 413.884 469.818 414.039Z" fill="#263238"/>
<path d="M240.41 446.177C240.41 446.333 220.208 446.458 195.28 446.458C170.352 446.458 150.15 446.333 150.15 446.177C150.15 446.021 170.352 445.907 195.28 445.907C220.208 445.907 240.41 446.032 240.41 446.177Z" fill="#263238"/>
<path d="M240.41 395.466C240.41 395.611 220.208 395.736 195.28 395.736C170.352 395.736 150.15 395.611 150.15 395.466C150.15 395.32 170.352 395.185 195.28 395.185C220.208 395.185 240.41 395.31 240.41 395.466Z" fill="#263238"/>
<path d="M210.84 356.416H309.365V390.716H210.84C207.251 390.716 203.81 389.292 201.272 386.758C198.735 384.224 197.309 380.787 197.309 377.204V369.928C197.309 366.344 198.735 362.907 201.272 360.373C203.81 357.839 207.251 356.416 210.84 356.416Z" fill="#455A64"/>
<path d="M285.093 356.416H480.934C481.782 356.416 482.595 356.752 483.194 357.35C483.793 357.949 484.13 358.761 484.13 359.607V361.311C484.13 362.158 483.793 362.969 483.194 363.568C482.595 364.166 481.782 364.502 480.934 364.502H285.093V356.426V356.416Z" fill="#455A64"/>
<path d="M285.093 382.629H480.934C481.782 382.629 482.595 382.965 483.194 383.564C483.793 384.162 484.13 384.974 484.13 385.82V387.525C484.13 388.371 483.793 389.183 483.194 389.781C482.595 390.379 481.782 390.716 480.934 390.716H285.093V382.64V382.629Z" fill="#455A64"/>
<path d="M478.145 382.629H300.164C297.756 382.629 295.446 381.675 293.742 379.975C292.039 378.276 291.08 375.97 291.077 373.566C291.077 371.159 292.035 368.851 293.739 367.15C295.443 365.448 297.754 364.492 300.164 364.492H478.145C473.593 370.541 473.593 376.587 478.145 382.629Z" fill="#F5F5F5"/>
<path opacity="0.3" d="M291.025 390.705H210.882C209.092 390.705 207.319 390.353 205.665 389.669C204.012 388.984 202.509 387.981 201.244 386.717C199.979 385.452 198.976 383.951 198.291 382.299C197.607 380.647 197.256 378.877 197.257 377.089V370.312C197.256 368.488 197.615 366.681 198.313 364.995C199.011 363.309 200.035 361.777 201.326 360.487C202.618 359.196 204.151 358.172 205.839 357.474C207.527 356.775 209.336 356.416 211.163 356.416H292.878C275.236 363.941 276.558 381.954 291.025 390.705Z" fill="black"/>
<path d="M457.422 372.131C457.422 372.287 422.346 372.412 379.09 372.412C335.833 372.412 300.757 372.287 300.757 372.131C300.757 371.975 335.822 371.861 379.09 371.861C422.357 371.861 457.422 371.986 457.422 372.131Z" fill="#263238"/>
<path d="M473.544 377.037C473.544 377.193 438.469 377.318 395.212 377.318C351.955 377.318 316.879 377.193 316.879 377.037C316.879 376.881 351.945 376.757 395.212 376.757C438.479 376.757 473.544 376.861 473.544 377.037Z" fill="#263238"/>
<path d="M282.47 387.296C282.47 387.452 266.056 387.577 245.801 387.577C225.547 387.577 209.133 387.452 209.133 387.296C209.133 387.14 225.547 387.015 245.801 387.015C266.056 387.015 282.47 387.14 282.47 387.296Z" fill="#263238"/>
<path d="M282.47 360.459C282.47 360.615 266.056 360.729 245.801 360.729C225.547 360.729 209.133 360.615 209.133 360.459C209.133 360.303 225.547 360.178 245.801 360.178C266.056 360.178 282.47 360.303 282.47 360.459Z" fill="#263238"/>
<path d="M481.788 356.416C481.788 356.572 421.555 356.697 347.282 356.697C273.009 356.697 212.734 356.572 212.734 356.416C212.734 356.26 272.946 356.135 347.251 356.135C421.555 356.135 481.788 356.25 481.788 356.416Z" fill="#263238"/>
<path d="M373.781 325.733V344.359L380.245 340.212L387.447 344.359V325.733H373.781Z" fill="#FFDE32"/>
<path d="M439.468 140.858L406.921 167.923L357.42 265.594L388.28 279.522L436.429 183.732L439.468 140.858Z" fill="#FFDE32"/>
<g opacity="0.7">
<path opacity="0.7" d="M436.429 183.711C436.052 183.805 435.658 183.809 435.279 183.725C434.899 183.641 434.545 183.471 434.242 183.227C433.94 182.984 433.698 182.674 433.536 182.321C433.373 181.969 433.295 181.584 433.306 181.196C432.279 182.39 430.904 183.232 429.373 183.604C427.842 183.976 426.233 183.86 424.772 183.271C423.31 182.683 422.071 181.652 421.227 180.323C420.383 178.994 419.977 177.435 420.067 175.864C418.695 176.602 417.152 176.961 415.595 176.907C414.039 176.853 412.524 176.386 411.208 175.554C409.891 174.723 408.82 173.557 408.103 172.176C407.386 170.795 407.05 169.248 407.129 167.695L439.395 140.826L436.429 183.711Z" fill="white"/>
</g>
<path d="M426.374 151.75C426.374 151.75 426.874 159.837 438.219 158.423L439.468 140.858L426.374 151.75Z" fill="#333333"/>
<path opacity="0.3" d="M420.108 175.895L372.387 271.82L357.42 265.584L406.921 167.882L407.171 167.674C407.097 168.976 407.325 170.278 407.837 171.478C408.521 173.053 409.631 174.407 411.043 175.386C412.776 176.569 414.881 177.082 416.965 176.831C418.061 176.713 419.127 176.396 420.108 175.895Z" fill="black"/>
<path opacity="0.3" d="M433.389 181.227L384.367 277.734L388.322 279.522L436.429 183.711C435.776 183.83 435.102 183.702 434.539 183.352C433.975 183.003 433.562 182.457 433.379 181.82C433.363 181.622 433.367 181.424 433.389 181.227Z" fill="black"/>
<path d="M419.859 166.582C419.757 166.702 419.698 166.852 419.692 167.009C419.694 167.236 419.78 167.454 419.934 167.621C420.088 167.788 420.298 167.892 420.525 167.913C421.263 167.945 421.993 167.741 422.607 167.331C422.995 167.103 423.304 166.762 423.491 166.354C423.595 166.133 423.64 165.889 423.624 165.645C423.608 165.402 423.53 165.166 423.398 164.961C423.226 164.748 423.011 164.574 422.767 164.451C422.523 164.327 422.255 164.257 421.982 164.244C421.38 164.191 420.773 164.226 420.181 164.348C418.856 164.568 417.591 165.06 416.466 165.792C416.165 165.977 415.907 166.224 415.71 166.516C415.512 166.808 415.38 167.139 415.321 167.487C415.305 167.85 415.38 168.212 415.538 168.541C415.696 168.869 415.932 169.153 416.226 169.368C416.91 169.761 417.666 170.012 418.449 170.109C419.232 170.205 420.026 170.144 420.785 169.929C422.291 169.613 423.681 168.889 424.803 167.837C425.924 166.785 426.734 165.444 427.145 163.963C427.215 163.636 427.208 163.296 427.125 162.972C427.042 162.647 426.885 162.346 426.666 162.092C426.224 161.62 425.674 161.264 425.063 161.053C423.963 160.651 422.808 160.419 421.639 160.367C419.933 160.277 418.227 160.532 416.622 161.115C416.06 161.323 415.581 161.521 415.342 161.656C415.102 161.791 414.904 161.864 414.904 161.864C415.436 161.527 416.001 161.245 416.591 161.022C418.199 160.407 419.917 160.128 421.639 160.201C422.832 160.241 424.011 160.465 425.136 160.866C425.779 161.087 426.357 161.461 426.822 161.957C427.067 162.238 427.243 162.572 427.337 162.933C427.431 163.294 427.44 163.671 427.363 164.036C426.825 165.965 425.636 167.649 423.997 168.803C422.358 169.956 420.37 170.509 418.37 170.366C417.551 170.323 416.76 170.05 416.091 169.576C415.756 169.345 415.485 169.033 415.303 168.67C415.121 168.307 415.034 167.903 415.05 167.497C415.114 167.118 415.259 166.756 415.475 166.437C415.69 166.118 415.971 165.849 416.299 165.647C417.453 164.9 418.751 164.401 420.109 164.181C420.723 164.066 421.35 164.038 421.972 164.098C422.267 164.116 422.556 164.197 422.818 164.335C423.08 164.473 423.31 164.665 423.491 164.899C423.635 165.128 423.719 165.39 423.736 165.661C423.752 165.932 423.7 166.202 423.585 166.447C423.383 166.883 423.053 167.245 422.638 167.487C422.004 167.894 421.256 168.088 420.504 168.038C420.26 168.014 420.034 167.899 419.872 167.716C419.71 167.532 419.623 167.295 419.63 167.05C419.682 166.666 419.859 166.572 419.859 166.582Z" fill="white"/>
<path d="M437.324 166.042C437.324 166.042 436.845 165.969 435.992 166.042C434.776 166.122 433.587 166.439 432.494 166.977C430.886 167.801 429.378 168.805 427.998 169.971C426.318 171.447 424.405 172.634 422.336 173.484C420.202 174.217 417.899 174.303 415.716 173.733C413.939 173.265 412.305 172.365 410.96 171.114C410.048 170.251 409.292 169.239 408.722 168.121C408.505 167.729 408.324 167.318 408.181 166.894C408.24 166.991 408.292 167.092 408.337 167.196C408.43 167.404 408.587 167.705 408.795 168.079C409.404 169.13 410.173 170.08 411.074 170.896C412.409 172.109 414.021 172.98 415.768 173.432C417.914 173.97 420.17 173.877 422.263 173.162C424.305 172.323 426.197 171.158 427.863 169.711C429.256 168.54 430.787 167.542 432.422 166.738C433.533 166.199 434.746 165.898 435.981 165.855C436.435 165.86 436.886 165.923 437.324 166.042Z" fill="white"/>
<path d="M437.136 175.781C436.54 175.177 435.746 174.808 434.899 174.742C432.842 174.723 430.795 175.025 428.831 175.635C426.84 176.171 424.903 176.888 423.044 177.777C422.325 178.12 421.763 178.421 421.368 178.618C421.174 178.742 420.968 178.846 420.754 178.93C420.935 178.789 421.127 178.66 421.326 178.546C421.701 178.317 422.263 177.984 422.971 177.631C424.819 176.688 426.763 175.942 428.768 175.407C429.87 175.105 430.989 174.869 432.12 174.7C433.043 174.531 433.985 174.493 434.919 174.586C435.557 174.654 436.163 174.898 436.668 175.292C436.847 175.432 437.005 175.596 437.136 175.781Z" fill="white"/>
<path d="M423.626 182.672C423.943 182.343 424.291 182.047 424.667 181.789C425.595 181.108 426.661 180.64 427.79 180.417C428.355 180.301 428.939 180.314 429.499 180.452C430.059 180.59 430.581 180.852 431.027 181.217C431.292 181.442 431.514 181.713 431.682 182.017C431.745 182.127 431.788 182.246 431.807 182.371C431.567 181.982 431.269 181.631 430.923 181.331C430.482 181 429.975 180.766 429.437 180.646C428.898 180.526 428.34 180.522 427.8 180.635C426.716 180.863 425.687 181.3 424.771 181.924C424.405 182.195 424.022 182.445 423.626 182.672Z" fill="white"/>
<path d="M438.177 160.169C438.131 160.221 438.078 160.266 438.021 160.305C437.917 160.377 437.761 160.492 437.542 160.627C437.289 160.806 437.002 160.933 436.699 161.001C436.29 161.073 435.869 161.049 435.471 160.928C434.586 160.731 433.598 160.284 432.484 159.889C431.276 159.479 430.037 159.17 428.779 158.964C426.473 158.63 424.145 158.473 421.816 158.496H419.734C419.474 158.522 419.213 158.522 418.953 158.496L419.734 158.434L421.816 158.361C424.154 158.287 426.495 158.423 428.81 158.766C430.086 158.968 431.34 159.288 432.557 159.722C433.681 160.117 434.638 160.575 435.513 160.762C435.839 160.88 436.188 160.921 436.532 160.883C436.877 160.845 437.208 160.729 437.501 160.544C437.72 160.408 437.946 160.283 438.177 160.169Z" fill="white"/>
<path d="M472.67 248.434V333.57C472.691 333.734 472.77 333.884 472.894 333.993C473.017 334.102 473.177 334.162 473.342 334.162C473.507 334.162 473.666 334.102 473.789 333.993C473.913 333.884 473.993 333.734 474.013 333.57V248.434C473.993 248.271 473.913 248.12 473.789 248.011C473.666 247.902 473.507 247.842 473.342 247.842C473.177 247.842 473.017 247.902 472.894 248.011C472.77 248.12 472.691 248.271 472.67 248.434Z" fill="#FF4736"/>
<path d="M478.145 314.809C478.145 315.759 477.863 316.687 477.335 317.477C476.806 318.267 476.055 318.882 475.177 319.246C474.298 319.609 473.331 319.704 472.398 319.519C471.466 319.334 470.609 318.876 469.936 318.205C469.264 317.533 468.806 316.678 468.62 315.746C468.435 314.815 468.53 313.849 468.894 312.972C469.258 312.094 469.874 311.344 470.665 310.817C471.456 310.289 472.385 310.007 473.336 310.007C474.612 310.007 475.835 310.513 476.737 311.414C477.638 312.314 478.145 313.536 478.145 314.809Z" fill="#FF4736"/>
<path d="M472.004 317.293C472.004 317.293 468.497 320.796 467.445 331.055C466.394 341.314 466.165 346.438 466.165 346.438L475.616 347.02V339.682C475.616 340.025 477.489 345.159 477.489 345.159L484.962 342.706C484.962 342.706 482.308 315.433 472.004 317.293Z" fill="#FF4736"/>
<path d="M422.846 255.398H262.351V313.177H422.846V255.398Z" fill="#263238"/>
<path d="M479.217 245.451H204.699V255.398H479.217V245.451Z" fill="#263238"/>
<path opacity="0.3" d="M262.351 296.786C262.351 296.786 311.103 279.325 342.598 272.88C374.094 266.436 422.846 268.577 422.846 268.577V255.429H262.351V296.786Z" fill="black"/>
<path opacity="0.3" d="M303.994 245.451H204.699V255.398H303.994V245.451Z" fill="black"/>
<path d="M477.229 255.429C477.229 255.585 416.185 255.71 340.881 255.71C265.577 255.71 204.533 255.585 204.533 255.429C204.533 255.273 265.556 255.159 340.881 255.159C416.205 255.159 477.229 255.252 477.229 255.429Z" fill="#455A64"/>
<path d="M303.838 255.481C303.463 252.124 303.463 248.735 303.838 245.378C304.199 248.736 304.199 252.123 303.838 255.481Z" fill="#455A64"/>
<path d="M326.726 313.188C326.58 313.188 326.455 301.91 326.455 288.003C326.455 274.096 326.58 262.83 326.726 262.83C326.871 262.83 327.007 274.096 327.007 288.003C327.007 301.91 326.882 313.188 326.726 313.188Z" fill="#455A64"/>
<path d="M94.5487 384.147L113.003 376.705L127.095 339.942L145.882 349.608C145.882 349.608 144.071 353.235 140.189 362.226C138.68 365.687 133.715 375.364 131.696 380.072C129.827 384.425 126.749 388.153 122.826 390.815C118.903 393.476 114.298 394.96 109.557 395.091L92.238 395.538L94.5487 384.147Z" fill="#FFBF9D"/>
<path d="M85.3789 377.037L82.6311 374.106C82.0972 373.757 81.4687 373.579 80.8305 373.597L72.0043 373.867C71.1803 373.947 70.3848 374.21 69.6767 374.638C68.9686 375.067 68.3661 375.648 67.9138 376.341L64.6977 381.798C64.6977 381.798 62.5432 385.529 62.8138 386.444C62.9343 386.823 63.1914 387.145 63.5355 387.347C63.8795 387.548 64.2862 387.615 64.6769 387.535C64.6769 387.535 64.9891 389.26 65.5616 389.614C65.893 389.78 66.2547 389.878 66.625 389.902C66.9953 389.925 67.3664 389.873 67.7161 389.749C67.8679 390.076 68.1149 390.351 68.4249 390.536C68.7349 390.721 69.0936 390.809 69.4543 390.788C69.609 390.774 69.7623 390.746 69.9122 390.705C70.9531 390.383 71.4318 388.356 71.4318 388.356L75.9074 387.535C75.9074 387.535 82.3397 391.828 84.6087 394.634C86.8777 397.44 92.8104 395.299 92.8104 395.299L95.0274 384.698L85.3789 377.037Z" fill="#FFBF9D"/>
<path d="M78.8738 378.295C78.246 378.489 77.5948 378.597 76.9379 378.617C75.7201 378.752 74.0027 378.804 72.0564 379.054L72.2646 378.898C71.93 379.616 71.5475 380.31 71.1197 380.977C69.9443 382.839 68.515 384.528 66.8731 385.997C66.2281 386.644 65.4786 387.178 64.6561 387.577C64.6561 387.504 65.4367 386.88 66.6025 385.706C68.1332 384.186 69.491 382.503 70.6513 380.686C71.078 379.989 71.4631 379.303 71.7858 378.607L71.8482 378.472H71.9939C73.9819 378.253 75.6993 378.274 76.917 378.233C77.5697 378.186 78.2255 378.207 78.8738 378.295Z" fill="#FF9A6C"/>
<path d="M79.0716 382.504C78.5508 382.758 77.9848 382.907 77.4063 382.941C75.9688 383.14 74.5078 383.09 73.0869 382.795L73.4095 382.619C73.2223 383.163 73.0069 383.697 72.7642 384.219C71.9594 385.878 70.8305 387.358 69.444 388.574C68.9027 389.11 68.2583 389.531 67.5497 389.811C68.0633 389.274 68.6053 388.764 69.1734 388.283C70.4565 387.037 71.513 385.578 72.2958 383.97C72.5365 383.473 72.7485 382.963 72.9307 382.442L73.014 382.213H73.243C75.1639 382.572 77.1245 382.67 79.0716 382.504Z" fill="#FF9A6C"/>
<path d="M90.2916 384.677L82.4126 381.018C81.3553 380.43 80.184 380.076 78.9779 379.979C77.6878 380.092 76.4429 380.508 75.3454 381.195L71.0988 383.378C70.8698 383.502 70.62 383.648 70.5472 383.887C70.4743 384.126 70.6721 384.542 70.9115 384.781C72.0076 385.816 73.4422 386.421 74.9499 386.482C76.4576 386.543 77.9366 386.057 79.1132 385.113C79.6882 386.987 80.5863 388.745 81.7673 390.31C82.3712 391.095 83.1673 391.711 84.0788 392.098C84.9904 392.486 85.9866 392.633 86.9714 392.524" fill="#FFBF9D"/>
<path d="M86.9506 392.628C86.8852 392.66 86.8148 392.681 86.7425 392.69C86.5312 392.743 86.3147 392.77 86.0972 392.774C85.2703 392.777 84.4554 392.577 83.7241 392.192C82.5913 391.6 81.6306 390.726 80.9347 389.655C80.0709 388.28 79.3722 386.808 78.853 385.269L79.2485 385.363C78.6164 385.893 77.8852 386.293 77.0973 386.539C76.3095 386.785 75.4805 386.873 74.6585 386.797C73.7648 386.736 72.8932 386.492 72.098 386.08C71.6909 385.865 71.3102 385.603 70.9635 385.3C70.7757 385.146 70.6048 384.971 70.4535 384.781C70.3554 384.662 70.2849 384.523 70.2471 384.374C70.2093 384.225 70.2052 384.069 70.235 383.918C70.2688 383.794 70.3279 383.678 70.4085 383.578C70.4891 383.478 70.5894 383.396 70.7033 383.336C70.8907 383.222 71.0468 383.149 71.2133 383.055L72.1917 382.556L74.1173 381.517C75.3134 380.817 76.5887 380.263 77.9163 379.864C79.1908 379.635 80.5055 379.836 81.6528 380.436C82.6937 380.914 83.7345 381.392 84.5671 381.818L88.7305 383.897C89.2535 384.133 89.7581 384.407 90.2396 384.718C89.6889 384.555 89.1528 384.347 88.6368 384.095L84.3694 382.213L81.4343 380.904C80.3762 380.362 79.1669 380.19 77.9995 380.415C76.7189 380.815 75.4894 381.363 74.3358 382.047L72.4207 383.087L71.4423 383.596C71.1093 383.762 70.7554 383.928 70.7346 384.095C70.7137 384.261 70.974 384.666 71.2966 384.926C71.6144 385.202 71.9638 385.439 72.3374 385.633C73.0654 386.01 73.8618 386.236 74.6793 386.298C76.2 386.446 77.7178 385.991 78.9051 385.03L79.1757 384.801L79.2902 385.134C79.7753 386.647 80.4281 388.1 81.2365 389.468C81.8736 390.506 82.7611 391.367 83.8178 391.973C84.7781 392.486 85.8652 392.713 86.9506 392.628Z" fill="#FF9A6C"/>
<path d="M192.751 281.694C192.823 275.791 193.791 269.908 193.521 264.025C193.25 258.142 191.741 251.978 187.619 247.748C183.498 243.518 176.306 241.917 171.518 245.295L170.477 250.326C172.371 273.088 172.121 296.215 174.016 318.977C174.266 321.971 176.691 324.683 178.054 327.355C179.418 330.026 182.155 332.24 185.153 332.053C189.076 331.814 191.647 327.843 192.865 324.101C197.341 310.579 192.574 295.965 192.751 281.694Z" fill="#263238"/>
<path d="M178.533 251.085C177.743 249.585 176.729 248.214 175.525 247.021C174.918 246.427 174.183 245.978 173.378 245.708C172.572 245.438 171.715 245.354 170.872 245.461C170.475 245.511 170.098 245.661 169.775 245.897C169.452 246.134 169.196 246.449 169.03 246.813C168.77 247.561 169.332 248.569 170.123 248.496L170.29 248.642C172.059 250.208 173.86 251.736 175.691 253.226C176.129 253.633 176.641 253.951 177.201 254.161C177.482 254.263 177.786 254.285 178.079 254.222C178.372 254.16 178.641 254.016 178.856 253.808C179.511 253.08 179.032 251.926 178.533 251.085Z" fill="#FFDE32"/>
<path d="M181.874 256.884C175.983 249.692 168.073 245.545 158.768 245.451C153.563 245.358 151.346 246.49 147.568 247.467C143.785 248.38 140.441 250.586 138.118 253.704C135.443 257.498 133.194 261.749 132.684 266.374C132.018 271.1 131.791 275.877 132.008 280.645C132.226 285.436 133.768 290.073 136.463 294.042L148.578 296.121C155.27 296.35 162.057 296.568 168.583 295.082C175.109 293.595 181.437 290.051 184.924 284.345C189.774 276.362 187.755 264.066 181.874 256.884Z" fill="#263238"/>
<path d="M171.101 256.801L154.948 250.388L150.722 250.877C141.23 250.877 134.672 261.374 134.61 269.045C134.548 277.589 134.797 288.004 136.15 294.292C138.888 306.941 149.681 307.991 149.681 307.991C149.681 307.991 149.463 314.737 149.379 318.977L174.12 317.2L175.358 261.135C175.321 260.012 174.863 258.943 174.075 258.141C173.286 257.338 172.225 256.86 171.101 256.801Z" fill="#FFBF9D"/>
<path d="M155.145 291.33C155.046 290.683 154.712 290.095 154.209 289.677C153.751 289.283 153.175 289.05 152.572 289.014C151.968 288.979 151.369 289.142 150.868 289.479C150.347 289.88 149.943 290.412 149.696 291.02C149.449 291.628 149.368 292.291 149.463 292.941C149.741 293.331 150.099 293.657 150.514 293.897C150.929 294.137 151.39 294.286 151.867 294.333C152.016 294.344 152.165 294.344 152.314 294.333C153.087 294.349 153.834 294.062 154.396 293.533C154.679 293.246 154.893 292.898 155.023 292.517C155.152 292.135 155.194 291.729 155.145 291.33Z" fill="#FF9A6C"/>
<path d="M138.888 279.844C138.904 280.272 139.088 280.676 139.399 280.969C139.711 281.263 140.125 281.422 140.553 281.414C140.763 281.418 140.971 281.38 141.166 281.304C141.361 281.227 141.538 281.112 141.688 280.966C141.838 280.82 141.958 280.646 142.04 280.453C142.122 280.26 142.165 280.054 142.166 279.844C142.145 279.417 141.958 279.015 141.646 278.722C141.333 278.429 140.919 278.269 140.491 278.275C140.282 278.271 140.074 278.308 139.88 278.385C139.685 278.462 139.508 278.577 139.359 278.723C139.21 278.87 139.091 279.044 139.01 279.236C138.929 279.429 138.888 279.636 138.888 279.844Z" fill="#263238"/>
<path d="M137.503 273.317C137.712 273.514 138.909 272.537 140.626 272.444C142.343 272.35 143.748 273.161 143.915 272.932C144.082 272.704 143.769 272.454 143.186 272.08C142.394 271.594 141.471 271.365 140.543 271.425C139.626 271.471 138.748 271.805 138.034 272.382C137.556 272.828 137.389 273.223 137.503 273.317Z" fill="#263238"/>
<path d="M148.828 287.13C147.883 286.883 146.911 286.76 145.934 286.767C145.487 286.767 145.049 286.683 144.956 286.372C144.899 285.912 144.979 285.446 145.185 285.031C145.549 283.919 145.934 282.755 146.33 281.528C147.912 276.56 149.036 272.475 148.828 272.413C148.62 272.35 147.183 276.331 145.601 281.31L144.56 284.823C144.304 285.38 144.256 286.011 144.425 286.6C144.497 286.755 144.604 286.891 144.738 286.998C144.871 287.104 145.028 287.178 145.195 287.214C145.448 287.268 145.707 287.289 145.965 287.276C146.922 287.34 147.883 287.291 148.828 287.13Z" fill="#263238"/>
<path d="M149.66 307.98C155.682 307.743 161.52 305.839 166.522 302.482C166.522 302.482 162.452 311.577 149.598 311.088L149.66 307.98Z" fill="#FF9A6C"/>
<path d="M154.084 288.056C153.803 288.056 153.897 289.968 152.335 291.413C150.774 292.857 148.724 292.764 148.724 293.034C148.724 293.304 149.202 293.377 150.056 293.356C151.182 293.312 152.255 292.87 153.085 292.109C153.879 291.382 154.36 290.376 154.427 289.303C154.448 288.502 154.219 288.045 154.084 288.056Z" fill="#263238"/>
<path d="M138.097 267.153C138.419 267.559 139.752 267.205 141.334 267.247C142.916 267.288 144.248 267.631 144.581 267.247C144.727 267.049 144.529 266.644 143.957 266.208C143.183 265.705 142.278 265.441 141.355 265.449C140.431 265.424 139.521 265.666 138.732 266.145C138.159 266.54 137.961 266.946 138.097 267.153Z" fill="#263238"/>
<path d="M158.133 279.408C158.141 279.835 157.983 280.248 157.692 280.56C157.4 280.873 156.998 281.06 156.571 281.081C156.363 281.101 156.153 281.079 155.954 281.017C155.754 280.955 155.569 280.854 155.409 280.719C155.249 280.585 155.117 280.42 155.022 280.234C154.927 280.048 154.87 279.845 154.854 279.636C154.845 279.21 155.002 278.797 155.291 278.483C155.58 278.169 155.979 277.979 156.405 277.953C156.614 277.933 156.826 277.955 157.027 278.017C157.228 278.08 157.414 278.182 157.575 278.318C157.736 278.453 157.868 278.619 157.964 278.807C158.06 278.994 158.117 279.198 158.133 279.408Z" fill="#263238"/>
<path d="M161.359 272.631C161.161 272.849 159.902 271.955 158.133 271.987C156.363 272.018 155.093 272.932 154.896 272.714C154.698 272.496 155 272.236 155.562 271.81C156.314 271.268 157.216 270.974 158.143 270.968C159.061 270.948 159.962 271.221 160.714 271.747C161.266 272.153 161.463 272.537 161.359 272.631Z" fill="#263238"/>
<path d="M160.298 266.997C159.965 267.403 158.591 266.997 156.957 266.997C155.323 266.997 153.928 267.32 153.605 266.904C153.459 266.706 153.678 266.301 154.271 265.865C155.094 265.383 156.035 265.142 156.988 265.168C157.934 265.157 158.863 265.421 159.663 265.927C160.256 266.384 160.454 266.8 160.298 266.997Z" fill="#263238"/>
<path d="M173.183 282.567C173.183 281.622 174.109 279.325 175.046 279.127C177.534 278.597 182.061 278.545 182.457 284.906C182.998 293.606 174.13 292.348 174.13 292.099C174.13 291.849 173.339 285.852 173.183 282.567Z" fill="#FFBF9D"/>
<path d="M176.306 288.773C176.306 288.773 176.462 288.877 176.722 288.97C177.089 289.119 177.5 289.119 177.867 288.97C178.762 288.575 179.449 287.068 179.397 285.499C179.371 284.752 179.179 284.02 178.835 283.357C178.737 283.09 178.575 282.85 178.362 282.66C178.15 282.469 177.894 282.334 177.617 282.266C177.441 282.231 177.258 282.259 177.101 282.344C176.943 282.43 176.82 282.568 176.753 282.734C176.649 282.983 176.753 283.16 176.67 283.17C176.587 283.181 176.472 283.035 176.524 282.671C176.559 282.453 176.669 282.255 176.836 282.11C176.948 282.012 177.078 281.937 177.22 281.89C177.361 281.844 177.51 281.827 177.659 281.84C178.021 281.884 178.366 282.022 178.659 282.241C178.951 282.46 179.18 282.752 179.324 283.087C179.74 283.818 179.972 284.638 180 285.478C180.053 287.234 179.251 288.929 178.023 289.365C177.793 289.448 177.548 289.479 177.305 289.456C177.062 289.432 176.827 289.355 176.618 289.23C176.306 288.991 176.306 288.793 176.306 288.773Z" fill="#FF9A6C"/>
<path d="M175.379 279.148L173.183 281.414C163.628 272.278 144.956 249.411 146.007 250.773C150.362 249.156 155.055 248.659 159.652 249.328C166.761 250.534 180.229 254.088 180.021 262.455C179.813 270.822 175.379 279.148 175.379 279.148Z" fill="#263238"/>
<path d="M188.036 277.256C188.007 277.086 187.962 276.919 187.9 276.757C187.742 276.284 187.543 275.825 187.307 275.385C186.405 273.775 185.162 272.381 183.664 271.301C181.456 269.717 178.992 268.525 176.378 267.777C173.464 266.831 170.186 266.093 166.959 264.659C163.916 263.393 161.031 261.778 158.362 259.847C156.179 258.268 154.144 256.493 152.283 254.546C151.035 253.228 149.864 251.84 148.776 250.388L147.901 249.182C147.804 249.037 147.692 248.901 147.568 248.777C147.641 248.937 147.728 249.09 147.829 249.234C148.006 249.525 148.266 249.952 148.63 250.482C149.672 251.986 150.816 253.416 152.054 254.764C156.163 259.225 161.191 262.742 166.792 265.075C169.893 266.248 173.051 267.264 176.254 268.12C178.855 268.828 181.319 269.97 183.539 271.498C185.021 272.538 186.272 273.872 187.213 275.417C187.755 276.549 187.984 277.256 188.036 277.256Z" fill="#455A64"/>
<path d="M185.496 278.597C185.524 277.946 185.411 277.297 185.163 276.695C184.506 275.033 183.363 273.606 181.884 272.6C179.671 271.176 177.193 270.211 174.599 269.762C171.494 269.141 168.468 268.179 165.575 266.894C162.694 265.581 159.988 263.916 157.519 261.936C155.51 260.312 153.663 258.498 152.002 256.52C150.871 255.179 149.828 253.766 148.88 252.29L148.141 251.074C148.064 250.928 147.97 250.792 147.86 250.669C147.918 250.823 147.987 250.972 148.068 251.116L148.734 252.384C149.62 253.899 150.615 255.347 151.711 256.718C153.351 258.748 155.196 260.604 157.217 262.258C159.7 264.277 162.432 265.971 165.346 267.299C168.264 268.6 171.324 269.559 174.463 270.157C177.011 270.581 179.451 271.499 181.645 272.86C183.096 273.813 184.239 275.168 184.934 276.757C185.177 277.352 185.366 277.968 185.496 278.597Z" fill="#455A64"/>
<path d="M175.088 293.886C175.088 293.824 175.827 293.731 177.117 293.388C178.927 292.866 180.593 291.938 181.988 290.675C184.033 288.764 185.586 286.39 186.516 283.752C187.705 280.538 188.345 277.148 188.41 273.722C188.45 271.952 188.307 270.183 187.984 268.442C187.11 264.064 185.051 260.009 182.03 256.718C180.254 254.834 178.294 253.132 176.181 251.635C176.181 251.635 176.358 251.698 176.67 251.885C176.982 252.072 177.43 252.321 177.981 252.716C179.562 253.799 181.021 255.051 182.332 256.448C184.295 258.518 185.883 260.913 187.026 263.526C187.689 265.076 188.194 266.688 188.535 268.338C188.87 270.116 189.02 271.924 188.983 273.733C188.92 277.223 188.255 280.676 187.016 283.939C186.03 286.638 184.397 289.055 182.259 290.976C180.8 292.244 179.058 293.145 177.18 293.606C176.669 293.722 176.151 293.805 175.629 293.855C175.45 293.88 175.269 293.89 175.088 293.886Z" fill="#455A64"/>
<path d="M186.173 400.85L134.672 408.323C115.324 413.79 94.9441 415.391 73.6384 413.52L151.149 449.628L182.269 450.106C182.269 450.106 191.741 450.106 193.396 441.853C195.051 433.601 196.893 408.468 196.893 408.468C196.893 408.468 190.742 403.147 186.173 400.85Z" fill="#263238"/>
<g opacity="0.3">
<path opacity="0.3" d="M186.016 422.5C186.868 427.651 187.175 432.876 186.932 438.091C188.514 436.357 189.679 434.285 190.34 432.034C191 429.783 191.137 427.411 190.742 425.098C190.294 422.562 189.233 419.766 190.565 417.553C191.46 416.066 193.823 414.362 193.479 412.667C193.479 412.667 191.398 412.667 189.534 412.595C188.025 412.532 184.892 412.439 184.892 412.439C186.24 415.672 186.532 419.248 185.725 422.656" fill="black"/>
</g>
<path d="M149.463 316.846L174.484 314.154L179.064 318.312L161.203 328.799L153.324 332.874L145.539 330.514L143.072 325.879L149.463 316.846Z" fill="#FFBF9D"/>
<path d="M115.729 347.28C115.729 347.28 123.577 332.25 125.513 328.966C128.823 323.363 135.006 320.193 135.006 320.193L149.463 316.857C149.463 316.857 147.964 324.133 156.957 324.59C168.406 325.224 175.515 314.269 175.515 314.269C175.515 314.269 188.566 315.61 192.168 317.117C195.769 318.624 205.969 322.896 207.468 336.429L210.965 358.536L183.383 360.615L183.758 390.05L172.038 399.623C172.038 399.623 138.388 411.192 136.234 411.95C135.193 412.314 135.464 398.033 133.059 385.789L128.521 374.782C126.684 370.385 125.597 365.713 125.305 360.958C125.128 357.84 125.211 355.449 125.211 355.449C125.211 355.449 118.134 353.028 115.729 347.28Z" fill="#455A64"/>
<path d="M137.462 400.413L183.706 386.558L183.383 360.636L206.927 358.848C206.927 358.848 205.053 372.277 204.772 379.158C204.377 389.063 199.568 402.908 196.445 405.839C193.323 408.77 136.265 411.971 136.265 411.971L137.462 400.413Z" fill="#FFBF9D"/>
<path d="M111.233 408.562C111.456 408.943 111.81 409.23 112.23 409.37C112.649 409.509 113.105 409.492 113.512 409.321C114.553 408.905 114.272 406.805 114.272 406.805L119.195 405.6C119.195 405.6 125.992 409.279 128.563 411.836C131.134 414.393 136.785 411.722 136.785 411.722L137.961 400.943L128.146 393.366C128.146 393.366 128.75 393.823 127.99 392.327C127.231 390.83 124.399 391.641 124.399 391.641C123.9 390.903 121.995 390.778 121.995 390.778L114.012 392.327C113.202 392.484 112.437 392.821 111.775 393.312C111.112 393.803 110.568 394.436 110.182 395.164L107.195 400.808C107.195 400.808 105.696 404.82 106.06 405.704C106.217 406.069 106.503 406.364 106.864 406.533C107.225 406.702 107.635 406.732 108.017 406.618C108.017 406.618 108.61 409.134 109.287 409.165C109.97 409.08 110.631 408.865 111.233 408.531V408.562Z" fill="#FFBF9D"/>
<path d="M127.772 399.623C127.772 399.706 126.731 399.686 124.982 399.893C122.756 400.177 120.578 400.761 118.508 401.629C117.372 402.114 116.276 402.687 115.23 403.344C114.303 403.957 113.325 404.487 113.065 405.225C113.009 405.384 112.995 405.555 113.024 405.72C113.053 405.886 113.124 406.041 113.231 406.171C113.396 406.387 113.62 406.55 113.877 406.639C114.314 406.774 114.574 406.639 114.595 406.639C114.616 406.639 114.356 406.878 113.825 406.785C113.51 406.714 113.226 406.547 113.013 406.306C112.86 406.142 112.752 405.94 112.701 405.721C112.65 405.503 112.657 405.274 112.721 405.059C112.899 404.575 113.218 404.155 113.637 403.853C114.054 403.531 114.491 403.209 114.98 402.887C117.962 400.937 121.387 399.768 124.941 399.488C125.885 399.38 126.842 399.426 127.772 399.623Z" fill="#FF9A6C"/>
<path d="M128.74 404.706C128.74 404.851 125.451 404.976 121.454 405.516C117.457 406.057 114.251 406.805 114.168 406.66C114.829 406.343 115.529 406.115 116.25 405.984C117.937 405.561 119.646 405.234 121.371 405.007C123.096 404.773 124.834 404.638 126.575 404.602C127.298 404.538 128.026 404.573 128.74 404.706Z" fill="#FF9A6C"/>
<path d="M111.264 408.354C111.18 408.08 111.124 407.798 111.098 407.512C110.99 406.73 110.928 405.942 110.91 405.153C110.901 404.603 110.936 404.054 111.014 403.51C111.111 402.87 111.334 402.255 111.67 401.702C112.363 400.421 113.304 399.29 114.439 398.376C115.561 397.459 116.809 396.707 118.144 396.141C119.251 395.731 120.405 395.462 121.579 395.341C122.62 395.227 123.369 395.195 123.931 395.164C124.218 395.122 124.509 395.122 124.795 395.164C123.765 395.399 122.723 395.573 121.672 395.684C120.54 395.85 119.43 396.143 118.363 396.557C117.082 397.128 115.885 397.869 114.803 398.76C113.724 399.627 112.814 400.684 112.118 401.879C111.562 402.864 111.285 403.981 111.316 405.111C111.233 407.117 111.379 408.354 111.264 408.354Z" fill="#FF9A6C"/>
<path d="M121.766 392.878C121.766 392.961 120.569 393.085 118.644 393.449C116.718 393.813 113.856 394.239 112.399 396.921C110.912 398.955 109.71 401.182 108.829 403.542C108.554 404.544 108.376 405.571 108.298 406.608C108.201 406.335 108.162 406.045 108.183 405.756C108.165 404.973 108.263 404.192 108.475 403.438C109.267 400.996 110.448 398.697 111.972 396.63C112.377 396.004 112.864 395.434 113.419 394.936C113.954 394.477 114.573 394.124 115.24 393.896C116.335 393.517 117.464 393.249 118.613 393.096C119.651 392.892 120.71 392.818 121.766 392.878Z" fill="#FF9A6C"/>
<path d="M126.627 410.298C126.447 410.203 126.276 410.092 126.117 409.965L124.691 408.998C122.894 407.816 121.032 406.737 119.112 405.766H119.227L114.314 407.003L114.47 406.774C114.517 407.182 114.517 407.593 114.47 408.001C114.439 408.45 114.276 408.88 114.002 409.237C113.831 409.417 113.61 409.54 113.367 409.591C113.143 409.669 112.906 409.701 112.669 409.684C112.181 409.649 111.72 409.443 111.368 409.102C111.283 409.014 111.203 408.92 111.129 408.822V408.749L111.42 408.832L111.264 408.905C111.062 409.011 110.853 409.105 110.64 409.185C110.422 409.271 110.2 409.344 109.974 409.404C109.855 409.439 109.733 409.463 109.609 409.477C109.452 409.502 109.289 409.484 109.141 409.425C108.903 409.274 108.715 409.057 108.6 408.801C108.484 408.586 108.384 408.364 108.298 408.136C108.123 407.686 107.98 407.224 107.871 406.753L108.173 406.93C107.841 407.032 107.488 407.04 107.152 406.954C106.816 406.867 106.51 406.69 106.268 406.442C106.017 406.176 105.869 405.829 105.852 405.465C105.851 405.137 105.883 404.809 105.946 404.487C106.224 403.236 106.593 402.006 107.049 400.808L108.641 397.794L109.682 395.892C109.991 395.234 110.368 394.611 110.806 394.031C111.283 393.474 111.867 393.018 112.524 392.69C113.164 392.397 113.845 392.201 114.543 392.108L122.058 390.664H122.12C122.582 390.699 123.039 390.782 123.484 390.913C123.955 391.017 124.382 391.268 124.701 391.63L124.41 391.568C124.807 391.349 125.25 391.229 125.703 391.218C126.156 391.207 126.605 391.306 127.012 391.506C127.715 391.949 128.227 392.638 128.448 393.439L128.376 393.345L135.141 398.542L136.962 399.977C137.182 400.135 137.387 400.313 137.576 400.507C137.337 400.383 137.111 400.237 136.9 400.07L135.016 398.708L128.147 393.657H128.095V393.584C127.901 392.888 127.451 392.29 126.835 391.911C126.492 391.746 126.114 391.667 125.733 391.68C125.353 391.692 124.981 391.797 124.649 391.984L124.472 392.067L124.358 391.921C124.093 391.647 123.752 391.459 123.38 391.381C122.965 391.266 122.539 391.193 122.11 391.163H122.172L114.657 392.638C114.001 392.724 113.362 392.909 112.763 393.189C112.172 393.482 111.648 393.892 111.223 394.395C110.813 394.948 110.464 395.544 110.182 396.172L109.141 398.074C108.589 399.114 108.1 400.153 107.549 401.089C107.119 402.262 106.772 403.464 106.508 404.685C106.448 404.969 106.417 405.258 106.414 405.548C106.428 405.797 106.531 406.033 106.706 406.213C106.885 406.392 107.109 406.519 107.354 406.581C107.6 406.644 107.857 406.638 108.1 406.566L108.35 406.504V406.743C108.465 407.19 108.6 407.647 108.756 408.073C108.87 408.463 109.077 408.82 109.36 409.113C109.428 409.133 109.5 409.133 109.568 409.113L109.87 409.05C110.08 409.004 110.286 408.937 110.484 408.853C110.682 408.78 110.879 408.687 111.077 408.593L111.223 408.531L111.525 408.614V408.666C111.581 408.747 111.644 408.823 111.712 408.894C111.906 409.101 112.155 409.248 112.43 409.318C112.704 409.388 112.993 409.378 113.263 409.289C113.429 409.261 113.582 409.181 113.7 409.061C114.067 408.434 114.203 407.699 114.085 406.982V406.795H114.252L119.185 405.631H119.247C121.166 406.628 123.012 407.757 124.774 409.009C125.388 409.456 125.815 409.809 126.159 410.048C126.32 410.12 126.477 410.203 126.627 410.298Z" fill="#FF9A6C"/>
<path d="M102.584 416.971C102.584 416.971 69.9539 406.733 59.7122 403.458C42.0182 397.742 30.5066 403.521 26.8637 409.82C22.1384 418 33.473 433.954 37.8444 437.623C50.7819 448.485 72.9619 449.95 72.9619 449.95L152.71 449.805L129.468 418.228L102.584 416.971Z" fill="#263238"/>
<path d="M107.476 431.751C94.1867 433.295 80.7222 431.465 68.3303 426.429C66.2161 425.475 64.0392 424.666 61.8147 424.007C59.6156 423.453 57.3359 423.292 55.0805 423.529C54.1854 423.552 53.304 423.754 52.4887 424.124C51.6734 424.493 50.9408 425.023 50.3344 425.681C48.7419 427.759 49.5538 430.753 50.4385 433.227C51.4793 436.137 52.5201 439.109 54.6018 441.438C56.9644 444.15 60.3992 445.71 63.8443 446.791C70.5784 448.869 77.6873 449.524 84.7441 449.794L108.975 448.474L107.476 431.751Z" fill="#E0E0E0"/>
<path d="M60.6802 424.018C60.8394 424.213 60.9627 424.434 61.0445 424.672C61.3259 425.293 61.5422 425.941 61.6898 426.606C62.2129 428.817 62.121 431.13 61.424 433.293C60.7269 435.457 59.4512 437.389 57.7346 438.881C57.2236 439.328 56.6732 439.728 56.0901 440.076C55.6634 440.315 55.424 440.419 55.4032 440.388C55.3824 440.357 56.2775 439.785 57.4848 438.611C59.0689 437.098 60.2498 435.214 60.9205 433.131C61.5912 431.047 61.7304 428.829 61.3255 426.678C61.0341 425.015 60.5969 424.049 60.6802 424.018Z" fill="#263238"/>
<path d="M185.871 414.975C183.976 409.612 183.664 401.733 171.976 397.95C160.287 394.166 151.461 401.421 145.455 403.937C139.45 406.452 106.633 424.433 106.633 424.433C106.633 424.433 100.45 435.44 102.209 440.305C103.968 445.169 111.962 449.971 111.962 449.971H148.672C158.143 449.971 175.733 449.649 175.733 449.649C178.088 445.794 180.198 441.795 182.051 437.675L182.363 436.095C182.394 434.838 187.755 420.338 185.871 414.975Z" fill="#263238"/>
<path d="M165.533 442.82C165.485 443.006 165.392 443.177 165.262 443.319C164.906 443.731 164.501 444.098 164.055 444.41C162.416 445.539 160.673 446.51 158.851 447.31C157.606 447.89 156.327 448.393 155.021 448.817C153.508 449.292 151.959 449.64 150.389 449.857C146.806 450.213 143.205 450.352 139.606 450.272C131.977 450.397 125.034 450.688 120.038 450.626C117.53 450.626 115.5 450.511 114.106 450.366C113.568 450.319 113.033 450.243 112.503 450.137C112.315 450.115 112.13 450.073 111.951 450.013C111.951 449.961 112.721 450.096 114.116 450.168C115.511 450.241 117.54 450.293 120.038 450.272C125.045 450.272 131.956 449.888 139.606 449.763C143.187 449.84 146.77 449.716 150.337 449.389C151.879 449.2 153.404 448.887 154.896 448.454C156.194 448.053 157.466 447.574 158.705 447.019C160.515 446.259 162.256 445.344 163.909 444.286C164.359 443.985 164.774 443.637 165.148 443.246C165.439 442.997 165.502 442.81 165.533 442.82Z" fill="#263238"/>
<path d="M111.962 449.971L111.472 449.711C111.16 449.534 110.702 449.243 110.109 448.859C108.383 447.734 106.766 446.45 105.28 445.024C104.203 443.993 103.284 442.809 102.553 441.51C101.805 439.885 101.615 438.058 102.011 436.313C102.904 432.135 104.401 428.108 106.456 424.361V424.309C112.472 421.003 119.372 417.251 126.908 413.208C130.676 411.192 134.6 409.102 138.68 406.972C140.761 405.932 142.843 404.893 144.925 403.853C147.006 402.814 149.14 401.775 151.294 400.652C154.271 399.024 157.463 397.823 160.776 397.087C162.404 396.763 164.061 396.613 165.72 396.64C167.344 396.689 168.957 396.919 170.529 397.326C173.577 398.076 176.439 399.441 178.939 401.338C180.101 402.3 181.13 403.411 181.999 404.643C182.798 405.858 183.457 407.159 183.966 408.52C184.486 409.851 184.851 411.192 185.225 412.501C185.655 413.774 186.002 415.072 186.266 416.388C186.43 418.904 186.219 421.429 185.642 423.882C185.173 426.221 184.601 428.404 184.008 430.431C183.716 431.47 183.425 432.437 183.154 433.382C182.883 434.328 182.571 435.264 182.426 436.095C182.301 436.688 182.207 437.135 182.103 437.665C181.1 440.876 179.683 443.944 177.888 446.79C177.251 447.808 176.5 448.75 175.65 449.597L175.785 449.41C175.9 449.275 176.045 449.108 176.222 448.88C176.774 448.187 177.288 447.465 177.763 446.718C179.497 443.854 180.864 440.785 181.832 437.582C182.426 437.083 182.311 436.594 182.134 436.002C182.316 435.053 182.552 434.116 182.842 433.195L183.685 430.254C184.247 428.175 184.809 426.034 185.267 423.716C185.821 421.301 186.018 418.819 185.85 416.347C185.576 415.057 185.229 413.783 184.809 412.532C184.424 411.223 184.049 409.892 183.539 408.593C183.042 407.263 182.397 405.994 181.614 404.81C180.769 403.618 179.768 402.544 178.637 401.619C174.894 398.817 170.384 397.222 165.71 397.046C164.089 397.019 162.469 397.169 160.88 397.492C157.607 398.218 154.452 399.404 151.513 401.016C149.431 402.055 147.35 403.303 145.112 404.228C142.874 405.153 140.949 406.254 138.867 407.346C134.797 409.425 130.863 411.503 127.095 413.582L106.612 424.61L106.685 424.527C104.636 428.232 103.132 432.212 102.219 436.345C101.809 438.03 101.974 439.804 102.688 441.386C103.389 442.673 104.28 443.847 105.332 444.868C106.791 446.305 108.376 447.609 110.067 448.765L111.4 449.659C111.774 449.857 111.962 449.971 111.962 449.971Z" fill="#263238"/>
<path d="M171.705 436.365C171.705 436.365 182.644 437.675 181.676 443.018C180.708 448.36 177.128 450.158 177.128 450.158L147.402 450.22C147.402 450.22 165.148 448.994 171.705 436.365Z" fill="#E0E0E0"/>
<path d="M172.767 433.777C172.764 434.298 172.651 434.811 172.434 435.284C172.031 436.48 171.433 437.6 170.664 438.6C169.628 440.058 168.178 441.173 166.501 441.801C167.881 440.767 169.148 439.59 170.279 438.288C171.233 436.857 172.066 435.348 172.767 433.777Z" fill="#263238"/>
<path d="M169.02 435.867C169.037 437.207 168.676 438.525 167.979 439.671C167.445 440.885 166.628 441.954 165.595 442.789C165.481 442.695 166.553 441.313 167.521 439.411C168.489 437.509 168.832 435.846 169.02 435.867Z" fill="#263238"/>
<path d="M182.925 448.672C182.842 448.672 183.55 447.279 184.403 444.982C186.644 438.983 187.383 432.529 186.558 426.179C186.235 423.758 185.86 422.271 185.944 422.251C186.108 422.579 186.227 422.929 186.297 423.29C186.555 424.231 186.76 425.185 186.911 426.148C187.953 432.553 187.204 439.121 184.747 445.128C184.376 446.013 183.955 446.877 183.487 447.716C183.338 448.055 183.15 448.376 182.925 448.672Z" fill="#455A64"/>
<g opacity="0.3">
<path opacity="0.3" d="M176.743 433.486C176.659 432.769 176.378 431.917 175.702 431.771C174.828 431.595 174.234 432.592 173.891 433.403C170.061 442.103 157.685 448.89 148.203 449.794C152.802 449.784 157.393 449.409 161.932 448.672C165.803 448.093 169.432 446.436 172.402 443.891C173.88 442.607 175.04 441.001 175.793 439.196C176.545 437.391 176.871 435.437 176.743 433.486Z" fill="black"/>
</g>
<path d="M104.322 421.648C102.509 421.139 100.747 420.468 99.0554 419.642C97.2974 418.977 95.6042 418.152 93.9969 417.178C95.8072 417.69 97.5694 418.357 99.2635 419.174C101.022 419.842 102.715 420.67 104.322 421.648Z" fill="#263238"/>
<g opacity="0.2">
<path opacity="0.2" d="M114.897 417.054C100.742 414.351 86.5343 411.95 72.275 409.851L61.6586 413.198C64.6353 418.727 70.516 422.251 76.6257 423.706C82.7353 425.161 89.1156 424.818 95.3605 424.246C102.251 423.612 109.328 422.646 115.324 419.195C115.782 418.935 116.302 418.54 116.239 418.01C116.177 417.48 115.511 417.168 114.897 417.054Z" fill="black"/>
</g>
<path d="M45.2239 374.958L63.0637 414.351C63.4246 415.154 64.0088 415.837 64.7468 416.318C65.4849 416.798 66.3457 417.058 67.227 417.064L119.268 417.74L125.826 414.216L115.553 413.468L99.5655 375.156C99.3166 374.56 98.8978 374.05 98.3612 373.69C97.8246 373.329 97.1937 373.134 96.5471 373.129L46.7019 372.755C46.436 372.745 46.1721 372.804 45.9351 372.925C45.6981 373.045 45.496 373.225 45.348 373.445C45.1999 373.666 45.1108 373.921 45.0891 374.186C45.0674 374.451 45.1138 374.717 45.2239 374.958Z" fill="#E0E0E0"/>
<path d="M45.2239 374.959C45.1388 374.812 45.0856 374.649 45.0678 374.48C45.0348 374.231 45.0621 373.977 45.1471 373.74C45.2322 373.504 45.3727 373.29 45.557 373.119C45.8414 372.855 46.2101 372.701 46.5978 372.682H51.167L72.0356 372.755L86.5447 372.828L94.6527 372.88H96.7344C97.5053 372.935 98.2366 373.242 98.816 373.753C99.3744 374.276 99.7868 374.935 100.013 375.665L100.866 377.744C105.415 388.626 110.442 400.663 115.771 413.385L115.521 413.208L125.44 413.935H125.794L126.835 414.008L125.95 414.486L119.393 418.01H119.32H119.247L79.8001 417.469L70.9947 417.345C69.5584 417.345 68.1845 417.345 66.7586 417.262C66.0464 417.178 65.3613 416.939 64.7517 416.561C64.142 416.184 63.6226 415.678 63.2302 415.079C60.9091 410.204 58.9732 405.724 57.0893 401.567L48.3672 382.089C47.3264 379.812 46.577 378.035 46.0357 376.798C45.7755 376.216 45.5882 375.759 45.4425 375.426C45.2968 375.094 45.2551 374.948 45.2551 374.948C45.344 375.096 45.4239 375.248 45.4945 375.405L46.1398 376.757C46.7019 377.973 47.5137 379.74 48.5649 381.954L57.4536 401.369C59.3375 405.454 61.3567 410.048 63.6257 414.788C63.9789 415.328 64.4477 415.784 64.9985 416.122C65.5492 416.46 66.1681 416.672 66.8106 416.742C68.1429 416.804 69.5896 416.794 70.9739 416.815L79.7793 416.919L119.227 417.397H119.081L125.638 413.863L125.763 414.414H125.409L115.49 413.696H115.313L115.24 413.541C109.942 400.798 104.926 388.762 100.388 377.869L99.5446 375.842C99.359 375.181 98.9996 374.582 98.5038 374.106C98.0089 373.66 97.3785 373.393 96.7136 373.347H94.6319L86.5239 373.275L72.0252 373.129L51.1358 372.88H47.8676H46.577C46.3708 372.887 46.1683 372.937 45.982 373.025C45.7956 373.113 45.6291 373.239 45.4928 373.393C45.3564 373.548 45.2531 373.729 45.1889 373.925C45.1248 374.12 45.1013 374.327 45.1198 374.532C45.1466 374.676 45.1813 374.818 45.2239 374.959Z" fill="#263238"/>
<path d="M113.981 417.667C113.884 417.531 113.803 417.385 113.741 417.23L113.148 415.962C112.628 414.777 111.92 413.177 111.067 411.243C109.328 407.242 106.966 401.712 104.426 395.559C101.886 389.406 99.6383 383.824 98.0874 379.76C97.3068 377.682 96.6927 376.071 96.2972 374.917C96.1099 374.387 95.9642 373.95 95.8393 373.587C95.781 373.432 95.7391 373.272 95.7144 373.108C95.8096 373.243 95.8866 373.39 95.9433 373.545L96.4846 374.844C96.9738 376.05 97.6295 377.661 98.4205 379.625C100.107 383.721 102.386 389.25 104.894 395.372C107.403 401.494 109.713 407.003 111.4 411.098L113.346 415.879C113.544 416.409 113.71 416.835 113.846 417.189C113.918 417.339 113.964 417.501 113.981 417.667Z" fill="#263238"/>
<path d="M81.7152 394.052C81.7173 394.559 81.5686 395.054 81.288 395.476C81.0075 395.899 80.6077 396.228 80.1394 396.423C79.6711 396.618 79.1555 396.669 78.6578 396.571C78.1602 396.472 77.703 396.229 77.3443 395.87C76.9856 395.512 76.7415 395.056 76.6431 394.559C76.5446 394.062 76.5962 393.547 76.7913 393.079C76.9863 392.612 77.3161 392.212 77.7388 391.932C78.1614 391.652 78.6579 391.504 79.1652 391.506C79.8415 391.506 80.4901 391.774 80.9683 392.251C81.4465 392.729 81.7152 393.377 81.7152 394.052Z" fill="white"/>
<path d="M132.351 330.681C132.435 330.681 131.685 332.125 130.634 334.454C127.883 340.531 126.085 346.996 125.305 353.62C124.993 356.166 124.91 357.777 124.816 357.777C124.76 357.405 124.76 357.027 124.816 356.655C124.816 355.938 124.816 354.898 124.962 353.61C125.55 346.902 127.378 340.361 130.353 334.319C130.926 333.165 131.394 332.24 131.8 331.637C131.944 331.297 132.13 330.976 132.351 330.681Z" fill="#263238"/>
<path d="M210.965 358.536C210.779 358.593 210.587 358.624 210.393 358.63L208.738 358.786L202.555 359.305L181.416 360.896H181.145V360.625C180.968 357.819 180.781 354.857 180.594 351.822C180.292 346.521 180.032 341.428 179.948 336.865C179.679 332.755 180.616 328.655 182.644 325.068C184.036 322.649 186.091 320.677 188.566 319.383C189.235 319.048 189.931 318.773 190.648 318.561C190.897 318.484 191.151 318.421 191.408 318.374C191.408 318.458 190.367 318.676 188.65 319.57C186.263 320.908 184.293 322.88 182.956 325.266C181.028 328.817 180.164 332.847 180.469 336.875C180.573 341.459 180.844 346.511 181.145 351.811C181.333 354.846 181.51 357.809 181.687 360.605L181.395 360.355L202.555 358.962L208.8 358.599L210.455 358.536H210.965Z" fill="#263238"/>
<path d="M159.101 376.538C158.78 376.476 158.471 376.364 158.185 376.206C157.827 376.056 157.479 375.882 157.144 375.686C156.695 375.445 156.261 375.178 155.843 374.886C154.736 374.14 153.713 373.275 152.793 372.308C151.68 371.109 150.703 369.792 149.879 368.379C149.084 366.951 148.452 365.438 147.995 363.868C147.633 362.586 147.409 361.269 147.329 359.939C147.298 359.431 147.298 358.92 147.329 358.411C147.33 358.025 147.358 357.64 147.412 357.258C147.422 356.928 147.485 356.601 147.6 356.291C147.704 356.291 147.527 357.694 147.745 359.908C147.876 361.201 148.13 362.478 148.505 363.723C148.984 365.244 149.615 366.714 150.389 368.109C151.186 369.485 152.124 370.773 153.189 371.955C154.074 372.912 155.046 373.785 156.093 374.564C157.862 375.884 159.153 376.445 159.101 376.538Z" fill="#263238"/>
</g>
<defs>
<clipPath id="clip0_50_2">
<rect width="490" height="451" fill="white"/>
</clipPath>
</defs>
</svg>
