<svg width="33" height="50" viewBox="0 0 33 50" fill="none" xmlns="http://www.w3.org/2000/svg">
<g clip-path="url(#clip0_37_2)">
<path d="M30.5643 5.47619H21.9215V3.09524C21.9215 2.61905 21.5286 2.30159 21.1358 2.30159H19.4858C19.1715 1.03175 17.9143 0 16.5001 0C15.0858 0 13.8286 1.03175 13.5143 2.30159H11.8643C11.3929 2.30159 11.0786 2.61905 11.0786 3.09524V5.39683H2.43578C1.25721 5.39683 0.235779 6.42857 0.235779 7.61905V46.9048C0.235779 48.0952 1.25721 49.127 2.43578 49.127H20.5072C20.0358 48.6508 19.5644 48.0952 19.1715 47.5397H2.43578C2.12149 47.5397 1.80721 47.2222 1.80721 46.9048V7.69841C1.80721 7.38095 2.04292 7.06349 2.43578 7.06349H9.90006L8.40721 8.57143H4.08578C3.69292 8.57143 3.30006 8.88889 3.30006 9.36508V45.3175C3.30006 45.7143 3.69292 46.1111 4.08578 46.1111H18.3858C18.1501 45.6349 17.9929 45.0794 17.9143 44.5238H4.95006V10.1587H8.01435V12.4603C8.01435 12.9365 8.32864 13.254 8.80006 13.254H24.2786C24.6715 13.254 25.0644 12.9365 25.0644 12.4603V10.1587H28.1286V34.2857C28.6786 34.3651 29.2286 34.5238 29.7001 34.7619V9.36508C29.7001 8.88889 29.3858 8.57143 28.9143 8.57143H24.5929L23.1001 7.06349H30.5643C30.9572 7.06349 31.1929 7.30159 31.1929 7.69841V35.5556C31.7429 35.9524 32.2929 36.3492 32.7643 36.9048V7.69841C32.7643 6.42857 31.7429 5.47619 30.5643 5.47619ZM23.4143 9.68254V11.6667H9.58578V9.68254L12.4143 6.8254V6.74603C12.5715 6.5873 12.6501 6.42857 12.6501 6.19048V3.88889H14.1429C14.6143 3.88889 14.9286 3.57143 14.9286 3.09524C14.9286 2.30159 15.6358 1.5873 16.5001 1.5873C17.3643 1.5873 18.0715 2.30159 18.0715 3.09524C18.0715 3.57143 18.4643 3.88889 18.8572 3.88889H20.4286V6.19048C20.4286 6.42857 20.5072 6.5873 20.6643 6.74603V6.8254L23.4143 9.68254Z" fill="#333333"/>
<path d="M16.5001 2.38086C16.1072 2.38086 15.7144 2.69832 15.7144 3.17451C15.7144 3.6507 16.0286 3.96816 16.5001 3.96816C16.9715 3.96816 17.2858 3.6507 17.2858 3.17451C17.2858 2.69832 16.8929 2.38086 16.5001 2.38086Z" fill="#333333"/>
<path d="M25.7715 20.3175H14.9287C14.5358 20.3175 14.1429 20.0001 14.1429 19.5239C14.1429 19.127 14.4572 18.7302 14.9287 18.7302H25.7715C26.1644 18.7302 26.5572 19.0477 26.5572 19.5239C26.5572 20.0001 26.1644 20.3175 25.7715 20.3175Z" fill="#FFDE32"/>
<path d="M8.80008 21.9047C8.56436 21.9047 8.40722 21.8253 8.25007 21.6666L6.67865 20.0793C6.36436 19.7619 6.36436 19.2857 6.67865 18.9682C6.99293 18.6507 7.46436 18.6507 7.77865 18.9682L8.80008 19.9999L11.3144 17.4603C11.6286 17.1428 12.1001 17.1428 12.4144 17.4603C12.7286 17.7777 12.7286 18.2539 12.4144 18.5714L9.35007 21.6666C9.19293 21.8253 8.95722 21.9047 8.80008 21.9047Z" fill="#333333"/>
<path d="M22.7072 26.5873H14.9287C14.5358 26.5873 14.1429 26.2698 14.1429 25.7937C14.1429 25.3175 14.4572 25 14.9287 25H22.6287C23.0215 25 23.4144 25.3175 23.4144 25.7937C23.4144 26.2698 23.1001 26.5873 22.7072 26.5873Z" fill="#FFDE32"/>
<path d="M8.80008 28.0951C8.56436 28.0951 8.40722 28.0158 8.25007 27.857L6.67865 26.2697C6.36436 25.9523 6.36436 25.4761 6.67865 25.1586C6.99293 24.8412 7.46436 24.8412 7.77865 25.1586L8.80008 26.1904L11.3144 23.6507C11.6286 23.3332 12.1001 23.3332 12.4144 23.6507C12.7286 23.9682 12.7286 24.4443 12.4144 24.7618L9.35007 27.857C9.19293 28.0158 8.95722 28.0951 8.80008 28.0951Z" fill="#333333"/>
<path d="M25.7715 32.7777H14.9287C14.5358 32.7777 14.1429 32.4603 14.1429 31.9841C14.1429 31.5873 14.4572 31.1904 14.9287 31.1904H25.7715C26.1644 31.1904 26.5572 31.5079 26.5572 31.9841C26.5572 32.4603 26.1644 32.7777 25.7715 32.7777Z" fill="#FFDE32"/>
<path d="M8.80008 34.3649C8.56436 34.3649 8.40722 34.2855 8.25007 34.1268L6.67865 32.5395C6.36436 32.2221 6.36436 31.7459 6.67865 31.4284C6.99293 31.1109 7.46436 31.1109 7.77865 31.4284L8.80008 32.4602L11.3144 29.9205C11.6286 29.603 12.1001 29.603 12.4144 29.9205C12.7286 30.2379 12.7286 30.7141 12.4144 31.0316L9.35007 34.1268C9.19293 34.2855 8.95722 34.3649 8.80008 34.3649Z" fill="#333333"/>
<path d="M19.6429 37.4602C19.2501 37.9364 18.9358 38.4919 18.7001 39.0475H14.9287C14.5358 39.0475 14.1429 38.73 14.1429 38.2539C14.1429 37.857 14.4572 37.4602 14.9287 37.4602H19.6429Z" fill="#FFDE32"/>
<path d="M8.80008 40.6349C8.56436 40.6349 8.40722 40.5556 8.25007 40.3968L6.67865 38.8095C6.36436 38.4921 6.36436 38.0159 6.67865 37.6984C6.99293 37.381 7.46436 37.381 7.77865 37.6984L8.80008 38.7302L11.3144 36.1905C11.6286 35.873 12.1001 35.873 12.4144 36.1905C12.7286 36.5079 12.7286 36.9841 12.4144 37.3016L9.35007 40.3968C9.19293 40.5556 8.95722 40.6349 8.80008 40.6349Z" fill="#333333"/>
<path d="M25.693 45.2382C25.4572 45.2382 25.3001 45.1588 25.143 45.0001L23.5715 43.4128C23.2572 43.0953 23.2572 42.6192 23.5715 42.3017C23.8858 41.9842 24.3572 41.9842 24.6715 42.3017L25.693 43.3334L28.2072 40.7938C28.5215 40.4763 28.993 40.4763 29.3072 40.7938C29.6215 41.1112 29.6215 41.5874 29.3072 41.9049L26.243 45.0001C26.0858 45.1588 25.8501 45.2382 25.693 45.2382Z" fill="#FFDE32"/>
<path d="M26.4786 49.2065C23.0215 49.2065 20.1929 46.3493 20.1929 42.8573C20.1929 39.3652 23.0215 36.5081 26.4786 36.5081C29.9358 36.5081 32.7644 39.3652 32.7644 42.8573C32.7644 46.3493 29.9358 49.2065 26.4786 49.2065ZM26.4786 38.0954C23.8858 38.0954 21.7644 40.2382 21.7644 42.8573C21.7644 45.4763 23.8858 47.6192 26.4786 47.6192C29.0715 47.6192 31.1929 45.4763 31.1929 42.8573C31.1929 40.2382 29.0715 38.0954 26.4786 38.0954Z" fill="#333333"/>
</g>
<defs>
<clipPath id="clip0_37_2">
<rect width="33" height="50" fill="white"/>
</clipPath>
</defs>
</svg>
