<svg width="53" height="50" viewBox="0 0 53 50" fill="none" xmlns="http://www.w3.org/2000/svg">
<path d="M30.4009 45.4337H3.6688C2.0898 45.4337 0.804871 44.1437 0.804871 42.5575V10.8641C0.804871 10.3081 1.02955 9.76393 1.42087 9.37094L9.83622 0.920528C10.2271 0.527541 10.769 0.301514 11.3223 0.301514H30.4009C31.9858 0.301514 33.2754 1.59703 33.2754 3.18867V15.1145C33.2754 15.5603 32.9159 15.921 32.4724 15.921C32.0289 15.921 31.6694 15.5603 31.6694 15.1145V3.18867C31.6694 2.48618 31.1004 1.91442 30.4009 1.91442H11.3223C11.1921 1.91442 11.0647 1.96797 10.9721 2.06011L2.55601 10.5121C2.46347 10.605 2.41093 10.7326 2.41093 10.8641V42.5575C2.41093 43.2537 2.97517 43.8208 3.6688 43.8208H30.4009C31.1004 43.8208 31.6694 43.2498 31.6694 42.5473V37.2589C31.6694 36.8131 32.0289 36.4524 32.4724 36.4524C32.9159 36.4524 33.2754 36.8131 33.2754 37.2589V42.5473C33.2754 44.1389 31.9858 45.4337 30.4009 45.4337Z" fill="#333333"/>
<path d="M36.7185 16.6495C36.2751 16.6495 35.9155 16.2888 35.9155 15.843V8.50386C35.9155 7.78955 35.3583 7.2296 34.647 7.2296H32.472C32.0286 7.2296 31.669 6.8689 31.669 6.42315C31.669 5.9774 32.0286 5.6167 32.472 5.6167H34.647C36.2319 5.6167 37.5216 6.91222 37.5216 8.50386V15.843C37.5216 16.2888 37.162 16.6495 36.7185 16.6495Z" fill="#333333"/>
<path d="M34.647 49.6984H8.96104C7.38203 49.6984 6.09711 48.4084 6.09711 46.8222V44.6273C6.09711 44.1816 6.45667 43.8209 6.90014 43.8209H30.4005C31.1001 43.8209 31.669 43.2499 31.669 42.5474V37.259C31.669 36.8132 32.0286 36.4526 32.472 36.4526C32.9155 36.4526 33.2751 36.8132 33.2751 37.259V42.5474C33.2751 44.139 31.9854 45.4338 30.4005 45.4338H7.70317V46.8222C7.70317 47.5184 8.26741 48.0855 8.96104 48.0855H34.647C35.3465 48.0855 35.9155 47.5184 35.9155 46.8222V36.5313C35.9155 36.0856 36.275 35.7249 36.7185 35.7249C37.162 35.7249 37.5215 36.0856 37.5215 36.5313V46.8222C37.5215 48.4084 36.2319 49.6984 34.647 49.6984Z" fill="#333333"/>
<path d="M9.81897 12.9217H1.60595C1.16248 12.9217 0.802917 12.561 0.802917 12.1153V10.8693C0.802917 10.3125 1.02759 9.76835 1.4197 9.37615L9.8327 0.927309C10.2287 0.528809 10.7569 0.309082 11.3188 0.309082H12.5598C13.0033 0.309082 13.3628 0.66978 13.3628 1.11553V9.36276C13.3628 11.3253 11.7732 12.9217 9.81897 12.9217ZM2.40898 11.3088H9.81897C10.8875 11.3088 11.7568 10.4362 11.7568 9.36276V1.92199H11.3188C11.1862 1.92199 11.0619 1.97396 10.9686 2.06689L2.55445 10.5173C2.46152 10.6102 2.40898 10.7386 2.40898 10.8693V11.3088Z" fill="#333333"/>
<path d="M17.0396 40.524H6.10772C5.66425 40.524 5.30469 40.1633 5.30469 39.7176C5.30469 39.2718 5.66425 38.9111 6.10772 38.9111H17.0396C17.4831 38.9111 17.8426 39.2718 17.8426 39.7176C17.8426 40.1633 17.4831 40.524 17.0396 40.524Z" fill="#FFDE32"/>
<path d="M17.0396 36.1925H6.10772C5.66425 36.1925 5.30469 35.8318 5.30469 35.386C5.30469 34.9403 5.66425 34.5796 6.10772 34.5796H17.0396C17.4831 34.5796 17.8426 34.9403 17.8426 35.386C17.8426 35.8318 17.4831 36.1925 17.0396 36.1925Z" fill="#FFDE32"/>
<path d="M17.0396 31.8602H6.10772C5.66425 31.8602 5.30469 31.4995 5.30469 31.0538C5.30469 30.608 5.66425 30.2473 6.10772 30.2473H17.0396C17.4831 30.2473 17.8426 30.608 17.8426 31.0538C17.8426 31.4995 17.4831 31.8602 17.0396 31.8602Z" fill="#FFDE32"/>
<path d="M17.0396 27.5279H6.10772C5.66425 27.5279 5.30469 27.1672 5.30469 26.7215C5.30469 26.2757 5.66425 25.915 6.10772 25.915H17.0396C17.4831 25.915 17.8426 26.2757 17.8426 26.7215C17.8426 27.1672 17.4831 27.5279 17.0396 27.5279Z" fill="#FFDE32"/>
<path d="M17.0396 23.1957H6.10772C5.66425 23.1957 5.30469 22.835 5.30469 22.3892C5.30469 21.9435 5.66425 21.5828 6.10772 21.5828H17.0396C17.4831 21.5828 17.8426 21.9435 17.8426 22.3892C17.8426 22.835 17.4831 23.1957 17.0396 23.1957Z" fill="#FFDE32"/>
<path d="M17.0396 18.8634H6.10772C5.66425 18.8634 5.30469 18.5027 5.30469 18.0569C5.30469 17.6112 5.66425 17.2505 6.10772 17.2505H17.0396C17.4831 17.2505 17.8426 17.6112 17.8426 18.0569C17.8426 18.5027 17.4831 18.8634 17.0396 18.8634Z" fill="#FFDE32"/>
<path d="M32.0494 38.0725C28.8855 38.0725 25.9121 36.836 23.6771 34.5907C21.4421 32.347 20.2129 29.3622 20.2156 26.1868C20.218 23.0137 21.4508 20.0297 23.6862 17.7844C28.2969 13.1536 35.8006 13.1536 40.4122 17.7844C45.0288 22.4207 45.0331 29.9599 40.4216 34.5907C38.1866 36.836 35.2129 38.0725 32.0494 38.0725ZM32.0494 15.9234C29.4317 15.9234 26.8144 16.9236 24.8217 18.9247C22.8894 20.8653 21.8237 23.4453 21.8217 26.1883C21.8193 28.9322 22.8816 31.5114 24.8127 33.4503C26.7446 35.3909 29.3144 36.4596 32.0494 36.4596C34.7839 36.4596 37.3541 35.3909 39.286 33.4503C43.271 29.448 43.2667 22.9318 39.2766 18.9247C37.284 16.9236 34.6667 15.9234 32.0494 15.9234Z" fill="#333333"/>
<path d="M32.0493 33.9119C29.9927 33.9119 28.0593 33.1078 26.6061 31.6484C23.6112 28.64 23.6152 23.7406 26.6155 20.7267C28.0687 19.2681 29.9986 18.4648 32.0493 18.4648C34.1 18.4648 36.03 19.2681 37.4831 20.7267C40.4835 23.7406 40.4874 28.64 37.4921 31.6484C36.039 33.1078 34.1059 33.9119 32.0493 33.9119ZM32.0493 20.0777C30.4272 20.0777 28.9007 20.7133 27.7511 21.8671C25.3769 24.2518 25.373 28.1281 27.7417 30.5081C28.8917 31.6626 30.4217 32.299 32.0493 32.299C33.677 32.299 35.2066 31.6626 36.3566 30.5081C38.7257 28.1281 38.7218 24.2518 36.3476 21.8671C35.1979 20.7133 33.6715 20.0777 32.0493 20.0777Z" fill="#333333"/>
<path d="M40.9211 39.3278C40.7082 39.3278 40.5039 39.2427 40.3534 39.0915L37.391 36.1162C37.2185 35.9429 37.1338 35.7003 37.1608 35.457C37.1875 35.2136 37.3236 34.9955 37.5298 34.864C38.1591 34.4647 38.7328 34.0016 39.2833 33.4495C39.8268 32.903 40.2981 32.3139 40.6831 31.698C40.8129 31.4901 41.0301 31.3531 41.2728 31.3255C41.5171 31.3003 41.7583 31.383 41.9308 31.557L44.8935 34.5316C45.0441 34.6828 45.1288 34.8876 45.1288 35.1018C45.1288 35.3152 45.0441 35.5208 44.8935 35.672L41.4889 39.0915C41.3383 39.2427 41.134 39.3278 40.9211 39.3278ZM39.2049 35.657L40.9211 37.381L43.1902 35.1018L41.4744 33.3794C41.1556 33.7992 40.8027 34.204 40.4192 34.5899C40.0342 34.9758 39.628 35.3333 39.2049 35.657Z" fill="#333333"/>
<path d="M47.8716 46.426C46.716 46.426 45.6299 45.9739 44.8127 45.1533L40.3435 40.665C39.6029 39.9208 39.6029 38.7111 40.3435 37.9669L43.7741 34.5221C44.5147 33.7795 45.7205 33.7787 46.4604 34.5221L50.93 39.0104C51.7471 39.831 52.1973 40.9218 52.1973 42.0818C52.1973 43.2419 51.7471 44.3326 50.93 45.1533C50.1132 45.9739 49.0271 46.426 47.8716 46.426ZM45.1174 35.5767C45.0421 35.5767 44.9668 35.605 44.9096 35.6625L41.4791 39.1073C41.3646 39.2222 41.3646 39.4097 41.4791 39.5247L45.9483 44.0129C46.976 45.0446 48.7671 45.0446 49.794 44.0129C50.3081 43.4971 50.5912 42.8111 50.5912 42.0818C50.5912 41.3526 50.3081 40.6666 49.7944 40.1508L45.3252 35.6625C45.268 35.605 45.1927 35.5767 45.1174 35.5767Z" fill="#333333"/>
<path d="M30.7766 29.1259C30.5637 29.1259 30.3594 29.0409 30.2088 28.8896L28.6792 27.3531C28.3655 27.0381 28.3655 26.5278 28.6792 26.2128C28.9929 25.8977 29.5011 25.8977 29.8148 26.2128L30.7766 27.1791L34.284 23.6572C34.5977 23.3421 35.1058 23.3421 35.4195 23.6572C35.7332 23.9722 35.7332 24.4825 35.4195 24.7975L31.3444 28.8896C31.1938 29.0409 30.9895 29.1259 30.7766 29.1259Z" fill="#FFDE32"/>
<path d="M18.0724 9.85368C17.8594 9.85368 17.6552 9.76863 17.5046 9.61742L16.2997 8.40695C15.986 8.09193 15.986 7.5816 16.2997 7.26658C16.6133 6.95156 17.1215 6.95156 17.4352 7.26658L18.0724 7.90686L20.714 5.2536C21.0277 4.93858 21.5358 4.93858 21.8495 5.2536C22.1632 5.56862 22.1632 6.07895 21.8495 6.39397L18.6401 9.61742C18.4896 9.76863 18.2853 9.85368 18.0724 9.85368Z" fill="#333333"/>
<path d="M28.1644 9.33385H23.6814C23.238 9.33385 22.8784 8.97315 22.8784 8.5274C22.8784 8.08165 23.238 7.72095 23.6814 7.72095H28.1644C28.6079 7.72095 28.9674 8.08165 28.9674 8.5274C28.9674 8.97315 28.6079 9.33385 28.1644 9.33385Z" fill="#333333"/>
</svg>
