<svg width="57" height="33" viewBox="0 0 57 33" fill="none" xmlns="http://www.w3.org/2000/svg">
<path d="M56.431 17.5908L49.6277 0.564621C49.5395 0.344052 49.3689 0.166227 49.1518 0.0685959C48.9347 -0.0290356 48.6881 -0.0388556 48.4638 0.0412054L41.0483 2.68671C40.9317 2.72834 40.8248 2.79302 40.7339 2.87687C40.643 2.96073 40.5701 3.06202 40.5194 3.17468C40.4688 3.28734 40.4415 3.40904 40.4391 3.53249C40.4368 3.65593 40.4595 3.77856 40.5059 3.89304L40.9932 5.09754L37.9133 6.10587C36.7678 5.66495 32.7346 4.10754 31.5983 3.59696C29.7844 2.78479 28.1259 3.43012 26.2017 4.65754C24.8456 3.62262 23.5751 3.61621 21.8568 4.58512C20.6616 5.25796 18.799 6.37812 17.9376 6.89879L16.4841 6.08204L17.1515 4.69421C17.2552 4.47845 17.2701 4.23084 17.1931 4.00425C17.1162 3.77766 16.9534 3.59004 16.7397 3.48146L10.0734 0.0897884C9.96565 0.0349178 9.84807 0.00179958 9.72744 -0.00766563C9.6068 -0.0171318 9.48548 -0.00276089 9.37043 0.034626C9.25538 0.0720129 9.14886 0.131679 9.05699 0.210201C8.96512 0.288723 8.88969 0.384557 8.83504 0.492206L0.603141 16.7025C0.493401 16.9185 0.473763 17.1689 0.548514 17.3992C0.623265 17.6295 0.786335 17.8209 1.00214 17.9318L8.00946 21.527C8.13969 21.5938 8.28405 21.6287 8.43053 21.6287C8.53032 21.6289 8.62944 21.6125 8.7238 21.5801C8.84024 21.5411 8.94766 21.4793 9.03972 21.3982C9.13178 21.3171 9.20661 21.2184 9.25979 21.108L9.79393 19.997L10.6397 20.5745C10.4759 20.9017 10.3319 21.2385 10.2086 21.5829C10.1792 21.6748 10.1643 21.7706 10.1644 21.867C10.1644 24.1752 12.5465 25.4512 13.5504 25.8866C13.7145 26.3972 13.9873 26.8663 14.3502 27.2619C14.7131 27.6574 15.1575 27.97 15.653 28.1783C15.8619 28.2397 16.0787 28.2706 16.2965 28.27C16.632 28.2657 16.9634 28.1959 17.272 28.0646C17.5888 28.752 18.1105 29.3253 18.7659 29.7064C19.3527 30.0172 20.0285 30.1185 20.6809 29.9933C21.0835 30.7233 21.7022 31.3117 22.4525 31.6781C22.7285 31.7925 23.0243 31.8516 23.3232 31.8523C23.6337 31.8523 23.941 31.7899 24.2269 31.669C25.0146 31.3231 25.6924 30.769 26.1869 30.0666C26.6466 30.4333 27.349 30.9833 28.1305 31.6039C28.73 32.0551 29.4646 32.2915 30.2156 32.2749C30.8445 32.2746 31.4649 32.1296 32.0285 31.8514C32.4449 31.6531 32.8153 31.3705 33.1161 31.0215C33.4169 30.6726 33.6414 30.2649 33.7753 29.8246C34.1014 29.8199 34.4259 29.7781 34.7425 29.7C35.3233 29.5584 35.8671 29.2945 36.3372 28.9262C36.8074 28.5578 37.193 28.0934 37.4684 27.5641C37.644 27.5905 37.8212 27.6043 37.9988 27.6054C38.8733 27.5995 39.7255 27.3301 40.4435 26.8324C41.1615 26.3347 41.7118 25.6321 42.0219 24.8169C42.0624 24.8169 42.1001 24.8242 42.1405 24.8242C43.0949 24.8525 44.023 24.5104 44.7294 23.87C45.2036 23.4368 45.5269 22.8642 45.6524 22.2353C45.7779 21.6064 45.699 20.954 45.4272 20.3729L46.9055 19.7202L47.4452 21.0549C47.5137 21.2243 47.6315 21.3695 47.7833 21.4717C47.9352 21.574 48.1142 21.6286 48.2974 21.6287C48.41 21.6289 48.5217 21.608 48.6266 21.5673L55.906 18.7861C56.0193 18.7426 56.1228 18.6772 56.2105 18.5937C56.2983 18.5101 56.3686 18.4101 56.4174 18.2993C56.4662 18.1885 56.4925 18.0692 56.4949 17.9482C56.4972 17.8273 56.4755 17.707 56.431 17.5945V17.5908ZM8.01038 19.4654L2.65606 16.7154L10.0587 2.14037L15.106 4.70704L8.01038 19.4654ZM12.0105 22.0064C12.286 21.3229 12.6405 20.6738 13.0668 20.0722C13.2383 19.9372 13.4463 19.8564 13.6642 19.8401C13.882 19.8238 14.0998 19.8727 14.2896 19.9805C14.3645 20.0031 14.4337 20.0412 14.4927 20.0925C14.5517 20.1438 14.5991 20.207 14.6317 20.2779C14.6643 20.3488 14.6814 20.4258 14.6818 20.5038C14.6823 20.5819 14.6661 20.6591 14.6343 20.7304C14.2841 21.8588 13.9274 23.077 13.6883 23.9121C12.9482 23.4996 12.0997 22.8305 12.0105 22.0064ZM16.1807 26.4183C15.8304 26.3147 15.4875 25.7656 15.2862 25.2853C15.9697 24.1328 16.7168 23.0188 17.5239 21.9486C17.7079 21.7054 17.9736 21.5363 18.2723 21.4722C18.5711 21.4081 18.883 21.4532 19.1511 21.5994C19.5189 21.8524 19.3129 22.3584 19.0767 22.7379C19.0693 22.7489 19.0693 22.7617 19.0629 22.7736C19.05 22.7993 19.0289 22.8222 19.0169 22.8488C18.8551 23.2155 17.7997 24.9076 17.0541 26.07C16.8178 26.2625 16.4565 26.499 16.1807 26.4183ZM20.5292 28.1508C20.3855 28.2018 20.2328 28.2229 20.0806 28.213C19.9284 28.2031 19.7798 28.1622 19.6439 28.093C19.2085 27.7896 18.8913 27.3457 18.7457 26.8363C19.2872 25.9875 20.4548 24.1385 20.6938 23.6014C20.7994 23.4837 20.9421 23.4054 21.0983 23.3795C21.2755 23.3495 21.457 23.3569 21.6312 23.4011C21.8054 23.4453 21.9684 23.5254 22.1096 23.6362C22.2951 23.7581 22.4336 23.9393 22.5024 24.1499C22.5713 24.3606 22.5663 24.5883 22.4884 24.7958L20.5292 28.1508ZM23.5181 29.975C23.0382 30.1757 22.5224 29.4772 22.231 28.9905L24.0908 26.4577C24.2865 26.452 24.4814 26.4857 24.6637 26.5569C24.846 26.6281 25.012 26.7353 25.1518 26.872C25.2423 27.047 25.297 27.2381 25.3128 27.4344C25.3286 27.6306 25.3051 27.828 25.2437 28.0151C24.933 28.8597 24.3177 29.5584 23.5181 29.975ZM43.4294 22.5738C43.1611 22.7713 42.851 22.9049 42.5229 22.9643C42.1948 23.0237 41.8573 23.0074 41.5365 22.9166C41.5282 22.9166 41.5227 22.9093 41.5144 22.9075H41.5034C41.4163 22.8823 41.3331 22.8453 41.2561 22.7975C40.7146 22.4372 37.8802 19.7193 36.2208 18.0904C36.0445 17.9337 35.8146 17.8507 35.5786 17.8584C35.3426 17.8662 35.1187 17.9642 34.9532 18.1322C34.7877 18.3001 34.6934 18.5251 34.6897 18.7605C34.6861 18.9959 34.7735 19.2237 34.9337 19.3966C35.6692 20.1208 39.3926 23.76 40.2393 24.3228C40.0984 24.6256 39.8982 24.8973 39.6505 25.122C39.4027 25.3466 39.1125 25.5196 38.7968 25.6309C38.5326 25.7472 38.244 25.798 37.9558 25.7789C37.6676 25.7597 37.3884 25.6712 37.142 25.5209C35.9523 24.4658 32.7291 21.2492 32.6914 21.2171C32.518 21.0501 32.2858 20.9578 32.0447 20.9598C31.8037 20.9619 31.5731 21.0583 31.4026 21.2283C31.2322 21.3982 31.1355 21.6282 31.1334 21.8685C31.1313 22.1089 31.2239 22.3404 31.3914 22.5133C31.521 22.6425 34.5044 25.6153 35.8043 26.7868C35.6438 27.0672 35.4279 27.3123 35.1697 27.5072C34.9115 27.7021 34.6164 27.8428 34.3021 27.9207C34.0827 27.9946 33.8502 28.0218 33.6196 28.0005C33.3891 27.9791 33.1655 27.9098 32.9635 27.797L29.6952 24.54C29.6098 24.4549 29.5084 24.3874 29.3968 24.3414C29.2852 24.2954 29.1657 24.2717 29.0449 24.2717C28.9241 24.2718 28.8046 24.2955 28.693 24.3416C28.5815 24.3878 28.4801 24.4553 28.3948 24.5405C28.3094 24.6257 28.2417 24.7268 28.1956 24.838C28.1494 24.9493 28.1256 25.0685 28.1257 25.1889C28.1257 25.3093 28.1496 25.4285 28.1958 25.5397C28.2421 25.651 28.3098 25.752 28.3952 25.8371L31.6608 29.0931C31.7651 29.1925 31.8794 29.281 32.0019 29.3571C31.9329 29.5446 31.8272 29.7165 31.691 29.8628C31.5548 30.0092 31.3908 30.1271 31.2085 30.2096C30.9107 30.3699 30.5764 30.4506 30.2381 30.4439C29.8997 30.4371 29.5689 30.3432 29.2778 30.1711C28.3116 29.4002 27.4621 28.7338 27.0438 28.4056C27.1692 27.966 27.1979 27.5046 27.1279 27.0529C27.058 26.6012 26.891 26.1699 26.6384 25.7885C26.3659 25.4469 26.0229 25.1677 25.6327 24.9698C25.2425 24.772 24.8141 24.6601 24.3767 24.6418C24.4191 24.1523 24.3284 23.6605 24.1142 23.218C23.9 22.7755 23.5702 22.3988 23.1595 22.1274C22.5755 21.7099 21.8676 21.5007 21.1498 21.5334C21.0335 20.9481 20.6927 20.4311 20.2001 20.0924C19.6362 19.7387 18.9734 19.5746 18.3091 19.6241C17.6448 19.6736 17.0138 19.9341 16.5089 20.3674C16.4839 19.9321 16.3393 19.5121 16.0908 19.1533C15.8424 18.7946 15.4998 18.5109 15.1004 18.3333C14.5263 18.0273 13.8646 17.926 13.2248 18.046C12.585 18.166 12.0055 18.5002 11.5821 18.9933L10.5974 18.3214L15.687 7.73387L17.5036 8.75504C17.646 8.83503 17.8071 8.87575 17.9705 8.87301C18.1339 8.87027 18.2935 8.82417 18.4331 8.73946C18.4616 8.72204 21.2279 7.04087 22.7614 6.17279C23.53 5.74012 24.0182 5.59712 24.5082 5.76854C23.1526 6.79332 22.241 8.29584 21.9598 9.96871C21.5686 11.0502 21.6235 12.2422 22.1124 13.2834C22.3691 13.6457 22.6989 13.9507 23.0806 14.1787C23.4622 14.4068 23.8874 14.553 24.3289 14.608C24.6927 14.6836 25.0687 14.6792 25.4306 14.5949C25.7925 14.5107 26.1315 14.3487 26.4241 14.1203C27.2551 13.5121 27.834 12.6216 28.0514 11.6169L29.0186 10.9862C31.8018 12.5327 34.7024 13.8592 37.6936 14.9535C38.5514 15.7785 42.4549 19.5213 43.3936 20.5745C43.5426 20.6941 43.6634 20.8448 43.7475 21.016C43.8316 21.1872 43.877 21.3747 43.8804 21.5653C43.8838 21.756 43.8452 21.945 43.7673 22.1191C43.6894 22.2932 43.574 22.4481 43.4294 22.5729V22.5738ZM44.3047 18.865C42.728 17.2278 38.9724 13.64 38.7968 13.4704C38.6837 13.3629 38.5452 13.2856 38.3941 13.2458C35.6793 12.5372 29.4764 9.15746 29.4185 9.12079C29.2724 9.04095 29.1073 9.00219 28.9408 9.00865C28.7744 9.01511 28.6128 9.06654 28.4734 9.15746L26.7036 10.3125C26.5876 10.3887 26.4905 10.4902 26.4194 10.6093C26.3484 10.7283 26.3054 10.8619 26.2936 11C26.2579 11.3214 26.1567 11.6321 25.996 11.913C25.8354 12.194 25.6188 12.4391 25.3595 12.6335C25.2717 12.7098 25.1681 12.7658 25.056 12.7975C24.944 12.8292 24.8263 12.8358 24.7114 12.8168C24.1745 12.6839 23.838 12.5858 23.6927 12.3438C23.5797 12.1605 23.4362 11.6572 23.747 10.4188C24.3538 7.99971 25.16 7.48546 26.7671 6.47071L27.1615 6.21954C29.162 4.9362 30.0271 4.89862 30.8462 5.26712C32.2142 5.88037 37.3424 7.84846 37.5575 7.93187C37.755 8.00704 37.9724 8.01254 38.1735 7.94746L41.6818 6.80071L46.2169 18.018L44.3047 18.865ZM48.8095 19.5341L42.5662 4.09104L48.245 2.06521L54.3753 17.4065L48.8095 19.5341ZM27.5807 -4.02329V-9.35921C27.5807 -9.60233 27.6775 -9.83548 27.85 -10.0074C28.0224 -10.1793 28.2562 -10.2759 28.5 -10.2759C28.7439 -10.2759 28.9777 -10.1793 29.1501 -10.0074C29.3225 -9.83548 29.4194 -9.60233 29.4194 -9.35921V-4.02329C29.4194 -3.78018 29.3225 -3.54702 29.1501 -3.37511C28.9777 -3.2032 28.7439 -3.10663 28.5 -3.10663C28.2562 -3.10663 28.0224 -3.2032 27.85 -3.37511C27.6775 -3.54702 27.5807 -3.78018 27.5807 -4.02329ZM16.1614 -4.02329C16.0655 -4.09899 15.9856 -4.19301 15.9266 -4.29984C15.8676 -4.40668 15.8306 -4.52419 15.8177 -4.64548C15.8048 -4.76677 15.8163 -4.88941 15.8515 -5.00621C15.8868 -5.12301 15.9451 -5.23162 16.0229 -5.32568C16.1008 -5.41974 16.1967 -5.49736 16.3051 -5.55399C16.4134 -5.61062 16.532 -5.64511 16.6539 -5.65546C16.7758 -5.66581 16.8985 -5.6518 17.0149 -5.61425C17.1313 -5.5767 17.239 -5.51637 17.3317 -5.43679L21.4596 -2.03871C21.5527 -1.96203 21.6297 -1.86782 21.6863 -1.76146C21.7429 -1.6551 21.7779 -1.53867 21.7893 -1.41882C21.8008 -1.29897 21.7884 -1.17805 21.753 -1.06295C21.7175 -0.947864 21.6597 -0.840857 21.5828 -0.748045C21.5059 -0.655233 21.4114 -0.578433 21.3048 -0.522031C21.1981 -0.465628 21.0813 -0.430728 20.9611 -0.419322C20.7184 -0.396286 20.4764 -0.470346 20.2884 -0.625211L16.1614 -4.02329ZM35.4173 -0.748045C35.3404 -0.840851 35.2825 -0.947857 35.2471 -1.06295C35.2117 -1.17804 35.1993 -1.29897 35.2107 -1.41882C35.2222 -1.53867 35.2572 -1.65511 35.3138 -1.76147C35.3703 -1.86783 35.4474 -1.96204 35.5405 -2.03871L39.6684 -5.43679C39.7611 -5.51637 39.8688 -5.5767 39.9852 -5.61425C40.1016 -5.6518 40.2243 -5.66581 40.3462 -5.65546C40.4681 -5.64511 40.5867 -5.61062 40.695 -5.55399C40.8034 -5.49736 40.8993 -5.41974 40.9772 -5.32568C41.055 -5.23162 41.1133 -5.12301 41.1486 -5.00621C41.1838 -4.88941 41.1953 -4.76677 41.1824 -4.64548C41.1695 -4.52419 41.1325 -4.40668 41.0735 -4.29984C41.0144 -4.19301 40.9346 -4.09899 40.8387 -4.02329L36.7117 -0.625211C36.6186 -0.548517 36.5113 -0.490858 36.3959 -0.455524C36.2805 -0.420191 36.1592 -0.407875 36.039 -0.419282C35.9188 -0.430689 35.802 -0.465592 35.6953 -0.522002C35.5887 -0.578412 35.4942 -0.655222 35.4173 -0.748045Z" fill="#333333"/>
</svg>
