<svg width="50" height="50" viewBox="0 0 50 50" fill="none" xmlns="http://www.w3.org/2000/svg">
<g clip-path="url(#clip0_37_17)">
<path d="M5.64512 36.2419C6.28312 36.2419 6.9068 36.0527 7.43728 35.6983C7.96776 35.3438 8.38122 34.84 8.62537 34.2506C8.86953 33.6611 8.93341 33.0125 8.80894 32.3868C8.68447 31.761 8.37724 31.1862 7.92611 30.7351C7.47497 30.284 6.90019 29.9767 6.27444 29.8523C5.6487 29.7278 5.00009 29.7917 4.41066 30.0358C3.82122 30.28 3.31741 30.6935 2.96296 31.2239C2.6085 31.7544 2.41931 32.3781 2.41931 33.0161C2.41931 33.8716 2.75917 34.6921 3.36413 35.2971C3.96908 35.902 4.78958 36.2419 5.64512 36.2419ZM5.64512 31.4032C5.96412 31.4032 6.27596 31.4978 6.5412 31.675C6.80644 31.8522 7.01317 32.1041 7.13525 32.3989C7.25732 32.6936 7.28926 33.0179 7.22703 33.3308C7.1648 33.6436 7.01118 33.931 6.78561 34.1566C6.56004 34.3822 6.27265 34.5358 5.95978 34.598C5.64691 34.6602 5.32261 34.6283 5.02789 34.5062C4.73317 34.3841 4.48127 34.1774 4.30404 33.9122C4.12681 33.6469 4.03221 33.3351 4.03221 33.0161C4.03221 32.5883 4.20215 32.1781 4.50462 31.8756C4.8071 31.5731 5.21735 31.4032 5.64512 31.4032Z" fill="#333333"/>
<path d="M0.806452 45.1129H10.4839C10.6978 45.1129 10.9029 45.0279 11.0541 44.8767C11.2054 44.7254 11.2903 44.5203 11.2903 44.3064V41.0806C11.2903 40.0112 10.8655 38.9856 10.1093 38.2294C9.35311 37.4732 8.32749 37.0483 7.25806 37.0483H4.03226C3.50273 37.0483 2.9784 37.1526 2.48918 37.3553C1.99996 37.5579 1.55545 37.8549 1.18102 38.2294C0.424826 38.9856 0 40.0112 0 41.0806V44.3064C0 44.5203 0.0849652 44.7254 0.236204 44.8767C0.387443 45.0279 0.592567 45.1129 0.806452 45.1129ZM1.6129 41.0806C1.6129 40.4389 1.8678 39.8236 2.32152 39.3699C2.77523 38.9161 3.39061 38.6612 4.03226 38.6612H7.25806C7.89972 38.6612 8.51509 38.9161 8.96881 39.3699C9.42252 39.8236 9.67742 40.4389 9.67742 41.0806V43.5H1.6129V41.0806Z" fill="#333333"/>
<path d="M44.3548 36.2419C44.9928 36.2419 45.6165 36.0527 46.147 35.6983C46.6775 35.3438 47.0909 34.84 47.3351 34.2506C47.5792 33.6611 47.6431 33.0125 47.5187 32.3868C47.3942 31.761 47.087 31.1862 46.6358 30.7351C46.1847 30.284 45.6099 29.9767 44.9842 29.8523C44.3584 29.7278 43.7098 29.7917 43.1204 30.0358C42.5309 30.28 42.0271 30.6935 41.6727 31.2239C41.3182 31.7544 41.129 32.3781 41.129 33.0161C41.129 33.8716 41.4689 34.6921 42.0738 35.2971C42.6788 35.902 43.4993 36.2419 44.3548 36.2419ZM44.3548 31.4032C44.6738 31.4032 44.9857 31.4978 45.2509 31.675C45.5162 31.8522 45.7229 32.1041 45.845 32.3989C45.967 32.6936 45.999 33.0179 45.9367 33.3308C45.8745 33.6436 45.7209 33.931 45.4953 34.1566C45.2698 34.3822 44.9824 34.5358 44.6695 34.598C44.3566 34.6602 44.0323 34.6283 43.7376 34.5062C43.4429 34.3841 43.191 34.1774 43.0138 33.9122C42.8365 33.6469 42.7419 33.3351 42.7419 33.0161C42.7419 32.5883 42.9119 32.1781 43.2143 31.8756C43.5168 31.5731 43.9271 31.4032 44.3548 31.4032Z" fill="#333333"/>
<path d="M45.9678 37.0483H42.742C41.6726 37.0483 40.6469 37.4732 39.8907 38.2294C39.1345 38.9856 38.7097 40.0112 38.7097 41.0806V44.3064C38.7097 44.5203 38.7947 44.7254 38.9459 44.8767C39.0972 45.0279 39.3023 45.1129 39.5162 45.1129H49.1936C49.4075 45.1129 49.6126 45.0279 49.7638 44.8767C49.9151 44.7254 50 44.5203 50 44.3064V41.0806C50 40.0112 49.5752 38.9856 48.819 38.2294C48.0628 37.4732 47.0372 37.0483 45.9678 37.0483ZM48.3871 43.5H40.3226V41.0806C40.3226 40.4389 40.5775 39.8236 41.0312 39.3699C41.485 38.9161 42.1003 38.6612 42.742 38.6612H45.9678C46.6094 38.6612 47.2248 38.9161 47.6785 39.3699C48.1322 39.8236 48.3871 40.4389 48.3871 41.0806V43.5Z" fill="#333333"/>
<path d="M34.6774 49.9999C34.8913 49.9999 35.0964 49.9149 35.2477 49.7637C35.3989 49.6124 35.4839 49.4073 35.4839 49.1934V45.9676C35.4839 44.8982 35.059 43.8726 34.3028 43.1164C33.5466 42.3602 32.521 41.9353 31.4516 41.9353H28.2258V41.516H28.3226C28.7764 41.3334 29.1642 41.0176 29.4348 40.6102C29.7055 40.2027 29.8463 39.7228 29.8387 39.2337V36.8789C30.0836 36.7375 30.2871 36.5341 30.4286 36.2892C30.5702 36.0444 30.6449 35.7666 30.6451 35.4837C30.6407 35.293 30.6025 35.1046 30.5322 34.9273L30.9839 34.0805C31.3014 33.4931 31.4602 32.8331 31.4447 32.1655C31.4291 31.498 31.2397 30.846 30.8951 30.2741C30.5094 29.6385 29.964 29.115 29.3132 28.7556C28.6624 28.3962 27.9288 28.2135 27.1855 28.2257H22.8145C22.0711 28.2135 21.3376 28.3962 20.6867 28.7556C20.0359 29.115 19.4905 29.6385 19.1048 30.2741C18.7603 30.846 18.5708 31.498 18.5553 32.1655C18.5397 32.8331 18.6986 33.4931 19.0161 34.0805L19.4677 34.9273C19.3975 35.1046 19.3593 35.293 19.3548 35.4837C19.3551 35.7666 19.4298 36.0444 19.5713 36.2892C19.7129 36.5341 19.9163 36.7375 20.1613 36.8789V39.2337C20.1624 39.7169 20.3082 40.1887 20.5799 40.5882C20.8515 40.9878 21.2366 41.2969 21.6855 41.4757H21.7742V41.9353H18.5484C17.479 41.9353 16.4533 42.3602 15.6971 43.1164C14.9409 43.8726 14.5161 44.8982 14.5161 45.9676V49.1934C14.5161 49.4073 14.6011 49.6124 14.7523 49.7637C14.9036 49.9149 15.1087 49.9999 15.3226 49.9999H34.6774ZM20.5161 33.4757L20.4355 33.3224C20.2477 32.9809 20.154 32.5956 20.1639 32.2059C20.1739 31.8163 20.287 31.4363 20.4919 31.1047C20.7345 30.7089 21.0766 30.3837 21.4842 30.1615C21.8917 29.9394 22.3504 29.828 22.8145 29.8386H27.1855C27.6495 29.828 28.1082 29.9394 28.5158 30.1615C28.9234 30.3837 29.2655 30.7089 29.508 31.1047C29.7129 31.4363 29.8261 31.8163 29.836 32.2059C29.8459 32.5956 29.7522 32.9809 29.5645 33.3224L29.4839 33.4757L29.0322 31.9999C28.9724 31.7945 28.8334 31.6214 28.6458 31.5186C28.4583 31.4157 28.2376 31.3916 28.0322 31.4515L25 32.2579L21.9677 31.4515C21.7712 31.4023 21.5633 31.4289 21.3855 31.5261C21.2077 31.6232 21.0729 31.7837 21.008 31.9757L20.5161 33.4757ZM20.9677 35.4837C21.1368 35.4842 21.3017 35.4315 21.4392 35.3331C21.5767 35.2346 21.6798 35.0955 21.7339 34.9353L22.3064 33.2176L24.8064 33.8466C24.9336 33.8781 25.0664 33.8781 25.1935 33.8466L27.6935 33.2176L28.2661 34.9353C28.3202 35.0955 28.4233 35.2346 28.5608 35.3331C28.6982 35.4315 28.8632 35.4842 29.0322 35.4837C28.8184 35.4837 28.6132 35.5687 28.462 35.7199C28.3108 35.8712 28.2258 36.0763 28.2258 36.2902V39.2337C28.2243 39.3939 28.1752 39.5499 28.0848 39.6821C27.9943 39.8142 27.8665 39.9164 27.7177 39.9757L25.2984 40.9434C25.1068 41.0197 24.8932 41.0197 24.7016 40.9434L22.2822 39.9757C22.1335 39.9164 22.0057 39.8142 21.9152 39.6821C21.8247 39.5499 21.7756 39.3939 21.7742 39.2337V36.2902C21.7742 36.0763 21.6892 35.8712 21.538 35.7199C21.3867 35.5687 21.1816 35.4837 20.9677 35.4837ZM26.6129 42.1611V42.7418C26.6129 43.1696 26.443 43.5798 26.1405 43.8823C25.838 44.1848 25.4278 44.3547 25 44.3547C24.5722 44.3547 24.162 44.1848 23.8595 43.8823C23.557 43.5798 23.3871 43.1696 23.3871 42.7418V42.1611L24.1048 42.4434C24.6782 42.68 25.3218 42.68 25.8951 42.4434L26.6129 42.1611ZM16.129 45.9676C16.129 45.3259 16.3839 44.7106 16.8376 44.2569C17.2913 43.8031 17.9067 43.5482 18.5484 43.5482H21.879C22.0594 44.2386 22.4636 44.8496 23.0284 45.2857C23.5931 45.7218 24.2865 45.9583 25 45.9583C25.7135 45.9583 26.4069 45.7218 26.9716 45.2857C27.5363 44.8496 27.9405 44.2386 28.121 43.5482H31.4516C32.0933 43.5482 32.7086 43.8031 33.1623 44.2569C33.6161 44.7106 33.871 45.3259 33.871 45.9676V48.387H16.129V45.9676Z" fill="#FFDE32"/>
<path d="M8.87101 24.1937C8.82363 24.053 8.73833 23.9281 8.62449 23.8327C8.51065 23.7374 8.3727 23.6753 8.22584 23.6534L6.98391 23.4679L6.41939 22.2663C6.35524 22.1255 6.25195 22.0061 6.12182 21.9224C5.9917 21.8387 5.84024 21.7942 5.68552 21.7942C5.5308 21.7942 5.37934 21.8387 5.24922 21.9224C5.1191 22.0061 5.0158 22.1255 4.95165 22.2663L4.38714 23.4679L3.1452 23.6534C2.99834 23.6753 2.86039 23.7374 2.74655 23.8327C2.63272 23.9281 2.54741 24.053 2.50004 24.1937C2.45522 24.3323 2.4488 24.4805 2.48146 24.6225C2.51412 24.7645 2.58464 24.895 2.68552 25.0002L3.61294 25.9518L3.3952 27.2985C3.37723 27.4456 3.4001 27.5947 3.46129 27.7296C3.52248 27.8644 3.61964 27.9798 3.7421 28.0632C3.86456 28.1465 4.00759 28.1944 4.15552 28.2018C4.30344 28.2092 4.45054 28.1757 4.58068 28.105L5.6452 27.5163L6.75004 28.1292C6.86893 28.1934 7.00203 28.2266 7.13714 28.226C7.30433 28.2272 7.46778 28.1765 7.60488 28.0808C7.73146 27.9922 7.82992 27.8691 7.88853 27.7261C7.94715 27.5831 7.96346 27.4263 7.93552 27.2743L7.71778 25.9276L8.6452 25.0002C8.75307 24.8993 8.83117 24.7707 8.87099 24.6285C8.91081 24.4863 8.91082 24.3359 8.87101 24.1937ZM6.27423 25.105C6.18618 25.1955 6.1206 25.3054 6.08279 25.4258C6.04497 25.5463 6.03596 25.674 6.05649 25.7985V25.9114H6.0081C5.88551 25.8407 5.74644 25.8034 5.60488 25.8034C5.46332 25.8034 5.32425 25.8407 5.20165 25.9114H5.15326V25.7985C5.17379 25.674 5.16479 25.5463 5.12697 25.4258C5.08915 25.3054 5.02357 25.1955 4.93552 25.105L4.8952 25.0002H5.01617C5.15384 24.9806 5.2841 24.9257 5.39432 24.8409C5.50454 24.7562 5.59096 24.6443 5.6452 24.5163C5.70227 24.6362 5.78808 24.7402 5.89501 24.819C6.00193 24.8977 6.12665 24.9489 6.2581 24.9679H6.37907L6.27423 25.105Z" fill="#333333"/>
<path d="M47.5806 24.1937C47.5332 24.053 47.4479 23.9281 47.3341 23.8327C47.2202 23.7374 47.0823 23.6753 46.9354 23.6534L45.6935 23.4679L45.129 22.2663C45.0648 22.1255 44.9615 22.0061 44.8314 21.9224C44.7013 21.8387 44.5498 21.7942 44.3951 21.7942C44.2404 21.7942 44.0889 21.8387 43.9588 21.9224C43.8287 22.0061 43.7254 22.1255 43.6612 22.2663L43.0967 23.4679L41.8548 23.6534C41.7079 23.6753 41.57 23.7374 41.4561 23.8327C41.3423 23.9281 41.257 24.053 41.2096 24.1937C41.1648 24.3323 41.1584 24.4805 41.1911 24.6225C41.2237 24.7645 41.2942 24.895 41.3951 25.0002L42.3225 25.9518L42.1048 27.2985C42.0868 27.4456 42.1097 27.5947 42.1709 27.7296C42.2321 27.8644 42.3292 27.9798 42.4517 28.0632C42.5741 28.1465 42.7172 28.1944 42.8651 28.2018C43.013 28.2092 43.1601 28.1757 43.2903 28.105L44.3548 27.5163L45.4596 28.1292C45.5785 28.1934 45.7116 28.2266 45.8467 28.226C46.0139 28.2272 46.1774 28.1765 46.3145 28.0808C46.441 27.9922 46.5395 27.8691 46.5981 27.7261C46.6567 27.5831 46.673 27.4263 46.6451 27.2743L46.4274 25.9276L47.3548 25.0002C47.4627 24.8993 47.5408 24.7707 47.5806 24.6285C47.6204 24.4863 47.6204 24.3359 47.5806 24.1937ZM45.0241 25.1292C44.9361 25.2197 44.8705 25.3296 44.8327 25.45C44.7949 25.5705 44.7859 25.6982 44.8064 25.8227V25.9356H44.758C44.6354 25.8649 44.4964 25.8276 44.3548 25.8276C44.2132 25.8276 44.0742 25.8649 43.9516 25.9356H43.9032V25.8227C43.9237 25.6982 43.9147 25.5705 43.8769 25.45C43.8391 25.3296 43.7735 25.2197 43.6854 25.1292L43.6048 25.0002H43.7258C43.8634 24.9806 43.9937 24.9257 44.1039 24.8409C44.2141 24.7562 44.3006 24.6443 44.3548 24.5163C44.4119 24.6362 44.4977 24.7402 44.6046 24.819C44.7115 24.8977 44.8362 24.9489 44.9677 24.9679H45.0887L45.0241 25.1292Z" fill="#333333"/>
<path d="M17.7823 10.3146C17.7374 10.4533 17.731 10.6015 17.7637 10.7435C17.7963 10.8855 17.8669 11.016 17.9677 11.1211L20.9113 14.1372L20.2177 18.4033C20.1998 18.5504 20.2226 18.6995 20.2838 18.8344C20.345 18.9692 20.4422 19.0846 20.5646 19.168C20.6871 19.2513 20.8301 19.2992 20.9781 19.3066C21.126 19.314 21.2731 19.2805 21.4032 19.2098L25 17.2662L28.5968 19.2582C28.7157 19.3223 28.8488 19.3556 28.9839 19.3549C29.1511 19.3562 29.3145 19.3055 29.4516 19.2098C29.5782 19.1212 29.6767 18.998 29.7353 18.8551C29.7939 18.7121 29.8102 18.5553 29.7823 18.4033L29.0887 14.1372L32.0323 11.1211C32.1332 11.016 32.2037 10.8855 32.2363 10.7435C32.269 10.6015 32.2626 10.4533 32.2177 10.3146C32.1704 10.1739 32.0851 10.049 31.9712 9.95364C31.8574 9.8583 31.7194 9.79624 31.5726 9.7743L27.5403 9.1614L25.7339 5.30656C25.6697 5.16577 25.5664 5.04639 25.4363 4.96269C25.3062 4.87898 25.1547 4.83447 25 4.83447C24.8453 4.83447 24.6938 4.87898 24.5637 4.96269C24.4336 5.04639 24.3303 5.16577 24.2661 5.30656L22.4597 9.1614L18.4274 9.7743C18.2806 9.79624 18.1426 9.8583 18.0288 9.95364C17.9149 10.049 17.8296 10.1739 17.7823 10.3146ZM23.129 10.6856C23.259 10.6654 23.3821 10.6136 23.4876 10.5349C23.593 10.4562 23.6775 10.3529 23.7339 10.234L25 7.54043L26.2661 10.234C26.3225 10.3529 26.407 10.4562 26.5125 10.5349C26.6179 10.6136 26.741 10.6654 26.871 10.6856L29.7742 11.1372L27.6452 13.3146C27.5571 13.4051 27.4915 13.515 27.4537 13.6355C27.4159 13.7559 27.4069 13.8836 27.4274 14.0082L27.9274 17.0404L25.3871 15.6372C25.2645 15.5664 25.1254 15.5292 24.9839 15.5292C24.8423 15.5292 24.7032 15.5664 24.5807 15.6372L22.0403 17.0404L22.5807 14.0082C22.6012 13.8836 22.5922 13.7559 22.5544 13.6355C22.5165 13.515 22.451 13.4051 22.3629 13.3146L20.2339 11.1372L23.129 10.6856Z" fill="#FFDE32"/>
<path d="M12.3468 15.4437C12.5119 16.2731 12.7604 17.0837 13.0887 17.863L14.5726 17.2421C14.2886 16.5607 14.0725 15.853 13.9274 15.1292L12.3468 15.4437Z" fill="#333333"/>
<path d="M13.0645 7.99193L14.5564 8.60483C14.8387 7.92193 15.1871 7.26828 15.5967 6.65322L14.2499 5.75806C13.7857 6.4639 13.3888 7.21181 13.0645 7.99193Z" fill="#333333"/>
<path d="M12.0968 12.9031H13.7097C13.7104 12.1723 13.7806 11.4432 13.9194 10.7256L12.3065 10.4111C12.1561 11.233 12.0859 12.0676 12.0968 12.9031Z" fill="#333333"/>
<path d="M36.2903 12.9033C36.2909 13.6426 36.218 14.3801 36.0725 15.1049L37.6854 15.4195C37.8383 14.5896 37.9112 13.7471 37.9032 12.9033H37.5806H36.2903Z" fill="#333333"/>
<path d="M14.2822 20.0888C14.7542 20.7909 15.2945 21.4446 15.8951 22.0404L17.0403 20.9033C16.5175 20.3787 16.045 19.8063 15.629 19.1936L14.2822 20.0888Z" fill="#333333"/>
<path d="M32.9517 4.89516C33.4781 5.41346 33.9509 5.98355 34.3629 6.59677L35.7017 5.69355C35.2314 4.99264 34.691 4.34143 34.0888 3.75L32.9517 4.89516Z" fill="#333333"/>
<path d="M29.8953 0.959717L29.2823 2.41939C29.9678 2.70164 30.6242 3.05007 31.242 3.45972L32.1291 2.11294C31.4238 1.65674 30.6756 1.2705 29.8953 0.959717Z" fill="#333333"/>
<path d="M27.1694 1.82255L27.4758 0.209649C26.6588 0.0632945 25.83 -0.00689918 25 -2.88258e-05V1.61287C25.7281 1.61393 26.4545 1.68414 27.1694 1.82255Z" fill="#333333"/>
<path d="M36.9033 7.91943L35.4194 8.5404C35.7023 9.22218 35.9184 9.9298 36.0646 10.6533L37.6775 10.3388C37.5058 9.5072 37.2463 8.6962 36.9033 7.91943Z" fill="#333333"/>
<path d="M15.8549 3.80651L17 4.9436C17.5183 4.41715 18.0884 3.94432 18.7016 3.53231L17.8065 2.1936C17.1027 2.66335 16.4488 3.20379 15.8549 3.80651Z" fill="#333333"/>
<path d="M22.4435 0.25C21.6151 0.418785 20.8048 0.667252 20.0242 0.991936L20.6532 2.48387C21.333 2.19363 22.0411 1.97472 22.7661 1.83065L22.4435 0.25Z" fill="#333333"/>
<path d="M35.7338 20.0645C36.2023 19.3627 36.602 18.6173 36.9274 17.8387L35.4355 17.2178C35.1549 17.9015 34.8064 18.5553 34.3951 19.1694L35.7338 20.0645Z" fill="#333333"/>
<path d="M32.1775 23.6289C32.8796 23.1569 33.5333 22.6167 34.1291 22.016L32.984 20.8789C32.4639 21.4035 31.894 21.8761 31.2823 22.2902L32.1775 23.6289Z" fill="#333333"/>
<path d="M17.8468 23.6451C18.5489 24.111 19.2943 24.508 20.0726 24.8306L20.6936 23.3387C20.0084 23.0613 19.3542 22.7126 18.742 22.2983L17.8468 23.6451Z" fill="#333333"/>
<path d="M22.8065 23.9839L22.5 25.5968C23.3245 25.7477 24.1618 25.8179 25 25.8065V24.1936C24.2638 24.1929 23.5294 24.1227 22.8065 23.9839Z" fill="#333333"/>
<path d="M27.2178 23.9757L27.5242 25.5886C28.353 25.4247 29.1634 25.1789 29.9436 24.8547L29.3226 23.3628C28.6435 23.6378 27.9383 23.8431 27.2178 23.9757Z" fill="#333333"/>
</g>
<defs>
<clipPath id="clip0_37_17">
<rect width="50" height="50" fill="white"/>
</clipPath>
</defs>
</svg>
