<svg width="240" height="302" viewBox="0 0 240 302" fill="none" xmlns="http://www.w3.org/2000/svg">
<path d="M101.372 137.549C101.372 137.549 91.4829 135.494 81.4387 147.329C77.5779 151.879 73.89 161.574 71.671 167.116L39.0036 242.743C36.2949 248.757 43.4592 261.285 40.7351 262.819C48.325 268.307 76.3056 262.842 79.2622 253.945L101.372 137.549Z" fill="#ADDBD3"/>
<path d="M190.689 144.747C190.689 144.747 200.773 144.161 208.981 157.341C212.136 162.406 214.369 172.537 215.755 178.344L239.34 261.423C241.141 267.769 230.791 271.246 224.943 274.286C216.634 278.604 195.541 270.976 193.915 261.742L181.203 208.357L190.689 144.747Z" fill="#ADDBD3"/>
<path d="M161.292 146.629C161.292 146.629 128.347 268.685 109.893 260.692C91.4388 252.699 123.57 131.312 123.57 131.312L132.85 125.07C132.85 125.07 126.595 133.428 130.34 148.965C130.34 148.965 157.293 132.827 161.975 137.315C166.66 141.801 161.292 146.629 161.292 146.629Z" fill="#1A2E35"/>
<path fill-rule="evenodd" clip-rule="evenodd" d="M194.672 278.564L111.542 278.156C112.939 260.975 115.099 245.206 118.357 233.994C119.059 231.57 140.953 159.328 150.18 144.37C156.199 134.614 158.918 124.651 168.684 130.103C177.952 135.276 198.425 146.637 205.7 154.343C207.993 156.772 210.221 159.391 211.317 162.545C214.777 172.492 195.375 241.078 193.915 261.741L194.672 278.564Z" fill="#ADDBD3"/>
<path fill-rule="evenodd" clip-rule="evenodd" d="M117.49 278.173L75.2612 277.858C76.6629 270.609 77.8144 264.19 78.5745 258.983C83.4969 225.268 81.8294 191.104 88.6781 157.729C89.7657 152.435 90.9172 146.981 93.9818 142.532C98.7902 135.551 114.201 131.953 123.57 131.311C121.141 159.319 119.527 175.313 117.732 199.052C115.971 222.348 116.453 249.78 117.49 278.173Z" fill="#ADDBD3"/>
<path d="M167.472 137.825C167.017 144.144 155.278 142.91 144.436 144.103C138.756 144.728 130.34 148.965 130.34 148.965C130.34 148.965 130.355 148.481 129.306 138.379L124.22 96.6958L168.663 83.3269L167.513 136.568C167.508 136.988 167.502 137.409 167.472 137.825Z" fill="#FFC09D"/>
<path fill-rule="evenodd" clip-rule="evenodd" d="M88.4608 214.836L108.31 214.839C108.31 214.839 110.468 235.716 99.347 237.737C84.9647 238.034 88.4608 214.836 88.4608 214.836Z" fill="#80BCBB"/>
<path fill-rule="evenodd" clip-rule="evenodd" d="M94.5096 173.679L113.441 183.476L99.7901 183.052C99.7901 183.052 102.587 227.308 115.514 259.658L122.236 143.09C122.444 139.495 122.451 137.008 122.245 135.29C121.696 130.706 118.5 130.617 115.234 132.624C104.848 139.002 92.9698 170.287 94.5096 173.679Z" fill="#73B5B3"/>
<path fill-rule="evenodd" clip-rule="evenodd" d="M167.83 184.329L142.586 186.605L155.453 190.728C155.453 190.728 141.759 219.549 115.259 244.769L146.251 147.757C147.354 144.305 151.71 140.087 152.613 138.568C155.022 134.517 169.359 125.958 172.843 128.016C190.224 138.28 170.802 181.755 167.83 184.329Z" fill="#73B5B3"/>
<path d="M149.244 160.197C146.742 152.72 145.121 152.052 140.779 145.473C136.897 148.539 133.017 151.603 129.137 154.668C128.67 150.986 127.94 147.336 126.957 143.757C122.655 147.058 118.821 150.969 115.006 154.821C113.598 147.985 113.485 141.73 116.902 134.28C120.424 126.604 121.693 124.587 127.64 124.722C129.927 132.243 131.747 139.532 133.646 146.482C140.123 143.159 159.381 126.664 167.879 119.622C167.879 119.622 174.766 128.334 174.401 133.308C173.961 139.303 154.885 154.796 149.244 160.197Z" fill="#385A64"/>
<path d="M159.896 88.0461C158.472 106.812 145.794 123.975 127.462 122.728L124.164 94.3083L124.105 90.796L159.896 88.0461Z" fill="#FF9A6C"/>
<path fill-rule="evenodd" clip-rule="evenodd" d="M88.7361 69.1975C88.7361 69.1975 102.697 80.843 112.091 63.9737C112.091 63.9737 128.421 57.4847 113.623 43.6973C113.623 43.6973 116.943 20.0276 99.943 29.0653C99.943 29.0653 92.7883 15.8837 82.2028 25.6494C82.2028 25.6494 67.8018 26.0355 71.606 42.5751C71.606 42.5751 61.9582 57.7439 75.2661 61.4134C75.2661 61.4134 79.1994 70.9966 88.7361 69.1975Z" fill="#A5BEC5"/>
<path fill-rule="evenodd" clip-rule="evenodd" d="M74.6204 28.6487C74.6204 28.6487 63.8172 36.3074 67.4773 55.1457C71.1373 73.9836 41.7979 34.5421 74.6204 28.6487Z" fill="#A5BEC5"/>
<path fill-rule="evenodd" clip-rule="evenodd" d="M88.7363 69.1978C88.7363 69.1978 80.0874 65.2184 78.2556 58.715C78.2556 58.715 70.0112 50.6209 73.0283 43.8008C73.0283 43.8008 71.5212 32.3364 81.3923 28.1967C81.3923 28.1967 70.6461 20.2566 68.5157 31.7161C66.385 43.1757 62.3419 65.2931 68.7886 64.4333C75.235 63.5732 77.338 76.635 88.7363 69.1978Z" fill="#A5BEC5"/>
<path d="M91.3757 90.8692C95.9161 101.77 104.496 111.199 115.416 114.381C130.545 118.824 147.035 110.547 157.79 98.2712C163.936 91.2802 168.506 82.6744 171.082 73.6121C176.776 53.9263 179.667 24.2816 162.646 11.5033C142.054 -3.96137 108.626 -5.51149 93.6067 20.5005C83.2698 38.424 83.6877 72.4532 91.3757 90.8692Z" fill="#FFC09D"/>
<path fill-rule="evenodd" clip-rule="evenodd" d="M91.9211 69.2692C85.6579 68.2929 79.9287 71.6925 79.1246 76.8632C78.3209 82.0331 82.7471 87.0163 89.0102 87.9927C95.2734 88.9694 101.003 85.5697 101.807 80.3991C102.61 75.2288 98.1842 70.246 91.9211 69.2692Z" fill="#FF9D6B" fill-opacity="0.431373"/>
<path fill-rule="evenodd" clip-rule="evenodd" d="M143.582 69.1506C137.319 68.1742 131.59 71.5739 130.786 76.7442C129.982 81.9144 134.408 86.8973 140.671 87.874C146.935 88.8504 152.664 85.4507 153.468 80.2805C154.271 75.1102 149.846 70.1269 143.582 69.1506Z" fill="#FF9D6B" fill-opacity="0.431373"/>
<path d="M99.4601 68.4802C97.3231 68.3317 95.7327 66.373 95.908 64.1054C96.0832 61.8378 97.9577 60.1199 100.095 60.2684C102.232 60.417 103.822 62.3756 103.647 64.6432C103.472 66.9109 101.597 68.6287 99.4601 68.4802Z" fill="#29383E"/>
<path d="M171.632 58.6802C176.422 57.0431 182.781 57.1245 186.822 59.8327C190.188 62.0869 191.265 65.6098 191.226 68.852C191.179 73.0357 189.521 77.224 185.971 80.4169C182.42 83.6105 176.878 85.7052 171.085 85.5611C165.291 85.4181 159.438 82.8448 157.027 78.9636C152.401 71.5148 163.026 61.6227 171.632 58.6802Z" fill="#FFC09D"/>
<path d="M174.071 65.5095C169.928 68.3632 167.835 73.9745 170.979 75.202C172.717 75.8811 173.578 73.48 174.633 70.9359C177.007 65.2094 180.702 64.9897 180.818 64.145C180.943 63.2359 177.769 62.9626 174.071 65.5095Z" fill="#FF9A6C"/>
<path fill-rule="evenodd" clip-rule="evenodd" d="M131.544 91.7607C127.303 96.6478 126.924 95.8236 119.813 96.9539C125.821 100.913 133.02 97.0078 131.544 91.7607Z" fill="#29383E"/>
<path d="M80.9731 65.7748L81.023 65.3803L81.1113 64.9942L81.2362 64.6184L81.3958 64.2542L81.5886 63.9016L81.813 63.5617L82.0669 63.2349L82.3494 62.92L82.6589 62.6189L82.9945 62.33L83.355 62.0542L83.7397 61.7911L84.1477 61.541L84.5776 61.3037L85.0292 61.0796L85.5015 60.8683L85.9933 60.6707L86.5046 60.4865L87.0347 60.3164L87.5813 60.1607L88.1448 60.0191L88.7248 59.8923L89.3192 59.7806L89.9276 59.6845L90.5495 59.6035L91.1847 59.539L91.8308 59.4911L92.4882 59.4598L93.1557 59.4453L93.8321 59.4489L94.5176 59.4696L95.2101 59.5087L95.1377 60.4456L94.467 60.4073L93.804 60.3872L93.1494 60.3843L92.5043 60.3981L91.8695 60.428L91.2459 60.4745L90.6346 60.5369L90.036 60.6144L89.4514 60.707L88.8816 60.8137L88.3276 60.9349L87.7902 61.0701L87.2704 61.218L86.7692 61.379L86.2873 61.5527L85.8258 61.7383L85.3851 61.9348L84.9673 62.1426L84.5719 62.3603L84.2012 62.5879L83.8551 62.8249L83.5347 63.0697L83.2407 63.3226L82.9741 63.5822L82.7352 63.8477L82.5249 64.119L82.3427 64.3948L82.1893 64.6748L82.0649 64.9587L81.9695 65.2464L81.9023 65.5388L81.8643 65.8367L80.9731 65.7748ZM94.0949 73.9425L93.4037 73.8854L92.7228 73.8114L92.0527 73.7212L91.3944 73.6145L90.7489 73.4923L90.1169 73.3556L89.4989 73.2042L88.8957 73.0383L88.3083 72.859L87.7371 72.666L87.1835 72.4603L86.6475 72.2426L86.1308 72.0126L85.6327 71.7713L85.1554 71.5184L84.6989 71.255L84.2642 70.9806L83.8519 70.6967L83.463 70.4026L83.0979 70.0983L82.7577 69.7848L82.4433 69.4622L82.1555 69.13L81.896 68.7891L81.6646 68.439L81.4637 68.0804L81.2942 67.7134L81.1577 67.3379L81.0557 66.955L80.99 66.5662L80.9622 66.1717L80.9731 65.7748L81.8643 65.8367L81.8562 66.1365L81.8777 66.4352L81.928 66.7331L82.0075 67.0315L82.1158 67.3295L82.2537 67.6275L82.4201 67.9247L82.6156 68.2206L82.8393 68.5143L83.0912 68.8049L83.3704 69.0916L83.6768 69.3741L84.0088 69.6503L84.3662 69.9204L84.7481 70.1839L85.1533 70.4393L85.5817 70.6865L86.0316 70.9246L86.5029 71.1532L86.9942 71.3719L87.505 71.5797L88.0346 71.7763L88.5819 71.9608L89.1461 72.1331L89.7261 72.2926L90.3216 72.4385L90.9311 72.5709L91.5547 72.6889L92.1906 72.7914L92.8388 72.8787L93.498 72.9506L94.1673 73.0055L94.0949 73.9425ZM108.332 67.6761L108.282 68.0706L108.194 68.4566L108.069 68.8324L107.909 69.1966L107.716 69.5492L107.492 69.8891L107.238 70.2163L106.956 70.5308L106.646 70.832L106.311 71.1208L105.95 71.3966L105.565 71.6597L105.157 71.9098L104.727 72.1472L104.276 72.3715L103.803 72.5825L103.312 72.7801L102.8 72.9643L102.271 73.1344L101.724 73.2905L101.16 73.4317L100.581 73.5585L99.9862 73.6705L99.3774 73.7667L98.7552 73.8473L98.1203 73.9118L97.4742 73.9597L96.8169 73.9914L96.1493 74.0058L95.4726 74.0023L94.7874 73.9812L94.0949 73.9425L94.1673 73.0055L94.838 73.0436L95.5014 73.064L96.1556 73.0668L96.8007 73.0531L97.4356 73.0228L98.0591 72.9763L98.6708 72.914L99.2691 72.8368L99.8533 72.7442L100.423 72.6371L100.977 72.516L101.515 72.381L102.034 72.2328L102.536 72.0718L103.018 71.8982L103.479 71.7125L103.92 71.5163L104.338 71.3082L104.733 71.0905L105.104 70.8629L105.45 70.6259L105.77 70.3811L106.064 70.1282L106.331 69.8686L106.57 69.6034L106.78 69.3319L106.962 69.0561L107.116 68.776L107.24 68.4922L107.335 68.2044L107.403 67.9121L107.441 67.614L108.332 67.6761ZM95.2101 59.5087L95.9013 59.5658L96.5823 59.6398L97.2523 59.7299L97.9107 59.8366L98.5561 59.9589L99.1882 60.0955L99.8061 60.247L100.409 60.4129L100.997 60.5922L101.568 60.7852L102.122 60.9909L102.657 61.2086L103.174 61.4382L103.672 61.6798L104.15 61.9327L104.606 62.1962L105.041 62.4706L105.453 62.7544L105.842 63.0486L106.207 63.3525L106.547 63.666L106.862 63.989L107.149 64.3208L107.409 64.6617L107.64 65.0118L107.841 65.3704L108.011 65.7378L108.147 66.1132L108.249 66.4957L108.315 66.885L108.343 67.2791L108.332 67.6761L107.441 67.614L107.449 67.3143L107.427 67.016L107.377 66.7177L107.298 66.4197L107.189 66.1217L107.051 65.8234L106.885 65.5261L106.689 65.2302L106.466 64.9365L106.214 64.6462L105.935 64.3592L105.628 64.0774L105.296 63.8009L104.939 63.5307L104.557 63.2673L104.152 63.0119L103.723 62.7647L103.273 62.5266L102.802 62.2976L102.311 62.0792L101.8 61.8714L101.27 61.6749L100.723 61.4903L100.159 61.3181L99.5789 61.1585L98.9835 61.0127L98.3739 60.8803L97.7503 60.7623L97.1144 60.6598L96.4662 60.5724L95.807 60.5006L95.1377 60.4456L95.2101 59.5087Z" fill="#516970"/>
<path fill-rule="evenodd" clip-rule="evenodd" d="M110.63 59.6448C107.073 66.4363 96.0023 88.9603 111.291 86.3397L106.922 85.2091C103.352 83.355 109.521 65.3716 110.63 59.6448Z" fill="#29383E"/>
<path d="M132.543 69.8437C130.406 69.6952 128.816 67.7365 128.991 65.4689C129.166 63.2013 131.041 61.4835 133.178 61.632C135.315 61.7805 136.905 63.7391 136.73 66.0068C136.555 68.2744 134.68 69.9922 132.543 69.8437Z" fill="#29383E"/>
<path d="M115.35 68.1638L115.4 67.7693L115.488 67.3832L115.613 67.0074L115.773 66.6432L115.965 66.2907L116.19 65.9508L116.444 65.6235L116.726 65.309L117.036 65.0079L117.371 64.719L117.732 64.4432L118.117 64.1801L118.525 63.9301L118.954 63.6927L119.406 63.4683L119.878 63.257L120.37 63.0597L120.881 62.8755L121.411 62.7054L121.958 62.5494L122.522 62.4081L123.101 62.2813L123.696 62.1693L124.304 62.0731L124.927 61.9925L125.562 61.928L126.208 61.8801L126.865 61.8484L127.533 61.834L128.209 61.8375L128.894 61.8586L129.587 61.8974L129.515 62.8343L128.844 62.7963L128.18 62.7758L127.526 62.773L126.881 62.7867L126.246 62.817L125.623 62.8635L125.011 62.9259L124.413 63.003L123.829 63.0957L123.259 63.2027L122.704 63.3239L122.167 63.4588L121.647 63.6071L121.146 63.768L120.664 63.9417L120.203 64.1269L119.762 64.3235L119.344 64.5316L118.949 64.7493L118.578 64.9769L118.232 65.2139L117.912 65.4587L117.617 65.7116L117.351 65.9712L117.112 66.2364L116.902 66.508L116.72 66.7838L116.566 67.0638L116.442 67.3477L116.346 67.6354L116.279 67.9278L116.241 68.2258L115.35 68.1638ZM128.472 76.3314L127.781 76.2744L127.1 76.2004L126.43 76.1103L125.771 76.0035L125.126 75.8813L124.494 75.7447L123.876 75.5932L123.272 75.4273L122.685 75.248L122.114 75.055L121.56 74.8493L121.024 74.6316L120.508 74.4016L120.01 74.1604L119.532 73.9075L119.076 73.644L118.641 73.3696L118.229 73.0857L117.84 72.7916L117.475 72.4873L117.134 72.1738L116.82 71.8512L116.532 71.519L116.273 71.1781L116.041 70.828L115.841 70.4694L115.671 70.1024L115.535 69.7269L115.433 69.3441L115.367 68.9552L115.339 68.5607L115.35 68.1638L116.241 68.2258L116.233 68.5255L116.255 68.8242L116.305 69.1222L116.384 69.4205L116.493 69.7185L116.631 70.0165L116.797 70.3137L116.992 70.6096L117.216 70.9034L117.468 71.1939L117.747 71.4806L118.054 71.7631L118.386 72.0393L118.743 72.3094L119.125 72.5729L119.53 72.8282L119.959 73.0755L120.408 73.3136L120.88 73.5422L121.371 73.7609L121.882 73.9688L122.411 74.1653L122.959 74.3498L123.523 74.5221L124.103 74.6816L124.698 74.8275L125.308 74.9599L125.932 75.0779L126.567 75.1804L127.216 75.2678L127.875 75.3396L128.544 75.3945L128.472 76.3314ZM142.709 70.0651L142.659 70.4595L142.571 70.8456L142.446 71.2214L142.286 71.5856L142.093 71.9382L141.869 72.2781L141.615 72.6053L141.332 72.9198L141.023 73.221L140.687 73.5098L140.327 73.7856L139.942 74.0487L139.534 74.2988L139.104 74.5362L138.653 74.7605L138.18 74.9715L137.689 75.1691L137.177 75.3533L136.647 75.5235L136.101 75.6795L135.537 75.8207L134.957 75.9475L134.363 76.0595L133.754 76.1557L133.132 76.2364L132.497 76.3008L131.851 76.3487L131.194 76.3804L130.526 76.3949L129.849 76.3913L129.164 76.3702L128.472 76.3314L128.544 75.3945L129.215 75.4326L129.878 75.453L130.532 75.4558L131.177 75.4421L131.812 75.4118L132.436 75.3653L133.048 75.303L133.646 75.2258L134.23 75.1332L134.8 75.0261L135.354 74.9049L135.892 74.7701L136.411 74.6218L136.913 74.4608L137.395 74.2872L137.856 74.1015L138.297 73.9053L138.715 73.6972L139.11 73.4795L139.481 73.252L139.827 73.0149L140.147 72.7701L140.441 72.5173L140.708 72.2577L140.947 71.9924L141.157 71.7209L141.339 71.4451L141.492 71.1651L141.617 70.8812L141.712 70.5934L141.78 70.301L141.817 70.0031L142.709 70.0651ZM129.587 61.8974L130.278 61.9544L130.959 62.0284L131.629 62.1186L132.287 62.2253L132.933 62.3475L133.565 62.4842L134.183 62.6356L134.786 62.8015L135.374 62.9808L135.945 63.1738L136.498 63.3795L137.034 63.5972L137.551 63.8272L138.049 64.0685L138.526 64.3214L138.983 64.5848L139.418 64.8592L139.83 65.1431L140.219 65.4372L140.584 65.7416L140.924 66.055L141.239 66.3777L141.526 66.7098L141.786 67.0508L142.017 67.4009L142.218 67.7594L142.388 68.1264L142.524 68.5019L142.626 68.8848L142.692 69.2736L142.72 69.6681L142.709 70.0651L141.817 70.0031L141.826 69.7033L141.804 69.4047L141.754 69.1067L141.674 68.8083L141.566 68.5104L141.428 68.2124L141.262 67.9151L141.066 67.6192L140.842 67.3255L140.591 67.0349L140.311 66.7482L140.005 66.4657L139.673 66.1896L139.316 65.9194L138.934 65.6559L138.529 65.4006L138.1 65.1533L137.65 64.9152L137.179 64.6866L136.688 64.4679L136.177 64.2601L135.647 64.0635L135.1 63.879L134.536 63.7067L133.956 63.5472L133.36 63.4014L132.751 63.2689L132.127 63.1509L131.491 63.0485L130.843 62.9611L130.184 62.8892L129.515 62.8343L129.587 61.8974Z" fill="#516970"/>
<path d="M115.52 69.474L116.362 69.1429C116.445 69.3852 116.325 69.6564 116.093 69.7476C115.86 69.8389 115.604 69.7163 115.52 69.474ZM106.263 67.2782L106.552 67.1489L106.857 67.0327L107.175 66.9295L107.506 66.8383L107.848 66.7591L108.201 66.6914L108.561 66.6358L108.929 66.591L109.303 66.5583L109.682 66.5364L110.064 66.5259L110.448 66.5266L110.832 66.5386L111.215 66.5618L111.596 66.5963L111.973 66.6424L112.345 66.6999L112.711 66.7682L113.069 66.8492L113.417 66.9415L113.755 67.0458L114.082 67.1624L114.395 67.2916L114.693 67.4339L114.976 67.5899L115.242 67.7608L115.489 67.9467L115.715 68.1489L115.919 68.3694L116.097 68.6086L116.246 68.8664L116.362 69.1429L115.52 69.474L115.451 69.3102L115.359 69.1503L115.241 68.9928L115.099 68.8393L114.931 68.6899L114.74 68.5455L114.526 68.4085L114.291 68.2785L114.036 68.1574L113.763 68.0443L113.474 67.9411L113.17 67.8474L112.853 67.7636L112.526 67.6896L112.189 67.6262L111.844 67.573L111.493 67.5304L111.137 67.498L110.779 67.4762L110.42 67.4649L110.061 67.4642L109.705 67.4741L109.352 67.4945L109.005 67.5251L108.664 67.5663L108.333 67.6178L108.012 67.6791L107.704 67.7505L107.409 67.8319L107.13 67.9224L106.869 68.0218L106.626 68.1299L106.263 67.2782ZM106.263 67.2782L106.626 68.1299C106.401 68.2387 106.136 68.1362 106.036 67.9013C105.935 67.6664 106.037 67.3871 106.263 67.2782Z" fill="#516970"/>
<path d="M142.144 69.5835L142.383 70.4844C142.145 70.5574 141.898 70.4151 141.832 70.1664C141.767 69.9177 141.906 69.6564 142.144 69.5835ZM170.696 60.7818L170.829 60.8371L170.618 60.8712L170.249 60.9572L169.754 61.091L169.146 61.2689L168.436 61.4869L167.633 61.7412L166.746 62.029L165.783 62.3474L164.754 62.6922L163.667 63.0607L162.53 63.4492L161.352 63.8546L160.141 64.2741L158.906 64.7041L157.655 65.1413L156.397 65.5822L155.14 66.0243L153.893 66.4642L152.664 66.8974L151.461 67.3226L150.293 67.735L149.169 68.1323L148.097 68.5113L147.084 68.8678L146.141 69.1996L145.274 69.5028L144.493 69.7747L143.805 70.0118L143.22 70.2108L142.743 70.3693L142.383 70.4844L142.144 69.5835L142.489 69.4732L142.958 69.3175L143.539 69.12L144.224 68.8836L145.003 68.6124L145.868 68.3098L146.811 67.9781L147.823 67.6216L148.895 67.2433L150.02 66.846L151.187 66.4335L152.39 66.0084L153.619 65.5745L154.867 65.1345L156.125 64.6925L157.384 64.2508L158.635 63.8137L159.872 63.3837L161.084 62.9635L162.263 62.5573L163.403 62.1681L164.493 61.799L165.525 61.4528L166.491 61.1337L167.383 60.8438L168.193 60.5874L168.912 60.3665L169.534 60.1851L170.051 60.0449L170.461 59.9498L170.777 59.9009L171.17 59.9787L170.696 60.7818ZM170.696 60.7818L171.17 59.9787C171.379 60.1129 171.443 60.4017 171.312 60.6233C171.181 60.8448 170.905 60.916 170.696 60.7818Z" fill="#516970"/>
<path fill-rule="evenodd" clip-rule="evenodd" d="M141.811 150.676L133.009 164.667L124.605 162.647L125.628 144.851L130.756 144.182L132.86 148.824L139.305 146.637L141.811 150.676Z" fill="white"/>
<path fill-rule="evenodd" clip-rule="evenodd" d="M133.397 159.401L135.573 180.585L116.583 241.007L119.551 176.612L127.029 158.232L133.397 159.401Z" fill="white"/>
<path fill-rule="evenodd" clip-rule="evenodd" d="M115.306 278.175L113.492 278.166C114.073 270.691 114.785 263.116 115.761 255.308C115.647 262.446 115.512 270.2 115.306 278.175Z" fill="#73B5B3"/>
<path fill-rule="evenodd" clip-rule="evenodd" d="M133.524 86.5695C134.685 92.8 124.135 92.5523 124.135 92.5523C124.135 92.5523 121.427 96.1108 115.504 94.2279C115.504 94.2279 109.825 97.7145 110.42 89.1291C111.006 80.6574 132.364 80.3383 133.524 86.5695Z" fill="white"/>
<path fill-rule="evenodd" clip-rule="evenodd" d="M133.524 86.5696C133.524 86.5696 131.681 93.874 122.87 88.4526C122.45 92.4682 119.832 94.8841 115.61 92.1583C115.61 92.1583 111.272 94.0184 110.664 92.7736C110.056 91.5285 107.677 96.7372 111.004 97.2954C114.332 97.8537 138.171 95.2043 133.524 86.5696Z" fill="#A5BEC5"/>
<path fill-rule="evenodd" clip-rule="evenodd" d="M170.318 14.337C170.318 14.337 152.541 4.48854 144.32 22.374C144.32 22.374 126.57 30.8076 145.63 42.6796C145.63 42.6796 145.404 66.5702 163.536 55.5255C163.536 55.5255 173.738 67.7301 184.402 56.7471C184.402 56.7471 200.863 54.6045 193.996 38.6583C193.996 38.6583 202.767 22.429 186.947 20.4143C186.947 20.4143 180.985 11.3865 170.318 14.337Z" fill="white"/>
<path fill-rule="evenodd" clip-rule="evenodd" d="M186.947 20.4144C186.947 20.4144 196.823 26.2306 189.395 36.1774C189.395 36.1774 196.386 43.5304 183.807 45.599C183.807 45.599 178.729 54.7444 168.797 54.3609C166.775 54.2827 162.863 49.1811 160.24 46.195C159.759 45.6476 162.11 52.9294 161.295 52.7589C161.157 52.7301 158.122 51.7442 153.191 48.5372C151.41 47.3784 149.957 40.9475 148.403 39.6482C147.635 39.0064 144.417 39.8972 141.97 37.9318C138.81 35.393 136.323 29.9871 135.686 30.1974C132.266 31.3273 143.332 59.8207 143.152 59.7745C143.152 59.7745 177.182 80.0118 197.189 61.0792C217.196 42.1469 191.748 11.8829 187.115 14.4382C182.482 16.9936 164.866 4.2273 158.465 7.86963C152.064 11.512 156.662 3.17383 156.662 3.17383C156.662 3.17383 156.537 3.16502 172.646 5.18009C188.754 7.1955 185.457 17.2659 186.947 20.4144Z" fill="#A5BEC5"/>
<path d="M116.07 9.9859C114.617 9.88491 113.508 8.91132 113.593 7.81133C113.678 6.71133 114.925 5.90147 116.378 6.00245C117.831 6.10344 118.94 7.07703 118.855 8.17703C118.77 9.27702 117.523 10.0869 116.07 9.9859Z" fill="white"/>
<path fill-rule="evenodd" clip-rule="evenodd" d="M122.157 52.3179C122.157 52.3179 140.296 55.2131 142.112 53.868C143.927 52.5232 127.513 41.4092 122.157 52.3179Z" fill="white"/>
<path fill-rule="evenodd" clip-rule="evenodd" d="M111.343 52.1493C111.343 52.1493 92.9529 52.5061 91.3638 50.9246C89.7744 49.3428 107.722 40.6168 111.343 52.1493Z" fill="white"/>
<path fill-rule="evenodd" clip-rule="evenodd" d="M138.336 59.3174C138.336 59.3174 128.343 53.7181 124.795 59.3572L132.297 59.4287L138.336 59.3174Z" fill="#29383E"/>
<path fill-rule="evenodd" clip-rule="evenodd" d="M95.6313 57.1671C95.6313 57.1671 106.379 53.0091 109.022 59.0786L101.588 58.1121L95.6313 57.1671Z" fill="#29383E"/>
<path d="M229.089 277.785L215.157 285.781L179.313 291.46L174.619 269.311C174.619 269.311 182.903 269.943 190.931 251.753C211.883 240.652 229.677 228.596 229.677 228.596C230.653 238.005 242.254 256.815 239.199 268.514C238.385 271.631 231.487 276.409 229.089 277.785Z" fill="#A9DBD0"/>
<path d="M165.948 291.846L117.826 292.247C115.252 292.244 113.13 291.238 112.985 289.955C112.84 288.654 114.771 287.527 117.366 287.4L132.777 286.645C130.458 285.93 131.522 283.805 132.642 283.251C139.646 279.792 152.22 287.099 165.948 291.846Z" fill="#B33226"/>
<path fill-rule="evenodd" clip-rule="evenodd" d="M189.442 204.12L203.711 246.989L165.557 275.878C165.557 275.878 192.854 260.456 189.442 204.12Z" fill="#80BCBB"/>
<path d="M202.52 290.496L166.993 296.695C166.993 296.695 155.227 300.193 143.575 301.044C140.716 301.252 136.854 297.465 122.257 295.673C121.013 295.553 116.454 295.983 115.938 293.128C116.121 292.263 117.728 290.698 118.602 290.576L149.13 285.095C149.13 285.095 186.586 258.434 191.327 255.708L202.52 290.496Z" fill="#FF4736"/>
<path d="M40.1212 277.881L34.6709 236.825L42.7173 201.388L64.9969 205.251C64.9969 205.251 61.3344 212.718 75.2173 226.938C77.7279 250.542 83.1564 277.295 83.1564 277.295C70.9037 288.037 57.2438 300.149 40.1212 277.881Z" fill="#A9DBD0"/>
<path d="M34.5601 159.148L8.59893 143.073C7.15791 142.181 5.36344 142.525 4.5077 143.854C3.6407 145.203 4.03953 147.087 5.41407 148.127L17.1448 157.008L34.5601 159.148Z" fill="#B33226"/>
<path fill-rule="evenodd" clip-rule="evenodd" d="M40.0364 177.802L61.2053 183.018L71.5383 220.48L35.4595 226.456C35.7496 221.036 39.4191 184.013 40.0364 177.802Z" fill="#FF4736"/>
<path fill-rule="evenodd" clip-rule="evenodd" d="M42.5606 183.551L63.8033 192.439L62.2251 170.028C62.2251 170.028 62.5287 160.115 48.8093 153.246C40.2325 148.952 35.3559 144.931 32.9061 142.518C31.6322 141.263 29.7255 141.025 28.3981 142.008L28.3826 142.019C26.9809 143.055 26.6905 145.078 27.7505 146.638C29.806 149.654 33.6046 154.575 38.9716 158.84L3.60819 148.741C2.05814 148.257 0.53975 149.211 0.357557 150.785C0.229177 151.896 0.812328 153.023 1.81756 153.606L41.9078 182.682C41.9078 182.682 42.1375 182.988 42.5606 183.551Z" fill="#FF4736"/>
<path fill-rule="evenodd" clip-rule="evenodd" d="M93.4218 149.218C93.4218 149.218 70.4687 205.887 80.6736 246.513C80.2364 275.354 65.5414 282.997 44.8304 283.25C57.5945 298.318 79.0813 284.388 82.2279 280.352C85.3744 276.316 89.9092 197.897 93.4218 149.218Z" fill="#80BCBB"/>
</svg>
