<svg width="174" height="498" viewBox="0 0 174 498" fill="none" xmlns="http://www.w3.org/2000/svg">
<g clip-path="url(#clip0_188_75)">
<path d="M107.781 223.737L114.202 244.103L112.628 271.575L95.5255 271.494C95.5255 271.494 97.3245 265.458 85.191 256.587C80.3684 239.278 74.3331 224.157 74.3331 224.157L107.781 223.737Z" fill="#A9DBD0"/>
<path d="M81.8267 135.854C81.8267 135.854 89.455 136.268 94.5075 146.88C96.4498 150.959 97.269 158.771 97.8189 163.257L108.502 227.766C109.319 232.693 106.564 237.517 101.91 239.309C95.2988 241.854 75.8992 232.427 75.4596 225.341L81.8267 135.854Z" fill="#ADDBD3"/>
<path d="M15.1307 123.799C15.1307 123.799 7.87181 121.415 -0.680954 129.47C-3.96861 132.565 -7.56223 139.548 -9.69995 143.529L-43.0262 199.767C-45.572 204.063 -44.7522 209.559 -41.065 212.918C-35.8256 217.69 -12.8528 215.254 -9.87591 208.81L9.75227 172.2L15.1307 123.799Z" fill="#ADDBD3"/>
<path d="M31.3833 455.838C31.6435 458.956 31.2133 462.622 28.5777 464.3C26.8347 465.41 12.397 465.386 10.0969 461.781C7.82929 458.226 8.90974 454.544 9.34031 452.415C11.4054 442.198 11.64 435.078 13.7054 424.861C17.336 425.184 20.6673 425.661 24.3075 425.459C24.5463 428.773 24.6259 431.588 24.9781 434.925C25.378 438.706 31.0977 452.396 31.3833 455.838Z" fill="#1A2E35"/>
<path fill-rule="evenodd" clip-rule="evenodd" d="M21.5491 274.782C14.2214 287.173 -9.2675 338.391 -17.515 352.657L-50.2713 425.706C-50.2713 425.706 -63.8796 423.747 -68.9959 417.818C-64.9119 399.153 -47.0969 355.954 -41.7679 340.758C-32.5877 313.784 -23.0492 274.256 -17.4079 261.035C-13.1876 251.143 -10.0131 252.407 -4.64522 243.192C22.3176 252.737 26.4916 255.331 25.9506 261.081C25.4777 266.109 21.7802 274.929 21.5491 274.782Z" fill="#1A2E35"/>
<path fill-rule="evenodd" clip-rule="evenodd" d="M29.0504 251.02C26.9255 283.24 25.629 309.308 21.5137 342.811L9.66971 437.104C17.6087 439.961 29.9889 442.056 32.2014 440.086C39.7782 420.81 44.3113 365.459 48.8704 341.878C55.8319 305.864 63.3203 287.307 58.8034 250.907C53.8306 252.471 42.2567 252.078 29.9323 251.091L29.0504 251.02Z" fill="#1A2E35"/>
<path d="M36.2598 130.879C36.2598 130.879 36.7185 226.61 51.7582 224.339C66.7982 222.067 66.8046 126.983 66.8046 126.983L61.2283 120.614C61.2283 120.614 64.1831 127.945 58.4376 138.592C58.4376 138.592 41.8554 121.552 37.5629 123.929C33.2699 126.304 36.2598 130.879 36.2598 130.879Z" fill="#1A2E35"/>
<path d="M2.29785 127.913C0.150773 129.246 -1.98441 130.731 -3.39638 132.827C-7.8521 139.437 -6.94395 193.402 -9.8763 208.811L-38.2053 299.285L-47.9085 312.466C-32.8942 320.8 -2.64244 350.07 14.5169 350.542C17.5753 335.931 22.342 329.668 27.3857 315.62C30.5603 306.776 51.4976 234.867 50.7385 203.155C50.6942 201.245 48.6715 144.119 44.8214 131.38C42.3096 123.072 42.2507 115.252 34.0538 117.349C26.277 119.338 9.10913 123.683 2.29785 127.913Z" fill="#ADDBD3"/>
<path d="M66.8047 126.983C73.5307 129.27 84.1016 134.892 86.2659 140.936C87.6453 144.786 87.4317 149.001 87.2014 153.088C85.7475 178.845 77.9149 203.529 74.9873 229.162C72.4686 251.208 71.5488 303.159 67.1465 331.729C66.7925 334.026 71.4681 338.061 71.4999 339.98C52.3531 348.225 39.1656 350.711 25.3551 350.864C26.988 342.948 24.2018 337.399 27.3857 315.62C30.495 294.346 38.3781 254.25 39.5155 246.436C47.0324 222.104 54.1777 198.116 57.9596 177.7C61.2429 159.975 63.1589 147.955 66.8047 126.983Z" fill="#ADDBD3"/>
<path d="M33.4458 123.236C32.555 127.95 41.377 129.323 49.0731 132.299C53.105 133.858 58.4379 138.592 58.4379 138.592C58.4379 138.592 58.5202 138.235 61.2428 131.044L73.0313 101.519L43.1251 83.1137L33.6594 122.308C33.5816 122.616 33.5048 122.925 33.4458 123.236Z" fill="#FFC09D"/>
<path fill-rule="evenodd" clip-rule="evenodd" d="M79.85 163.631L64.1125 167.13L73.0408 169.167C73.0408 169.167 63.5624 201.32 47.8486 222.491L65.4998 135.863C66.0442 133.192 66.5198 131.37 67.003 130.152C68.2922 126.903 70.6458 127.458 72.6456 129.56C79.0042 136.243 81.6323 161.447 79.85 163.631Z" fill="#73B5B3"/>
<path fill-rule="evenodd" clip-rule="evenodd" d="M24.181 157.206L42.1969 163.769L31.9921 164.291C31.9921 164.291 36.4241 188.043 50.9174 211.643L47.038 134.622C46.9003 131.881 44.5315 127.949 44.1652 126.662C43.1882 123.229 34.363 114.184 31.4172 115.014C16.7229 119.157 22.5066 154.746 24.181 157.206Z" fill="#73B5B3"/>
<path d="M42.4415 143.147C45.7183 138.16 47.0334 137.985 51.4815 134.012C53.7258 137.009 55.9696 140.004 58.2129 143C59.2676 140.395 60.5074 137.865 61.9196 135.436C64.4257 138.687 66.4713 142.293 68.5151 145.853C70.8678 141.122 72.162 136.565 71.105 130.45C70.0161 124.148 69.4789 122.425 65.1049 121.371C61.977 126.432 59.2349 131.415 56.5014 136.133C52.409 132.445 41.5215 116.636 36.672 109.833C36.672 109.833 29.95 114.874 29.2541 118.586C28.4153 123.059 39.363 138.1 42.4415 143.147Z" fill="#385A64"/>
<path d="M48.6211 88.2688C46.0297 102.281 51.9759 117.303 65.6205 119.946L73.5333 99.7829L74.257 97.2234L48.6211 88.2688Z" fill="#FF9A6C"/>
<path fill-rule="evenodd" clip-rule="evenodd" d="M104.297 88.2737C104.297 88.2737 91.8353 94.09 88.2334 79.9201C88.2334 79.9201 77.55 72.0034 91.0382 64.7811C91.0382 64.7811 93.1932 46.8117 103.872 56.7242C103.872 56.7242 111.655 48.4634 117.504 57.6648C117.504 57.6648 127.959 60.7403 121.975 72.1093C121.975 72.1093 126.093 85.0836 115.653 85.1886C115.653 85.1886 110.921 91.4402 104.297 88.2737Z" fill="#A5BEC5"/>
<path fill-rule="evenodd" clip-rule="evenodd" d="M121.532 62.9114C121.532 62.9114 127.948 70.6129 121.625 83.6919C115.302 96.7713 144.389 73.5916 121.532 62.9114Z" fill="#A5BEC5"/>
<path fill-rule="evenodd" clip-rule="evenodd" d="M104.297 88.2739C104.297 88.2739 111.391 87.0385 113.989 82.6334C113.989 82.6334 121.584 78.308 120.699 72.7308C120.699 72.7308 124.02 64.6312 117.604 59.6867C117.604 59.6867 126.998 55.9588 126.337 64.7603C125.676 73.5617 124.351 90.535 119.804 88.6552C115.257 86.7754 111.191 95.9284 104.297 88.2739Z" fill="#A5BEC5"/>
<path d="M98.1723 103.625C92.7422 110.724 84.6437 115.961 76.0438 116.172C64.1228 116.49 53.6684 107.233 48.1816 96.1616C45.0413 89.8521 43.3662 82.6671 43.2371 75.5339C42.8846 60.0202 46.5098 37.7602 61.4281 31.7081C79.477 24.3822 104.218 29.731 110.163 51.6841C114.251 66.8084 107.358 91.636 98.1723 103.625Z" fill="#FFC09D"/>
<path fill-rule="evenodd" clip-rule="evenodd" d="M101.955 87.7088C106.723 88.2088 110.254 91.8085 109.841 95.7489C109.427 99.6893 105.227 102.478 100.458 101.978C95.6901 101.478 92.1595 97.8786 92.5726 93.9382C92.9858 89.9978 97.1864 87.2088 101.955 87.7088Z" fill="#FF9D6B" fill-opacity="0.431373"/>
<path fill-rule="evenodd" clip-rule="evenodd" d="M64.2065 77.6017C68.9749 78.1017 72.5055 81.7013 72.0923 85.6418C71.6791 89.5822 67.4785 92.3712 62.7102 91.8711C57.9418 91.3711 54.4112 87.7715 54.8244 83.831C55.2376 79.8906 59.4381 77.1016 64.2065 77.6017Z" fill="#FF9D6B" fill-opacity="0.431373"/>
<path d="M95.8902 85.097C97.4814 85.4028 99.0233 84.2776 99.3341 82.5838C99.645 80.89 98.6071 79.269 97.0159 78.9632C95.4247 78.6574 93.8828 79.7827 93.5719 81.4765C93.2611 83.1703 94.299 84.7913 95.8902 85.097Z" fill="#29383E"/>
<path d="M45.7253 64.4976C42.5402 62.3704 37.8754 61.1966 34.3965 62.3952C31.499 63.3922 30.0299 65.7623 29.4301 68.1429C28.6552 71.2144 29.0564 74.6017 31.034 77.6274C33.0118 80.6537 36.6579 83.2618 40.922 84.2801C45.1857 85.2992 49.9628 84.5505 52.477 82.1773C57.3009 77.6222 51.4477 68.3206 45.7253 64.4976Z" fill="#FFC09D"/>
<path d="M42.6202 69.0232C45.0965 71.9154 45.5405 76.4287 43.0043 76.7176C41.6027 76.8776 41.4378 74.9532 41.1591 72.8862C40.5315 68.2344 37.8723 67.3565 37.9515 66.7158C38.0362 66.0261 40.4091 66.4415 42.6202 69.0232Z" fill="#FF9A6C"/>
<path fill-rule="evenodd" clip-rule="evenodd" d="M68.6315 96.4868C70.7862 100.886 71.2227 100.356 76.2029 102.563C71.0442 104.295 66.5364 100.041 68.6315 96.4868Z" fill="#29383E"/>
<path d="M110.636 87.2739L109.972 87.1464L110.001 86.921L110.01 86.6939L109.995 86.4648L109.959 86.2325L109.901 85.9982L109.821 85.7609L109.72 85.5215L109.597 85.2809L109.452 85.0391L109.286 84.797L109.1 84.5554L108.892 84.3154L108.665 84.0765L108.419 83.8404L108.153 83.6074L107.869 83.3779L107.568 83.1527L107.249 82.9323L106.913 82.7172L106.562 82.5079L106.195 82.3048L105.814 82.1088L105.418 81.9197L105.008 81.7387L104.586 81.5659L104.151 81.4018L103.704 81.2469L103.245 81.1015L102.777 80.9662L102.297 80.8417L101.809 80.728L101.311 80.6256L101.439 79.9258L101.953 80.0314L102.458 80.149L102.954 80.2779L103.439 80.4181L103.913 80.5684L104.377 80.7289L104.828 80.8995L105.267 81.0789L105.694 81.2676L106.107 81.4648L106.506 81.6697L106.891 81.8827L107.261 82.1031L107.615 82.3303L107.953 82.564L108.274 82.8042L108.579 83.0504L108.866 83.3022L109.134 83.5594L109.384 83.8215L109.614 84.0886L109.824 84.3606L110.014 84.6368L110.182 84.9175L110.328 85.2023L110.45 85.491L110.548 85.7834L110.621 86.0788L110.667 86.3764L110.685 86.6758L110.675 86.9756L110.636 87.2739ZM99.4608 90.7075L99.5892 90.0076L100.089 90.0971L100.585 90.1727L101.076 90.2343L101.561 90.2822L102.039 90.3168L102.511 90.3384L102.974 90.347L103.429 90.343L103.875 90.3262L104.311 90.2971L104.736 90.2559L105.15 90.203L105.552 90.1384L105.94 90.0625L106.315 89.9752L106.676 89.8774L107.022 89.7689L107.352 89.6503L107.666 89.5218L107.962 89.3839L108.24 89.2369L108.5 89.0813L108.741 88.9172L108.961 88.7456L109.161 88.5668L109.341 88.3816L109.499 88.1901L109.636 87.9931L109.752 87.7902L109.847 87.5816L109.92 87.3675L109.972 87.1464L110.636 87.2739L110.567 87.5667L110.47 87.8497L110.347 88.1218L110.198 88.3819L110.026 88.6304L109.83 88.8663L109.614 89.09L109.377 89.3015L109.121 89.5004L108.847 89.6877L108.555 89.863L108.245 90.0266L107.92 90.178L107.578 90.3181L107.221 90.4462L106.851 90.5623L106.466 90.6668L106.068 90.7591L105.657 90.8397L105.235 90.9074L104.801 90.9631L104.356 91.006L103.901 91.0363L103.437 91.0539L102.964 91.0582L102.483 91.0493L101.994 91.027L101.499 90.9912L100.997 90.9415L100.489 90.8775L99.9772 90.7997L99.4608 90.7075ZM90.2644 83.3593L90.9283 83.4869L90.8986 83.7122L90.8905 83.9393L90.9048 84.1685L90.9411 84.4008L90.9987 84.635L91.0786 84.8724L91.1798 85.1118L91.303 85.3523L91.4478 85.5941L91.6137 85.8362L91.8005 86.0778L92.0078 86.3179L92.2349 86.5567L92.4814 86.7928L92.747 87.0258L93.0308 87.2554L93.3324 87.4806L93.6512 87.7009L93.9868 87.916L94.338 88.1253L94.7049 88.3284L95.0863 88.5245L95.4825 88.7135L95.8918 88.8945L96.3145 89.0673L96.7493 89.2314L97.1964 89.3864L97.6546 89.5318L98.1235 89.667L98.6026 89.7915L99.0915 89.9053L99.5892 90.0076L99.4608 90.7075L98.9467 90.6018L98.4417 90.4842L97.9465 90.3553L97.461 90.2151L96.9867 90.0648L96.5231 89.9044L96.0718 89.7337L95.6326 89.5544L95.206 89.3656L94.7931 89.1684L94.3938 88.9635L94.0092 88.7505L93.6394 88.5302L93.2853 88.3029L92.947 88.0693L92.6255 87.8291L92.321 87.5829L92.0344 87.3311L91.7656 87.0739L91.5162 86.8118L91.2861 86.5447L91.0757 86.2727L90.8861 85.9964L90.7182 85.7158L90.5723 85.431L90.4501 85.1422L90.3518 84.8498L90.2793 84.5545L90.2332 84.2568L90.2145 83.9575L90.2248 83.6577L90.2644 83.3593ZM101.439 79.9258L101.311 80.6256L100.811 80.5362L100.315 80.4606L99.8243 80.3989L99.3395 80.3511L98.8606 80.3161L98.3894 80.2946L97.9257 80.2859L97.4708 80.2903L97.025 80.3068L96.5891 80.3359L96.164 80.3771L95.7503 80.43L95.3487 80.4949L94.9598 80.5708L94.5847 80.6578L94.2238 80.7556L93.8781 80.8641L93.5478 80.9829L93.2345 81.1112L92.9381 81.2493L92.6597 81.3963L92.4 81.552L92.1594 81.7161L91.9389 81.8876L91.7388 82.0664L91.5594 82.2517L91.401 82.4432L91.264 82.6404L91.1484 82.8428L91.0537 83.0517L90.9802 83.2657L90.9283 83.4869L90.2644 83.3593L90.3334 83.0665L90.4302 82.7836L90.5534 82.5117L90.7019 82.2511L90.8748 82.0029L91.0694 81.767L91.286 81.5432L91.5227 81.3318L91.7786 81.1329L92.0532 80.9455L92.3455 80.7702L92.655 80.6067L92.9807 80.455L93.322 80.3151L93.6784 80.1868L94.0495 80.0707L94.4342 79.9662L94.8323 79.8736L95.243 79.7936L95.6653 79.7255L96.0996 79.67L96.5441 79.627L96.9989 79.5967L97.4629 79.5793L97.9361 79.5748L98.4174 79.5837L98.9062 79.606L99.4015 79.6421L99.9032 79.6918L100.411 79.7557L100.923 79.8336L101.439 79.9258Z" fill="#516970"/>
<path fill-rule="evenodd" clip-rule="evenodd" d="M90.1386 77.0347C91.4246 82.6958 95.1589 101.33 84.4881 96.4466L87.9012 96.4663C90.8702 95.8018 89.8412 81.4421 90.1386 77.0347Z" fill="#29383E"/>
<path d="M72.1426 80.25C73.7338 80.5558 75.2757 79.4305 75.5866 77.7367C75.8974 76.0429 74.8595 74.4219 73.2683 74.1162C71.6771 73.8104 70.1352 74.9356 69.8244 76.6294C69.5135 78.3232 70.5514 79.9442 72.1426 80.25Z" fill="#29383E"/>
<path d="M85.0392 82.3551L84.3753 82.2275L84.4051 82.0022L84.4131 81.7754L84.3989 81.5459L84.3625 81.3139L84.305 81.0794L84.2253 80.842L84.1238 80.6029L84.0006 80.3621L83.8558 80.1203L83.6899 79.8785L83.5032 79.6368L83.2957 79.3963L83.0687 79.1577L82.8222 78.9216L82.5567 78.6886L82.2728 78.4593L81.9712 78.2341L81.6524 78.0135L81.3168 77.7984L80.9656 77.5891L80.5988 77.3862L80.2173 77.1899L79.8214 77.0012L79.4119 76.8201L78.9892 76.6471L78.5546 76.4833L78.1072 76.3283L77.649 76.1829L77.1801 76.0477L76.701 75.9231L76.2122 75.8094L75.7144 75.707L75.8429 75.0072L76.3569 75.1129L76.8619 75.2305L77.3571 75.3593L77.8427 75.4996L78.3169 75.6498L78.7803 75.8103L79.2318 75.9807L79.671 76.1603L80.0974 76.349L80.5106 76.546L80.9098 76.7512L81.2944 76.9639L81.6642 77.1842L82.0184 77.4115L82.3566 77.6454L82.6781 77.8856L82.9826 78.1315L83.2692 78.3833L83.5381 78.6405L83.7877 78.9029L84.0175 79.17L84.228 79.4415L84.4175 79.718L84.5855 79.9986L84.7313 80.2837L84.8533 80.5722L84.9518 80.8646L85.0244 81.1602L85.0705 81.4576L85.0891 81.7572L85.0788 82.0567L85.0392 82.3551ZM73.8644 85.7886L73.9929 85.0888L74.493 85.1783L74.9888 85.2538L75.4794 85.3155L75.9641 85.3633L76.443 85.3983L76.9142 85.4198L77.378 85.4285L77.8329 85.4242L78.2787 85.4076L78.7145 85.3785L79.1396 85.3373L79.5533 85.2844L79.955 85.2195L80.3438 85.1436L80.7189 85.0567L81.0798 84.9588L81.4256 84.8503L81.7558 84.7315L82.0691 84.6032L82.3656 84.4651L82.6439 84.3181L82.9037 84.1624L83.1442 83.9983L83.3647 83.8268L83.5648 83.648L83.7442 83.4627L83.9026 83.2712L84.0396 83.074L84.1553 82.8716L84.2499 82.6627L84.3235 82.4487L84.3753 82.2275L85.0392 82.3551L84.9703 82.6479L84.8735 82.9309L84.7502 83.2027L84.6017 83.4634L84.4289 83.7115L84.2343 83.9475L84.0177 84.1712L83.781 84.3826L83.525 84.5816L83.2504 84.7689L82.9581 84.9442L82.6486 85.1078L82.3229 85.2594L81.9817 85.3993L81.6253 85.5277L81.2541 85.6437L80.8695 85.7482L80.4714 85.8408L80.0607 85.9208L79.6384 85.9889L79.204 86.0445L78.7595 86.0874L78.3048 86.1178L77.8407 86.1351L77.3676 86.1396L76.8862 86.1307L76.3974 86.1084L75.9021 86.0723L75.4004 86.0226L74.893 85.9587L74.3808 85.8809L73.8644 85.7886ZM64.668 78.4405L65.332 78.568L65.3022 78.7934L65.2941 79.0205L65.3084 79.2497L65.3447 79.4819L65.4023 79.7162L65.4823 79.9536L65.5834 80.1929L65.7066 80.4335L65.8514 80.6753L66.0173 80.9174L66.2041 81.159L66.4113 81.399L66.6386 81.6379L66.885 81.874L67.1506 82.107L67.4344 82.3365L67.736 82.5618L68.0548 82.7821L68.3904 82.9972L68.7416 83.2065L69.1085 83.4096L69.4899 83.6057L69.8861 83.7947L70.2954 83.9757L70.7181 84.1485L71.1529 84.3126L71.6 84.4676L72.0582 84.6129L72.5271 84.7482L73.0062 84.8727L73.4951 84.9865L73.9929 85.0888L73.8644 85.7886L73.3503 85.683L72.8453 85.5654L72.3501 85.4365L71.8646 85.2963L71.3903 85.146L70.9267 84.9856L70.4754 84.8149L70.0362 84.6356L69.6096 84.4468L69.1967 84.2496L68.7974 84.0447L68.4129 83.8317L68.043 83.6113L67.6889 83.3841L67.3506 83.1505L67.0292 82.9103L66.7246 82.6641L66.4381 82.4123L66.1692 82.155L65.9198 81.8929L65.6897 81.6258L65.4793 81.3539L65.2898 81.0776L65.1218 80.7969L64.9759 80.5121L64.8537 80.2234L64.7554 79.931L64.6829 79.6356L64.6368 79.338L64.6181 79.0386L64.6284 78.7388L64.668 78.4405ZM75.8429 75.0072L75.7144 75.707L75.2142 75.6176L74.7184 75.542L74.2279 75.4804L73.7431 75.4325L73.2642 75.3976L72.793 75.376L72.3293 75.3674L71.8743 75.3717L71.4286 75.3882L70.9927 75.4173L70.5676 75.4586L70.1539 75.5115L69.7522 75.5763L69.3634 75.6522L68.9883 75.7392L68.6274 75.837L68.2816 75.9456L67.9514 76.0643L67.6381 76.1926L67.3416 76.3308L67.0633 76.4778L66.8035 76.6337L66.563 76.7972L66.3425 76.9691L66.1424 77.1476L65.963 77.3329L65.8047 77.5243L65.6676 77.7215L65.552 77.9239L65.4573 78.1328L65.3838 78.3469L65.332 78.568L64.668 78.4405L64.737 78.1477L64.8338 77.8647L64.957 77.5929L65.1055 77.3322L65.2784 77.0841L65.473 76.8481L65.6896 76.6244L65.9262 76.4132L66.1823 76.214L66.4568 76.0267L66.7491 75.8516L67.0586 75.6881L67.3843 75.5364L67.7256 75.3965L68.0819 75.2682L68.4531 75.1521L68.8378 75.0476L69.2359 74.955L69.6466 74.875L70.0689 74.8069L70.5032 74.7514L70.9477 74.7084L71.4024 74.6781L71.8665 74.6608L72.3396 74.6562L72.821 74.6651L73.3098 74.6874L73.8051 74.7235L74.3068 74.7732L74.8143 74.8371L75.3264 74.915L75.8429 75.0072Z" fill="#516970"/>
<path d="M84.6613 83.2811C84.5535 83.4423 84.3422 83.4823 84.19 83.3706C84.0377 83.2589 84.0021 83.0369 84.11 82.8758L84.6613 83.2811ZM91.8548 83.4696L91.424 84.0225L91.2679 83.8964L91.096 83.773L90.9099 83.6524L90.7097 83.5357L90.4981 83.4237L90.2753 83.3164L90.0431 83.2145L89.8022 83.1185L89.5543 83.0286L89.3001 82.9454L89.0412 82.8689L88.7788 82.7998L88.5142 82.7383L88.2484 82.6847L87.9821 82.6396L87.7174 82.6027L87.4547 82.5749L87.1959 82.5561L86.9422 82.5464L86.6946 82.5464L86.4544 82.5558L86.2231 82.5758L86.0014 82.6051L85.7913 82.6448L85.5943 82.6941L85.4111 82.7532L85.2432 82.8214L85.0922 82.8984L84.9582 82.9832L84.842 83.0754L84.7433 83.1747L84.6613 83.2811L84.11 82.8758L84.2484 82.6959L84.4075 82.5359L84.5838 82.3953L84.7753 82.2736L84.9798 82.1695L85.1964 82.0812L85.4234 82.0079L85.6605 81.9483L85.9066 81.9023L86.1603 81.8683L86.4213 81.846L86.6889 81.8352L86.9617 81.8351L87.2388 81.8457L87.5194 81.8662L87.8027 81.8962L88.0875 81.9357L88.3726 81.9844L88.6574 82.0416L88.9407 82.1073L89.2213 82.1815L89.4985 82.2631L89.7713 82.3526L90.0383 82.4492L90.2986 82.5532L90.5518 82.6642L90.796 82.7818L91.0309 82.9065L91.2552 83.0375L91.4679 83.1749L91.6681 83.3189L91.8548 83.4696ZM91.8548 83.4696C91.9984 83.593 92.0185 83.8172 91.8998 83.9697C91.7811 84.1221 91.5675 84.1459 91.424 84.0225L91.8548 83.4696Z" fill="#516970"/>
<path d="M65.1747 78.1978C65.3344 78.2974 65.3858 78.5158 65.2895 78.6848C65.1931 78.8538 64.985 78.9103 64.8253 78.8107L65.1747 78.1978ZM46.0029 66.2173L45.8115 65.5376L46.1139 65.557L46.3357 65.6537L46.6169 65.8033L46.968 66.0059L47.3873 66.2595L47.8704 66.5607L48.4128 66.9055L49.0091 67.2904L49.654 67.7117L50.3415 68.1651L51.0668 68.6466L51.8242 69.1524L52.6082 69.6787L53.4132 70.2211L54.2338 70.7757L55.0644 71.3387L55.8991 71.9063L56.733 72.4737L57.5601 73.0375L58.3752 73.5933L59.1722 74.1379L59.9463 74.6666L60.6914 75.1754L61.4019 75.6602L62.0727 76.1175L62.6979 76.5429L63.2717 76.9324L63.7891 77.2818L64.2441 77.5875L64.631 77.845L64.9433 78.0502L65.1747 78.1978L64.8253 78.8107L64.5838 78.6566L64.2665 78.4483L63.8767 78.1888L63.4201 77.8819L62.9013 77.5317L62.3264 77.1416L61.7007 76.7156L61.0299 76.2583L60.319 75.7729L59.5739 75.2641L58.7998 74.7354L58.0028 74.1914L57.1882 73.6356L56.3611 73.0719L55.5277 72.5045L54.6935 71.9375L53.8638 71.3751L53.0437 70.8211L52.2398 70.2788L51.4568 69.7537L50.7009 69.2486L49.9771 68.7683L49.2915 68.3162L48.6492 67.8968L48.0564 67.5139L47.5185 67.1716L47.0414 66.8744L46.6317 66.6265L46.2952 66.4325L46.0429 66.2982L45.8949 66.2323L46.0029 66.2173ZM46.0029 66.2173C45.8241 66.2747 45.6359 66.1692 45.583 65.9816C45.5302 65.794 45.6327 65.595 45.8115 65.5376L46.0029 66.2173Z" fill="#516970"/>
<path d="M112.845 300.299L120.627 316.012C121.059 316.884 122.095 317.267 122.988 316.887C123.893 316.5 124.334 315.467 123.987 314.544L121.025 306.662L112.845 300.299Z" fill="#B33226"/>
<path d="M88.6851 260.604L100.72 285.136C100.72 285.136 98.8619 291.274 103.531 298.792C106.45 303.492 107.568 306.927 107.996 308.843C108.218 309.839 109.112 310.538 110.128 310.47L110.14 310.469C111.212 310.396 112.054 309.508 112.045 308.43C112.027 306.342 111.768 302.802 110.481 299.098L125.122 314.8C125.749 315.508 126.853 315.512 127.485 314.807C127.931 314.309 128.019 313.585 127.704 312.996L117.144 286.676C117.144 286.676 115.356 256.065 114.91 251.944L88.6851 260.604Z" fill="#FF4736"/>
<path fill-rule="evenodd" clip-rule="evenodd" d="M49.7191 137.619L53.4466 149.568L59.982 149.72L62.6786 136.495L59.0592 135.01L56.6222 138L52.3334 135.15L49.7191 137.619Z" fill="white"/>
<path fill-rule="evenodd" clip-rule="evenodd" d="M54.1828 145.638L48.4902 160.723L50.6777 208.632L60.9738 160.922L59.0641 146.017L54.1828 145.638Z" fill="white"/>
<path fill-rule="evenodd" clip-rule="evenodd" d="M48.5107 219.26C45.8553 238.895 41.5775 256.065 38.2293 275.378C36.1137 287.582 32.813 296.96 30.4425 308.863C31.2871 297.386 34.8199 286.499 36.4929 275.106C38.9968 258.054 44.3014 236.267 48.5107 219.26Z" fill="#73B5B3"/>
<path fill-rule="evenodd" clip-rule="evenodd" d="M68.1882 92.3026C66.1337 96.6383 73.895 98.5031 73.895 98.5031C73.895 98.5031 75.1857 101.633 79.881 101.403C79.881 101.403 83.3579 105.057 84.5853 98.6576C85.7961 92.3426 70.2427 87.9668 68.1882 92.3026Z" fill="white"/>
<path fill-rule="evenodd" clip-rule="evenodd" d="M68.1882 92.3028C68.1882 92.3028 68.1222 98.0068 75.6136 95.7474C75.1435 98.7683 76.5893 101.044 80.2045 99.868C80.2045 99.868 83.016 102.071 83.7013 101.278C84.3866 100.484 85.1178 104.758 82.5771 104.522C80.0364 104.285 63.1191 97.7217 68.1882 92.3028Z" fill="#A5BEC5"/>
<path fill-rule="evenodd" clip-rule="evenodd" d="M55.2701 32.2941C55.2701 32.2941 70.1742 28.5332 72.7228 43.2194C72.7228 43.2194 84.0677 52.8353 67.8336 57.8284C67.8336 57.8284 63.3741 75.3596 52.2556 63.7586C52.2556 63.7586 42.4339 70.7131 36.7628 60.6055C36.7628 60.6055 25.1427 55.8444 33.25 45.5042C33.25 45.5042 29.979 31.9236 41.9356 33.5174C41.9356 33.5174 48.0422 28.0657 55.2701 32.2941Z" fill="white"/>
<path fill-rule="evenodd" clip-rule="evenodd" d="M41.9356 33.5174C41.9356 33.5174 33.5895 35.8591 37.0947 44.5808C37.0947 44.5808 30.56 48.6069 39.3563 52.5608C39.3563 52.5608 41.2983 60.2399 48.6343 61.8855C50.1282 62.2205 53.9757 59.2449 56.4715 57.5678C56.9293 57.2605 53.8005 62.1344 54.4302 62.168C54.5363 62.1735 56.9457 62.0405 61.1716 60.6495C62.6985 60.1469 65.0054 55.7213 66.3936 55.0717C67.0794 54.7508 69.2594 56.0271 71.429 55.0629C74.231 53.8178 77.0959 50.343 77.5208 50.6206C79.8024 52.1108 66.1962 70.8209 66.3362 70.8219C66.3362 70.8219 37.5379 79.0348 26.5753 61.2964C15.6125 43.558 40.077 26.3413 42.9701 29.1104C45.8629 31.8794 61.2136 25.9514 65.1884 29.8588C69.1631 33.7665 67.4157 26.7713 67.4157 26.7713C67.4157 26.7713 67.509 26.7894 55.3413 25.1402C43.1736 23.491 43.6353 31.5018 41.9356 33.5174Z" fill="#A5BEC5"/>
<path d="M95.7743 39.6312C96.8563 39.8392 97.8557 39.3416 98.0065 38.52C98.1572 37.6983 97.4024 36.8637 96.3204 36.6558C95.2384 36.4478 94.2391 36.9454 94.0883 37.767C93.9375 38.5887 94.6924 39.4233 95.7743 39.6312Z" fill="white"/>
<path fill-rule="evenodd" clip-rule="evenodd" d="M83.436 70.7446C83.436 70.7446 69.6135 69.3458 68.5465 68.0093C67.4794 66.6727 81.6318 61.7212 83.436 70.7446Z" fill="white"/>
<path fill-rule="evenodd" clip-rule="evenodd" d="M90.541 72.487C90.541 72.487 103.918 76.3149 105.386 75.4657C106.854 74.6162 95.4214 64.748 90.541 72.487Z" fill="white"/>
<path fill-rule="evenodd" clip-rule="evenodd" d="M69.9458 71.4217C69.9458 71.4217 78.3363 69.2614 79.8388 74.0772L74.3394 72.6746L69.9458 71.4217Z" fill="#29383E"/>
<path fill-rule="evenodd" clip-rule="evenodd" d="M101.585 78.1302C101.585 78.1302 94.5321 73.0025 91.4245 76.9323L97.0467 77.6669L101.585 78.1302Z" fill="#29383E"/>
<path fill-rule="evenodd" clip-rule="evenodd" d="M85.3809 145.938C85.3809 145.938 95.8376 194.14 80.512 221.897L85.1911 256.587L74.3331 224.157C74.3331 224.157 78.5255 182.251 85.3809 145.938Z" fill="#80BCBB"/>
<path fill-rule="evenodd" clip-rule="evenodd" d="M26.9411 180.132L6.2828 174.655C6.2828 174.655 -1.71567 195.811 9.30165 200.986C24.1875 205.267 26.9411 180.132 26.9411 180.132Z" fill="#80BCBB"/>
</g>
<defs>
<clipPath id="clip0_188_75">
<rect width="247.414" height="474.72" fill="white" transform="translate(-72.4924) rotate(5.98619)"/>
</clipPath>
</defs>
</svg>
