<svg width="19" height="20" viewBox="0 0 19 20" fill="none" xmlns="http://www.w3.org/2000/svg">
<path d="M9.50006 0.3125C4.25208 0.3125 6.10352e-05 4.64844 6.10352e-05 10C6.10352e-05 15.3516 4.25208 19.6875 9.50006 19.6875C14.748 19.6875 19.0001 15.3516 19.0001 10C19.0001 4.64844 14.748 0.3125 9.50006 0.3125ZM9.50006 17.8125C5.27486 17.8125 1.83877 14.3086 1.83877 10C1.83877 5.69141 5.27486 2.1875 9.50006 2.1875C13.7253 2.1875 17.1614 5.69141 17.1614 10C17.1614 14.3086 13.7253 17.8125 9.50006 17.8125ZM6.43554 9.375C7.11357 9.375 7.66135 8.81641 7.66135 8.125C7.66135 7.43359 7.11357 6.875 6.43554 6.875C5.75752 6.875 5.20974 7.43359 5.20974 8.125C5.20974 8.81641 5.75752 9.375 6.43554 9.375ZM12.5646 9.375C13.2426 9.375 13.7904 8.81641 13.7904 8.125C13.7904 7.43359 13.2426 6.875 12.5646 6.875C11.8866 6.875 11.3388 7.43359 11.3388 8.125C11.3388 8.81641 11.8866 9.375 12.5646 9.375ZM12.7178 12.2109C11.921 13.1875 10.745 13.75 9.50006 13.75C8.2551 13.75 7.07909 13.1914 6.28232 12.2109C5.95671 11.8125 5.37446 11.7617 4.98756 12.0898C4.59684 12.4219 4.54704 13.0117 4.86881 13.4102C6.018 14.8164 7.70732 15.6211 9.50006 15.6211C11.2928 15.6211 12.9821 14.8164 14.1313 13.4102C14.4569 13.0117 14.4033 12.4219 14.0126 12.0898C13.6257 11.7617 13.0434 11.8125 12.7178 12.2109Z" fill="#44D55B"/>
</svg>
